<?xml version="1.0" encoding="UTF-8"?>
<svg width="15px" height="12px" viewBox="0 0 15 12" version="1.1" xmlns="http://www.w3.org/2000/svg" xmlns:xlink="http://www.w3.org/1999/xlink">
    <title>Path</title>
    <g id="Page-1" stroke="none" stroke-width="1" fill="none" fill-rule="evenodd">
        <g id="home-page" transform="translate(-503.000000, -2587.000000)" fill="#000000" fill-rule="nonzero">
            <g id="Group-11" transform="translate(361.000000, 2572.000000)">
                <path d="M149.5,14 C149.043907,14 148.673744,14.3552227 148.673744,14.7929077 L148.673744,25.1564592 L145.481684,22.0932338 C145.158618,21.7832069 144.635546,21.7832069 144.313306,22.0932338 L144.2423,22.1613747 C143.919233,22.4714017 143.919233,22.9733614 144.2423,23.2825954 L148.915811,27.7674798 C149.238878,28.0775067 149.761949,28.0775067 150.084189,27.7674798 L154.7577,23.2825954 C155.080767,22.9725685 155.080767,22.4706088 154.7577,22.1613747 L154.686694,22.0932338 C154.363628,21.7832069 153.840556,21.7832069 153.518316,22.0932338 L150.326256,25.1564592 L150.326256,14.7929077 C150.326256,14.3552227 149.956094,14 149.5,14 Z" id="Path" transform="translate(149.500000, 21.000000) rotate(-90.000000) translate(-149.500000, -21.000000) "></path>
            </g>
        </g>
    </g>
</svg>