<svg width="58" height="58" viewBox="0 0 58 58" fill="none" xmlns="http://www.w3.org/2000/svg">
<g filter="url(#filter0_d)">
<circle cx="29" cy="25" r="25" fill="white"/>
<g clip-path="url(#clip0)">
<path fill-rule="evenodd" clip-rule="evenodd" d="M14.0162 17.3354C13.8366 17.1433 13.6249 16.984 13.3906 16.8647C13.1724 16.7575 12.9123 16.7041 12.6107 16.7041C12.3168 16.7041 12.0609 16.7575 11.8427 16.8652C11.6236 16.9724 11.4416 17.1191 11.2949 17.3059C11.1472 17.4917 11.0366 17.706 10.9614 17.949C10.8851 18.191 10.848 18.4431 10.848 18.7051C10.848 18.9671 10.8918 19.2149 10.979 19.4497C11.0662 19.6832 11.1896 19.888 11.3482 20.0629C11.5069 20.2377 11.6974 20.3745 11.9199 20.474C12.1567 20.576 12.4125 20.6267 12.6703 20.6227C12.9719 20.6227 13.2301 20.5693 13.4445 20.4621C13.6588 20.3544 13.8575 20.1977 14.04 19.9914L14.8022 20.7537C14.5393 21.0533 14.2057 21.2826 13.8318 21.4207C13.4556 21.5567 13.0584 21.6253 12.6584 21.6231C12.2215 21.6231 11.8227 21.5517 11.4611 21.4088C11.1119 21.2738 10.7939 21.069 10.5264 20.807C10.2605 20.5438 10.0534 20.2272 9.91898 19.878C9.77605 19.5169 9.70459 19.1181 9.70459 18.6813C9.70459 18.2444 9.77605 17.8437 9.91898 17.4783C10.0619 17.1129 10.262 16.7994 10.5202 16.5374C10.7784 16.2754 11.0881 16.0705 11.4492 15.9243C11.8113 15.7766 12.2139 15.7037 12.6584 15.7037C13.0714 15.7037 13.4664 15.777 13.8432 15.9243C14.2205 16.071 14.5483 16.2959 14.8261 16.597L14.0162 17.3354V17.3354ZM15.9313 12.476H17.0033V16.7041H17.0271C17.1619 16.4026 17.3959 16.1582 17.7293 15.9719C18.0628 15.7851 18.4478 15.6918 18.8842 15.6918C19.1543 15.6918 19.4144 15.7332 19.6645 15.8171C19.9147 15.9004 20.1329 16.0291 20.3196 16.2039C20.5064 16.3788 20.655 16.6027 20.766 16.8771C20.8775 17.151 20.9328 17.4745 20.9328 17.8475V21.4802H19.8608V18.1453C19.8608 17.8833 19.8251 17.6594 19.7536 17.4726C19.6822 17.2858 19.5869 17.1343 19.4678 17.02C19.3515 16.9065 19.2109 16.8209 19.0566 16.7699C18.9011 16.7177 18.7381 16.6915 18.574 16.6922C18.352 16.6922 18.1453 16.728 17.9547 16.7994C17.7641 16.8709 17.5974 16.9838 17.4545 17.1386C17.3115 17.2939 17.2005 17.4902 17.121 17.7284C17.0419 17.9666 17.0019 18.2487 17.0019 18.5741V21.4802H15.9299V12.476H15.9313ZM22.7889 16.5255C23.0915 16.2471 23.4483 16.0341 23.837 15.9C24.2194 15.7639 24.6221 15.6935 25.028 15.6918C25.4406 15.6918 25.7951 15.7432 26.0933 15.8466C26.3911 15.95 26.6355 16.0886 26.826 16.2635C27.0166 16.4383 27.1576 16.6384 27.2486 16.8647C27.3406 17.0915 27.3868 17.3268 27.3868 17.5736V20.4559C27.3868 20.6546 27.3901 20.8371 27.3982 21.0038C27.4063 21.1705 27.4182 21.3292 27.4339 21.4802H26.4811C26.4573 21.1944 26.4449 20.9085 26.4449 20.6227H26.4211C26.1829 20.9881 25.9008 21.2458 25.5754 21.3968C25.2496 21.5479 24.8722 21.6231 24.4435 21.6231C24.1814 21.6231 23.9313 21.5874 23.6931 21.5159C23.4549 21.4445 23.2453 21.3373 23.0671 21.1944C22.8885 21.0515 22.7441 20.8705 22.6445 20.6646C22.5407 20.454 22.4892 20.2096 22.4892 19.9319C22.4892 19.5665 22.5702 19.2611 22.7331 19.0148C22.8961 18.7685 23.119 18.5684 23.4001 18.4135C23.6822 18.2582 24.0118 18.1467 24.3887 18.08C24.7665 18.0124 25.17 17.9786 25.5988 17.9786H26.3849V17.7404C26.3829 17.4354 26.2632 17.1431 26.0509 16.9242C25.9324 16.8049 25.7903 16.7117 25.6336 16.6508C25.4668 16.5831 25.2682 16.5493 25.038 16.5493C24.8318 16.5493 24.6507 16.5693 24.4959 16.6089C24.341 16.6484 24.2005 16.698 24.0733 16.758C23.9456 16.8175 23.8303 16.8866 23.7274 16.9662C23.624 17.0457 23.5249 17.121 23.4297 17.1925L22.7865 16.5255H22.7889ZM25.8141 18.7646C25.5597 18.7646 25.2996 18.7789 25.0328 18.8061C24.7851 18.8301 24.5413 18.8842 24.3067 18.9671C24.1051 19.0362 23.9218 19.1502 23.7708 19.3006C23.6326 19.4435 23.5631 19.626 23.5631 19.8485C23.5631 20.1739 23.6726 20.4083 23.8904 20.5512C24.1095 20.6941 24.4049 20.7656 24.7784 20.7656C25.0723 20.7656 25.3225 20.716 25.5288 20.6165C25.7346 20.5174 25.9013 20.3878 26.029 20.2296C26.1557 20.071 26.2467 19.8942 26.3025 19.6994C26.3571 19.5118 26.3852 19.3174 26.3858 19.122V18.7646H25.8141V18.7646ZM29.1576 15.8347H30.2295V16.7041H30.2534C30.3887 16.4026 30.6226 16.1582 30.9561 15.9719C31.2896 15.7851 31.6755 15.6918 32.1114 15.6918C32.3815 15.6918 32.6416 15.7332 32.8918 15.8171C33.1419 15.9004 33.3601 16.0291 33.5468 16.2039C33.7341 16.3788 33.8827 16.6027 33.9937 16.8771C34.1052 17.151 34.1605 17.4745 34.1605 17.8475V21.4802H33.0885V18.1453C33.0885 17.8833 33.0528 17.6594 32.9813 17.4726C32.9099 17.2858 32.8146 17.1343 32.6955 17.02C32.5794 16.9065 32.4389 16.821 32.2848 16.7699C32.1295 16.7177 31.9666 16.6914 31.8027 16.6922C31.5807 16.6922 31.3739 16.728 31.1833 16.7994C30.9928 16.8709 30.826 16.9838 30.6831 17.1386C30.5402 17.2939 30.4292 17.4902 30.3496 17.7284C30.2705 17.9666 30.2305 18.2487 30.2305 18.5741V21.4802H29.1586V15.8347H29.1576ZM41.6492 21.4326C41.6492 21.8613 41.5759 22.252 41.4287 22.606C41.2865 22.9519 41.0736 23.2643 40.8036 23.5231C40.5335 23.7804 40.2081 23.9814 39.827 24.1243C39.4458 24.2673 39.0247 24.3387 38.5644 24.3387C38.0242 24.3387 37.5306 24.2634 37.0814 24.1124C36.6335 23.9614 36.2062 23.6994 35.8012 23.3263L36.5278 22.4211C36.8055 22.7227 37.1071 22.9509 37.433 23.1062C37.7584 23.2611 38.1276 23.3382 38.5406 23.3382C38.9375 23.3382 39.2672 23.2811 39.5292 23.1658C39.7912 23.0505 39.9994 22.9014 40.1542 22.7189C40.3091 22.5364 40.4182 22.3282 40.482 22.0934C40.5454 21.8599 40.5773 21.6231 40.5773 21.3849V20.5512H40.5416C40.3457 20.8833 40.0525 21.1473 39.7017 21.3073C39.3529 21.4693 38.9728 21.5527 38.5883 21.5517C38.1752 21.5517 37.7927 21.4783 37.4387 21.3316C37.0974 21.1921 36.7877 20.9856 36.5278 20.7241C36.2704 20.461 36.0679 20.1492 35.9322 19.807C35.787 19.4413 35.7142 19.0509 35.7179 18.6575C35.7179 18.2444 35.7846 17.8571 35.9203 17.4959C36.0487 17.1455 36.2449 16.8238 36.4978 16.5493C36.7514 16.2772 37.0599 16.062 37.4029 15.9181C37.7564 15.767 38.1509 15.6918 38.5883 15.6918C38.9694 15.6918 39.341 15.7751 39.7017 15.9419C40.0637 16.1086 40.3467 16.343 40.5535 16.6446H40.5773V15.8347H41.6492V21.4326V21.4326ZM38.7193 16.6922C38.4334 16.6922 38.1752 16.7418 37.9451 16.8414C37.7145 16.9404 37.5201 17.0748 37.3615 17.2463C37.2024 17.4169 37.0795 17.6227 36.9923 17.8656C36.9027 18.1199 36.8584 18.3879 36.8613 18.6575C36.8613 19.2292 37.028 19.6875 37.3615 20.0333C37.695 20.3787 38.1476 20.5512 38.7193 20.5512C39.291 20.5512 39.7436 20.3787 40.0771 20.0329C40.4106 19.6875 40.5773 19.2292 40.5773 18.6575C40.5773 18.3716 40.5335 18.1077 40.4463 17.8656C40.3666 17.6362 40.241 17.4255 40.0771 17.2463C39.9132 17.0717 39.7143 16.9338 39.4935 16.8414C39.2629 16.7413 39.0051 16.6922 38.7193 16.6922V16.6922ZM44.2905 19.0505C44.2905 19.2968 44.3443 19.5207 44.4515 19.7232C44.5587 19.9261 44.6993 20.0986 44.8741 20.2415C45.0489 20.3845 45.2514 20.4955 45.4815 20.575C45.7121 20.6546 45.9503 20.6941 46.1962 20.6941C46.5296 20.6941 46.8203 20.617 47.0656 20.4616C47.324 20.2959 47.5534 20.0888 47.7445 19.8485L48.5544 20.4678C47.9589 21.2382 47.1252 21.6231 46.0532 21.6231C45.6087 21.6231 45.2052 21.5479 44.8446 21.3968C44.4977 21.2561 44.185 21.0429 43.9275 20.7713C43.6736 20.4997 43.477 20.1797 43.3496 19.8304C43.2122 19.4547 43.1436 19.0574 43.1471 18.6575C43.1471 18.2368 43.2205 17.8456 43.3677 17.4845C43.507 17.1342 43.7134 16.8145 43.9751 16.5431C44.2371 16.2743 44.5511 16.0617 44.8979 15.9181C45.2678 15.7647 45.6648 15.6877 46.0651 15.6918C46.5654 15.6918 46.9884 15.7789 47.3338 15.9538C47.6792 16.1286 47.9627 16.3568 48.1852 16.6389C48.4077 16.92 48.5682 17.2382 48.6678 17.5917C48.7669 17.9443 48.8164 18.304 48.8164 18.6694V19.0505H44.2905V19.0505ZM47.673 18.1929C47.6679 17.9702 47.6298 17.7495 47.5601 17.5379C47.4965 17.3456 47.3929 17.169 47.2562 17.0195C47.1151 16.8684 46.9423 16.7505 46.7502 16.6741C46.5478 16.5908 46.3119 16.5493 46.0413 16.5493C45.6955 16.5472 45.3568 16.6472 45.0677 16.8368C44.7785 17.0264 44.5517 17.2971 44.4158 17.6151C44.3351 17.7971 44.2925 17.9938 44.2905 18.1929H47.673V18.1929Z" fill="#2B2B37"/>
<path fill-rule="evenodd" clip-rule="evenodd" d="M27.9287 37C27.1054 37 26.3479 36.8552 25.6571 36.5655C24.9654 36.2758 24.3732 35.8771 23.8801 35.3687C23.3806 34.8503 22.9873 34.2392 22.7224 33.5698C22.4423 32.879 22.3031 32.131 22.3031 31.3287C22.3031 30.526 22.4423 29.7789 22.7224 29.0877C23.0011 28.3969 23.3875 27.7966 23.8801 27.2887C24.3732 26.7804 24.9654 26.3816 25.6571 26.092C26.3479 25.8023 27.1054 25.6575 27.9282 25.6575C28.7514 25.6575 29.5085 25.8023 30.1997 26.092C30.8905 26.3816 31.4827 26.7804 31.9758 27.2887C32.4684 27.7971 32.8548 28.3964 33.1345 29.0877C33.4136 29.7785 33.5537 30.5264 33.5537 31.3287C33.5537 32.1315 33.4136 32.8785 33.1345 33.5698C32.8548 34.2606 32.4684 34.8609 31.9758 35.3687C31.4827 35.8771 30.8905 36.2758 30.1997 36.5655C29.5089 36.8552 28.7514 37 27.9282 37H27.9287ZM27.9287 35.6279C28.548 35.6279 29.1073 35.5136 29.6057 35.2849C30.0898 35.066 30.5252 34.7524 30.8863 34.3625C31.2478 33.9664 31.5276 33.5027 31.7095 32.9981C31.9025 32.474 31.9992 31.9181 31.9992 31.3287C31.9992 30.7394 31.9029 30.1829 31.71 29.6594C31.5281 29.1548 31.2483 28.6911 30.8867 28.2949C30.5257 27.9051 30.0903 27.5915 29.6061 27.3726C29.1078 27.1439 28.5485 27.0295 27.9291 27.0295C27.3088 27.0295 26.75 27.1439 26.2522 27.3726C25.7678 27.5911 25.3323 27.9048 24.9716 28.2949C24.6093 28.6908 24.3292 29.1545 24.1474 29.6594C23.9544 30.1834 23.8582 30.7394 23.8582 31.3287C23.8582 31.9181 23.9544 32.4745 24.1478 32.9981C24.3297 33.5029 24.6098 33.9667 24.972 34.3625C25.3325 34.7528 25.7679 35.0664 26.2522 35.2849C26.75 35.5136 27.3088 35.6279 27.9291 35.6279H27.9287ZM10.5562 25.9319H12.4771L18.4227 34.8047H18.4532V25.9319H19.9168V36.7256H18.0568L12.0502 27.8528H12.0197V36.7256H10.5562V25.9319ZM34.568 25.9319H36.0925L38.4708 34.5607H38.5013L41.0468 25.9319H42.7238L45.2697 34.5607H45.3002L47.679 25.9319H49.2035L46.0625 36.7256H44.5237L41.901 27.9138H41.8705L39.264 36.7256H37.7238" fill="#3BEE81"/>
</g>
</g>
<defs>
<filter id="filter0_d" x="0" y="0" width="58" height="58" filterUnits="userSpaceOnUse" color-interpolation-filters="sRGB">
<feFlood flood-opacity="0" result="BackgroundImageFix"/>
<feColorMatrix in="SourceAlpha" type="matrix" values="0 0 0 0 0 0 0 0 0 0 0 0 0 0 0 0 0 0 127 0"/>
<feOffset dy="4"/>
<feGaussianBlur stdDeviation="2"/>
<feColorMatrix type="matrix" values="0 0 0 0 0.0196078 0 0 0 0 0.133333 0 0 0 0 0.207843 0 0 0 0.07 0"/>
<feBlend mode="normal" in2="BackgroundImageFix" result="effect1_dropShadow"/>
<feBlend mode="normal" in="SourceGraphic" in2="effect1_dropShadow" result="shape"/>
</filter>
<clipPath id="clip0">
<rect width="40.625" height="40.625" fill="white" transform="translate(9 5)"/>
</clipPath>
</defs>
</svg>
