<?xml version="1.0" encoding="UTF-8"?>
<svg width="16px" height="16px" viewBox="0 0 16 16" version="1.1" xmlns="http://www.w3.org/2000/svg" xmlns:xlink="http://www.w3.org/1999/xlink">
    <title>icons8-rocket</title>
    <g id="Page-1" stroke="none" stroke-width="1" fill="none" fill-rule="evenodd">
        <g id="home-page" transform="translate(-848.000000, -1108.000000)" fill="#25435a" fill-rule="nonzero">
            <g id="icons8-rocket" transform="translate(848.000000, 1108.000000)">
                <path d="M14.6845869,0.00618574747 C14.573628,-0.00396073449 14.4614552,-0.00180883381 14.3483568,0.014005134 C12.5166281,0.270985073 8.58128447,0.837197425 4.54920694,5.60488084 L2.44737842,5.60488084 L0.304889494,7.83497538 C0.00703036693,8.13283847 -0.0820471274,8.57728143 0.0796935814,8.96722585 C0.240633594,9.35717027 0.617936794,9.60841699 1.03990389,9.60841699 L3.00880428,9.60841699 C2.74453742,9.90802882 2.60990646,10.226868 2.47396403,10.5795876 C2.32340089,10.9702414 2.19803871,11.3955899 2.09394591,11.796287 C1.8857604,12.5976805 1.76240748,13.3116879 1.76240748,13.3116879 L1.56379718,14.4361187 L2.6882129,14.2375057 C2.6882129,14.2375057 3.40221053,14.1141503 4.20359371,13.9059632 C4.60428534,13.8018689 5.02962809,13.6765046 5.42027722,13.5259396 C5.77299175,13.3899955 6.09182673,13.2553622 6.39143457,12.991092 L6.39143457,14.960019 C6.39143457,15.3819917 6.64267795,15.7601001 7.03261718,15.9202416 C7.16473212,15.9754912 7.30233983,16 7.43765755,16 C7.70268812,16 7.95891102,15.9017885 8.13826706,15.7216293 L10.3949175,13.6651249 L10.3949175,11.450669 C15.1605674,7.41902559 15.7280667,3.48307441 15.9857189,1.65138889 C16.0489739,1.19658718 15.9002693,0.749592367 15.5759872,0.425305938 C15.3321751,0.181490587 15.0174637,0.0366251133 14.6845869,0.00618574747 Z M11.5959623,3.20275914 C12.2589391,3.20275914 12.7970072,3.7408344 12.7970072,4.40381999 C12.7970072,5.06680558 12.2589391,5.60488084 11.5959623,5.60488084 C10.9329856,5.60488084 10.3949175,5.06680558 10.3949175,4.40381999 C10.3949175,3.7408344 10.9329856,3.20275914 11.5959623,3.20275914 Z M8.39317602,6.40558807 C9.05615278,6.40558807 9.59422088,6.94366332 9.59422088,7.60664891 C9.59422088,8.2696345 9.05615278,8.80770976 8.39317602,8.80770976 C7.73019925,8.80770976 7.19213115,8.2696345 7.19213115,7.60664891 C7.19213115,6.94366332 7.73019925,6.40558807 8.39317602,6.40558807 Z M4.50229109,10.3653351 L5.63452609,11.4975856 L5.35615888,11.7759563 C5.37066678,11.7614475 5.14338962,11.9167382 4.84321264,12.0324332 C4.54303581,12.1481282 4.16419143,12.2600102 3.80011774,12.354593 C3.69598499,12.3816481 3.70113235,12.3744321 3.60150744,12.3983812 C3.62545387,12.2987548 3.618244,12.3039026 3.64529553,12.1997682 C3.73987557,11.8356898 3.8517573,11.45684 3.96745075,11.1566597 C4.08314428,10.8564785 4.23843194,10.6291978 4.22392396,10.6437066 L4.50229109,10.3653351 Z" id="Shape"></path>
            </g>
        </g>
    </g>
</svg>