<svg width="58" height="58" viewBox="0 0 58 58" fill="none" xmlns="http://www.w3.org/2000/svg">
<g filter="url(#filter0_d)">
<circle cx="29" cy="25" r="25" fill="white"/>
<path fill-rule="evenodd" clip-rule="evenodd" d="M29.2168 32.5125C29.3994 32.6021 29.4907 32.6918 29.6733 32.7814C29.582 32.7814 29.3994 32.6918 29.2168 32.5125Z" fill="white"/>
<path fill-rule="evenodd" clip-rule="evenodd" d="M24.1951 33.3193L19.5386 42.5538C19.356 42.9124 19.4473 43.3607 19.8125 43.54C19.9951 43.6297 20.0864 43.7193 20.269 43.7193C20.4516 43.7193 20.7255 43.6297 20.8168 43.4504L28.1212 35.6504C26.3864 34.9331 25.0168 33.9469 24.1951 33.3193Z" fill="url(#paint0_linear)"/>
<mask id="mask0" mask-type="alpha" maskUnits="userSpaceOnUse" x="14" y="17" width="32" height="21">
<path fill-rule="evenodd" clip-rule="evenodd" d="M14.7905 19.081V19.1707C14.7905 19.35 14.7905 19.5293 14.7905 19.619C14.7905 19.7086 14.8818 19.7983 14.8818 19.8879C14.9731 20.2466 15.0644 20.6052 15.247 20.9638C15.521 21.681 15.8862 22.4879 16.434 23.3845C17.2557 24.819 18.3514 26.1638 19.721 27.5983C22.0949 30.1086 24.834 32.2603 28.0297 34.1431C29.5818 35.1293 31.2253 35.8465 32.8688 36.4741C34.8775 37.1914 36.521 37.6397 38.1644 37.7293H38.2557C38.4384 37.7293 38.621 37.7293 38.7123 37.7293C39.3514 37.7293 40.1731 37.7293 40.9949 37.4603C42.0905 37.1017 43.0036 36.4741 43.5514 35.5776C44.2818 34.5017 44.2818 33.2465 44.1905 32.4397C44.0992 31.8121 43.9166 31.0052 43.734 30.4672L45.2862 30.6466L40.9036 27.0603L41.1775 32.619L41.9992 31.3638C42.0905 31.8121 42.1818 32.2603 42.2731 32.5293C42.3644 33.3362 42.2731 33.9638 41.9992 34.5017C41.634 35.0397 41.0862 35.3983 40.447 35.6672C39.8079 35.9362 38.9862 35.9362 38.1644 35.9362C36.7036 35.8465 35.0601 35.5776 33.234 34.95C31.6818 34.4121 30.1297 33.6948 28.5775 32.8879C25.4731 31.1845 22.6427 29.1224 20.2688 26.7914C18.8992 25.4466 17.8949 24.1914 16.9818 22.8466C16.6166 22.219 16.1601 21.5017 15.8862 20.7845C15.7949 20.4259 15.7036 20.1569 15.6123 19.7983C15.6123 19.7086 15.521 19.5293 15.521 19.4397C15.3384 18.9017 14.9731 17.9155 14.9731 17.7362C14.7905 18.2741 14.7905 18.7224 14.7905 19.081Z" fill="white"/>
</mask>
<g mask="url(#mask0)">
<path fill-rule="evenodd" clip-rule="evenodd" d="M14.7905 19.081V19.1707C14.7905 19.35 14.7905 19.5293 14.7905 19.619C14.7905 19.7086 14.8818 19.7983 14.8818 19.8879C14.9731 20.2466 15.0644 20.6052 15.247 20.9638C15.521 21.681 15.8862 22.4879 16.434 23.3845C17.2557 24.819 18.3514 26.1638 19.721 27.5983C22.0949 30.1086 24.834 32.2603 28.0297 34.1431C29.5818 35.1293 31.2253 35.8465 32.8688 36.4741C34.8775 37.1914 36.521 37.6397 38.1644 37.7293H38.2557C38.4384 37.7293 38.621 37.7293 38.7123 37.7293C39.3514 37.7293 40.1731 37.7293 40.9949 37.4603C42.0905 37.1017 43.0036 36.4741 43.5514 35.5776C44.2818 34.5017 44.2818 33.2465 44.1905 32.4397C44.0992 31.8121 43.9166 31.0052 43.734 30.4672L45.2862 30.6466L40.9036 27.0603L41.1775 32.619L41.9992 31.3638C42.0905 31.8121 42.1818 32.2603 42.2731 32.5293C42.3644 33.3362 42.2731 33.9638 41.9992 34.5017C41.634 35.0397 41.0862 35.3983 40.447 35.6672C39.8079 35.9362 38.9862 35.9362 38.1644 35.9362C36.7036 35.8465 35.0601 35.5776 33.234 34.95C31.6818 34.4121 30.1297 33.6948 28.5775 32.8879C25.4731 31.1845 22.6427 29.1224 20.2688 26.7914C18.8992 25.4466 17.8949 24.1914 16.9818 22.8466C16.6166 22.219 16.1601 21.5017 15.8862 20.7845C15.7949 20.4259 15.7036 20.1569 15.6123 19.7983C15.6123 19.7086 15.521 19.5293 15.521 19.4397C15.3384 18.9017 14.9731 17.9155 14.9731 17.7362C14.7905 18.2741 14.7905 18.7224 14.7905 19.081Z" fill="url(#paint1_linear)"/>
</g>
<mask id="mask1" mask-type="alpha" maskUnits="userSpaceOnUse" x="14" y="11" width="27" height="16">
<path fill-rule="evenodd" clip-rule="evenodd" d="M14.7905 16.6409H20.0862L18.8079 15.4754C19.5384 15.4754 20.4514 15.3857 20.8166 15.4754C21.9123 15.565 22.9166 15.7443 24.1036 16.103C26.1123 16.7305 28.2123 17.6271 30.3123 18.7926C32.321 19.8685 34.2384 21.2133 35.9731 22.6478C37.3427 23.8133 38.9862 25.2478 38.9862 25.2478C39.2601 25.5167 40.721 26.8616 40.721 26.8616C40.4471 25.8754 39.7166 24.8892 39.7166 24.8892C38.8036 23.7236 38.0731 23.0961 36.7036 21.9305C34.9688 20.3167 33.0514 18.8823 31.0427 17.7167C28.9427 16.3719 26.7514 15.3857 24.6514 14.6685C23.4644 14.2202 22.2775 13.9512 21.0905 13.8616C20.0862 13.7719 18.9905 13.8616 17.8949 14.0409L18.1688 11.8892L14.7905 16.6409Z" fill="white"/>
</mask>
<g mask="url(#mask1)">
<path fill-rule="evenodd" clip-rule="evenodd" d="M14.7905 16.6409H20.0862L18.8079 15.4754C19.5384 15.4754 20.4514 15.3857 20.8166 15.4754C21.9123 15.565 22.9166 15.7443 24.1036 16.103C26.1123 16.7305 28.2123 17.6271 30.3123 18.7926C32.321 19.8685 34.2384 21.2133 35.9731 22.6478C37.3427 23.8133 38.9862 25.2478 38.9862 25.2478C39.2601 25.5167 40.721 26.8616 40.721 26.8616C40.4471 25.8754 39.7166 24.8892 39.7166 24.8892C38.8036 23.7236 38.0731 23.0961 36.7036 21.9305C34.9688 20.3167 33.0514 18.8823 31.0427 17.7167C28.9427 16.3719 26.7514 15.3857 24.6514 14.6685C23.4644 14.2202 22.2775 13.9512 21.0905 13.8616C20.0862 13.7719 18.9905 13.8616 17.8949 14.0409L18.1688 11.8892L14.7905 16.6409Z" fill="url(#paint2_linear)"/>
</g>
<path fill-rule="evenodd" clip-rule="evenodd" d="M36.7034 7.85728C36.886 7.49866 36.7947 7.05039 36.4295 6.87108C36.0643 6.69177 35.699 6.69177 35.4251 7.05039L21.8208 22.8297L21.5469 23.0987C21.3643 23.278 21.3643 23.4573 21.3643 23.7262C21.3643 23.9056 21.5469 24.1745 21.7295 24.2642L24.4686 26.0573L26.6599 27.4918C26.7512 27.5814 26.8425 27.7607 26.7512 27.8504L26.6599 27.94L25.2903 30.3607C26.0208 30.9883 27.4816 32.2435 29.7643 33.3194L31.5903 31.6159L35.7903 27.1331C35.973 26.9538 36.0643 26.6849 35.973 26.5056C35.973 26.2366 35.7903 26.0573 35.6077 25.9676L30.1295 22.74C30.0382 22.6504 29.9469 22.4711 30.0382 22.3814L36.7034 7.85728Z" fill="url(#paint3_linear)"/>
</g>
<defs>
<filter id="filter0_d" x="0" y="0" width="58" height="58" filterUnits="userSpaceOnUse" color-interpolation-filters="sRGB">
<feFlood flood-opacity="0" result="BackgroundImageFix"/>
<feColorMatrix in="SourceAlpha" type="matrix" values="0 0 0 0 0 0 0 0 0 0 0 0 0 0 0 0 0 0 127 0"/>
<feOffset dy="4"/>
<feGaussianBlur stdDeviation="2"/>
<feColorMatrix type="matrix" values="0 0 0 0 0.0196078 0 0 0 0 0.133333 0 0 0 0 0.207843 0 0 0 0.07 0"/>
<feBlend mode="normal" in2="BackgroundImageFix" result="effect1_dropShadow"/>
<feBlend mode="normal" in="SourceGraphic" in2="effect1_dropShadow" result="shape"/>
</filter>
<linearGradient id="paint0_linear" x1="33.2543" y1="7.84232" x2="18.1431" y2="42.5333" gradientUnits="userSpaceOnUse">
<stop stop-color="#B1FFBF"/>
<stop offset="1" stop-color="#FFF16D"/>
</linearGradient>
<linearGradient id="paint1_linear" x1="14.8217" y1="24.8227" x2="37.549" y2="38.826" gradientUnits="userSpaceOnUse">
<stop stop-color="#BBFFC3"/>
<stop offset="1" stop-color="#FFF279"/>
</linearGradient>
<linearGradient id="paint2_linear" x1="16.6075" y1="17.3955" x2="35.9065" y2="26.2439" gradientUnits="userSpaceOnUse">
<stop stop-color="#BBFFC3"/>
<stop offset="1" stop-color="#FFF279"/>
</linearGradient>
<linearGradient id="paint3_linear" x1="30.9893" y1="7.97428" x2="17.9747" y2="40.7059" gradientUnits="userSpaceOnUse">
<stop stop-color="#B1FFBF"/>
<stop offset="1" stop-color="#FFF16D"/>
</linearGradient>
</defs>
</svg>
