<?xml version="1.0" encoding="UTF-8"?>
<svg width="20px" height="22px" viewBox="0 0 20 22" version="1.1" xmlns="http://www.w3.org/2000/svg" xmlns:xlink="http://www.w3.org/1999/xlink">
    <title>icons8-google-play (2)</title>
    <g id="Page-1" stroke="none" stroke-width="1" fill="none" fill-rule="evenodd">
        <g id="home-page" transform="translate(-573.000000, -5238.000000)" fill-rule="nonzero">
            <g id="icons8-google-play-(2)" transform="translate(573.000000, 5238.000000)">
                <path d="M0.402603362,0.019364522 C0.166752031,0.0782336804 0,0.274647601 0,0.612457538 C0,1.60388019 0,10.9530728 0,10.9530728 C0,10.9530728 0,21.0565609 0,21.5027561 C0,21.7481359 0.112500514,21.9126395 0.285534299,21.9737094 L11.8102697,10.9349169 L0.402603362,0.019364522 Z" id="Path" fill="#4DB6AC"></path>
                <path d="M14.9831268,7.89627799 L10.23926,5.25761926 C10.23926,5.25761926 1.53331919,0.41439308 1.02164172,0.129950511 C0.800067106,0.0067104038 0.581918902,-0.0257501602 0.402603362,0.019364522 L11.8108408,10.9349169 L14.9831268,7.89627799 Z" id="Path" fill="#DCE775"></path>
                <path d="M0.809204204,21.8939334 C1.1130127,21.7244782 9.53741666,17.0386033 15.0088249,13.9950128 L11.8102697,10.9349169 L0.285534299,21.9737094 C0.427159312,22.0237756 0.608759126,22.0050696 0.809204204,21.8939334 Z" id="Path" fill="#D32F2F"></path>
                <path d="M19.6436176,10.4881715 C19.189047,10.2521447 15.017962,7.91553426 15.017962,7.91553426 L14.9831268,7.89627799 L11.8102697,10.9349169 L15.0088249,13.9950128 C17.5398009,12.5871046 19.4408883,11.5302106 19.6110667,11.4350296 C20.1501555,11.1357322 20.0981883,10.7241983 19.6436176,10.4881715 Z" id="Path" fill="#FBC02D"></path>
            </g>
        </g>
    </g>
</svg>