<?xml version="1.0" encoding="UTF-8"?>
<svg width="15px" height="15px" viewBox="0 0 15 15" version="1.1" xmlns="http://www.w3.org/2000/svg" xmlns:xlink="http://www.w3.org/1999/xlink">
    <title>Group 12</title>
    <defs>
        <polygon id="path-1" points="0 0 11.25 0 11.25 6.75 0 6.75"></polygon>
        <polygon id="path-3" points="0 0 11.25 0 11.25 6.75 0 6.75"></polygon>
    </defs>
    <g id="Page-1" stroke="none" stroke-width="1" fill="none" fill-rule="evenodd">
        <g id="new-color" transform="translate(-493.000000, -1095.000000)">
            <g id="Group-12" transform="translate(493.000000, 1095.000000)">
                <rect id="Rectangle" fill="#041926" x="0" y="0" width="15" height="15" rx="2.295"></rect>
                <g id="Group-9" transform="translate(0.583101, 1.416828)">
                    <g id="Group-3" transform="translate(2.555291, 5.704501)">
                        <mask id="mask-2" fill="white">
                            <use xlink:href="#path-1"></use>
                        </mask>
                        <g id="Clip-2"></g>
                        <path d="M1.5,3.227169 C1.5,3.45507734 1.67987814,3.64004643 1.90151372,3.64004643 L8.99646182,3.64004643 L7.73350043,5.00729004 C7.65982266,5.08718182 7.62308415,5.18936899 7.62308415,5.29155615 C7.62308415,5.40076223 7.66504234,5.50976187 7.74795492,5.59109873 C7.90876116,5.74819859 8.16291934,5.74138611 8.31569531,5.5760287 L10.2228855,3.51164155 C10.3698395,3.3524773 10.3698395,3.10227358 10.2228855,2.94290289 L8.31569531,0.878515744 C8.16291934,0.713158333 7.90876116,0.706552294 7.74795492,0.863445717 C7.58755019,1.02054558 7.58092521,1.28189699 7.73350043,1.4472544 L8.99646182,2.81429157 L1.90151372,2.81429157 C1.67987814,2.81429157 1.5,2.99926066 1.5,3.227169" id="Fill-1" fill="#C1FCAE" mask="url(#mask-2)"></path>
                    </g>
                    <g id="Group-6">
                        <mask id="mask-4" fill="white">
                            <use xlink:href="#path-3"></use>
                        </mask>
                        <g id="Clip-5"></g>
                        <path d="M9.75,3.522831 C9.75,3.29492266 9.57012186,3.10995357 9.34848628,3.10995357 L2.25353818,3.10995357 L3.51649957,1.74270996 C3.59017734,1.66281818 3.62691585,1.56063101 3.62691585,1.45844385 C3.62691585,1.34923777 3.58495766,1.24023813 3.50204508,1.15890127 C3.34123884,1.00180141 3.08708066,1.00861389 2.93430469,1.1739713 L1.02711454,3.23835845 C0.880160522,3.3975227 0.880160522,3.64772642 1.02711454,3.80709711 L2.93430469,5.87148426 C3.08708066,6.03684167 3.34123884,6.04344771 3.50204508,5.88655428 C3.66244981,5.72945442 3.66907479,5.46810301 3.51649957,5.3027456 L2.25353818,3.93570843 L9.34848628,3.93570843 C9.57012186,3.93570843 9.75,3.75073934 9.75,3.522831" id="Fill-4" fill="#C1FCAE" mask="url(#mask-4)"></path>
                    </g>
                </g>
            </g>
        </g>
    </g>
</svg>