<?xml version="1.0" encoding="UTF-8"?>
<svg width="15px" height="15px" viewBox="0 0 15 15" version="1.1" xmlns="http://www.w3.org/2000/svg" xmlns:xlink="http://www.w3.org/1999/xlink">
    <title>icons8-wallet (3)</title>
    <g id="Page-1" stroke="none" stroke-width="1" fill="none" fill-rule="evenodd">
        <g id="home-page" transform="translate(-1176.000000, -1108.000000)" fill="#25435a" fill-rule="nonzero">
            <g id="icons8-wallet-(3)" transform="translate(1176.000000, 1108.000000)">
                <path d="M13.2692308,3.46153846 C13.2692308,3.46153846 3.25420673,3.46153846 1.527945,3.46153846 C1.02088327,3.46153846 0.570162115,3.36012635 0.570162115,2.88461538 L13.2692308,2.30769231 L13.2692308,1.15384615 C13.2692308,0.198317308 12.4939904,0 11.5384615,0 L1.16511404,1.73076923 C0.241135962,1.9358475 0,2.32797462 0,2.88461538 L0,13.2692308 C0,14.2247596 0.775240385,15 1.73076923,15 L13.2692308,15 C14.2247596,15 15,14.2247596 15,13.2692308 L15,5.19230769 C15,4.23677885 14.2247596,3.46153846 13.2692308,3.46153846 Z M12.6923077,10.3846154 C12.0545371,10.3846154 11.5384615,9.86853981 11.5384615,9.23076923 C11.5384615,8.59299865 12.0545371,8.07692308 12.6923077,8.07692308 C13.3300783,8.07692308 13.8461538,8.59299865 13.8461538,9.23076923 C13.8461538,9.86853981 13.3300783,10.3846154 12.6923077,10.3846154 Z" id="Shape"></path>
            </g>
        </g>
    </g>
</svg>