<?xml version="1.0" encoding="UTF-8"?>
<svg width="13px" height="10px" viewBox="0 0 13 10" version="1.1" xmlns="http://www.w3.org/2000/svg" xmlns:xlink="http://www.w3.org/1999/xlink">
    <title>icons8-down-arrow copy</title>
    <g id="Nwtwork-page-new" stroke="none" stroke-width="1" fill="none" fill-rule="evenodd">
        <g id="Network-page-new-Copy-2" transform="translate(-934.000000, -2844.000000)" fill="#54A0B9" fill-rule="nonzero">
            <g id="icons8-down-arrow-copy" transform="translate(940.500000, 2849.000000) rotate(-90.000000) translate(-940.500000, -2849.000000) translate(936.000000, 2843.000000)">
                <path d="M4.61040084,0.482239288 C4.2555437,0.482239288 3.9675437,0.751039288 3.9675437,1.08223929 L3.9675437,8.92442649 L1.48400578,6.60645789 C1.23264857,6.37185789 0.825679888,6.37185789 0.574965538,6.60645789 L0.519720067,6.65802069 C0.26836286,6.89262069 0.26836286,7.27245789 0.519720067,7.50645789 L4.15588091,10.9002079 C4.40723805,11.1348079 4.81420648,11.1348079 5.06492077,10.9002079 L8.70108148,7.50645789 C8.95243862,7.27185789 8.95243862,6.89202069 8.70108148,6.65802069 L8.64583627,6.60645789 C8.39447912,6.37185789 7.98751005,6.37185789 7.73679577,6.60645789 L5.25325798,8.92442649 L5.25325798,1.08223929 C5.25325798,0.751039288 4.96525798,0.482239288 4.61040084,0.482239288 Z" id="Path"></path>
            </g>
        </g>
    </g>
</svg>