<?xml version="1.0" encoding="UTF-8"?>
<svg width="108px" height="330px" viewBox="0 0 108 330" version="1.1" xmlns="http://www.w3.org/2000/svg" xmlns:xlink="http://www.w3.org/1999/xlink">
    <!-- Generator: Sketch 59.1 (86144) - https://sketch.com -->
    <title>Path 16</title>
    <desc>Created with Sketch.</desc>
    <g id="fuse-web-5" stroke="none" stroke-width="1" fill="none" fill-rule="evenodd">
        <g id="3.3" transform="translate(-831.000000, -3401.000000)" fill="#B4C2CA" fill-rule="nonzero">
            <path id="Path-16" d="M856.588478,3716.40247 L856.969854,3730.39728 L842.784362,3723.78125 L856.588478,3716.40247 Z M866.650563,3721.39157 C867.198003,3721.31857 867.700963,3721.70319 867.773956,3722.25063 C867.846949,3722.79807 867.462334,3723.30103 866.914894,3723.37402 C864.945651,3723.63659 862.945573,3723.85894 860.910096,3724.04385 C860.360076,3724.09381 859.873692,3723.68844 859.823727,3723.13842 C859.773762,3722.5884 860.179137,3722.10201 860.729157,3722.05205 C862.737319,3721.86963 864.709637,3721.65036 866.650563,3721.39157 Z M878.342728,3719.24562 C878.879865,3719.11715 879.41944,3719.44845 879.547902,3719.98559 C879.676365,3720.52272 879.345069,3721.0623 878.807932,3721.19076 C876.870043,3721.65423 874.895176,3722.06833 872.882343,3722.43553 C872.339025,3722.53465 871.818229,3722.17455 871.719112,3721.63123 C871.619996,3721.08791 871.980092,3720.56712 872.52341,3720.468 C874.501197,3720.1072 876.44066,3719.70052 878.342728,3719.24562 Z M889.708264,3715.76608 C890.224324,3715.56936 890.80215,3715.82823 890.998874,3716.34429 C891.195598,3716.86035 890.936724,3717.43818 890.420664,3717.6349 C888.552024,3718.34723 886.638272,3719.00095 884.679769,3719.59833 C884.151511,3719.75946 883.592653,3719.46185 883.431524,3718.93359 C883.270395,3718.40533 883.568011,3717.84647 884.096269,3717.68535 C886.011913,3717.10104 887.882693,3716.46199 889.708264,3715.76608 Z M900.441599,3710.70238 C900.920328,3710.42699 901.531658,3710.59183 901.807044,3711.07056 C902.08243,3711.54929 901.917588,3712.16062 901.43886,3712.43601 C899.69439,3713.4395 897.896199,3714.37581 896.04529,3715.24703 C895.545593,3715.48224 894.949837,3715.26783 894.714631,3714.76813 C894.479425,3714.26843 894.693836,3713.67268 895.193533,3713.43747 C896.995459,3712.58931 898.745108,3711.67827 900.441599,3710.70238 Z M910.129685,3703.92028 C910.551255,3703.5635 911.182239,3703.61601 911.539025,3704.03758 C911.895812,3704.45915 911.843295,3705.09014 911.421724,3705.44693 C909.872411,3706.75815 908.26244,3707.99645 906.593088,3709.16366 C906.140468,3709.48013 905.516997,3709.36976 905.200527,3708.91714 C904.884057,3708.46452 904.994428,3707.84104 905.447048,3707.52457 C907.066372,3706.39235 908.62761,3705.19153 910.129685,3703.92028 Z M918.360801,3695.50822 C918.708452,3695.07909 919.338162,3695.01303 919.767297,3695.36068 C920.196432,3695.70833 920.262488,3696.33804 919.914836,3696.76718 C918.626669,3698.35727 917.27504,3699.87377 915.861198,3701.31816 C915.474868,3701.71283 914.84174,3701.7196 914.447065,3701.33327 C914.05239,3700.94694 914.045624,3700.31381 914.431953,3699.91914 C915.802114,3698.51938 917.112092,3697.04961 918.360801,3695.50822 Z M924.948215,3685.67943 C925.214562,3685.19562 925.82269,3685.01932 926.306505,3685.28567 C926.79032,3685.55202 926.966613,3686.16015 926.700265,3686.64396 C925.707567,3688.44718 924.653487,3690.18125 923.539052,3691.84729 C923.231987,3692.30634 922.610925,3692.42955 922.151873,3692.12249 C921.69282,3691.81542 921.56961,3691.19436 921.876676,3690.73531 C922.959032,3689.11722 923.983204,3687.43236 924.948215,3685.67943 Z M929.825442,3674.87411 C930.014455,3674.35517 930.588359,3674.08772 931.107293,3674.27673 C931.626228,3674.46574 931.893682,3675.03965 931.704669,3675.55858 C930.998872,3677.49634 930.237205,3679.37244 929.420446,3681.18772 C929.193834,3681.69137 928.601838,3681.91595 928.098186,3681.68934 C927.594534,3681.46273 927.369948,3680.87073 927.59656,3680.36708 C928.393101,3678.59674 929.136329,3676.76606 929.825442,3674.87411 Z M933.147927,3663.47973 C933.269845,3662.94107 933.805348,3662.60323 934.344009,3662.72515 C934.882669,3662.84706 935.220505,3663.38257 935.098588,3663.92123 C934.643596,3665.93149 934.139355,3667.88817 933.586445,3669.79187 C933.432405,3670.32224 932.877583,3670.62731 932.347215,3670.47327 C931.816847,3670.31923 931.511772,3669.76441 931.665812,3669.23404 C932.207474,3667.36907 932.701718,3665.45119 933.147927,3663.47973 Z M936.150997,3650.87509 L936.267583,3650.88239 C936.815883,3650.94862 937.206682,3651.44679 937.140458,3651.99509 C936.893955,3654.036 936.604594,3656.03074 936.272808,3657.97978 C936.180125,3658.52424 935.663626,3658.89047 935.119173,3658.79779 C934.574721,3658.7051 934.208489,3658.1886 934.301171,3657.64415 C934.627501,3655.72716 934.912228,3653.76436 935.154888,3651.75527 C935.221113,3651.20697 935.719283,3650.81617 936.267583,3650.88239 Z M937.113347,3638.90635 C937.665243,3638.92705 938.095866,3639.39123 938.075169,3639.94312 C937.998367,3641.99111 937.884249,3643.99923 937.733145,3645.96782 C937.690877,3646.51849 937.21021,3646.93063 936.659545,3646.88836 C936.10888,3646.84609 935.696743,3646.36542 935.739011,3645.81476 C935.888105,3643.87236 936.000743,3641.89028 936.076574,3639.86817 C936.097271,3639.31628 936.56145,3638.88565 937.113347,3638.90635 Z M936.968568,3626.8987 C937.519864,3626.86566 937.993564,3627.28578 938.026607,3627.83708 C938.137386,3629.68531 938.193164,3631.57691 938.193359,3633.51355 L938.193359,3633.51355 L938.192939,3633.91301 C938.191745,3634.46529 937.743063,3634.91204 937.19078,3634.91085 C936.638496,3634.90965 936.19175,3634.46097 936.192944,3633.90869 L936.192944,3633.90869 L936.18672,3632.38085 C936.169176,3630.87767 936.116889,3629.40323 936.03019,3627.95674 C935.997147,3627.40544 936.417273,3626.93174 936.968568,3626.8987 Z M935.214507,3615.02323 C935.754212,3614.90603 936.286742,3615.24853 936.403946,3615.78824 C936.825737,3617.73051 937.173719,3619.72671 937.447109,3621.77969 C937.520012,3622.32714 937.135314,3622.83004 936.587862,3622.90294 C936.04041,3622.97584 935.537513,3622.59114 935.464611,3622.04369 C935.198343,3620.0442 934.859691,3618.10152 934.449502,3616.21267 C934.332297,3615.67297 934.674801,3615.14044 935.214507,3615.02323 Z M931.426372,3603.6132 C931.93495,3603.39787 932.521793,3603.63559 932.737123,3604.14417 C933.521305,3605.9963 934.222073,3607.90245 934.838859,3609.86686 C935.004303,3610.39379 934.711266,3610.95506 934.184344,3611.1205 C933.657422,3611.28595 933.096149,3610.99291 932.930706,3610.46599 C932.333136,3608.56278 931.654532,3606.71691 930.895399,3604.92395 C930.680069,3604.41537 930.917794,3603.82853 931.426372,3603.6132 Z M925.513335,3593.18536 C925.969986,3592.87473 926.591986,3592.99311 926.902612,3593.44976 C928.050057,3595.13662 929.110335,3596.86877 930.083968,3598.65227 C930.3486,3599.13703 930.170155,3599.74453 929.6854,3600.00916 C929.200644,3600.27379 928.593145,3600.09535 928.328512,3599.61059 C927.386323,3597.88468 926.360046,3596.20808 925.248933,3594.57463 C924.938307,3594.11798 925.056684,3593.49598 925.513335,3593.18536 Z M917.762126,3584.01609 C918.158275,3583.63127 918.791374,3583.64046 919.176191,3584.03661 C920.613895,3585.51665 921.966151,3587.02343 923.236427,3588.56539 C923.587589,3588.99166 923.526704,3589.62189 923.100437,3589.97305 C922.674169,3590.32421 922.043939,3590.26332 921.692777,3589.83706 C920.4578,3588.33795 919.141943,3586.87173 917.741607,3585.43015 C917.35679,3585.034 917.365977,3584.40091 917.762126,3584.01609 Z M908.74287,3576.08151 C909.087035,3575.64958 909.71619,3575.57842 910.148126,3575.92259 C911.775153,3577.219 913.315555,3578.51584 914.779821,3579.82584 C915.191425,3580.19408 915.226578,3580.82627 914.858339,3581.23787 C914.490099,3581.64947 913.85791,3581.68463 913.446306,3581.31639 C912.011207,3580.03248 910.499829,3578.76008 908.901793,3577.48677 C908.469857,3577.1426 908.398705,3576.51345 908.74287,3576.08151 Z M899.01487,3569.07661 C899.324979,3568.61961 899.946846,3568.50053 900.403847,3568.81064 C902.152015,3569.9969 903.787503,3571.14219 905.344893,3572.2741 C905.791646,3572.5988 905.890589,3573.22419 905.565888,3573.67094 C905.241188,3574.11769 904.615801,3574.21664 904.169049,3573.89194 C902.629908,3572.77329 901.011913,3571.64025 899.280841,3570.46559 C898.82384,3570.15548 898.70476,3569.53361 899.01487,3569.07661 Z M888.9501,3562.56032 C889.245931,3562.09395 889.863818,3561.9557 890.33019,3562.25153 C891.158091,3562.77669 891.913282,3563.25715 892.621481,3563.7096 L892.621481,3563.7096 L895.390171,3565.49086 C895.853535,3565.79138 895.985546,3566.41064 895.685025,3566.874 C895.384505,3567.33736 894.765255,3567.46937 894.301891,3567.16885 C893.552719,3566.68297 892.78741,3566.19013 891.961674,3565.66162 L891.961674,3565.66162 L889.258892,3563.94041 C888.79252,3563.64458 888.65427,3563.02669 888.9501,3562.56032 Z M878.838168,3556.10689 C879.138862,3555.64364 879.758161,3555.51186 880.221413,3555.81255 C880.770785,3556.16915 881.328665,3556.52938 881.910287,3556.90316 L881.910287,3556.90316 L885.263589,3559.04289 C885.729897,3559.33882 885.868015,3559.95674 885.572084,3560.42305 C885.276152,3560.88936 884.658235,3561.02747 884.191927,3560.73154 C883.121974,3560.05252 882.165398,3559.44289 881.27061,3558.86914 L881.27061,3558.86914 L879.132504,3557.49013 C878.669252,3557.18944 878.537474,3556.57014 878.838168,3556.10689 Z M868.930157,3549.30167 C869.25384,3548.85418 869.878999,3548.75381 870.32649,3549.0775 C871.877342,3550.19927 873.498418,3551.33192 875.221135,3552.50042 C875.678198,3552.81044 875.7974,3553.43228 875.48738,3553.88935 C875.17736,3554.34641 874.555517,3554.46561 874.098454,3554.15559 C872.359699,3552.97622 870.722229,3551.83211 869.154332,3550.69801 C868.706841,3550.37432 868.606475,3549.74916 868.930157,3549.30167 Z M859.561296,3541.79249 C859.924083,3541.37607 860.555754,3541.33259 860.972171,3541.69538 C862.432176,3542.96735 863.957021,3544.22679 865.556105,3545.48463 C865.990189,3545.82608 866.065282,3546.45478 865.72383,3546.88886 C865.382378,3547.32295 864.753682,3547.39804 864.319598,3547.05659 C862.694844,3545.77855 861.144274,3544.49787 859.658402,3543.20336 C859.241985,3542.84058 859.198508,3542.20891 859.561296,3541.79249 Z M851.118201,3533.29762 C851.53116,3532.9309 852.163214,3532.96839 852.529934,3533.38135 C853.825909,3534.84073 855.188202,3536.26994 856.620172,3537.67595 C857.014252,3538.06289 857.020043,3538.69602 856.633108,3539.0901 C856.246172,3539.48418 855.613033,3539.48998 855.218953,3539.10304 C853.754947,3537.66558 852.361218,3536.20338 851.034478,3534.70936 C850.667758,3534.2964 850.705242,3533.66434 851.118201,3533.29762 Z M843.97628,3523.63925 C844.44125,3523.34123 845.059783,3523.47656 845.357811,3523.94153 C846.42051,3525.59951 847.551189,3527.21434 848.750759,3528.79107 C849.085159,3529.23061 848.999927,3529.85801 848.560387,3530.19241 C848.120848,3530.52681 847.493446,3530.44158 847.159046,3530.00204 C845.927289,3528.383 844.765867,3526.72426 843.674004,3525.02079 C843.375976,3524.55582 843.511309,3523.93728 843.97628,3523.63925 Z M838.495173,3512.94627 C839.002745,3512.72857 839.590687,3512.96357 839.808378,3513.47114 C840.592175,3515.29865 841.442462,3517.07597 842.359074,3518.80678 C842.617547,3519.29485 842.431424,3519.90004 841.943356,3520.15851 C841.455289,3520.41698 840.850098,3520.23086 840.591624,3519.74279 C839.649504,3517.96382 838.775648,3516.13723 837.970299,3514.25947 C837.752607,3513.7519 837.987602,3513.16396 838.495173,3512.94627 Z M834.786956,3501.5413 C835.321763,3501.40345 835.867053,3501.72525 836.004896,3502.26006 C836.5057,3504.20308 837.068143,3506.09476 837.69167,3507.9377 C837.86867,3508.46085 837.588057,3509.02844 837.064904,3509.20544 C836.54175,3509.38244 835.974164,3509.10182 835.797164,3508.57867 C835.157774,3506.68884 834.581267,3504.74987 834.068192,3502.75924 C833.930349,3502.22443 834.25215,3501.67914 834.786956,3501.5413 Z M832.706591,3489.72982 C833.254752,3489.66246 833.753733,3490.05222 833.821095,3490.60038 C834.067501,3492.60551 834.368877,3494.56208 834.724618,3496.47192 C834.825751,3497.01486 834.467591,3497.53699 833.924645,3497.63812 C833.381699,3497.73926 832.859569,3497.3811 832.758436,3496.83815 C832.395092,3494.8875 832.087435,3492.89015 831.836028,3490.84433 C831.768665,3490.29617 832.15843,3489.79718 832.706591,3489.72982 Z M832.001382,3477.74617 C832.553589,3477.73692 833.00874,3478.17708 833.01799,3478.72928 C833.051879,3480.75242 833.133584,3482.73175 833.262579,3484.66851 C833.299282,3485.21958 832.88231,3485.69605 832.331246,3485.73276 C831.780182,3485.76946 831.303703,3485.35249 831.267,3484.80142 C831.135784,3482.83131 831.052711,3480.81884 831.01827,3478.76278 C831.00902,3478.21057 831.449174,3477.75542 832.001382,3477.74617 Z M832.592632,3465.74648 L832.709206,3465.75398 C833.257397,3465.8211 833.647381,3466.31991 833.58026,3466.8681 C833.34271,3468.80822 833.178082,3470.77609 833.086404,3472.77177 C833.06106,3473.32347 832.593271,3473.75017 832.041568,3473.72482 C831.489865,3473.69948 831.063167,3473.23169 831.088511,3472.67999 C831.1825,3470.63401 831.351349,3468.61567 831.595085,3466.62503 C831.662206,3466.07684 832.161015,3465.68686 832.709206,3465.75398 Z M834.022604,3454.7862 C834.177732,3454.25615 834.733179,3453.95222 835.26323,3454.10735 C835.793281,3454.26247 836.097215,3454.81792 835.942087,3455.34797 C835.39043,3457.23291 834.91635,3459.14713 834.519849,3461.09069 C834.409453,3461.63183 833.881279,3461.98102 833.340141,3461.87062 C832.799002,3461.76023 832.449816,3461.23205 832.560212,3460.69091 C832.967811,3458.69295 833.455276,3456.72469 834.022604,3454.7862 Z M838.439734,3443.40111 C838.682601,3442.90509 839.281585,3442.69987 839.777604,3442.94274 C840.273622,3443.1856 840.478843,3443.78459 840.235977,3444.2806 C839.36595,3446.05751 838.574449,3447.86372 837.861436,3449.69931 C837.661464,3450.21412 837.082019,3450.46935 836.567208,3450.26938 C836.052398,3450.06941 835.797171,3449.48996 835.997142,3448.97515 C836.730656,3447.08678 837.544866,3445.22875 838.439734,3443.40111 Z M844.679448,3432.93693 C844.999317,3432.4867 845.623601,3432.38103 846.073826,3432.7009 C846.524051,3433.02077 846.629726,3433.64505 846.309858,3434.09528 C845.155775,3435.71969 844.076897,3437.37191 843.07317,3439.05199 C842.789919,3439.52611 842.175951,3439.68084 841.701834,3439.39759 C841.227716,3439.11434 841.072988,3438.50037 841.356239,3438.02625 C842.387165,3436.30064 843.494919,3434.60419 844.679448,3432.93693 Z M852.406479,3423.59824 C852.787463,3423.1984 853.420443,3423.18312 853.82028,3423.5641 C854.220117,3423.94509 854.235401,3424.57807 853.854416,3424.9779 C852.470905,3426.42988 851.156421,3427.90728 849.910921,3429.4101 C849.558503,3429.83533 848.928095,3429.89435 848.502866,3429.54194 C848.077637,3429.18952 848.018612,3428.55911 848.371031,3428.13388 C849.646178,3426.59528 850.991341,3425.0834 852.406479,3423.59824 Z M861.319919,3415.34841 C861.746691,3414.99786 862.376834,3415.05965 862.727382,3415.48642 C863.07793,3415.9132 863.016138,3416.54334 862.589366,3416.89389 C861.033696,3418.17171 859.539539,3419.47217 858.106871,3420.79527 C857.70114,3421.16997 857.068475,3421.14482 856.693773,3420.73909 C856.319072,3420.33336 856.344226,3419.70069 856.749957,3419.32599 C858.211264,3417.97644 859.734594,3416.65059 861.319919,3415.34841 Z M871.052202,3408.16594 C871.51199,3407.85997 872.132754,3407.98467 872.438718,3408.44446 C872.744681,3408.90425 872.619982,3409.52501 872.160194,3409.83098 C870.480387,3410.9488 868.854749,3412.08659 867.283268,3413.24436 C866.838625,3413.57194 866.212611,3413.47704 865.885028,3413.0324 C865.557445,3412.58776 865.65234,3411.96174 866.096984,3411.63416 C867.694335,3410.45734 869.346079,3409.30127 871.052202,3408.16594 Z M881.38986,3401.90584 C881.873335,3401.63888 882.481687,3401.81439 882.74865,3402.29787 C883.015614,3402.78135 882.840095,3403.3897 882.356619,3403.65666 C880.589266,3404.63255 878.869456,3405.62602 877.197184,3406.63705 C876.724563,3406.92279 876.109789,3406.77129 875.824049,3406.29867 C875.538309,3405.82605 875.689806,3405.21127 876.162428,3404.92553 C877.857289,3403.90084 879.599767,3402.89428 881.38986,3401.90584 Z"></path>
        </g>
    </g>
</svg>