<svg width="240" height="80" viewBox="0 0 240 80" fill="none" xmlns="http://www.w3.org/2000/svg">
<g clip-path="url(#clip0_78_449)">
<path d="M43 40.901V39.7217C43.124 38.8647 43.1791 37.9995 43.2259 37.1454C44.0526 29.8876 47.5051 24.0985 53.1454 19.5658C56.5566 16.7636 60.6732 14.9505 65.0433 14.3223C72.3066 13.3 79.0435 14.6474 84.9622 19.1498C89.7649 22.8172 93.1485 27.5014 94.7108 33.3842C95.4796 36.3325 95.7386 39.3883 95.4796 42.4247C95.16 46.5854 94.011 50.4843 91.746 53.9975C87.7534 60.1944 82.2729 64.4405 74.9766 65.8926C64.5859 67.9619 55.8347 64.9475 48.9407 56.8355C46.0502 53.4436 44.1463 49.327 43.4298 44.9294C43.3472 44.45 43.2921 43.9705 43.2259 43.4883L43 40.901V40.901ZM92.6663 40.2121C92.749 38.7821 92.6498 37.3465 92.3715 35.9412C91.9141 33.4035 91.0241 30.9622 89.7401 28.7248C88.1529 26.03 86.0781 23.6521 83.6203 21.7151C81.3278 19.88 78.6909 18.5215 75.8638 17.7252C74.2023 17.2237 72.4802 16.9454 70.7442 16.8986C70.3282 16.8986 69.9176 16.7608 69.5016 16.8187C69.0001 16.8876 68.4958 16.9151 67.9916 16.9014C67.3771 16.9096 66.7627 16.9675 66.1565 17.0777C63.9108 17.3863 61.723 18.009 59.651 18.9266C54.1512 21.412 49.8224 25.9226 47.563 31.5188C46.6096 33.8637 46.053 36.3518 45.9097 38.8785C45.8243 40.4601 45.8987 42.0472 46.1301 43.6151C46.4167 45.7753 47.0119 47.8832 47.8991 49.8754C49.613 53.6944 52.2692 56.7859 55.5922 59.2823C59.5545 62.2582 64.0954 63.5973 69.0194 63.7103C69.7661 63.7268 70.5073 63.669 71.254 63.6111C72.1936 63.545 73.1304 63.4237 74.0563 63.2419C76.3488 62.7983 78.5558 61.9909 80.5921 60.8447C83.7636 59.0536 86.4997 56.5793 88.5993 53.6034C89.8999 51.7959 90.9084 49.7927 91.5889 47.671C92.4018 45.2711 92.7655 42.7444 92.6663 40.2121V40.2121Z" fill="#C4BAAE"/>
<path d="M121.601 39.4326C121.706 39.5483 121.846 39.6227 122.001 39.6475C123.946 40.2482 125.401 41.8684 125.789 43.866C126.263 45.9271 125.955 47.8531 124.552 49.5174C123.916 50.2531 123.125 50.8372 122.232 51.2257C120.868 51.8567 119.383 52.1874 117.879 52.1956C113.96 52.2259 110.042 52.1956 106.124 52.1956C106.014 52.1956 105.906 52.1819 105.804 52.1736C105.672 51.6941 105.639 29.0529 105.766 28.2676C105.972 28.1987 106.19 28.1795 106.405 28.2125H117.038C118.92 28.1657 120.78 28.6176 122.43 29.5241C125.886 31.5052 125.759 35.5144 124.166 37.5644C123.643 38.2505 122.959 38.7961 122.174 39.1543L121.601 39.4326V39.4326ZM111.795 47.2414C111.863 47.2717 111.938 47.291 112.012 47.302H116.845C119.951 47.2056 120.006 42.5186 116.903 42.3753H112.315C112.144 42.3753 111.96 42.3285 111.803 42.4773L111.795 47.2414V47.2414ZM111.795 37.7104C111.899 37.7325 112.004 37.7463 112.109 37.7545H116.402C116.688 37.749 116.972 37.7077 117.248 37.636C118.352 37.4156 119.121 36.3823 119.011 35.2609C118.956 34.1312 118.253 33.3844 117.066 33.1998C116.848 33.1668 116.628 33.153 116.407 33.1557H112.249C112.103 33.1557 111.938 33.1089 111.795 33.2715V37.7104V37.7104ZM183.441 33.9713C184.678 37.4762 185.907 40.9673 187.133 44.4419C187.202 44.6348 187.414 44.7367 187.607 44.6706C187.607 44.6706 187.61 44.6706 187.612 44.6706C187.717 44.6348 187.803 44.5494 187.838 44.4447C188.45 42.8383 188.924 41.2043 189.442 39.5841C190.037 37.7215 190.619 35.856 191.211 33.9741C191.255 33.8143 191.401 33.7013 191.569 33.6986H196.631C196.832 33.6986 197 33.8666 197 34.0678V34.0733C197 34.1229 196.992 34.1697 196.973 34.2138C194.531 40.7304 192.09 47.2469 189.646 53.758C189.307 54.692 188.844 55.5738 188.268 56.3839C187.196 57.8993 185.51 58.8692 183.661 59.0373C181.578 59.2688 179.625 58.8968 177.889 57.6458L177.517 57.3703L177.258 57.1747L179.512 53.2758C179.616 53.0967 179.845 53.036 180.024 53.1407L180.076 53.1766C180.14 53.2289 180.198 53.2868 180.261 53.3309C180.724 53.6725 181.272 53.8819 181.845 53.9371C182.744 54.0473 183.617 53.5981 184.05 52.8046C184.083 52.7495 184.108 52.6889 184.138 52.6337C184.455 52.0496 184.485 51.3552 184.223 50.7463C182.058 45.4972 179.908 40.2427 177.776 34.9798C177.638 34.6381 177.5 34.2965 177.36 33.9548C177.329 33.8749 177.304 33.7647 177.376 33.7178C177.409 33.7013 177.445 33.693 177.481 33.6958H183.072C183.245 33.693 183.397 33.8088 183.441 33.9741V33.9713ZM160.725 46.2687L163.131 48.7651C163.329 48.9663 163.329 49.2914 163.131 49.4926C161.59 51.099 159.527 52.102 157.311 52.3224C155.73 52.5401 154.12 52.4381 152.58 52.0248C149.177 51.1265 146.681 48.1865 146.35 44.6816C146.149 42.9099 146.201 41.1547 146.783 39.4463C147.962 36.0434 150.412 34.1146 153.977 33.5635C155.352 33.3596 156.755 33.4175 158.11 33.7344C160.439 34.2248 162.403 35.7789 163.412 37.9336C164.379 39.8624 164.605 41.9235 164.555 44.1002C164.547 44.3785 164.324 44.599 164.045 44.6045C163.516 44.6183 163.001 44.6045 162.486 44.6045H154.363C153.892 44.6045 153.423 44.5879 152.925 44.6045C152.641 44.6127 152.415 44.8414 152.415 45.1252V45.1363C152.415 45.1996 152.429 45.2603 152.451 45.3181C152.666 45.8857 153.018 46.3927 153.476 46.7923C154.76 47.9137 156.231 47.9826 157.771 47.5362C158.532 47.3075 159.234 46.9163 159.83 46.3872L160.012 46.2329C160.221 46.0538 160.535 46.0704 160.725 46.2687V46.2687ZM158.245 41.2291C158.535 41.2291 158.766 40.9949 158.769 40.7056C158.769 40.689 158.769 40.6725 158.769 40.656C158.659 39.3003 157.675 38.1761 156.347 37.884C154.142 37.4018 152.668 38.9862 152.263 40.5926C152.197 40.8681 152.368 41.1492 152.644 41.2153C152.685 41.2236 152.729 41.2236 152.77 41.2153L158.245 41.2291V41.2291ZM141.572 46.255L143.981 48.7679C144.162 48.9663 144.162 49.2694 143.981 49.4678C143.179 50.333 142.212 51.0273 141.134 51.5068C139.473 52.2259 137.662 52.5346 135.858 52.405C134.78 52.372 133.714 52.1681 132.7 51.7989C129.694 50.6691 127.919 48.4676 127.313 45.3512C126.88 43.3342 127.013 41.2374 127.693 39.2893C128.95 35.8643 131.449 34.0154 135.031 33.5635C136.411 33.3844 137.814 33.4643 139.164 33.8033C141.564 34.3957 143.272 35.8395 144.344 38.0521C145.311 40.0525 145.504 42.1852 145.405 44.3703C145.386 44.4529 145.355 44.5356 145.314 44.61H133.761C133.485 44.61 133.256 44.8387 133.256 45.1142C133.256 45.1886 133.273 45.263 133.306 45.3319C133.347 45.4173 133.391 45.5 133.43 45.5826C134.135 47.054 135.684 47.933 137.31 47.787C138.638 47.6988 139.897 47.1505 140.867 46.2384C141.068 46.0511 141.379 46.0593 141.572 46.255V46.255ZM132.948 41.1905C133.841 41.3476 139.244 41.3007 139.679 41.1409C139.63 40.0112 139.272 39.0165 138.302 38.3635C137.329 37.6691 136.05 37.5837 134.995 38.143C133.75 38.7602 133.212 39.8845 132.948 41.1905Z" fill="black"/>
<path d="M178.181 27.5537C177.958 28.8955 177.745 30.1878 177.528 31.4994C177.495 31.695 177.31 31.8273 177.114 31.7997H177.081C176.74 31.7116 176.431 31.6317 176.122 31.5435C176.062 31.527 176.001 31.5104 175.941 31.4994C174.797 31.3231 173.711 32.1194 173.532 33.2629C173.513 33.3786 173.505 33.4971 173.508 33.6156V34.1914C173.51 34.3871 173.67 34.5441 173.866 34.5469H176.979C177.161 34.5469 177.313 34.6819 177.338 34.861C177.437 36.0045 177.451 37.1535 177.382 38.297C177.368 38.4816 177.216 38.6249 177.032 38.6304C175.998 38.6552 174.951 38.6304 173.855 38.6304C173.659 38.6359 173.505 38.7957 173.502 38.9914V51.8068C173.502 52.0052 173.339 52.165 173.141 52.165H167.999C167.804 52.165 167.641 52.0024 167.641 51.8068V39.0051C167.639 38.8178 167.495 38.6635 167.308 38.6469C166.724 38.5946 166.162 38.6469 165.597 38.6194C165.404 38.6029 165.258 38.4403 165.263 38.2474V34.9244C165.263 34.7287 165.42 34.5689 165.616 34.5634C166.197 34.5221 166.762 34.5634 167.316 34.5469C167.49 34.5359 167.633 34.4009 167.65 34.2273C167.641 34.0895 167.641 33.9545 167.65 33.8167C167.633 33.1334 167.658 32.4528 167.724 31.7722C168.121 29.1545 169.749 27.4021 172.32 26.7739C174.216 26.3137 176.056 26.5231 177.941 27.1514C178.106 27.2092 178.208 27.3801 178.181 27.5537V27.5537Z" fill="black"/>
<path d="M92.6662 40.2122C92.7654 42.7445 92.3989 45.2712 91.5861 47.6711C90.9055 49.7928 89.897 51.796 88.5965 53.6035C86.4941 56.5794 83.7607 59.051 80.5892 60.842C78.553 61.9883 76.3459 62.7956 74.0534 63.2392C73.1276 63.4156 72.1907 63.5368 71.2511 63.5974C70.5044 63.6553 69.7632 63.7131 69.0165 63.6966C64.0926 63.5836 59.5517 62.2445 55.5894 59.2687C52.2663 56.786 49.6129 53.6945 47.8963 49.8755C47.009 47.8833 46.4138 45.7754 46.1273 43.6152C45.8958 42.0473 45.8214 40.4602 45.9069 38.8786C46.0501 36.3519 46.6067 33.8638 47.5601 31.5189C49.8195 25.9199 54.151 21.4065 59.6508 18.9184C61.7202 18.0036 63.9052 17.3809 66.1454 17.0695C66.7515 16.9593 67.366 16.9014 67.9805 16.8932C68.4847 16.907 68.9889 16.8794 69.4904 16.8105C69.8927 16.7526 70.3171 16.8849 70.7331 16.8904C72.469 16.9373 74.1912 17.2156 75.8527 17.717C78.6825 18.5161 81.3249 19.8745 83.6202 21.7151C86.078 23.6522 88.1528 26.0329 89.74 28.7332C91.024 30.9706 91.914 33.4119 92.3714 35.9496C92.6497 37.3521 92.7489 38.7849 92.6662 40.2122V40.2122Z" fill="#F6EEE4"/>
<path d="M60.9433 30.4334H55.7907C54.6306 30.4334 54.0878 30.9845 54.0548 32.1253C54.041 32.7645 54.1622 33.401 54.4075 33.9907C54.8456 35.1259 55.5317 36.1482 56.4162 36.9831C57.105 37.6333 57.7994 38.2753 58.4965 38.9118C59.0531 39.394 59.3589 40.1049 59.3231 40.8406C59.2818 43.3508 59.3231 45.8638 59.3231 48.3767C59.3121 48.8616 59.3424 49.3466 59.414 49.826C59.9954 53.3915 63.1035 56.0422 66.7159 56.0505C68.2369 56.0698 69.7468 56.0505 71.2761 56.0505C71.8713 56.0505 72.4637 55.9844 73.0423 55.8494C76.3736 55.0834 78.7626 52.1048 78.7874 48.6853C78.8121 45.9519 78.8066 43.2186 78.7874 40.4879C78.7736 40.0223 78.9444 39.5704 79.264 39.2315C79.4872 38.989 79.7325 38.7631 79.9749 38.5426C80.8098 37.8235 81.5951 37.0492 82.3281 36.2253C83.0775 35.3519 83.6093 34.3131 83.8821 33.1944C84.0144 32.7039 84.0392 32.1886 83.962 31.6872C83.8821 31.0782 83.4192 30.5905 82.8158 30.4775C82.5788 30.4307 82.3363 30.4114 82.0938 30.4224H78.3272C78.1619 30.4224 77.9717 30.4913 77.8202 30.3039V28.8022C77.8257 28.3834 77.7816 27.9646 77.6852 27.5568C77.3022 26.1433 75.9823 25.2285 74.3787 25.2533C72.9211 25.2505 71.6343 26.2425 71.2706 27.6532C71.1879 28.0417 71.1493 28.4358 71.1576 28.8325C71.1907 29.3643 71.1714 29.8961 71.1053 30.4224H69.3638C68.7687 30.4637 68.1707 30.4445 67.5811 30.3646V28.3503C67.5783 27.5899 67.2807 26.8597 66.7545 26.3141C65.7763 25.267 64.2525 24.9391 62.93 25.4875C61.7065 25.9587 60.9626 27.0691 60.9378 28.4799C60.935 29.1053 60.9433 29.7198 60.9433 30.4334V30.4334Z" fill="#F6EEE4"/>
<path d="M60.9433 30.4331V28.5043C60.9681 27.0935 61.7121 25.9831 62.9355 25.5119C64.2581 24.9636 65.7818 25.2915 66.76 26.3385C67.2863 26.8841 67.5838 27.6143 67.5866 28.3748V30.389C68.1955 30.513 68.7852 30.4303 69.3693 30.4468C69.9535 30.4634 70.5073 30.4468 71.1108 30.4468C71.1769 29.9205 71.1934 29.3888 71.1604 28.8597C71.1521 28.4629 71.1907 28.0689 71.2733 27.6804C71.6371 26.2696 72.9238 25.2777 74.3814 25.2804C75.9906 25.2556 77.3104 26.1704 77.6879 27.584C77.7844 27.9918 77.8285 28.4106 77.823 28.8294V30.3311C77.9745 30.5185 78.1646 30.4496 78.3299 30.4496H82.0966C82.3391 30.4386 82.5815 30.4579 82.8185 30.5047C83.4219 30.6177 83.8849 31.1054 83.9648 31.7143C84.0419 32.2158 84.0171 32.7311 83.8849 33.2215C83.6121 34.3402 83.0803 35.379 82.3308 36.2525C81.5979 37.0764 80.8126 37.8506 79.9777 38.5698C79.7352 38.7902 79.49 39.0162 79.2668 39.2586C78.9472 39.5976 78.7763 40.0494 78.7901 40.5151C78.8066 43.2457 78.8121 45.9791 78.7901 48.7125C78.7653 52.1374 76.3709 55.1188 73.034 55.882C72.4554 56.0171 71.863 56.0859 71.2678 56.0832C69.7468 56.0832 68.2369 56.1025 66.7076 56.0832C63.0843 56.0694 59.9734 53.3994 59.4113 49.8201C59.3396 49.3407 59.3093 48.8557 59.3204 48.3708C59.3204 45.8579 59.2763 43.3449 59.3204 40.8347C59.3562 40.099 59.0503 39.3881 58.4937 38.9059C57.7994 38.2639 57.1078 37.6192 56.4134 36.9772C55.5317 36.1423 54.8456 35.1228 54.4075 33.9903C54.1622 33.4006 54.041 32.7641 54.0548 32.1249C54.0878 30.9896 54.6306 30.4441 55.7907 30.4331H60.9433V30.4331ZM66.1097 33.7037C65.9885 33.6073 65.8342 33.5687 65.6826 33.5963H60.6622C59.8522 33.5963 59.5325 33.9683 59.6648 34.7646C59.7667 35.4452 60.0781 36.0761 60.5603 36.5694C60.9295 36.9441 61.2987 37.3243 61.6928 37.6715C62.2191 38.1207 62.5029 38.7902 62.4615 39.4818C62.4285 41.0001 62.4615 42.5128 62.4615 44.0393V48.4672C62.4615 48.5003 62.4615 48.5334 62.4615 48.5664C62.4615 50.9058 64.3573 52.8428 66.6966 52.8952H66.9721C68.4683 52.8401 69.9645 52.8952 71.4635 52.8759C73.1856 52.8428 74.7176 51.7792 75.3486 50.1783C75.7784 49.101 75.6407 47.974 75.6241 46.927C69.4162 44.6014 66.1097 40.3002 66.1097 33.7037V33.7037ZM73.9902 43.3752C74.7644 43.3752 75.4009 42.7387 75.4009 41.9645C75.4009 41.1902 74.7644 40.5537 73.9902 40.5537C73.2159 40.5537 72.5794 41.1902 72.5794 41.9645C72.5794 42.7387 73.2159 43.3752 73.9902 43.3752ZM75.5938 30.4248C75.5938 29.7111 75.6214 29.0471 75.5938 28.3555C75.5663 27.8209 75.1888 27.5289 74.6101 27.493C73.9433 27.4545 73.4777 27.719 73.4198 28.2701C73.3454 28.9865 73.3454 29.7084 73.4198 30.4248H75.5938V30.4248ZM65.2858 30.4248C65.3189 30.3614 65.3547 30.3256 65.3547 30.287C65.3547 29.7635 65.3795 29.2372 65.3795 28.7137C65.3795 28.5373 65.3602 28.361 65.3189 28.1874C65.1839 27.6859 64.7485 27.4297 64.1396 27.4793C63.5885 27.5233 63.2082 27.8375 63.1862 28.3665C63.1559 29.0416 63.1862 29.7166 63.1862 30.4193L65.2858 30.4248V30.4248Z" fill="#030202"/>
<path d="M66.1097 33.704C66.1097 40.3005 69.4162 44.6017 75.6104 46.93C75.6104 47.9881 75.7564 49.104 75.3348 50.1814C74.7038 51.7823 73.1718 52.8459 71.4497 52.8789C69.9507 52.901 68.4546 52.8431 66.9584 52.8982C64.5915 52.9974 62.5607 51.132 62.456 48.7651V44.034C62.456 42.5158 62.434 41.0031 62.456 39.4766C62.4974 38.785 62.2136 38.1154 61.6873 37.6663C61.2932 37.3136 60.924 36.9333 60.5548 36.5641C60.0726 36.0709 59.7612 35.4399 59.6593 34.7593C59.527 33.963 59.8467 33.5938 60.6567 33.591H65.6743C65.8287 33.5607 65.9885 33.6021 66.1097 33.704V33.704ZM66.6608 41.9868V41.9565C66.6608 41.1849 66.0243 40.5484 65.2528 40.5484C64.4813 40.5484 63.8448 41.1849 63.8448 41.9565C63.8448 42.728 64.4592 43.3452 65.2197 43.3645C65.9747 43.3975 66.6222 42.8024 66.6553 42.0474V41.9868H66.6608V41.9868ZM73.9902 43.3755C73.2159 43.3755 72.5794 42.739 72.5794 41.9647C72.5794 41.1905 73.2159 40.554 73.9902 40.554C74.7645 40.554 75.401 41.1905 75.401 41.9647C75.401 42.739 74.7645 43.3755 73.9902 43.3755ZM75.5938 30.4168H73.4171C73.3427 29.7004 73.3427 28.9785 73.4171 28.2621C73.4749 27.711 73.9406 27.4354 74.6074 27.485C75.186 27.5181 75.5635 27.8129 75.5911 28.3475C75.6214 29.0253 75.5938 29.7059 75.5938 30.4168V30.4168ZM65.2858 30.4168H63.1779C63.1779 29.7142 63.1559 29.0391 63.1779 28.364C63.2 27.835 63.5692 27.5209 64.1313 27.4768C64.7403 27.4272 65.1756 27.6834 65.3106 28.1849C65.352 28.3557 65.374 28.5293 65.3713 28.7057C65.3713 29.2292 65.3713 29.7555 65.3465 30.279C65.3547 30.3176 65.3189 30.3534 65.2858 30.4168V30.4168Z" fill="#F6EEE4"/>
<path d="M66.6554 41.9867C66.6444 42.7499 66.0106 43.3727 65.2474 43.3727C64.4841 43.3727 63.8394 42.7362 63.8394 41.9647C63.8394 41.1931 64.4759 40.5566 65.2474 40.5566H65.2777C66.0244 40.5566 66.6444 41.1656 66.6554 41.9123V41.9867Z" fill="#030202"/>
</g>
<defs>
<clipPath id="clip0_78_449">
<rect width="154" height="52.5264" fill="white" transform="translate(43 14)"/>
</clipPath>
</defs>
</svg>
