<svg width="58" height="58" viewBox="0 0 58 58" fill="none" xmlns="http://www.w3.org/2000/svg">
<g filter="url(#filter0_d)">
<circle cx="29" cy="25" r="25" fill="white"/>
</g>
<mask id="mask0" mask-type="alpha" maskUnits="userSpaceOnUse" x="17" y="10" width="24" height="17">
<path d="M17 22.7002L33.0478 22.8297C33.0478 22.8297 36.5897 23.2797 39.6152 25.937C39.7873 26.087 40.4606 25.937 40.4606 25.937L40.3788 10L17 10.0273V22.7002Z" fill="white"/>
</mask>
<g mask="url(#mask0)">
<path fill-rule="evenodd" clip-rule="evenodd" d="M37.0514 13.5896C35.1424 12.0181 32.5158 11.2306 29.1716 11.2306C24.7007 11.2306 22.7184 11.2306 20.84 11.2306V12.3948C20.84 12.3948 25.362 12.3948 29.0182 12.3948C31.8613 12.3948 34.435 12.9811 36.0066 14.3379C37.5781 15.6964 38.7696 17.7179 38.7696 20.2133C38.7696 22.6217 37.7383 24.4063 36.1037 25.7563C34.4691 27.1062 31.5545 27.7011 28.6364 27.7011C25.1541 27.7011 19.2412 27.7011 19.2412 27.7011V28.8653C19.2412 28.8653 27.2404 28.8636 28.7011 28.8636C32.2209 28.8636 34.9703 28.0982 36.9492 26.571C38.9281 25.0421 39.9167 22.8927 39.9167 20.1195C39.9167 17.3395 38.9622 15.1629 37.0514 13.5896Z" fill="#1C1E1D"/>
<path fill-rule="evenodd" clip-rule="evenodd" d="M36.346 15.2771C35.158 14.3754 33.7927 13.6493 29.9303 13.6493C25.7645 13.651 25.2549 13.6493 23.5044 13.6493V14.7845C23.5044 14.7845 26.3799 14.747 29.7871 14.7845C33.0802 14.8186 34.2887 15.1902 35.3966 16.01C36.8148 17.0583 37.6943 18.352 37.6943 20.1622C37.6943 21.9076 36.8011 23.1433 35.3762 24.1916C33.9188 25.2654 31.6911 25.2773 30.7843 25.2978C30.4417 25.3063 26.0134 25.2978 26.0134 25.2978V26.433C26.0134 26.433 28.2173 26.4637 29.5792 26.4313C32.7052 26.3614 34.5597 26.1756 36.2864 24.8921C37.9073 23.6904 38.7647 22.1036 38.7647 20.094C38.7647 17.4435 37.4386 16.1072 36.346 15.2771Z" fill="#1C1E1D"/>
<path fill-rule="evenodd" clip-rule="evenodd" d="M35.7718 16.7752C34.8803 16.2162 34.098 15.8395 30.4077 15.8395C26.6579 15.8395 27.3652 15.8395 25.7886 15.8395V16.586C25.7886 16.586 27.2135 16.586 30.2799 16.586C33.5491 16.586 34.7883 17.1673 35.1633 17.3974C35.8979 17.8474 36.8661 18.5803 36.8661 20.0734C36.8661 21.0279 36.3019 22.2262 35.4684 22.6966C34.7082 23.1245 33.319 23.508 30.8714 23.508C30.5628 23.508 15.7832 23.508 15.7832 23.508V24.2545C15.7832 24.2545 29.7004 24.2545 30.9276 24.2545C33.8781 24.2545 34.8905 23.9273 35.9303 23.3529C36.9734 22.7785 37.6689 21.5972 37.6689 20.0803C37.6689 18.386 36.7229 17.3701 35.7718 16.7752Z" fill="#1C1E1D"/>
</g>
<path fill-rule="evenodd" clip-rule="evenodd" d="M38.7087 25.0115C36.7996 23.4382 34.1713 22.6525 30.8288 22.6525C26.3562 22.6525 27.1352 22.6508 25.2551 22.6508V23.8149C25.2551 23.8149 27.0176 23.8149 30.6737 23.8149C33.5168 23.8149 36.0923 24.4013 37.6638 25.758C39.2354 27.1165 40.4251 29.138 40.4251 31.6351C40.4251 34.0419 39.3956 35.8265 37.761 37.1764C36.1264 38.5264 33.21 39.1213 30.2919 39.1213C26.8113 39.1213 20.8984 39.1213 20.8984 39.1213V40.2854C20.8984 40.2854 28.8959 40.2837 30.3584 40.2837C33.8781 40.2837 36.6258 39.5201 38.6047 37.9912C40.5836 36.464 41.5739 34.3129 41.5739 31.5414C41.5739 28.7597 40.6194 26.583 38.7087 25.0115Z" fill="#1C1E1D"/>
<path fill-rule="evenodd" clip-rule="evenodd" d="M38.0028 26.6971C36.8148 25.7972 35.4495 25.0693 31.5871 25.0693C27.4196 25.071 24.6021 25.0693 22.8516 25.0693V26.2045C22.8516 26.2045 28.0349 26.167 31.4439 26.2045C34.737 26.2386 35.9438 26.6102 37.0517 27.4301C38.4715 28.48 39.351 29.772 39.351 31.5822C39.351 33.3276 38.4579 34.5633 37.0329 35.6133C35.5756 36.6854 33.3478 36.6991 32.4393 36.7195C32.0967 36.7263 27.6685 36.7195 27.6685 36.7195V37.853C27.6685 37.853 29.8724 37.8837 31.236 37.853C34.3603 37.7814 36.2165 37.5956 37.9431 36.3139C39.5624 35.1105 40.4198 33.5236 40.4198 31.514C40.4198 28.8652 39.0954 27.5272 38.0028 26.6971Z" fill="#1C1E1D"/>
<path fill-rule="evenodd" clip-rule="evenodd" d="M24.7212 30.5494H32.9079V29.9153H24.7212V30.5494Z" fill="#1C1E1D"/>
<path fill-rule="evenodd" clip-rule="evenodd" d="M28.0981 32.7669H32.8605V32.2214H28.0981V32.7669Z" fill="#1C1E1D"/>
<path fill-rule="evenodd" clip-rule="evenodd" d="M20.8984 30.5494H23.3239V29.9153H20.8984V30.5494Z" fill="#1C1E1D"/>
<path fill-rule="evenodd" clip-rule="evenodd" d="M19.3862 32.8112H26.753V32.1771H19.3862V32.8112Z" fill="#1C1E1D"/>
<path fill-rule="evenodd" clip-rule="evenodd" d="M21.2017 16.5367H24.072V16.0134H21.2017V16.5367Z" fill="#1C1E1D"/>
<path fill-rule="evenodd" clip-rule="evenodd" d="M19.2021 20.7809H25.7764V20.1724H19.2021V20.7809Z" fill="#1C1E1D"/>
<path fill-rule="evenodd" clip-rule="evenodd" d="M19.3862 37.7747H26.3184V37.0145H19.3862V37.7747Z" fill="#1C1E1D"/>
<path fill-rule="evenodd" clip-rule="evenodd" d="M17.6577 40.2394H19.3912V39.1383H17.6577V40.2394Z" fill="#1C1E1D"/>
<path fill-rule="evenodd" clip-rule="evenodd" d="M21.9907 18.923H32.8756V18.3145H21.9907V18.923Z" fill="#1C1E1D"/>
<path fill-rule="evenodd" clip-rule="evenodd" d="M27.4331 20.7809H32.6693V20.1724H27.4331V20.7809Z" fill="#1C1E1D"/>
<path fill-rule="evenodd" clip-rule="evenodd" d="M37.4285 28.3096C36.5354 27.7693 35.753 27.4062 32.0645 27.4062C28.3146 27.4062 27.7538 27.4062 26.1789 27.4062V28.1273C26.1789 28.1273 28.8686 28.1273 31.9349 28.1273C35.2041 28.1273 36.445 28.688 36.82 28.9113C37.5529 29.346 38.5228 30.0516 38.5228 31.4936C38.5228 32.4158 37.9586 33.5714 37.1234 34.0248C36.3632 34.439 34.974 34.8089 32.5264 34.8089C32.2179 34.8089 17.4399 34.8089 17.4399 34.8089V35.5299C17.4399 35.5299 31.3571 35.5281 32.5826 35.5281C35.5348 35.5281 36.5473 35.2128 37.587 34.6589C38.6285 34.1032 39.3239 32.9629 39.3239 31.4987C39.3239 29.8641 38.3796 28.884 37.4285 28.3096Z" fill="#1C1E1D"/>
<defs>
<filter id="filter0_d" x="0" y="0" width="58" height="58" filterUnits="userSpaceOnUse" color-interpolation-filters="sRGB">
<feFlood flood-opacity="0" result="BackgroundImageFix"/>
<feColorMatrix in="SourceAlpha" type="matrix" values="0 0 0 0 0 0 0 0 0 0 0 0 0 0 0 0 0 0 127 0" result="hardAlpha"/>
<feOffset dy="4"/>
<feGaussianBlur stdDeviation="2"/>
<feComposite in2="hardAlpha" operator="out"/>
<feColorMatrix type="matrix" values="0 0 0 0 0.475 0 0 0 0 0.475 0 0 0 0 0.475 0 0 0 0.15 0"/>
<feBlend mode="normal" in2="BackgroundImageFix" result="effect1_dropShadow"/>
<feBlend mode="normal" in="SourceGraphic" in2="effect1_dropShadow" result="shape"/>
</filter>
</defs>
</svg>
