<svg width="240" height="80" viewBox="0 0 240 80" fill="none" xmlns="http://www.w3.org/2000/svg">
<g clip-path="url(#clip0_78_429)">
<path d="M82.6567 49.5248C77.6575 49.5248 74.7573 45.8973 74.7573 40.4562C74.7573 34.9909 77.8464 31.5146 82.798 31.5146C86.5945 31.5146 89.306 33.7198 89.9898 37.6026H87.1089C86.5901 35.2539 84.9163 34.007 82.6998 34.007C79.9884 34.007 77.8419 36.262 77.8419 40.4562C77.8419 44.6761 79.9408 47.0248 82.6761 47.0248C84.9861 47.0248 86.6377 45.8021 87.1564 43.4292H90.0373C89.3298 47.3196 86.5945 49.5248 82.6567 49.5248Z" fill="#007BFF"/>
<path d="M98.388 36.0277C101.453 36.0277 102.699 38.041 102.699 41.1092V49.2134H99.8939V41.8074C99.8939 40.0557 99.6382 38.3539 97.4917 38.3539C95.3451 38.3539 94.5424 40.0315 94.5424 42.3561V49.2134H91.7388V31.832H94.5424V38.1135C95.2752 36.7698 96.6235 36.0277 98.388 36.0277Z" fill="#007BFF"/>
<path d="M116.447 36.3154V49.2139H113.642V47.5121C112.887 48.7817 111.561 49.5253 109.87 49.5253C106.685 49.5253 104.352 46.912 104.352 42.7647C104.352 38.6173 106.685 36.0283 109.87 36.0283C111.567 36.0283 112.887 36.7704 113.642 38.0415V36.3154H116.447ZM107.276 42.7647C107.276 45.4973 108.431 47.1992 110.482 47.1992C112.321 47.1992 113.752 45.7376 113.752 42.7647C113.752 39.7917 112.321 38.3544 110.482 38.3544C108.431 38.3544 107.276 40.032 107.276 42.7647Z" fill="#007BFF"/>
<path d="M130.548 36.0537C133.613 36.0537 134.859 38.0669 134.859 41.1351V49.2363H132.057V41.8303C132.057 40.0801 131.798 38.3783 129.651 38.3783C127.505 38.3783 126.704 40.0559 126.704 42.3805V49.2363H123.898V36.3408H126.704V38.1395C127.435 36.7973 128.779 36.0537 130.548 36.0537Z" fill="#007BFF"/>
<path d="M141.744 38.2347C140.517 38.2347 139.386 38.7864 139.386 39.6494C139.386 40.5123 139.999 40.9673 141.084 41.1835L142.876 41.5432C145.445 42.0464 147.403 42.8611 147.403 45.3792C147.403 48.0649 144.904 49.5507 142.026 49.5507C138.915 49.5507 136.839 47.7521 136.533 45.3066H139.268C139.528 46.6261 140.471 47.3939 142.121 47.3939C143.583 47.3939 144.668 46.7697 144.668 45.7147C144.668 44.6597 143.726 44.1806 142.475 43.9403L140.565 43.5579C138.42 43.1256 136.745 42.1432 136.745 39.793C136.745 37.5152 139.15 36.0537 141.909 36.0537C144.385 36.0537 146.648 37.2764 147.167 39.8655H144.527C144.22 38.6911 143.159 38.2347 141.744 38.2347Z" fill="#007BFF"/>
<path d="M152.886 32.937V36.3407H155.432V38.4023H152.886V45.4274C152.886 46.7454 153.192 47.0567 154.394 47.0567H155.408V49.2362H153.327C150.616 49.2362 150.074 48.4925 150.074 45.8551V38.4023H148.193V36.3407H150.079V32.937H152.886Z" fill="#007BFF"/>
<path d="M168.94 36.3408V49.2363H166.133V47.5375C165.38 48.807 164.052 49.5507 162.361 49.5507C159.179 49.5507 156.843 46.9374 156.843 42.7901C156.843 38.6427 159.179 36.0537 162.361 36.0537C164.058 36.0537 165.38 36.7973 166.133 38.0669V36.3408H168.94ZM159.769 42.7901C159.769 45.5227 160.924 47.2246 162.975 47.2246C164.814 47.2246 166.245 45.763 166.245 42.7901C166.245 39.8171 164.808 38.3798 162.975 38.3798C160.924 38.3798 159.769 40.0574 159.769 42.7901Z" fill="#007BFF"/>
<path d="M179.95 40.7529C179.72 39.385 178.531 38.4268 177.003 38.4268C175.259 38.4268 173.679 39.7463 173.679 42.7902C173.679 45.8585 175.281 47.1734 176.933 47.1734C178.299 47.1734 179.69 46.5492 180.044 44.8231H182.78C182.215 47.846 179.597 49.5463 176.885 49.5463C173.206 49.5463 170.778 46.6459 170.778 42.8099C170.778 38.9739 173.23 36.0493 177.003 36.0493C179.762 36.0493 182.215 37.863 182.686 40.7483L179.95 40.7529Z" fill="#007BFF"/>
<path d="M187.242 41.519L191.933 36.3409H195.305L190.448 41.6399L195.847 49.2364H192.577L188.593 43.6441L187.255 45.1071V49.2364H184.436V31.855H187.242V41.519Z" fill="#007BFF"/>
<path d="M121.627 49.2139H118.82V36.3154H121.627V49.2139Z" fill="#007BFF"/>
<path d="M120.224 35.4023C121.278 35.4023 122.133 34.5335 122.133 33.4617C122.133 32.3899 121.278 31.521 120.224 31.521C119.169 31.521 118.315 32.3899 118.315 33.4617C118.315 34.5335 119.169 35.4023 120.224 35.4023Z" fill="#007BFF"/>
<path d="M61.0803 45.7452H49.4526C49.0475 45.746 48.6462 45.6655 48.2717 45.5083C47.8972 45.3512 47.5569 45.1204 47.2704 44.8292L44.8919 42.411C44.3191 41.8238 43.9984 41.0298 44 40.2028V33.9228C43.9992 33.5109 44.0783 33.1029 44.2329 32.7221C44.3875 32.3414 44.6145 31.9954 44.9008 31.704L47.2793 29.2858C47.8574 28.7033 48.6387 28.3772 49.4526 28.3789H61.0803V31.8552H50.4917C49.677 31.856 48.8959 32.1854 48.3199 32.7711C47.7438 33.3568 47.4198 34.151 47.419 34.9793V39.1448C47.419 39.9736 47.7426 40.7685 48.3188 41.3549C48.895 41.9413 49.6765 42.2711 50.4917 42.2719H61.0803V45.7452Z" fill="#007BFF"/>
<path d="M50.8384 35.3311H62.4675C63.2799 35.3303 64.0595 35.6562 64.6364 36.2379L67.0148 38.6562C67.5916 39.2426 67.9156 40.0381 67.9156 40.8674V47.1474C67.9156 47.9767 67.5916 48.7722 67.0148 49.3586L64.6364 51.7769C64.0595 52.3633 63.2772 52.6928 62.4616 52.6928H50.8384V49.2165H61.4269C62.2426 49.2165 63.025 48.887 63.6017 48.3006C64.1785 47.7141 64.5026 46.9187 64.5026 46.0894V41.9254C64.5026 41.096 64.1785 40.3006 63.6017 39.7142C63.025 39.1278 62.2426 38.7983 61.4269 38.7983H50.8384V35.3311Z" fill="#007BFF"/>
</g>
<defs>
<clipPath id="clip0_78_429">
<rect width="152" height="25" fill="white" transform="translate(44 28)"/>
</clipPath>
</defs>
</svg>
