<svg width="300" height="100" viewBox="0 0 300 100" fill="none" xmlns="http://www.w3.org/2000/svg">
<rect x="18" y="16" width="67.7551" height="67.7551" rx="33.8776" fill="url(#paint0_linear_78_469)"/>
<rect y="31.8706" width="36.014" height="36.014" rx="18.007" fill="url(#paint1_linear_78_469)" fill-opacity="0.5"/>
<rect x="82.4053" y="16" width="11.2925" height="11.2925" rx="5.64626" fill="url(#paint2_linear_78_469)" fill-opacity="0.5"/>
<path d="M110.806 69.5514C118.504 69.5514 124.084 64.7212 124.701 57.9502L124.723 57.7075H118.239L118.195 57.9281C117.335 61.6996 114.644 63.9052 110.806 63.9052C105.712 63.9052 102.447 59.7587 102.447 53.0538V53.0318C102.447 46.371 105.712 42.2686 110.806 42.2686C114.776 42.2686 117.379 44.5624 118.129 48.0693L118.217 48.4442H124.701L124.679 48.2457C124.062 41.4967 118.526 36.6224 110.806 36.6224C101.521 36.6224 95.6542 42.798 95.6542 53.0538V53.0759C95.6542 63.3317 101.499 69.5514 110.806 69.5514ZM128.451 69H134.891V55.4579C134.891 52.3701 136.722 50.2086 139.567 50.2086C142.5 50.2086 144.132 52.1716 144.132 55.4799V69H150.573V54.1566C150.573 48.4442 147.397 44.8712 142.28 44.8712C138.729 44.8712 136.236 46.5033 135.023 49.4367H134.891V37.1738H128.451V69ZM161.755 69.3749C164.865 69.3749 167.379 67.8972 168.724 65.4711H168.857V69H175.297V52.7892C175.297 48.0251 171.349 44.8712 165.24 44.8712C158.998 44.8712 155.248 48.0031 154.895 52.3701L154.873 52.6348H160.762L160.806 52.4363C161.115 50.9144 162.571 49.7896 164.975 49.7896C167.489 49.7896 168.857 51.0909 168.857 53.1862V54.6418L163.012 54.9947C157.145 55.3697 153.815 57.884 153.815 62.1848V62.2289C153.815 66.3974 157.013 69.3749 161.755 69.3749ZM160.189 61.8981V61.854C160.189 60.1778 161.49 59.1191 163.982 58.9647L168.857 58.6559V60.3542C168.857 62.8244 166.739 64.6771 163.85 64.6771C161.622 64.6771 160.189 63.6405 160.189 61.8981ZM179.465 69H185.906V55.7667C185.906 52.326 187.758 50.4292 190.934 50.4292C191.861 50.4292 192.743 50.5615 193.272 50.7821V45.1138C192.787 44.9815 192.125 44.8712 191.419 44.8712C188.663 44.8712 186.744 46.5695 186.038 49.4808H185.906V45.3564H179.465V69ZM206.175 77.2047C213.277 77.2047 217.71 73.6096 217.71 68.3383V45.3564H211.27V49.3926H211.137C209.858 46.6356 207.277 44.8712 203.947 44.8712C197.97 44.8712 194.265 49.3485 194.265 56.8915V56.9135C194.265 64.2581 197.926 68.6692 203.837 68.6692C207.255 68.6692 209.902 67.1032 211.137 64.633H211.27V68.2501C211.27 70.8968 209.505 72.6171 206.175 72.6171C203.484 72.6171 201.764 71.6026 201.256 70.4336L201.19 70.2792H194.926L194.948 70.4777C195.566 74.2713 199.668 77.2047 206.175 77.2047ZM206.064 63.9493C202.844 63.9493 200.815 61.3247 200.815 57.0679V57.0459C200.815 52.8112 202.866 50.2086 206.064 50.2086C209.196 50.2086 211.292 52.8333 211.292 57.0459V57.0679C211.292 61.3026 209.218 63.9493 206.064 63.9493ZM232.708 69.4852C239.457 69.4852 242.721 65.4932 243.449 62.0084L243.515 61.7658H237.604L237.56 61.8981C237.097 63.2214 235.487 64.6771 232.84 64.6771C229.554 64.6771 227.502 62.4715 227.436 58.7H243.713V56.715C243.713 49.569 239.368 44.8712 232.443 44.8712C225.517 44.8712 221.084 49.6793 221.084 57.2003V57.2223C221.084 64.7874 225.473 69.4852 232.708 69.4852ZM232.553 49.6793C235.222 49.6793 237.141 51.3776 237.538 54.6418H227.502C227.921 51.4438 229.906 49.6793 232.553 49.6793Z" fill="#071927"/>
<defs>
<linearGradient id="paint0_linear_78_469" x1="85.7551" y1="79.0823" x2="15.4219" y2="75.7926" gradientUnits="userSpaceOnUse">
<stop stop-color="#7A159A"/>
<stop offset="1" stop-color="#063B64"/>
</linearGradient>
<linearGradient id="paint1_linear_78_469" x1="18.007" y1="31.8706" x2="18.007" y2="67.8846" gradientUnits="userSpaceOnUse">
<stop stop-color="#B04BFF"/>
<stop offset="1" stop-color="#E24BCF"/>
</linearGradient>
<linearGradient id="paint2_linear_78_469" x1="88.0515" y1="16" x2="88.0515" y2="27.2925" gradientUnits="userSpaceOnUse">
<stop stop-color="#B04BFF"/>
<stop offset="1" stop-color="#E24BCF"/>
</linearGradient>
</defs>
</svg>
