<svg width="240" height="80" viewBox="0 0 240 80" fill="none" xmlns="http://www.w3.org/2000/svg">
<rect x="40.5547" y="14" width="51.0221" height="51.0221" rx="25.511" fill="url(#paint0_linear_708_561)"/>
<rect x="27" y="25.9512" width="27.1198" height="27.1198" rx="13.5599" fill="url(#paint1_linear_708_561)" fill-opacity="0.5"/>
<rect x="89.0537" y="14" width="8.50368" height="8.50368" rx="4.25184" fill="url(#paint2_linear_708_561)" fill-opacity="0.5"/>
<path d="M110.441 54.9455C116.237 54.9455 120.439 51.3082 120.904 46.2093L120.921 46.0266H116.038L116.005 46.1927C115.357 49.0328 113.331 50.6937 110.441 50.6937C106.604 50.6937 104.146 47.5712 104.146 42.5222V42.5056C104.146 37.4898 106.604 34.4006 110.441 34.4006C113.431 34.4006 115.39 36.1279 115.955 38.7687L116.021 39.051H120.904L120.888 38.9015C120.423 33.8193 116.254 30.1488 110.441 30.1488C103.449 30.1488 99.0308 34.7992 99.0308 42.5222V42.5388C99.0308 50.2618 103.432 54.9455 110.441 54.9455ZM123.728 54.5303H128.578V44.3326C128.578 42.0073 129.956 40.3797 132.099 40.3797C134.308 40.3797 135.537 41.8579 135.537 44.3492V54.5303H140.386V43.3526C140.386 39.051 137.995 36.3604 134.141 36.3604C131.468 36.3604 129.591 37.5894 128.677 39.7984H128.578V30.564H123.728V54.5303ZM148.807 54.8126C151.149 54.8126 153.042 53.6998 154.055 51.8729H154.155V54.5303H159.005V42.3229C159.005 38.7354 156.032 36.3604 151.431 36.3604C146.731 36.3604 143.907 38.7188 143.642 42.0073L143.625 42.2067H148.06L148.093 42.0572C148.325 40.9112 149.421 40.0641 151.232 40.0641C153.125 40.0641 154.155 41.044 154.155 42.6219V43.718L149.754 43.9838C145.336 44.2661 142.828 46.1595 142.828 49.3982V49.4314C142.828 52.5705 145.236 54.8126 148.807 54.8126ZM147.628 49.1823V49.1491C147.628 47.8868 148.608 47.0896 150.484 46.9733L154.155 46.7408V48.0197C154.155 49.8799 152.56 51.275 150.385 51.275C148.707 51.275 147.628 50.4944 147.628 49.1823ZM162.144 54.5303H166.993V44.5651C166.993 41.9741 168.389 40.5458 170.78 40.5458C171.478 40.5458 172.142 40.6454 172.541 40.8115V36.5431C172.175 36.4434 171.677 36.3604 171.146 36.3604C169.069 36.3604 167.625 37.6393 167.093 39.8316H166.993V36.7258H162.144V54.5303ZM182.257 60.7087C187.605 60.7087 190.943 58.0015 190.943 54.032V36.7258H186.093V39.7652H185.994C185.03 37.6891 183.087 36.3604 180.579 36.3604C176.078 36.3604 173.288 39.732 173.288 45.4121V45.4287C173.288 50.9594 176.045 54.2811 180.496 54.2811C183.071 54.2811 185.064 53.1019 185.994 51.2418H186.093V53.9656C186.093 55.9586 184.765 57.2541 182.257 57.2541C180.231 57.2541 178.935 56.4901 178.553 55.6098L178.503 55.4936H173.786L173.803 55.6431C174.268 58.4997 177.357 60.7087 182.257 60.7087ZM182.174 50.7269C179.749 50.7269 178.221 48.7505 178.221 45.545V45.5284C178.221 42.3395 179.765 40.3797 182.174 40.3797C184.532 40.3797 186.11 42.3561 186.11 45.5284V45.545C186.11 48.7339 184.549 50.7269 182.174 50.7269ZM202.237 54.8957C207.319 54.8957 209.777 51.8895 210.325 49.2653L210.375 49.0826H205.924L205.891 49.1823C205.542 50.1788 204.33 51.275 202.337 51.275C199.862 51.275 198.317 49.6141 198.268 46.774H210.525V45.2793C210.525 39.898 207.253 36.3604 202.038 36.3604C196.823 36.3604 193.484 39.9811 193.484 45.6446V45.6613C193.484 51.358 196.789 54.8957 202.237 54.8957ZM202.121 39.9811C204.13 39.9811 205.575 41.26 205.874 43.718H198.317C198.633 41.3098 200.128 39.9811 202.121 39.9811Z" fill="#071927"/>
<defs>
<linearGradient id="paint0_linear_708_561" x1="91.5768" y1="61.5033" x2="38.6133" y2="59.026" gradientUnits="userSpaceOnUse">
<stop stop-color="#7A159A"/>
<stop offset="1" stop-color="#063B64"/>
</linearGradient>
<linearGradient id="paint1_linear_708_561" x1="40.5599" y1="25.9512" x2="40.5599" y2="53.071" gradientUnits="userSpaceOnUse">
<stop stop-color="#B04BFF"/>
<stop offset="1" stop-color="#E24BCF"/>
</linearGradient>
<linearGradient id="paint2_linear_708_561" x1="93.3055" y1="14" x2="93.3055" y2="22.5037" gradientUnits="userSpaceOnUse">
<stop stop-color="#B04BFF"/>
<stop offset="1" stop-color="#E24BCF"/>
</linearGradient>
</defs>
</svg>
