<svg width="160" height="64" viewBox="0 0 160 64" fill="none" xmlns="http://www.w3.org/2000/svg">
<g clip-path="url(#clip0)">
<path fill-rule="evenodd" clip-rule="evenodd" d="M119.333 41.7311C119.899 41.899 120.615 42.1063 121.326 42.3349C121.364 42.3472 121.393 42.5496 121.354 42.6258C121.229 42.8757 121.235 43.2132 120.73 43.0985C119.929 42.9166 119.041 42.6626 118.285 42.8454C117.1 43.1321 117.072 44.4455 117.89 45.2123C119.214 46.2455 120.532 47.2811 121.482 48.7059C121.821 49.1631 121.351 50.6755 120.916 51.109C119.5 52.4305 117.296 52.1495 115.851 51.1295C115.971 50.8869 116.068 50.6264 116.228 50.4166C116.656 50.3814 117.235 50.9418 117.674 50.9533C118.304 50.9967 118.948 50.9426 119.577 50.8574C120.237 50.7681 120.827 49.3614 120.378 48.864C119.128 47.1795 116.244 46.2086 116.339 43.8326C116.528 42.1809 117.899 41.9302 119.333 41.7311ZM83.9362 41.99C84.0015 41.9801 84.1571 42.1268 84.1579 42.2022C84.2514 44.6896 83.8467 47.3057 84.6529 49.6997C85.197 50.896 86.7457 50.9402 87.8945 50.9648C88.6837 50.9918 89.8696 50.0512 89.9083 49.3614C90.0405 47.0017 90.1284 44.6388 90.2646 42.2792C90.271 42.1694 90.5839 42.0105 90.7604 41.9998C90.8959 41.9916 91.1627 42.1784 91.1659 42.2849C91.1973 43.2886 91.1853 44.2931 91.1853 45.2976H91.1788C91.1651 47.4171 91.5891 50.025 89.5205 51.3498C88.4604 52.0274 87.3148 52.0168 86.1419 51.8357C84.4038 51.6644 83.4122 49.9422 83.2639 48.3339C83.1808 46.2881 83.2211 44.2365 83.2558 42.1882C83.2566 42.1145 83.6951 42.0285 83.9362 41.99ZM38.4794 41.9544C39.7411 44.5819 40.5787 47.452 41.8863 50.041C42.8384 47.7018 43.8251 45.3733 44.8094 43.0473C45.0561 42.4516 45.281 41.847 45.5253 41.2497C45.5584 41.1678 45.643 41.049 45.7059 41.0482C46.0284 41.0424 46.3516 41.0695 46.6749 41.085C45.9534 43.0325 44.9957 44.8809 44.2693 46.8276C43.9831 47.5191 43.6873 48.2057 43.4027 48.898C42.9198 49.905 42.7231 51.0897 41.9443 51.9156C41.0261 51.2864 40.8383 50.1532 40.3884 49.1954C40.0611 48.4097 39.7467 47.6191 39.4121 46.8366C38.552 44.9424 37.7772 43.0113 37.0114 41.076C37.1936 41.0564 37.3766 41.0375 37.7635 40.9974C38.3577 40.8253 38.2811 41.5791 38.4794 41.9544ZM99.9884 42.1025C101.481 42.3319 102.174 44.0746 101.865 45.4912C101.654 46.1393 101.218 46.7562 100.746 47.2584C100.296 47.7377 100.727 47.9548 100.897 48.2015C101.352 48.8586 101.805 49.5443 102.384 50.0769C102.863 50.5185 103.541 50.7307 104.089 51.1076C104.217 51.196 104.186 51.5369 104.205 51.7638C104.21 51.8105 104.107 51.9097 104.052 51.9113C103.033 51.9326 102.204 51.5238 101.577 50.7167C100.952 49.9114 100.393 49.0478 99.7168 48.2908C99.4975 48.0441 99.0049 47.9745 98.6316 47.9589C97.5151 47.913 97.5143 47.9393 97.5143 49.0716C97.5143 49.8966 97.5224 50.7225 97.503 51.5475C97.5006 51.6393 97.3289 51.8146 97.2612 51.8024C97 51.7548 96.5316 51.6541 96.5284 51.5607C96.4832 50.0146 96.4961 48.4669 96.4961 46.92C96.4961 45.419 96.4856 43.9181 96.5138 42.4179C96.5163 42.272 96.7598 42.0074 96.892 42.0074C97.9247 42.0033 98.963 41.9943 99.9884 42.1025ZM60.0096 41.9707C60.2498 42.0519 60.5586 42.0625 60.7166 42.2255C61.2841 42.8097 61.8081 43.4398 62.337 44.0624C63.9219 45.9764 65.5592 47.9083 67.1667 49.7706C67.2917 47.2815 67.1683 44.7539 67.2239 42.2526C67.2239 42.16 67.4118 41.9797 67.4819 41.9937C67.7383 42.0453 68.1986 42.1592 68.2002 42.2542C68.1051 45.4217 68.4945 48.8013 68.0793 51.8754C67.9132 51.8918 67.673 51.8877 67.5811 51.7837C66.891 51.0037 66.2324 50.1958 65.5584 49.4011C64.0251 47.5994 62.4635 45.7756 60.9245 44.0051C60.8028 46.5007 60.9302 49.0406 60.852 51.5501C60.8504 51.6436 60.411 51.7484 60.1659 51.8025C60.1119 51.8148 59.9507 51.6354 59.9499 51.5436C59.9362 49.991 59.9402 48.4384 59.9402 46.885C59.995 45.2537 59.8274 43.5823 60.0096 41.9707ZM111.936 42.0067C112.025 42.0092 112.126 42.4278 112.171 42.6621C112.184 42.7285 112.019 42.903 111.933 42.9046C111.42 43.0013 108.512 42.7146 108.511 43.1021C108.546 47.0864 107.871 45.8272 111.587 46.0689C111.676 46.0713 111.826 46.3245 111.824 46.458C111.82 46.6096 111.681 46.8849 111.593 46.8874C110.64 46.9185 109.685 46.9021 108.73 46.9168C108.654 46.9177 108.513 47.0537 108.513 47.1282C108.499 48.3056 108.499 49.4829 108.513 50.6603C108.464 51.0937 111.59 50.7832 112.111 50.8848C112.435 50.9684 112.179 51.7598 112.118 51.7885C111.5 51.7131 107.37 52.0958 107.464 51.5484L107.453 49.2281L107.453 46.9078C107.453 45.3724 107.447 43.8362 107.468 42.3017C107.469 42.1927 107.668 41.9928 107.777 41.9919C109.164 41.9706 110.551 41.9649 111.936 42.0067ZM54.9849 41.9969C55.2373 42.1173 55.2462 42.7728 54.993 42.8957C53.8974 42.9252 52.8003 42.9129 51.7039 42.9235C51.6442 42.9235 51.5346 43.0357 51.5338 43.0964C51.5668 47.0307 50.9025 45.8345 54.5448 46.0762C54.6593 46.082 54.7882 46.4228 54.8463 46.6276C54.8632 46.6866 54.6593 46.8914 54.5536 46.8939C54.0837 46.9898 51.5346 46.7169 51.5338 47.0938C51.5233 48.2998 51.5241 49.5067 51.533 50.7127C51.533 50.7668 51.6337 50.866 51.6885 50.8668C52.8309 50.8758 53.9732 50.8692 55.1148 50.8848C55.1833 50.8856 55.3131 51.0503 55.3034 51.1224C55.2728 51.3583 55.1946 51.7868 55.1252 51.7877C54.5045 51.7139 50.4196 52.0884 50.4825 51.5648C50.4688 50.0171 50.4729 48.4703 50.4729 46.9234C50.4729 45.37 50.468 43.8174 50.4849 42.2648C50.4865 42.1681 50.6615 41.9911 50.7582 41.9903C52.1674 41.9723 53.5766 41.9698 54.9849 41.9969ZM79.1996 42.0064C79.2746 42.0072 79.3633 42.4373 79.402 42.6749C79.4133 42.7429 79.273 42.9068 79.2005 42.9076C78.2863 42.924 77.3713 42.9125 76.4563 42.9289C76.3772 42.9306 76.2329 43.0772 76.2329 43.1567C76.2208 45.962 76.2289 48.7673 76.1927 51.5727C76.1918 51.6571 75.7501 51.7587 75.505 51.8029C75.0019 51.9447 75.3486 47.9325 75.2518 47.3622C75.2518 45.9481 75.2542 44.534 75.2438 43.1198C75.2881 42.7233 72.7616 42.9969 72.3125 42.9076C72.2529 42.9068 72.1392 42.738 72.1489 42.661C72.1771 42.4291 72.2521 42.0072 72.3133 42.0064C74.6093 41.9719 76.9045 41.9703 79.1996 42.0064ZM97.5151 44.9455C97.5151 45.5739 97.5127 46.2023 97.5183 46.8307C97.5191 46.8897 97.5675 46.9946 97.6014 46.9979C99.1113 47.1478 99.7942 47.4247 100.722 45.8181C101.332 43.9328 100.481 42.8792 98.5655 42.8767C96.9717 42.6965 97.6344 43.9 97.5151 44.9455ZM128 12V36.3419H32V12H128ZM126.272 13.7566H33.7284V34.5853H126.272V13.7566ZM118.56 20.0481C119.044 20.6282 119.224 22.5192 118.814 23.1796C118.483 23.7097 118.061 24.1848 117.77 24.7338C117.705 24.8559 118 25.1984 118.16 25.4163C118.522 25.9095 118.861 26.4331 119.292 26.8583C120.218 27.9791 121.516 27.5088 121.377 28.6206C121.327 29.2573 121.332 29.7193 120.513 29.4211C119.828 29.172 119.054 29.0729 118.464 28.6821C117.409 27.9218 116.851 26.447 115.894 25.5867C115.608 25.3663 115.03 25.5261 114.585 25.5548C114.559 25.5556 114.541 25.9087 114.54 26.098C114.536 27.1139 114.544 28.1299 114.528 29.145C114.527 29.2294 114.377 29.3834 114.294 29.3842C112.753 29.4071 112.693 29.4042 112.691 27.9508L112.691 27.7694C112.691 26.5232 112.691 25.2762 112.69 24.03C112.69 22.3389 112.687 20.6479 112.699 18.9568C112.699 18.8814 112.828 18.7438 112.902 18.7397C114.881 18.6578 117.21 18.1858 118.56 20.0481ZM44.1263 17.4093C45.7628 17.7386 46.9568 17.6567 48.299 18.3146C48.4022 18.6596 48.0563 19.2994 47.987 19.6845C47.8806 20.2687 47.5017 19.9106 47.2728 19.8828C46.132 19.5034 44.9252 19.4387 43.7289 19.4289C42.8711 19.4297 42.1939 19.859 41.6022 20.4907C39.7996 22.4219 40.1906 25.7253 42.4704 27.0616C43.5797 27.7851 44.7712 27.7302 45.9756 27.5344C46.4988 27.5458 47.596 26.7913 47.9435 27.2042C48.2361 27.8752 48.9198 28.7298 47.8266 28.8879C46.5674 29.1386 45.2896 29.4721 44.0247 29.4516C41.6159 29.3205 38.9797 27.0846 38.6863 24.5824C38.2743 22.1531 39.3586 19.4068 41.5038 18.1958C42.3503 17.7378 43.3749 17.6198 44.1263 17.4093ZM61.7356 23.9972C61.8936 31.2547 51.2047 31.1908 51.2183 24.0325C51.1845 16.7725 61.8767 16.7569 61.7356 23.9972ZM67.6149 20.0997L67.6149 20.2764C67.6149 22.6205 67.6133 24.9637 67.6246 27.3078C67.6254 27.3815 67.7649 27.5192 67.8399 27.52C68.4243 27.6257 71.9094 27.2971 71.8715 27.7527C71.8925 29.3345 71.8902 29.3931 70.4417 29.3953L70.268 29.3954C68.8588 29.3954 67.4497 29.4003 66.0405 29.3831C65.4762 29.4519 65.8841 24.7359 65.7664 24.001C65.7664 22.2919 65.7632 20.5836 65.7761 18.8746C65.7769 18.7951 65.9172 18.6468 65.9954 18.646C67.555 18.6239 67.6127 18.6261 67.6149 20.0997ZM76.729 20.0589L76.7292 20.2378C76.7292 22.5811 76.726 24.9243 76.7405 27.2675C76.7413 27.356 76.9066 27.5174 76.9969 27.5191C77.5725 27.6264 81.0349 27.2995 80.9858 27.7509C81.0052 29.3344 81.0037 29.393 79.5552 29.3952L79.3815 29.3953C77.978 29.3953 76.5752 29.401 75.1717 29.3822C74.5856 29.5026 74.9976 24.7072 74.8807 23.987C74.8807 22.2959 74.8767 20.6049 74.892 18.9138C74.8928 18.8204 75.0572 18.6491 75.1475 18.6475C76.6676 18.6231 76.7261 18.6259 76.729 20.0589ZM108.571 18.6501C109.167 18.8295 108.743 19.9306 108.77 20.4099C108.767 20.4444 108.648 20.4902 108.583 20.4902C107.526 20.4952 106.469 20.4902 105.412 20.5033C105.344 20.5042 105.224 20.6361 105.218 20.7131C105.259 21.0859 104.925 22.7016 105.373 22.6991C105.919 22.786 108.321 22.5246 108.445 22.8793C108.469 24.4664 108.477 24.4934 106.904 24.4877C106.335 24.4877 105.617 24.2911 105.251 24.5688C104.992 24.7663 105.219 25.6101 105.208 26.1648C105.199 26.5909 105.155 27.0161 105.141 27.4413C105.141 27.4692 105.272 27.5257 105.341 27.5265C106.484 27.5314 107.626 27.5249 108.768 27.5404C109.209 27.6814 108.959 28.7145 108.996 29.1078C108.988 29.2094 108.818 29.3814 108.721 29.3831C107.011 29.3995 105.3 29.4011 103.59 29.3806C103.48 29.379 103.278 29.1717 103.276 29.057C103.255 27.3725 103.261 25.6863 103.261 24.001C103.261 22.3214 103.256 20.641 103.275 18.9622C103.277 18.8524 103.471 18.6517 103.578 18.6501C105.242 18.6304 106.906 18.6296 108.571 18.6501ZM84.3425 18.6479C84.848 18.6528 85.3534 18.6873 85.8573 18.7282C85.8944 18.7307 85.9476 18.8618 85.9476 18.9339C85.9524 22.3086 85.9548 25.6834 85.9371 29.0581C85.9371 29.1712 85.7291 29.3785 85.6154 29.3801C84.1667 29.4077 84.1087 29.402 84.1064 28.0401L84.1063 24.003C84.1063 22.2955 84.1031 20.5873 84.116 18.8798C84.1168 18.7979 84.2643 18.6471 84.3425 18.6479ZM94.7541 18.6881C96.709 19.015 98.5471 20.4365 99.0453 22.4397C99.6032 24.4659 99.3065 26.7698 97.674 28.2167C95.9569 29.775 93.4013 29.281 91.2706 29.3801C90.7063 29.3818 90.3758 29.1802 90.4266 28.4232C90.5257 26.9517 90.4556 25.4695 90.4556 23.9915C90.4556 22.3463 90.4467 20.7011 90.4717 19.056C90.4741 18.9167 90.6998 18.6635 90.8264 18.6602C92.138 18.6283 93.4779 18.471 94.7541 18.6881ZM56.5101 20.3505C52.0391 20.2145 52.0149 27.6694 56.4899 27.6678C60.969 27.7251 60.9399 20.1932 56.5101 20.3505ZM92.5202 20.3791C92.0929 20.339 92.3936 23.472 92.3082 23.9849C92.3082 25.1279 92.3066 26.27 92.313 27.413C92.313 27.4842 92.3856 27.6186 92.4178 27.6162C93.4296 27.5523 94.4526 27.5482 95.4482 27.3802C97.8457 26.873 98.0577 23.3893 96.6639 21.7163C95.6521 20.4119 94.039 20.2702 92.5202 20.3791ZM114.897 20.3865C114.075 20.4603 114.736 21.1223 114.552 21.4754C114.472 21.6286 114.539 21.8596 114.539 22.0563C114.606 22.9452 114.133 23.9661 115.477 23.7695C116.195 23.6916 116.993 23.1902 117.061 22.475C117.451 20.8281 116.37 20.3079 114.897 20.3865Z" fill="#374248"/>
</g>
<defs>
<clipPath id="clip0">
<rect width="96" height="40" fill="white" transform="translate(32 12)"/>
</clipPath>
</defs>
</svg>
