<svg width="135" height="24" viewBox="0 0 135 24" fill="none" xmlns="http://www.w3.org/2000/svg">
<rect width="135" height="24" fill="#374248"/>
<path fill-rule="evenodd" clip-rule="evenodd" d="M15.7712 7.71802C17.3494 9.27472 18.0754 11.0182 18.0754 13.2599C18.0754 17.6186 14.8664 20.649 10.2685 20.649H5.76535L3.14551 18.0649V3.32813H7.73286C10.1949 3.32813 12.2676 4.19988 13.6775 5.66318L15.7712 7.71802ZM5.62857 5.6528H5.597V6.1717L7.83807 8.36146V7.83218L5.62857 5.6528ZM8.21684 7.75953L6.08099 5.6528H5.77587L7.91172 7.75953H8.21684ZM8.96387 7.75953L6.82801 5.6528H6.22829L8.36414 7.75953H8.96387ZM7.76442 5.6528H6.97531L9.11116 7.75953H9.90027L7.76442 5.6528ZM10.6683 7.76991L8.57457 5.70469C8.35362 5.67355 8.1432 5.66318 7.91172 5.6528L10.0476 7.75953H10.2685C10.4053 7.75953 10.5421 7.75953 10.6683 7.76991ZM11.3417 7.84256L9.30055 5.82922C9.12168 5.78771 8.9323 5.75658 8.74291 5.72544L10.8262 7.78029C11.005 7.79067 11.1839 7.8218 11.3417 7.84256ZM11.952 7.98785L9.9634 6.02641C9.8161 5.97452 9.65828 5.92263 9.50046 5.88111L11.5311 7.88407C11.6784 7.9152 11.8152 7.94634 11.952 7.98785ZM12.1834 8.06049C12.3202 8.12276 12.4675 8.18503 12.5938 8.2473L10.6578 6.33775C10.521 6.2651 10.3737 6.19245 10.2264 6.13019L12.1834 8.06049ZM5.597 10.271L5.97578 10.6446L5.89161 10.7276L5.597 10.4371V15.8751H7.83807V8.50675L5.597 6.33775V6.84627L7.72234 8.93225L7.63817 9.00489L5.597 7.00194V7.52084L7.36461 9.27472L7.29095 9.35774L5.597 7.67651V8.20579L7.0174 9.61719L6.94375 9.70022L5.597 8.36146V8.89073L6.67019 9.95967L6.59655 10.0427L5.597 9.0464V9.58606L6.32299 10.3021L6.23881 10.3852L5.597 9.74173V10.271ZM12.4254 7.93596C12.0677 7.38592 11.5942 6.91891 11.0261 6.55568L12.4254 7.93596ZM15.5608 7.92558L14.7086 7.06421C15.2767 8.11238 15.645 9.40963 15.645 10.7588C15.645 10.9041 15.645 11.0494 15.6345 11.1843L17.7808 13.3118V13.2599C17.7808 11.0909 17.0654 9.45115 15.5608 7.92558ZM8.13267 15.8648C11.1944 15.6987 13.1724 13.7165 13.1724 10.7588C13.1724 9.9908 13.0357 9.2851 12.7831 8.66242C12.1413 8.22654 11.4048 8.05012 10.2685 8.05012H8.13267V15.8648ZM15.1926 13.4259L17.4231 15.6261C17.6335 14.9515 17.7598 14.225 17.7808 13.4571L15.6239 11.3296C15.5713 12.0768 15.424 12.7721 15.1926 13.4259ZM17.381 15.7298L15.1505 13.5297C14.9506 14.0486 14.698 14.5364 14.3929 14.9722L16.6656 17.2139C16.9602 16.7573 17.2021 16.2591 17.381 15.7298ZM15.7397 18.3347C16.0658 18.0234 16.3499 17.6705 16.6024 17.2969L14.3403 15.0656C14.0773 15.4289 13.7827 15.7713 13.446 16.0723L15.7397 18.3347ZM12.4465 16.8507L14.7507 19.1234C15.0768 18.9055 15.3819 18.6668 15.666 18.4074L13.3723 16.145C13.0883 16.4044 12.7831 16.6431 12.4465 16.8507ZM11.4364 17.4007L13.7406 19.6735C14.0562 19.5282 14.3614 19.3621 14.656 19.1857L12.3518 16.9129C12.0677 17.0997 11.7626 17.2554 11.4364 17.4007ZM10.4474 17.7639L12.7411 20.0263C13.0462 19.9433 13.3513 19.8291 13.6354 19.715L11.3312 17.4422C11.0471 17.5667 10.7525 17.6809 10.4474 17.7639ZM9.48994 17.9922L11.7731 20.2443C12.0677 20.1924 12.3518 20.1301 12.6253 20.0575L10.3422 17.8054C10.0686 17.8781 9.78454 17.9404 9.48994 17.9922ZM9.35316 18.013C9.10064 18.0649 8.83761 18.096 8.57457 18.1168L10.8367 20.3377C11.1102 20.3273 11.3733 20.2962 11.6363 20.265L9.35316 18.013ZM9.9634 20.3584H10.2685C10.4158 20.3584 10.5526 20.3584 10.6894 20.348L8.43779 18.1272C8.20632 18.1375 7.97485 18.1479 7.73286 18.1479H7.72234L9.9634 20.3584ZM3.65054 18.1479L5.89161 20.3584H6.03891L3.80836 18.1479H3.65054ZM3.95567 18.1479L6.19672 20.3584H6.38611L4.14504 18.1479H3.95567ZM4.29235 18.1479L6.53341 20.3584H6.77541L4.53434 18.1479H4.29235ZM4.68164 18.1479L6.9227 20.3584H7.22783L4.98676 18.1479H4.68164ZM5.13407 18.1479L7.37512 20.3584H7.74337L5.50232 18.1479H5.13407ZM5.64961 18.1479L7.89068 20.3584H8.33257L6.09152 18.1479H5.64961ZM6.24933 18.1479L8.4904 20.3584H9.02699L6.78592 18.1479H6.24933ZM6.93323 18.1479L9.17429 20.3584H9.8161L7.56451 18.1479H6.93323ZM29.6595 15.8959L32.2794 18.48V20.649H22.1578L19.5379 18.0649V3.32813H29.3544L31.9743 5.91225V7.95671H24.5146L24.504 9.44077H28.155L30.7748 12.0249V14.1109H24.504V15.8959H29.6595ZM31.6797 6.03678L29.4386 3.82627V5.5594L31.6797 7.66613V6.03678ZM24.4304 7.66613L22.1998 5.5594H22.042L24.2726 7.66613H24.4304ZM24.8513 7.66613L22.6102 5.5594H22.3577L24.5882 7.66613H24.8513ZM25.3773 7.66613L23.1363 5.5594H22.768L25.0091 7.66613H25.3773ZM26.0086 7.66613L23.7781 5.5594H23.2941L25.5351 7.66613H26.0086ZM26.8503 7.66613L24.5987 5.5594H23.9359L26.1664 7.66613H26.8503ZM27.692 7.66613L25.4405 5.5594H24.7671L27.0081 7.66613H27.692ZM28.5653 7.66613L26.3242 5.5594H25.6088L27.8499 7.66613H28.5653ZM29.407 7.66613L27.187 5.5594H26.4821L28.7231 7.66613H29.407ZM30.1435 7.66613L27.913 5.5594H27.3343L29.5754 7.66613H30.1435ZM30.7748 7.66613L28.5443 5.5594H28.0603L30.3119 7.66613H30.7748ZM31.1957 7.66613L28.9757 5.5594H28.6916L30.9432 7.66613H31.1957ZM31.5113 7.66613L29.2913 5.5594H29.123L31.364 7.66613H31.5113ZM21.9684 8.58977L22.4839 9.07754L22.3997 9.15018L21.9684 8.74544V9.44077H24.2094V7.74915L21.9684 5.64242V6.0783L23.9148 7.9152L23.8201 7.97747L21.9684 6.23397V6.71135L23.5571 8.20579L23.4624 8.27843L21.9684 6.85665V7.33403L23.1994 8.49637L23.1047 8.56902L21.9684 7.4897V7.96709L22.8417 8.78695L22.7575 8.8596L21.9684 8.11238V8.58977ZM28.2391 9.93891V11.7135H28.2286L30.4802 13.8203V12.1494L28.2391 9.93891ZM24.2831 13.8203H24.4725L22.2314 11.7135H22.042L24.2831 13.8203ZM22.3892 11.7135L24.6303 13.8203H24.9985L22.768 11.7135H22.3892ZM22.9258 11.7135L25.1564 13.8203H25.735L23.4835 11.7135H22.9258ZM23.6518 11.7135L25.8929 13.8203H26.682L24.4514 11.7135H23.6518ZM27.692 13.8203L25.472 11.7135H24.6093L26.8398 13.8203H27.692ZM28.7021 13.8203L26.461 11.7135H25.6193L27.8604 13.8203H28.7021ZM29.4281 13.8203L27.2081 11.7135H26.6189L28.8599 13.8203H29.4281ZM29.9541 13.8203L27.7236 11.7135H27.3554L29.5964 13.8203H29.9541ZM27.8709 11.7135L30.1225 13.8203H30.3119L28.0813 11.7135H27.8709ZM21.9684 15.3977L22.2419 15.6572L22.1578 15.7402L21.9684 15.5638V15.8959H24.2094V13.8929L21.9684 11.7862V12.2428L23.9148 14.0901L23.8412 14.1628L21.9684 12.3985V12.8863L23.5887 14.4118L23.5045 14.4845L21.9684 13.0316V13.5089L23.252 14.7232L23.1678 14.7958L21.9684 13.6646V14.142L22.9153 15.0345L22.8311 15.1072L21.9684 14.2977V14.7751L22.5786 15.3458L22.4944 15.4185L21.9684 14.9204V15.3977ZM29.7437 16.394V18.1479L31.9848 20.3584V18.6045L29.7437 16.394ZM21.0635 18.1479H20.043L22.284 20.3584H23.3046L21.0635 18.1479ZM22.1262 18.1479H21.2108L23.4519 20.3584H24.3778L22.1262 18.1479ZM22.2735 18.1479L24.5251 20.3584H25.3458L23.0942 18.1479H22.2735ZM23.2415 18.1479L25.4931 20.3584H26.219L23.978 18.1479H23.2415ZM24.7671 18.1479H24.1253L26.3663 20.3584H27.0187L24.7671 18.1479ZM27.7341 20.3584L25.4931 18.1479H24.9144L27.166 20.3584H27.7341ZM25.6404 18.1479L27.8814 20.3584H28.3864L26.1454 18.1479H25.6404ZM26.2927 18.1479L28.5338 20.3584H28.9862L26.7346 18.1479H26.2927ZM26.8819 18.1479L29.1335 20.3584H29.5228L27.2712 18.1479H26.8819ZM27.4185 18.1479L29.6701 20.3584H30.0067L27.7552 18.1479H27.4185ZM27.9025 18.1479L30.154 20.3584H30.4487L28.1971 18.1479H27.9025ZM28.3444 18.1479L30.596 20.3584H30.8485L28.5969 18.1479H28.3444ZM28.7442 18.1479L30.9958 20.3584H31.2062L28.9651 18.1479H28.7442ZM29.1124 18.1479L31.3535 20.3584H31.5429L29.2913 18.1479H29.1124ZM29.4386 18.1479L31.6902 20.3584H31.8375L29.5859 18.1479H29.4386ZM46.3255 8.03974H38.5712V9.93891H42.401L45.0209 12.523V14.6401H38.5712V20.649H36.2355L33.6156 18.0649V3.32813H43.7057L46.3255 5.91225V8.03974ZM43.7898 3.82627V5.64242L46.0204 7.74915H46.0309V6.03678L43.7898 3.82627ZM38.3397 7.74915H38.5081L36.267 5.64242H36.1197L38.3397 7.74915ZM38.9184 7.74915L36.6668 5.64242H36.4354L38.6554 7.74915H38.9184ZM39.455 7.74915L37.2034 5.64242H36.8352L39.0657 7.74915H39.455ZM40.1389 7.74915L37.8978 5.64242H37.3718L39.6023 7.74915H40.1389ZM41.0858 7.74915L38.8448 5.64242H38.0662L40.2862 7.74915H41.0858ZM41.9907 7.74915L39.7496 5.64242H39.0026L41.2437 7.74915H41.9907ZM42.9797 7.74915L40.7386 5.64242H39.9074L42.1485 7.74915H42.9797ZM43.9161 7.74915L41.6856 5.64242H40.8859L43.1375 7.74915H43.9161ZM44.6105 7.74915L42.3695 5.64242H41.8434L44.0739 7.74915H44.6105ZM45.1471 7.74915L42.906 5.64242H42.5273L44.7683 7.74915H45.1471ZM45.5469 7.74915L43.3164 5.64242H43.0639L45.3049 7.74915H45.5469ZM43.4742 5.64242L45.7047 7.74915H45.8626L43.632 5.64242H43.4742ZM36.0356 9.93891H38.2766V7.83218L36.0356 5.71507V6.06792L38.0346 7.96709L37.961 8.03974L36.0356 6.22359V6.70098L37.7085 8.28881L37.6243 8.37183L36.0356 6.85665V7.33403L37.3823 8.61053L37.2981 8.69355L36.0356 7.4897V7.96709L37.0561 8.93225L36.9825 9.00489L36.0356 8.11238V8.60015L36.73 9.25396L36.6563 9.32661L36.0356 8.74544V9.22283L36.4038 9.57568L36.3301 9.64833L36.0356 9.36812V9.93891ZM42.4852 10.4371V12.2428L44.7263 14.3496V12.6476L42.4852 10.4371ZM36.0987 12.2428L38.3292 14.3496H38.5397L36.2986 12.2428H36.0987ZM36.4564 12.2428L38.6869 14.3496H39.0447L36.8141 12.2428H36.4564ZM36.972 12.2428L39.192 14.3496H39.8548L37.6032 12.2428H36.972ZM37.7611 12.2428L40.0021 14.3496H40.8228L38.5923 12.2428H37.7611ZM38.7501 12.2428L40.9701 14.3496H41.917L39.697 12.2428H38.7501ZM39.8443 12.2428L42.0749 14.3496H42.906L40.665 12.2428H39.8443ZM40.8123 12.2428L43.0639 14.3496H43.6952L41.4751 12.2428H40.8123ZM41.6224 12.2428L43.853 14.3496H44.2107L41.9802 12.2428H41.6224ZM42.1275 12.2428L44.3685 14.3496H44.5684L42.3379 12.2428H42.1275ZM36.0356 18.1479L38.2766 20.3584V14.4015L38.2556 14.4222L36.0356 12.3362V12.6787L38.0451 14.5883L37.9715 14.6609L36.0356 12.8344V13.3118L37.719 14.91L37.6348 14.993L36.0356 13.4674V13.9448L37.3928 15.2317L37.3086 15.3147L36.0356 14.1005V14.5779L37.0667 15.5534L36.993 15.6261L36.0356 14.7232V15.2109L36.7405 15.8751L36.6668 15.9478L36.0356 15.3562V15.844L36.4143 16.1968L36.3407 16.2695L36.0356 15.9789V18.1479ZM34.1207 18.1479L36.3617 20.3584H36.7931L34.5625 18.1479H34.1207ZM35.0886 18.1479H34.7099L36.9509 20.3584H37.3297L35.0886 18.1479ZM35.2359 18.1479L37.4875 20.3584H37.7611L35.5305 18.1479H35.2359ZM35.6778 18.1479L37.9189 20.3584H38.1188L35.8882 18.1479H35.6778ZM49.8397 3.32813L52.4595 5.91225V20.649H50.0817L47.4618 18.0649V3.32813H49.8397ZM49.9239 3.99232L52.1649 6.20283V6.03678L49.9239 3.82627V3.99232ZM49.9239 4.43857L52.1649 6.64909V6.3585L49.9239 4.14799V4.43857ZM49.9239 5.05087L52.1649 7.26139V6.79438L49.9239 4.58386V5.05087ZM49.9239 5.91225L52.1649 8.12276V7.41706L49.9239 5.20654V5.91225ZM49.9239 7.08496L52.1649 9.29548V8.26805L49.9239 6.05754V7.08496ZM49.9239 8.70393L52.1649 10.9144V9.44077L49.9239 7.23026V8.70393ZM49.9239 18.1479L52.1649 20.3584V11.0597L49.9239 8.84922V18.1479ZM48.4509 18.1479H47.9669L50.2079 20.3584H50.6814L48.4509 18.1479ZM51.218 20.3584L48.9769 18.1479H48.5982L50.8392 20.3584H51.218ZM49.1242 18.1479L51.3758 20.3584H51.6494L49.4188 18.1479H49.1242ZM49.5661 18.1479L51.8072 20.3584H52.0071L49.7766 18.1479H49.5661ZM72.7133 6.82551C73.7339 7.8218 74.2179 8.953 74.2179 10.354C74.2179 13.2599 71.9663 15.377 68.8414 15.377H66.169V20.649H63.8016L61.1818 18.0649V3.32813H66.4846C68.3364 3.32813 69.8199 3.98194 70.6195 4.77067L72.7133 6.82551ZM63.6333 9.24359L63.8543 9.46152L63.7701 9.54455L63.6333 9.40963V10.8522H65.7692V7.65575L63.6333 5.54902V5.99527L65.4745 7.85293L65.4009 7.92558L63.6333 6.16132V6.65946L65.1484 8.17465L65.0747 8.2473L63.6333 6.81514V7.3029L64.8328 8.49637L64.7486 8.56902L63.6333 7.45857V7.94634L64.5066 8.81809L64.4224 8.89073L63.6333 8.10201V8.58977L64.1804 9.13981L64.0962 9.21245L63.6333 8.75582V9.24359ZM66.0322 7.55197L64.0121 5.54902H63.7806L65.8218 7.56235L65.9165 7.55197H66.0322ZM66.5057 7.55197L64.475 5.54902H64.1594L66.19 7.55197H66.5057ZM67.1054 7.55197L65.0747 5.54902H64.6223L66.653 7.55197H67.1054ZM67.7998 7.55197L65.7692 5.54902H65.222L67.2527 7.55197H67.7998ZM66.5267 5.54902H65.9165L67.9471 7.55197H68.5573L66.5267 5.54902ZM69.1571 7.55197L67.1896 5.61129C67.0317 5.58015 66.8529 5.56977 66.6845 5.5594L68.7046 7.55197H69.1571ZM69.378 7.31328L67.8208 5.77733C67.684 5.72544 67.5262 5.68393 67.3789 5.6528L69.3254 7.57273C69.3675 7.57273 69.4096 7.57273 69.4517 7.58311C69.4306 7.4897 69.4096 7.40668 69.378 7.31328ZM69.2833 7.07458C69.0518 6.55568 68.6415 6.15094 68.0944 5.89149L69.2833 7.07458ZM72.5029 7.03307L71.577 6.10943C71.8295 6.66984 71.9978 7.36517 71.9978 8.06049C71.9978 8.18503 71.9978 8.30957 71.9873 8.42372L73.9233 10.1569C73.8812 8.92187 73.4077 7.94634 72.5029 7.03307ZM66.4215 10.8522C68.2417 10.8522 69.5148 9.74173 69.5148 8.16427C69.5148 8.07087 69.5148 7.97747 69.5043 7.88407C69.3254 7.85293 69.136 7.84256 68.9571 7.84256H66.0638V10.8522H66.4215ZM73.6287 12.056C73.8181 11.5371 73.9233 10.9663 73.9233 10.354V10.3021L71.9768 8.54826C71.9242 9.13981 71.7769 9.68984 71.5454 10.188L73.6287 12.056ZM71.4928 10.2814C71.3034 10.6654 71.072 11.0078 70.7879 11.3192L72.9553 13.2599C73.2078 12.9278 73.4288 12.5542 73.5866 12.1598L71.4928 10.2814ZM72.1241 14.059C72.4082 13.841 72.6607 13.6023 72.8922 13.3325L70.7142 11.3918C70.4722 11.6513 70.2092 11.8692 69.9146 12.0768L72.1241 14.059ZM69.0203 12.5645L71.2613 14.5779C71.5454 14.443 71.7979 14.2977 72.0399 14.1212L69.8199 12.139C69.5674 12.2947 69.3044 12.44 69.0203 12.5645ZM68.1365 12.8655L70.3986 14.8892C70.6616 14.8166 70.9247 14.7232 71.1667 14.6194L68.9151 12.6061C68.6625 12.7098 68.3995 12.7929 68.1365 12.8655ZM67.2842 13.0212L69.5569 15.0449C69.8094 15.0138 70.0514 14.9722 70.2828 14.9204L68.0207 12.8863C67.7787 12.9485 67.5368 12.99 67.2842 13.0212ZM68.7257 15.0864H68.8414C69.0308 15.0864 69.2202 15.076 69.399 15.0656L67.1369 13.0419C66.9265 13.0627 66.7056 13.0731 66.4846 13.0834L68.7257 15.0864ZM65.7481 13.0834L67.9892 15.0864H68.5573L66.3268 13.0834H65.7481ZM65.8744 20.3584V15.0864H65.8849L63.6438 13.0834H63.6333V13.6127L65.5798 15.3562L65.4956 15.4289L63.6333 13.758V14.308L65.2115 15.7195L65.1273 15.7921L63.6333 14.4533V14.993L64.8433 16.0827L64.7696 16.1553L63.6333 15.1383V15.6883L64.475 16.4459L64.4014 16.5186L63.6333 15.8336V16.3629L64.1173 16.7988L64.0436 16.8818L63.6333 16.5186V18.1479L65.8744 20.3584ZM63.8016 13.0834L66.0322 15.0864H66.2637L64.0226 13.0834H63.8016ZM64.1699 13.0834L66.411 15.0864H66.695L64.454 13.0834H64.1699ZM64.6223 13.0834L66.8529 15.0864H67.2106L64.98 13.0834H64.6223ZM65.1168 13.0834L67.3684 15.0864H67.8313L65.6008 13.0834H65.1168ZM61.6868 18.1479L63.9279 20.3584H64.3908L62.1603 18.1479H61.6868ZM62.6864 18.1479H62.3076L64.5487 20.3584H64.9274L62.6864 18.1479ZM62.8337 18.1479L65.0853 20.3584H65.3588L63.1283 18.1479H62.8337ZM63.2756 18.1479L65.5166 20.3584H65.7165L63.486 18.1479H63.2756ZM88.1377 3.31775L90.6524 5.79809V13.9967C90.6524 18.1479 88.1483 20.8669 84.35 20.8669C82.3404 20.8669 80.899 20.3065 79.5943 19.0197L77.4374 16.9129C76.2485 15.761 75.6067 14.0278 75.6067 11.807V3.31775H77.974L80.5939 5.90187V14.225C80.5939 14.8685 80.6675 15.4911 80.8359 16.0516C81.1831 16.1346 81.5618 16.1865 81.9617 16.1865C84.3395 16.1865 85.7704 14.526 85.7704 11.7239V3.31775H88.1377ZM80.2993 6.02641L78.0582 3.81589V3.98194L80.2993 6.19245V6.02641ZM88.2219 3.99232L90.3578 6.09905V5.92263L88.2219 3.82627V3.99232ZM80.2993 6.63871V6.34812L78.0582 4.13761V4.42819L80.2993 6.63871ZM88.2219 4.43857L90.3578 6.54531V6.25472L88.2219 4.14799V4.43857ZM80.2993 7.25101V6.784L78.0582 4.57349V5.0405L80.2993 7.25101ZM88.2219 5.05087L90.3578 7.15761V6.6906L88.2219 4.58386V5.05087ZM80.2993 8.11238V7.40668L78.0582 5.19617V5.90187L80.2993 8.11238ZM88.2219 5.91225L90.3578 8.01898V7.31328L88.2219 5.20654V5.91225ZM80.2993 9.2851V8.25768L78.0582 6.04716V7.07458L80.2993 9.2851ZM88.2219 7.08496L90.3578 9.1917V8.16427L88.2219 6.05754V7.08496ZM80.2993 10.9041V9.43039L78.0582 7.21988V8.69355L80.2993 10.9041ZM90.3578 9.33699L88.2219 7.23026V8.70393L90.3578 10.8107V9.33699ZM78.0582 8.83884V11.7239C78.0582 13.8826 78.9631 15.3874 80.5097 15.9478C80.3729 15.4081 80.2993 14.827 80.2993 14.225V11.0494L78.0582 8.83884ZM90 16.5082C90.2315 15.7506 90.3578 14.91 90.3578 13.9967V10.956L88.2219 8.84922V11.807C88.2219 12.7721 88.1062 13.6439 87.8747 14.4118L90 16.5082ZM87.8326 14.5156C87.6748 15.0241 87.4644 15.4911 87.2013 15.8959L89.3161 17.9819C89.5792 17.5667 89.8001 17.1101 89.9579 16.612L87.8326 14.5156ZM88.506 18.9989C88.7901 18.7187 89.0426 18.4177 89.2635 18.0753L87.1487 15.9893C86.9278 16.3318 86.6753 16.6327 86.3912 16.9129L88.506 18.9989ZM85.5074 17.5771L87.6432 19.6839C87.9273 19.5074 88.1903 19.2999 88.4323 19.0716L86.307 16.9752C86.065 17.2035 85.802 17.4007 85.5074 17.5771ZM84.6341 18.013L86.7805 20.1301C87.0435 20.0159 87.3065 19.8914 87.5485 19.7357L85.4127 17.629C85.1707 17.7743 84.9077 17.8988 84.6341 18.013ZM78.6579 17.7328L79.8048 18.8121C80.0257 19.0197 80.2467 19.2065 80.4676 19.3725L78.9315 17.8573L78.6579 17.7328ZM79.4891 18.0649C79.3839 18.0234 79.2787 17.9922 79.1735 17.9507L80.9411 19.6942C81.0989 19.7876 81.2462 19.881 81.404 19.9537L79.4891 18.0649ZM83.7713 18.2724L85.9282 20.3999C86.1808 20.3377 86.4227 20.265 86.6647 20.1716L84.5184 18.0545C84.2764 18.1375 84.0239 18.2102 83.7713 18.2724ZM79.6996 18.1272L81.6881 20.0886C81.8249 20.1405 81.9616 20.2028 82.1089 20.2443L80.0678 18.2309C79.9415 18.1998 79.8258 18.1687 79.6996 18.1272ZM80.2782 18.2828L82.3404 20.3169C82.4877 20.3584 82.635 20.3999 82.7929 20.4311L80.6991 18.3658C80.5518 18.3347 80.415 18.314 80.2782 18.2828ZM82.9507 18.4074L85.1076 20.5348C85.3496 20.5141 85.581 20.4726 85.802 20.4207L83.6451 18.2932C83.4241 18.3451 83.1927 18.3866 82.9507 18.4074ZM80.8674 18.3866L82.9717 20.4622C83.1401 20.4933 83.3084 20.5141 83.4767 20.5348L81.3619 18.4489C81.1936 18.4385 81.0358 18.4177 80.8674 18.3866ZM82.2142 18.4696L84.35 20.5764C84.5605 20.5764 84.7709 20.566 84.9708 20.5452L82.8244 18.4281C82.6245 18.4489 82.4141 18.4593 82.2142 18.4696ZM81.5198 18.4593L83.6346 20.5452C83.824 20.566 84.0028 20.5764 84.2027 20.5764L82.0669 18.4696H81.9196C81.7828 18.4696 81.6565 18.4696 81.5198 18.4593ZM102.331 15.844L104.951 18.4281V20.649H95.366L92.7462 18.0649V3.32813H95.1135L97.7333 5.91225V15.844H102.331ZM97.4387 6.03678L95.1976 3.82627V3.98194L97.4387 6.19245V6.03678ZM97.4387 6.63871V6.34812L95.1976 4.13761V4.42819L97.4387 6.63871ZM97.4387 7.25101V6.784L95.1976 4.57349V5.0405L97.4387 7.25101ZM97.4387 8.11238V7.40668L95.1976 5.19617V5.90187L97.4387 8.11238ZM97.4387 9.2851V8.25768L95.1976 6.04716V7.07458L97.4387 9.2851ZM97.4387 10.9041V9.43039L95.1976 7.21988V8.69355L97.4387 10.9041ZM95.1976 15.844H97.4387V11.0494L95.1976 8.83884V15.844ZM104.656 20.3584V18.5527L102.415 16.3421V18.1479L104.656 20.3584ZM93.2512 18.1479L95.4922 20.3584H96.4707L94.2191 18.1479H93.2512ZM94.3664 18.1479L96.618 20.3584H97.5018L95.2502 18.1479H94.3664ZM95.3976 18.1479L97.6491 20.3584H98.4382L96.1867 18.1479H95.3976ZM96.334 18.1479L98.5855 20.3584H99.28L97.0389 18.1479H96.334ZM97.1862 18.1479L99.4378 20.3584H100.059L97.8175 18.1479H97.1862ZM97.9648 18.1479L100.206 20.3584H100.763L98.5119 18.1479H97.9648ZM98.6592 18.1479L100.911 20.3584H101.405L99.1537 18.1479H98.6592ZM99.301 18.1479L101.553 20.3584H101.984L99.7324 18.1479H99.301ZM99.8797 18.1479L102.131 20.3584H102.51L100.269 18.1479H99.8797ZM100.416 18.1479L102.657 20.3584H102.994L100.742 18.1479H100.416ZM100.89 18.1479L103.141 20.3584H103.425L101.184 18.1479H100.89ZM101.332 18.1479L103.573 20.3584H103.825L101.574 18.1479H101.332ZM101.731 18.1479L103.973 20.3584H104.183L101.942 18.1479H101.731ZM102.089 18.1479L104.33 20.3584H104.509L102.268 18.1479H102.089ZM116.251 13.5608C117.061 14.3599 117.408 15.2421 117.408 16.4563C117.408 19.0612 115.325 20.8669 112.306 20.8669C110.117 20.9085 108.486 20.2754 107.466 19.5074L104.877 16.9544V14.5052L105.13 14.4015C106.266 15.4496 107.844 16.0412 109.486 16.0412C110.854 16.0412 111.958 15.5534 112.39 14.8166C110.748 14.0278 108.823 13.592 107.739 12.2324L106.15 10.2399C105.393 9.2851 105.025 8.58977 105.025 7.44819C105.025 4.8952 107.087 3.14132 110.096 3.14132C111.622 3.11019 113.168 3.51493 114.284 4.23101L116.882 6.79438V9.11905L116.651 9.23321C115.462 8.37183 114.105 7.88407 112.842 7.88407C111.39 7.88407 110.306 8.45486 110.022 9.34737C111.495 9.86627 113.074 10.3852 114.073 11.3918L116.251 13.5608ZM114.347 4.7084V6.61795H114.336L116.588 8.83884V6.91891L114.347 4.7084ZM110.548 5.39335C110.464 5.38297 110.38 5.38297 110.306 5.38297C110.149 5.38297 109.991 5.39335 109.833 5.40373L112.106 7.64537C112.316 7.61424 112.547 7.59348 112.779 7.59348L110.548 5.39335ZM113.526 7.635L111.348 5.48675C111.138 5.44524 110.917 5.4141 110.696 5.39335L112.926 7.59348C113.126 7.59348 113.326 7.61424 113.526 7.635ZM111.979 7.66613L109.696 5.4141C109.423 5.45562 109.17 5.50751 108.928 5.58015L111.232 7.85293C111.464 7.76991 111.716 7.70764 111.979 7.66613ZM114.231 7.76991L112.127 5.69431C111.937 5.63204 111.737 5.56977 111.537 5.52826L113.705 7.66613C113.873 7.68689 114.052 7.7284 114.231 7.76991ZM111.127 7.89445L108.823 5.62166C108.518 5.72544 108.265 5.87074 108.055 6.04716L110.38 8.3407C110.591 8.16427 110.843 8.01898 111.127 7.89445ZM114.904 7.97747L112.916 6.01603C112.737 5.933 112.548 5.84998 112.358 5.77733L114.431 7.8218C114.589 7.86331 114.746 7.9152 114.904 7.97747ZM109.738 9.24359C109.843 8.92187 110.033 8.64166 110.296 8.40297L107.971 6.10943C107.676 6.37926 107.487 6.71135 107.434 7.07458L109.57 9.18132L109.738 9.24359ZM115.536 8.23692L113.768 6.49342C113.589 6.37926 113.41 6.2651 113.221 6.1717L115.146 8.07087C115.273 8.12276 115.409 8.17465 115.536 8.23692ZM114.147 6.72173L115.841 8.39259C115.946 8.44448 116.062 8.50675 116.177 8.57939L114.241 6.66984L114.147 6.72173ZM107.424 7.29252C107.424 8.16428 108.234 8.65204 109.328 9.08792L107.424 7.2095V7.29252ZM108.202 12.3051C108.581 12.7098 109.107 13.0316 109.707 13.3221L107.287 10.9352C107.161 10.8626 107.034 10.7899 106.919 10.7173C107.297 11.2362 107.718 11.7862 108.202 12.3051ZM108.339 11.4333C108.086 11.3296 107.834 11.2154 107.602 11.1012L109.991 13.4571C110.222 13.5608 110.464 13.6646 110.717 13.7684L108.339 11.4333ZM108.581 11.5267L110.969 13.8722C111.159 13.9552 111.348 14.0278 111.537 14.1109L109.128 11.7343C108.949 11.672 108.77 11.5994 108.581 11.5267ZM109.36 11.8173L111.8 14.225C111.958 14.2873 112.116 14.3599 112.274 14.4326L109.78 11.9626C109.644 11.9211 109.496 11.8692 109.36 11.8173ZM112.526 14.526C112.537 14.4741 112.558 14.4222 112.569 14.3703L110.349 12.1702C110.243 12.1287 110.128 12.0872 110.022 12.056L112.526 14.526ZM110.601 12.2636L112.59 14.225C112.6 14.1835 112.6 14.1316 112.6 14.0901V14.0797L110.875 12.3777L110.601 12.2636ZM112.59 13.9241L112.558 13.7684L111.38 12.6061C111.306 12.5645 111.222 12.5334 111.138 12.4919L112.59 13.9241ZM116.041 13.7684L114.852 12.5957C114.999 12.99 115.083 13.4363 115.083 13.9552C115.083 14.2146 115.062 14.4637 115.02 14.7128L117.103 16.7676C117.114 16.6639 117.114 16.5601 117.114 16.4563C117.114 15.3043 116.798 14.5156 116.041 13.7684ZM112.474 13.5297C112.327 13.2495 112.064 13.0108 111.727 12.8032L112.474 13.5297ZM117.093 16.9025L114.999 14.8373C114.894 15.3147 114.715 15.761 114.462 16.1553L116.672 18.3347C116.893 17.8988 117.04 17.4214 117.093 16.9025ZM115.925 19.2999C116.198 19.0404 116.43 18.7498 116.609 18.4281L114.399 16.2487C114.199 16.5601 113.957 16.8299 113.673 17.079L115.925 19.2999ZM112.8 17.6601L115.083 19.9225C115.367 19.7565 115.62 19.5801 115.851 19.3725L113.589 17.1412C113.347 17.3384 113.084 17.5149 112.8 17.6601ZM105.972 17.6186L107.655 19.2791C107.813 19.3933 107.971 19.5074 108.15 19.6112L106.245 17.7432L105.972 17.6186ZM111.916 18.0338L114.21 20.2962C114.483 20.2028 114.746 20.099 114.988 19.9641L112.705 17.712C112.463 17.8366 112.2 17.9507 111.916 18.0338ZM106.508 17.8469L108.486 19.798C108.602 19.8499 108.718 19.9122 108.844 19.9641L106.803 17.9507L106.508 17.8469ZM107.024 18.013L109.096 20.0678C109.223 20.1094 109.359 20.1612 109.496 20.2028L107.371 18.1064L107.024 18.013ZM111.064 18.2413L113.347 20.4933C113.61 20.4518 113.863 20.3999 114.094 20.3273L111.811 18.0753C111.569 18.1375 111.327 18.1998 111.064 18.2413ZM107.571 18.1583L109.707 20.265C109.854 20.3065 110.001 20.348 110.159 20.3792L107.981 18.2309C107.844 18.2102 107.708 18.179 107.571 18.1583ZM108.16 18.2621L110.338 20.4103C110.506 20.4414 110.664 20.4726 110.833 20.4933L108.634 18.314C108.465 18.3036 108.318 18.2828 108.16 18.2621ZM113.21 20.5141L110.938 18.2621C110.717 18.3036 110.485 18.3243 110.254 18.3451L112.516 20.5764C112.758 20.566 112.989 20.5452 113.21 20.5141ZM108.802 18.3347L111.022 20.5141C111.211 20.5348 111.39 20.5556 111.58 20.566L109.338 18.3555C109.16 18.3555 108.981 18.3451 108.802 18.3347ZM111.727 20.566C111.916 20.5764 112.116 20.5764 112.306 20.5764H112.358L110.107 18.3451C109.991 18.3555 109.886 18.3555 109.77 18.3555H109.486L111.727 20.566ZM129.235 15.8959L131.854 18.48V20.649H121.733L119.113 18.0649V3.32813H128.929L131.549 5.91225V7.95671H124.09L124.079 9.44077H127.73L130.35 12.0249V14.1109H124.079V15.8959H129.235ZM131.255 6.03678L129.014 3.82627V5.5594L131.255 7.66613V6.03678ZM124.005 7.66613L121.775 5.5594H121.617L123.848 7.66613H124.005ZM124.426 7.66613L122.185 5.5594H121.933L124.163 7.66613H124.426ZM124.952 7.66613L122.711 5.5594H122.343L124.584 7.66613H124.952ZM125.584 7.66613L123.353 5.5594H122.869L125.11 7.66613H125.584ZM126.425 7.66613L124.174 5.5594H123.511L125.741 7.66613H126.425ZM127.267 7.66613L125.015 5.5594H124.342L126.583 7.66613H127.267ZM128.14 7.66613L125.899 5.5594H125.184L127.425 7.66613H128.14ZM128.982 7.66613L126.762 5.5594H126.057L128.298 7.66613H128.982ZM129.718 7.66613L127.488 5.5594H126.909L129.15 7.66613H129.718ZM130.35 7.66613L128.119 5.5594H127.635L129.887 7.66613H130.35ZM130.771 7.66613L128.551 5.5594H128.267L130.518 7.66613H130.771ZM131.086 7.66613L128.866 5.5594H128.698L130.939 7.66613H131.086ZM121.543 8.58977L122.059 9.07754L121.975 9.15018L121.543 8.74544V9.44077H123.784V7.74915L121.543 5.64242V6.0783L123.49 7.9152L123.395 7.97747L121.543 6.23397V6.71135L123.132 8.20579L123.037 8.27843L121.543 6.85665V7.33403L122.774 8.49637L122.68 8.56902L121.543 7.4897V7.96709L122.417 8.78695L122.332 8.8596L121.543 8.11238V8.58977ZM127.814 9.93891V11.7135H127.804L130.055 13.8203V12.1494L127.814 9.93891ZM123.858 13.8203H124.047L121.806 11.7135H121.617L123.858 13.8203ZM121.964 11.7135L124.205 13.8203H124.574L122.343 11.7135H121.964ZM122.501 11.7135L124.731 13.8203H125.31L123.058 11.7135H122.501ZM123.227 11.7135L125.468 13.8203H126.257L124.026 11.7135H123.227ZM127.267 13.8203L125.047 11.7135H124.184L126.415 13.8203H127.267ZM128.277 13.8203L126.036 11.7135H125.194L127.435 13.8203H128.277ZM129.003 13.8203L126.783 11.7135H126.194L128.435 13.8203H129.003ZM129.529 13.8203L127.299 11.7135H126.93L129.171 13.8203H129.529ZM127.446 11.7135L129.697 13.8203H129.887L127.656 11.7135H127.446ZM121.543 15.3977L121.817 15.6572L121.733 15.7402L121.543 15.5638V15.8959H123.784V13.8929L121.543 11.7862V12.2428L123.49 14.0901L123.416 14.1628L121.543 12.3985V12.8863L123.164 14.4118L123.079 14.4845L121.543 13.0316V13.5089L122.827 14.7232L122.743 14.7958L121.543 13.6646V14.142L122.49 15.0345L122.406 15.1072L121.543 14.2977V14.7751L122.154 15.3458L122.069 15.4185L121.543 14.9204V15.3977ZM129.319 16.394V18.1479L131.56 20.3584V18.6045L129.319 16.394ZM120.638 18.1479H119.618L121.859 20.3584H122.88L120.638 18.1479ZM121.701 18.1479H120.786L123.027 20.3584H123.953L121.701 18.1479ZM121.848 18.1479L124.1 20.3584H124.921L122.669 18.1479H121.848ZM122.816 18.1479L125.068 20.3584H125.794L123.553 18.1479H122.816ZM124.342 18.1479H123.7L125.941 20.3584H126.594L124.342 18.1479ZM127.309 20.3584L125.068 18.1479H124.489L126.741 20.3584H127.309ZM125.215 18.1479L127.456 20.3584H127.961L125.72 18.1479H125.215ZM125.868 18.1479L128.109 20.3584H128.561L126.31 18.1479H125.868ZM126.457 18.1479L128.708 20.3584H129.098L126.846 18.1479H126.457ZM126.993 18.1479L129.245 20.3584H129.582L127.33 18.1479H126.993ZM127.477 18.1479L129.729 20.3584H130.024L127.772 18.1479H127.477ZM127.919 18.1479L130.171 20.3584H130.423L128.172 18.1479H127.919ZM128.319 18.1479L130.571 20.3584H130.781L128.54 18.1479H128.319ZM128.687 18.1479L130.928 20.3584H131.118L128.866 18.1479H128.687ZM129.014 18.1479L131.265 20.3584H131.412L129.161 18.1479H129.014Z" fill="#F4F1F3"/>
</svg>
