<?xml version="1.0" encoding="UTF-8"?>
<svg width="32px" height="32px" viewBox="0 0 32 32" version="1.1" xmlns="http://www.w3.org/2000/svg" xmlns:xlink="http://www.w3.org/1999/xlink">
    <!-- Generator: Sketch 64 (93537) - https://sketch.com -->
    <title>Combined Shape Copy</title>
    <desc>Created with Sketch.</desc>
    <g id="new-web-design" stroke="none" stroke-width="1" fill="none" fill-rule="evenodd">
        <path d="M16.0003389,-2.48689958e-14 C24.8363166,-2.48689958e-14 32,7.16315723 32,16.0006779 C32,24.8368428 24.8363166,32 16.0003389,32 C7.16368335,32 1.77635684e-14,24.8368428 1.77635684e-14,16.0006779 C1.77635684e-14,7.16315723 7.16368335,-2.48689958e-14 16.0003389,-2.48689958e-14 Z M13.4160309,9.09685342 C13.4160309,9.09685342 11.1327573,9.04645199 8.71517357,10.8441032 C8.71517357,10.8441032 6.29758982,15.195427 6.29758982,20.5547796 C6.29758982,20.5547796 7.70784701,22.9740485 11.4181665,23.0916518 C11.4181665,23.0916518 12.0393512,22.3524308 12.5430145,21.7140126 C10.41084,21.0755944 9.6049787,19.7483566 9.6049787,19.7483566 C9.6049787,19.7483566 9.77286646,19.86596 10.0750644,20.0339648 C10.0918532,20.0339648 10.108642,20.0507653 10.1422195,20.0675657 C10.1925859,20.1011667 10.2429522,20.1179672 10.2933185,20.1515681 C10.7130379,20.3867748 11.1327573,20.5715801 11.5188992,20.7227844 C12.207239,21.0083925 13.029889,21.2603997 13.9868493,21.445205 C15.2460075,21.6804117 16.7234198,21.764414 18.3351423,21.4620054 C19.1242147,21.3108011 19.930076,21.0923949 20.7695148,20.7395849 C21.3571219,20.5211787 22.0118842,20.2019696 22.700224,19.7483566 C22.700224,19.7483566 21.8607852,21.1091954 19.6614556,21.7308131 C20.1651188,22.3524308 20.7695148,23.0748513 20.7695148,23.0748513 C24.4798343,22.957248 25.8900915,20.5379791 25.8900915,20.5547796 C25.8900915,15.195427 23.4725077,10.8441032 23.4725077,10.8441032 C21.2899668,9.20987482 19.1906761,9.10296269 18.8270244,9.09703014 L18.8270244,9.09703014 L18.7716504,9.09685342 L18.5366076,9.36566108 C21.3906995,10.2224855 22.7170128,11.4825213 22.7170128,11.4825213 C20.9709801,10.5416946 19.2585249,10.0712812 17.6635912,9.8864759 C16.4547993,9.75207208 15.2963738,9.78567303 14.2722584,9.92007686 C14.1715258,9.92007686 14.0875819,9.93687734 13.9868493,9.95367782 C13.3992421,10.0208797 11.9721961,10.2224855 10.1757971,11.0121079 C9.55461237,11.2809156 9.1852593,11.4825213 9.1852593,11.4825213 C9.1852593,11.4825213 10.5619389,10.1552836 13.5839186,9.29845916 L13.5839186,9.29845916 Z M19.0906372,15.2962299 C20.0308086,15.2962299 20.8030923,16.1194533 20.8030923,17.1442825 C20.8030923,18.1691117 20.0475974,18.9923351 19.0906372,18.9923351 C18.1504657,18.9923351 17.378182,18.1691117 17.378182,17.1442825 C17.378182,16.1194533 18.1336769,15.2962299 19.0906372,15.2962299 Z M12.9627339,15.2962299 C13.9196941,15.2962299 14.6919778,16.1194533 14.6751891,17.1442825 C14.6751891,18.1691117 13.9196941,18.9923351 12.9627339,18.9923351 C12.0225625,18.9923351 11.2502788,18.1691117 11.2502788,17.1442825 C11.2502788,16.1194533 12.0057737,15.2962299 12.9627339,15.2962299 Z" id="Combined-Shape-Copy" fill="#FFF16D"></path>
    </g>
</svg>