<?xml version="1.0" encoding="UTF-8"?>
<svg width="32px" height="32px" viewBox="0 0 32 32" version="1.1" xmlns="http://www.w3.org/2000/svg" xmlns:xlink="http://www.w3.org/1999/xlink">
    <title>Combined Shape</title>
    <g id="new-new-new" stroke="none" stroke-width="1" fill="none" fill-rule="evenodd">
        <g id="roots--graet-britain" transform="translate(-1645.000000, -53.000000)" fill="#05283E">
            <path d="M1661.00034,53 C1669.83632,53 1677,60.1631572 1677,69.0006779 C1677,77.8368428 1669.83632,85 1661.00034,85 C1652.16368,85 1645,77.8368428 1645,69.0006779 C1645,60.1631572 1652.16368,53 1661.00034,53 Z M1658.41603,62.0968534 C1658.41603,62.0968534 1656.13276,62.046452 1653.71517,63.8441032 C1653.71517,63.8441032 1651.29759,68.195427 1651.29759,73.5547796 C1651.29759,73.5547796 1652.70785,75.9740485 1656.41817,76.0916518 C1656.41817,76.0916518 1657.03935,75.3524308 1657.54301,74.7140126 C1655.41084,74.0755944 1654.60498,72.7483566 1654.60498,72.7483566 C1654.60498,72.7483566 1654.77287,72.86596 1655.07506,73.0339648 C1655.09185,73.0339648 1655.10864,73.0507653 1655.14222,73.0675657 C1655.19259,73.1011667 1655.24295,73.1179672 1655.29332,73.1515681 C1655.71304,73.3867748 1656.13276,73.5715801 1656.5189,73.7227844 C1657.20724,74.0083925 1658.02989,74.2603997 1658.98685,74.445205 C1660.24601,74.6804117 1661.72342,74.764414 1663.33514,74.4620054 C1664.12421,74.3108011 1664.93008,74.0923949 1665.76951,73.7395849 C1666.35712,73.5211787 1667.01188,73.2019696 1667.70022,72.7483566 C1667.70022,72.7483566 1666.86079,74.1091954 1664.66146,74.7308131 C1665.16512,75.3524308 1665.76951,76.0748513 1665.76951,76.0748513 C1669.47983,75.957248 1670.89009,73.5379791 1670.89009,73.5547796 C1670.89009,68.195427 1668.47251,63.8441032 1668.47251,63.8441032 C1666.28997,62.2098748 1664.19068,62.1029627 1663.82702,62.0970301 L1663.82702,62.0970301 L1663.77165,62.0968534 L1663.53661,62.3656611 C1666.3907,63.2224855 1667.71701,64.4825213 1667.71701,64.4825213 C1665.97098,63.5416946 1664.25852,63.0712812 1662.66359,62.8864759 C1661.4548,62.7520721 1660.29637,62.785673 1659.27226,62.9200769 C1659.17153,62.9200769 1659.08758,62.9368773 1658.98685,62.9536778 C1658.39924,63.0208797 1656.9722,63.2224855 1655.1758,64.0121079 C1654.55461,64.2809156 1654.18526,64.4825213 1654.18526,64.4825213 C1654.18526,64.4825213 1655.56194,63.1552836 1658.58392,62.2984592 L1658.58392,62.2984592 Z M1664.09064,68.2962299 C1665.03081,68.2962299 1665.80309,69.1194533 1665.80309,70.1442825 C1665.80309,71.1691117 1665.0476,71.9923351 1664.09064,71.9923351 C1663.15047,71.9923351 1662.37818,71.1691117 1662.37818,70.1442825 C1662.37818,69.1194533 1663.13368,68.2962299 1664.09064,68.2962299 Z M1657.96273,68.2962299 C1658.91969,68.2962299 1659.69198,69.1194533 1659.67519,70.1442825 C1659.67519,71.1691117 1658.91969,71.9923351 1657.96273,71.9923351 C1657.02256,71.9923351 1656.25028,71.1691117 1656.25028,70.1442825 C1656.25028,69.1194533 1657.00577,68.2962299 1657.96273,68.2962299 Z" id="Combined-Shape"></path>
        </g>
    </g>
</svg>