<?xml version="1.0" encoding="UTF-8"?>
<svg width="32px" height="32px" viewBox="0 0 32 32" version="1.1" xmlns="http://www.w3.org/2000/svg" xmlns:xlink="http://www.w3.org/1999/xlink">
    <!-- Generator: Sketch 58 (84663) - https://sketch.com -->
    <title>Combined Shape</title>
    <desc>Created with Sketch.</desc>
    <g id="fuse-web-2" stroke="none" stroke-width="1" fill="none" fill-rule="evenodd">
        <g id="Artboard-Copy-25" transform="translate(-1686.000000, -32.000000)" fill="#05283E">
            <path d="M1702.00034,32 C1710.83632,32 1718,39.1631572 1718,48.0006779 C1718,56.8368428 1710.83632,64 1702.00034,64 C1693.16368,64 1686,56.8368428 1686,48.0006779 C1686,39.1631572 1693.16368,32 1702.00034,32 Z M1699.41603,41.0968534 C1699.41603,41.0968534 1697.13276,41.046452 1694.71517,42.8441032 C1694.71517,42.8441032 1692.29759,47.195427 1692.29759,52.5547796 C1692.29759,52.5547796 1693.70785,54.9740485 1697.41817,55.0916518 C1697.41817,55.0916518 1698.03935,54.3524308 1698.54301,53.7140126 C1696.41084,53.0755944 1695.60498,51.7483566 1695.60498,51.7483566 C1695.60498,51.7483566 1695.77287,51.86596 1696.07506,52.0339648 C1696.09185,52.0339648 1696.10864,52.0507653 1696.14222,52.0675657 C1696.19259,52.1011667 1696.24295,52.1179672 1696.29332,52.1515681 C1696.71304,52.3867748 1697.13276,52.5715801 1697.5189,52.7227844 C1698.20724,53.0083925 1699.02989,53.2603997 1699.98685,53.445205 C1701.24601,53.6804117 1702.72342,53.764414 1704.33514,53.4620054 C1705.12421,53.3108011 1705.93008,53.0923949 1706.76951,52.7395849 C1707.35712,52.5211787 1708.01188,52.2019696 1708.70022,51.7483566 C1708.70022,51.7483566 1707.86079,53.1091954 1705.66146,53.7308131 C1706.16512,54.3524308 1706.76951,55.0748513 1706.76951,55.0748513 C1710.47983,54.957248 1711.89009,52.5379791 1711.89009,52.5547796 C1711.89009,47.195427 1709.47251,42.8441032 1709.47251,42.8441032 C1707.28997,41.2098748 1705.19068,41.1029627 1704.82702,41.0970301 L1704.82702,41.0970301 L1704.77165,41.0968534 L1704.53661,41.3656611 C1707.3907,42.2224855 1708.71701,43.4825213 1708.71701,43.4825213 C1706.97098,42.5416946 1705.25852,42.0712812 1703.66359,41.8864759 C1702.4548,41.7520721 1701.29637,41.785673 1700.27226,41.9200769 C1700.17153,41.9200769 1700.08758,41.9368773 1699.98685,41.9536778 C1699.39924,42.0208797 1697.9722,42.2224855 1696.1758,43.0121079 C1695.55461,43.2809156 1695.18526,43.4825213 1695.18526,43.4825213 C1695.18526,43.4825213 1696.56194,42.1552836 1699.58392,41.2984592 L1699.58392,41.2984592 Z M1705.09064,47.2962299 C1706.03081,47.2962299 1706.80309,48.1194533 1706.80309,49.1442825 C1706.80309,50.1691117 1706.0476,50.9923351 1705.09064,50.9923351 C1704.15047,50.9923351 1703.37818,50.1691117 1703.37818,49.1442825 C1703.37818,48.1194533 1704.13368,47.2962299 1705.09064,47.2962299 Z M1698.96273,47.2962299 C1699.91969,47.2962299 1700.69198,48.1194533 1700.67519,49.1442825 C1700.67519,50.1691117 1699.91969,50.9923351 1698.96273,50.9923351 C1698.02256,50.9923351 1697.25028,50.1691117 1697.25028,49.1442825 C1697.25028,48.1194533 1698.00577,47.2962299 1698.96273,47.2962299 Z" id="Combined-Shape"></path>
        </g>
    </g>
</svg>