<?xml version="1.0" encoding="UTF-8"?>
<svg width="32px" height="33px" viewBox="0 0 32 33" version="1.1" xmlns="http://www.w3.org/2000/svg" xmlns:xlink="http://www.w3.org/1999/xlink">
    <!-- Generator: Sketch 57.1 (83088) - https://sketch.com -->
    <title>Combined Shape</title>
    <desc>Created with Sketch.</desc>
    <g id="wellcome-mail" stroke="none" stroke-width="1" fill="none" fill-rule="evenodd">
        <g id="welcome" transform="translate(-1192.000000, -1293.000000)" fill="#FFFFFF">
            <path d="M1208.00034,1293.59722 C1216.83632,1293.59722 1224,1300.76038 1224,1309.5979 C1224,1318.43406 1216.83632,1325.59722 1208.00034,1325.59722 C1199.16368,1325.59722 1192,1318.43406 1192,1309.5979 C1192,1300.76038 1199.16368,1293.59722 1208.00034,1293.59722 Z M1205.41603,1302.69408 C1205.41603,1302.69408 1203.13276,1302.64367 1200.71517,1304.44133 C1200.71517,1304.44133 1198.29759,1308.79265 1198.29759,1314.152 C1198.29759,1314.152 1199.70785,1316.57127 1203.41817,1316.68887 C1203.41817,1316.68887 1204.03935,1315.94965 1204.54301,1315.31123 C1202.41084,1314.67282 1201.60498,1313.34558 1201.60498,1313.34558 C1201.60498,1313.34558 1201.77287,1313.46318 1202.07506,1313.63119 C1202.09185,1313.63119 1202.10864,1313.64799 1202.14222,1313.66479 C1202.19259,1313.69839 1202.24295,1313.71519 1202.29332,1313.74879 C1202.71304,1313.984 1203.13276,1314.1688 1203.5189,1314.32001 C1204.20724,1314.60561 1205.02989,1314.85762 1205.98685,1315.04243 C1207.24601,1315.27763 1208.72342,1315.36164 1210.33514,1315.05923 C1211.12421,1314.90802 1211.93008,1314.68962 1212.76951,1314.33681 C1213.35712,1314.1184 1214.01188,1313.79919 1214.70022,1313.34558 C1214.70022,1313.34558 1213.86079,1314.70642 1211.66146,1315.32804 C1212.16512,1315.94965 1212.76951,1316.67207 1212.76951,1316.67207 C1216.47983,1316.55447 1217.89009,1314.1352 1217.89009,1314.152 C1217.89009,1308.79265 1215.47251,1304.44133 1215.47251,1304.44133 C1213.28997,1302.8071 1211.19068,1302.70018 1210.82702,1302.69425 L1210.82702,1302.69425 L1210.77165,1302.69408 L1210.53661,1302.96288 C1213.3907,1303.81971 1214.71701,1305.07974 1214.71701,1305.07974 C1212.97098,1304.13892 1211.25852,1303.6685 1209.66359,1303.4837 C1208.4548,1303.34929 1207.29637,1303.3829 1206.27226,1303.5173 C1206.17153,1303.5173 1206.08758,1303.5341 1205.98685,1303.5509 C1205.39924,1303.6181 1203.9722,1303.81971 1202.1758,1304.60933 C1201.55461,1304.87814 1201.18526,1305.07974 1201.18526,1305.07974 C1201.18526,1305.07974 1202.56194,1303.75251 1205.58392,1302.89568 L1205.58392,1302.89568 Z M1211.09064,1308.89345 C1212.03081,1308.89345 1212.80309,1309.71668 1212.80309,1310.7415 C1212.80309,1311.76633 1212.0476,1312.58956 1211.09064,1312.58956 C1210.15047,1312.58956 1209.37818,1311.76633 1209.37818,1310.7415 C1209.37818,1309.71668 1210.13368,1308.89345 1211.09064,1308.89345 Z M1204.96273,1308.89345 C1205.91969,1308.89345 1206.69198,1309.71668 1206.67519,1310.7415 C1206.67519,1311.76633 1205.91969,1312.58956 1204.96273,1312.58956 C1204.02256,1312.58956 1203.25028,1311.76633 1203.25028,1310.7415 C1203.25028,1309.71668 1204.00577,1308.89345 1204.96273,1308.89345 Z" id="Combined-Shape"></path>
        </g>
    </g>
</svg>