<svg width="48" height="48" viewBox="0 0 48 48" fill="none"
  xmlns="http://www.w3.org/2000/svg">
  <circle cx="24" cy="24" r="24" fill="#E7EFF4"/>
  <path d="M28.2731 31.1502L28.6983 32.5H16.5C15.9696 32.5 15.4609 32.2893 15.0858 31.9142C14.7107 31.5391 14.5 31.0304 14.5 30.5V15.5C14.5 14.9696 14.7107 14.4609 15.0858 14.0858C15.4609 13.7107 15.9696 13.5 16.5 13.5H31.5C32.0304 13.5 32.5391 13.7107 32.9142 14.0858C33.2893 14.4609 33.5 14.9696 33.5 15.5V34.8333L29.0948 30.6379L28.2731 31.1502ZM16.7703 26.2374C16.7703 26.2376 16.7703 26.2377 17.27 26.22L16.7703 26.2377L16.776 26.3986L16.8745 26.5259C17.6559 27.5361 18.6294 28.0054 19.4007 28.2204C19.7857 28.3277 20.1228 28.3726 20.3661 28.3907C20.488 28.3997 20.5872 28.4021 20.6581 28.4021C20.6935 28.402 20.7219 28.4014 20.7427 28.4007L20.7679 28.3997L20.7761 28.3993L20.779 28.3992L20.7802 28.3991L20.7807 28.3991C20.781 28.399 20.7812 28.399 20.75 27.9L20.7812 28.399L21.0042 28.3851L21.1426 28.2097L21.8526 27.3097L21.9616 27.1715C22.5679 27.3077 23.2539 27.4 24 27.4C24.7461 27.4 25.4321 27.3077 26.0384 27.1715L26.1474 27.3097L26.8574 28.2097L26.9958 28.3851L27.2188 28.399L27.25 27.9C27.2188 28.399 27.219 28.399 27.2193 28.3991L27.2198 28.3991L27.221 28.3992L27.2239 28.3993L27.2321 28.3997L27.2573 28.4007C27.2781 28.4014 27.3065 28.402 27.3419 28.4021C27.4128 28.4021 27.512 28.3997 27.6339 28.3907C27.8772 28.3726 28.2143 28.3277 28.5993 28.2204C29.3706 28.0054 30.3441 27.5361 31.1255 26.5259L31.224 26.3986L31.2297 26.2377L30.73 26.22C31.2297 26.2377 31.2297 26.2376 31.2297 26.2374L31.2297 26.237L31.2297 26.236L31.2298 26.2331L31.2301 26.224L31.2307 26.1925C31.2312 26.1656 31.2316 26.1272 31.2314 26.0779C31.231 25.9792 31.2284 25.8367 31.2197 25.6557C31.2024 25.2936 31.1609 24.7765 31.0642 24.1455C30.871 22.8845 30.4566 21.1626 29.5709 19.314L29.5191 19.2057L29.4237 19.1328L29.12 19.53C29.4237 19.1328 29.4236 19.1327 29.4235 19.1327L29.4233 19.1325L29.4226 19.132L29.421 19.1307L29.416 19.127L29.3994 19.1146C29.3854 19.1043 29.3656 19.0899 29.3404 19.072C29.2901 19.0363 29.2179 18.9865 29.1266 18.9272C28.9443 18.809 28.6838 18.6519 28.367 18.4938C27.7407 18.1813 26.8588 17.8469 25.9089 17.8301L25.6966 17.8263L25.5464 17.9764L25.3764 18.1464L25.1557 18.3672C24.7901 18.3248 24.4038 18.3 24 18.3C23.5962 18.3 23.2099 18.3248 22.8443 18.3672L22.6236 18.1464L22.4536 17.9764L22.3034 17.8263L22.0911 17.8301C21.1412 17.8469 20.2594 18.1813 19.633 18.4938C19.3162 18.6519 19.0557 18.809 18.8734 18.9272C18.7821 18.9865 18.7099 19.0363 18.6596 19.072C18.6344 19.0899 18.6146 19.1043 18.6006 19.1146L18.584 19.127L18.579 19.1307L18.5774 19.132L18.5768 19.1325L18.5765 19.1327C18.5764 19.1327 18.5763 19.1328 18.88 19.53L18.5763 19.1328L18.4809 19.2057L18.4291 19.314C17.5434 21.1626 17.129 22.8845 16.9358 24.1455C16.8391 24.7765 16.7976 25.2936 16.7803 25.6557C16.7716 25.8367 16.769 25.9792 16.7686 26.0779C16.7684 26.1272 16.7688 26.1656 16.7693 26.1925L16.7699 26.224L16.7702 26.2331L16.7703 26.236L16.7703 26.237L16.7703 26.2374ZM22.6001 23.8529L22.6 23.8529V23.86C22.6 24.3174 22.2622 24.63 21.93 24.63C21.6104 24.63 21.27 24.3203 21.27 23.86C21.27 23.3894 21.6006 23.09 21.93 23.09C22.2708 23.09 22.6065 23.4005 22.6001 23.8529ZM26.1 23.09C26.4347 23.09 26.77 23.3953 26.77 23.86C26.77 24.3174 26.4323 24.63 26.1 24.63C25.7804 24.63 25.44 24.3203 25.44 23.86C25.44 23.3894 25.7706 23.09 26.1 23.09Z" fill="#4A687B" stroke="#4A687B"/>
</svg>
