<svg width="35" height="37" viewBox="0 0 35 37" fill="none" xmlns="http://www.w3.org/2000/svg">
<mask id="mask0_78_415" style="mask-type:alpha" maskUnits="userSpaceOnUse" x="0" y="22" width="35" height="15">
<path fill-rule="evenodd" clip-rule="evenodd" d="M0 22.707H34.9998V36.067H0V22.707Z" fill="white"/>
</mask>
<g mask="url(#mask0_78_415)">
<path fill-rule="evenodd" clip-rule="evenodd" d="M17.4659 29.5068C16.2326 29.5068 15.0866 29.2483 14.1512 28.7592L4.07823 23.4935L1.05987 25.3071C-0.374854 26.1688 -0.349794 27.4899 1.11577 28.2562L15.0476 35.5398C15.7242 35.8932 16.5893 36.0673 17.4659 36.0673C18.4895 36.0673 19.5281 35.8304 20.3011 35.3662L33.9399 27.171C35.3746 26.3088 35.3496 24.9877 33.884 24.2219L30.9876 22.707L21.2973 28.53C20.2486 29.1596 18.8881 29.5068 17.4659 29.5068Z" fill="#B3F9BA"/>
</g>
<path fill-rule="evenodd" clip-rule="evenodd" d="M33.8842 15.7441L31.4721 14.4829L25.8552 17.8579L24.8908 18.4371L23.927 19.0164L21.2975 20.5965C20.2488 21.2271 18.8878 21.5738 17.4661 21.5738C16.2329 21.5738 15.0868 21.3153 14.1514 20.8266L11.1388 19.2514L10.1417 18.7306L9.14457 18.2094L3.59364 15.3067L1.0601 16.8293C-0.374618 17.6915 -0.35004 19.0121 1.11553 19.7784L4.01244 21.2927L5.00956 21.814L6.0062 22.3353L15.0478 27.062C15.7239 27.4154 16.5895 27.589 17.4661 27.589C18.4893 27.589 19.5283 27.3526 20.3009 26.8884L28.9935 21.6653L29.9579 21.0861L30.9218 20.5068L33.9401 18.6932C35.3749 17.8315 35.3498 16.5104 33.8842 15.7441Z" fill="#011833"/>
<path fill-rule="evenodd" clip-rule="evenodd" d="M33.8842 7.81062L19.952 0.527485C19.2758 0.173591 18.4107 0 17.5336 0C16.5105 0 15.4714 0.236889 14.6989 0.701076L1.0601 8.89628C-0.374618 9.758 -0.35004 11.0786 1.11553 11.8449L3.52761 13.1061L4.52473 13.6273L5.52186 14.1486L11.0728 17.0507L12.0699 17.5715L13.067 18.0932L15.0478 19.129C15.7239 19.4824 16.5895 19.656 17.4661 19.656C18.4893 19.656 19.5283 19.4191 20.3009 18.955L21.9327 17.9743L22.8971 17.395L23.8609 16.8158L29.4779 13.4408L30.4422 12.8615L31.4061 12.2823L33.9401 10.7597C35.3749 9.89803 35.3498 8.57691 33.8842 7.81062Z" fill="#011833"/>
</svg>
