<?xml version="1.0" encoding="UTF-8"?>
<svg width="47px" height="47px" viewBox="0 0 47 47" version="1.1" xmlns="http://www.w3.org/2000/svg" xmlns:xlink="http://www.w3.org/1999/xlink">
    <!-- Generator: Sketch 64 (93537) - https://sketch.com -->
    <title>Fee abstrcation </title>
    <desc>Created with Sketch.</desc>
    <g id="Fee-abstrcation-" stroke="none" stroke-width="1" fill="none" fill-rule="evenodd">
        <g id="Group-10-Copy" transform="translate(4.000000, 4.000000)">
            <polygon id="Path-10" fill="#FFFFFF" points="36.5876998 2.27058508 21.576709 2.27058508 2.27528794 20.6129883 0.8505 24.6208008 2.27528794 26.9433105 12.5090332 36.623818 15.6612305 37.8298828 17.9393555 36.623818 37.6571777 17.3755371"></polygon>
            <g id="Group-7" fill="#9EAFB9" fill-rule="nonzero">
                <path d="M23.6571408,22.3962236 C24.6861716,21.0792895 24.6092866,19.1386558 23.4261935,17.9148382 C22.160661,16.6060668 20.1017223,16.6057645 18.8361899,17.9142335 L17.7513224,19.0361671 C17.3531577,19.4482381 16.7047513,19.4479357 16.3060018,19.0358648 C16.1127662,18.8360269 16.0066474,18.5705843 16.0063551,18.2882114 C16.0063551,18.0061408 16.1127662,17.7406981 16.3054172,17.5411627 L18.1410093,15.6428547 C18.5754241,15.1938999 18.5754241,14.4658977 18.1410093,14.0169429 C17.706887,13.5676857 17.0029364,13.5676857 16.568814,14.0169429 L16.0618993,14.541177 L15.5780795,14.0408266 C15.1439572,13.5918718 14.4400065,13.5918718 14.0055918,14.0408266 C13.5714694,14.4900838 13.5714694,15.2177836 14.0055918,15.6670408 L14.5025669,16.1806935 C14.0362873,16.7759743 13.78283,17.5121393 13.78283,18.288816 C13.78283,19.185214 14.120773,20.0281003 14.7338065,20.6620789 C15.3664266,21.3166158 16.1978367,21.643733 17.0289545,21.643733 C17.8600723,21.643733 18.6911901,21.3166158 19.3235178,20.6626836 L20.4083853,19.54075 C20.8068423,19.128679 21.4552487,19.1289813 21.8539982,19.5410524 C22.2524552,19.9534256 22.2527476,20.6239858 21.8542905,21.0357545 L19.725483,23.2372959 C19.2910683,23.6862507 19.2910683,24.4142528 19.725483,24.8632077 C19.942398,25.0878362 20.2268431,25.2003017 20.5115807,25.2 C20.7960258,25.2 21.0807633,25.0878362 21.2976784,24.8632077 L22.0981006,24.0357401 L22.5819205,24.5357881 C22.7991279,24.7604167 23.083573,24.8725798 23.3680182,24.8725798 C23.6527557,24.8725798 23.9372009,24.7604167 24.1544082,24.5357881 C24.5885306,24.0868332 24.5885306,23.3588311 24.1544082,22.9098763 L23.6571408,22.3962236 Z" id="Path"></path>
                <path d="M38.411285,1.56282141 C38.3933127,0.966294707 37.9095594,0.486937613 37.3074887,0.468843088 L21.7764618,0.000461391417 C21.4595509,-0.00843756455 21.1546216,0.111698322 20.9323646,0.334172259 L1.76195528,19.514092 C-0.587318425,21.864603 -0.587318425,25.6890776 1.76195528,28.0392919 L10.8268631,37.1085145 C11.9684011,38.2508438 13.4873565,38.88 15.1036616,38.88 C16.7196672,38.88 18.2386226,38.2508438 19.3804601,37.1085145 L38.5505699,17.9285947 C38.770131,17.7090871 38.8890475,17.4100822 38.8794623,17.1012884 L38.411285,1.56282141 Z M17.7611596,35.5212374 C17.0506563,36.2322639 16.1068132,36.623818 15.1036616,36.623818 C14.1002105,36.623818 13.1563673,36.2322639 12.4458641,35.5212374 L3.38125583,26.4520148 C1.90663198,24.9768644 1.90663198,22.5765194 3.38125583,21.1013691 L22.2027038,2.27058508 L36.1659508,2.69180233 L36.5876998,16.6854105 L17.7611596,35.5212374 Z" id="Shape" stroke="#9EAFB9"></path>
            </g>
            <path d="M25.2492591,7.42795659 C24.6371546,8.04022889 24.3,8.85422426 24.3,9.71992898 C24.3,10.5859178 24.6371546,11.3999132 25.2492591,12.0121855 C25.8809624,12.6440618 26.710925,12.96 27.5408876,12.96 C28.3708502,12.96 29.2005288,12.6440618 29.8322321,12.0121855 C31.0959226,10.7481487 31.0959226,8.6917093 29.8322321,7.42767249 C28.5688256,6.16391979 26.5126656,6.16420388 25.2492591,7.42795659 L25.2492591,7.42795659 Z M28.3046691,10.4842039 C27.8834389,10.9055495 27.1980523,10.9052654 26.7768221,10.4842039 C26.355876,10.0628583 26.355876,9.37728376 26.7768221,8.95593821 C27.1980523,8.53487668 27.8834389,8.53487668 28.3046691,8.95593821 C28.7258993,9.37728376 28.7258993,10.0628583 28.3046691,10.4842039 Z" id="Shape" fill="#9EAFB9" fill-rule="nonzero"></path>
        </g>
    </g>
</svg>