<svg width="124" height="28" viewBox="0 0 124 28" fill="none" xmlns="http://www.w3.org/2000/svg">
<path d="M25.6491 12.0099V18.6254H29.1549C29.3449 18.6254 29.4811 18.6634 29.5634 18.7393C29.6457 18.8089 29.6869 18.9038 29.6869 19.024C29.6869 19.1379 29.6457 19.2328 29.5634 19.3088C29.4811 19.3847 29.3449 19.4227 29.1549 19.4227H22.9129C22.7229 19.4227 22.5867 19.3847 22.5044 19.3088C22.422 19.2328 22.3809 19.1379 22.3809 19.024C22.3809 18.9038 22.422 18.8089 22.5044 18.7393C22.5867 18.6634 22.7229 18.6254 22.9129 18.6254H24.8415V12.0099H23.1124C22.9224 12.0099 22.7862 11.9719 22.7039 11.896C22.6215 11.82 22.5804 11.722 22.5804 11.6017C22.5804 11.4878 22.6215 11.3929 22.7039 11.317C22.7862 11.2411 22.9224 11.2031 23.1124 11.2031H24.8415V9.9977C24.8415 9.32697 25.1139 8.74483 25.6586 8.25128C26.2033 7.75772 26.9254 7.51095 27.8248 7.51095C28.5785 7.51094 29.3829 7.58055 30.2379 7.71976C30.561 7.77038 30.7541 7.83049 30.8175 7.90009C30.8872 7.9697 30.922 8.06145 30.922 8.17534C30.922 8.28924 30.884 8.38416 30.808 8.46009C30.732 8.52969 30.6306 8.56449 30.504 8.56449C30.4533 8.56449 30.3678 8.555 30.2474 8.53602C29.291 8.39048 28.4835 8.31772 27.8248 8.31772C27.128 8.31772 26.5897 8.48856 26.2096 8.83025C25.8359 9.17194 25.6491 9.56109 25.6491 9.9977V11.2031H29.3829C29.5729 11.2031 29.7091 11.2411 29.7914 11.317C29.8737 11.3929 29.9149 11.491 29.9149 11.6112C29.9149 11.7251 29.8737 11.82 29.7914 11.896C29.7091 11.9719 29.5729 12.0099 29.3829 12.0099L25.6491 12.0099Z" fill="#212F3C"/>
<path d="M40.5937 19.4227V18.2552C39.5043 19.2423 38.3262 19.7359 37.0595 19.7359C36.2804 19.7359 35.6882 19.5239 35.2828 19.1C34.7571 18.5431 34.4943 17.8946 34.4943 17.1542V12.0099H33.4207C33.2307 12.0099 33.0945 11.9719 33.0121 11.896C32.9298 11.82 32.8886 11.722 32.8886 11.6017C32.8886 11.4878 32.9298 11.3929 33.0121 11.317C33.0945 11.2411 33.2307 11.2031 33.4207 11.2031H35.2923V17.1542C35.2923 17.6731 35.457 18.1002 35.7864 18.4356C36.1157 18.7709 36.5274 18.9386 37.0214 18.9386C38.3199 18.9386 39.5106 18.3438 40.5937 17.1542V12.0099H39.1211C38.9311 12.0099 38.7949 11.9719 38.7126 11.896C38.6302 11.82 38.5891 11.722 38.5891 11.6017C38.5891 11.4878 38.6302 11.3929 38.7126 11.317C38.7949 11.2411 38.9311 11.2031 39.1211 11.2031H41.3918V18.6254H42.0663C42.2563 18.6254 42.3925 18.6634 42.4749 18.7393C42.5572 18.8089 42.5984 18.9038 42.5984 19.024C42.5984 19.1379 42.5572 19.2328 42.4749 19.3088C42.3925 19.3847 42.2563 19.4227 42.0663 19.4227H40.5937Z" fill="#212F3C"/>
<path d="M52.1846 11.7251C52.1846 11.5416 52.2226 11.4088 52.2986 11.3265C52.3746 11.2442 52.4696 11.2031 52.5836 11.2031C52.7039 11.2031 52.8021 11.2442 52.8781 11.3265C52.9541 11.4088 52.9921 11.548 52.9921 11.7441V13.1109C52.9921 13.3007 52.9541 13.4368 52.8781 13.519C52.8021 13.6013 52.7039 13.6424 52.5836 13.6424C52.4759 13.6424 52.3841 13.6076 52.3081 13.538C52.2384 13.4684 52.1972 13.3545 52.1846 13.1963C52.1466 12.8166 51.9502 12.5034 51.5955 12.2567C51.0762 11.9023 50.3889 11.7251 49.5339 11.7251C48.6408 11.7251 47.9473 11.9055 47.4532 12.2661C47.0795 12.5382 46.8927 12.842 46.8927 13.1773C46.8927 13.557 47.1144 13.8734 47.5577 14.1265C47.8618 14.3036 48.4381 14.4397 49.2869 14.5346C50.3953 14.6548 51.1648 14.7909 51.5955 14.9427C52.2099 15.1642 52.6659 15.4711 52.9636 15.8634C53.2677 16.2557 53.4197 16.6797 53.4197 17.1352C53.4197 17.8123 53.0935 18.4166 52.4411 18.9481C51.7887 19.4733 50.8323 19.7359 49.5719 19.7359C48.3115 19.7359 47.279 19.4163 46.4746 18.7773C46.4746 18.9924 46.462 19.1316 46.4366 19.1949C46.4113 19.2582 46.3638 19.3119 46.2941 19.3562C46.2308 19.4005 46.158 19.4227 46.0756 19.4227C45.9616 19.4227 45.8666 19.3815 45.7906 19.2993C45.7146 19.217 45.6766 19.081 45.6766 18.8912V17.2491C45.6766 17.0593 45.7114 16.9233 45.7811 16.841C45.8571 16.7588 45.9553 16.7176 46.0756 16.7176C46.1896 16.7176 46.2846 16.7588 46.3606 16.841C46.443 16.9169 46.4841 17.0213 46.4841 17.1542C46.4841 17.4453 46.557 17.6889 46.7027 17.8851C46.9243 18.1888 47.2759 18.4419 47.7572 18.6444C48.2449 18.8405 48.8403 18.9386 49.5434 18.9386C50.5821 18.9386 51.3548 18.7456 51.8615 18.3596C52.3683 17.9737 52.6216 17.5655 52.6216 17.1352C52.6216 16.6417 52.3651 16.2462 51.852 15.9488C51.3327 15.6514 50.5758 15.4521 49.5814 15.3509C48.5933 15.2496 47.8839 15.1167 47.4532 14.9522C47.0225 14.7877 46.6868 14.5409 46.4461 14.2119C46.2055 13.8829 46.0851 13.5285 46.0851 13.1488C46.0851 12.4655 46.4208 11.9245 47.0922 11.5258C47.7636 11.1208 48.5648 10.9184 49.4959 10.9184C50.598 10.9184 51.4942 11.1873 52.1846 11.7251Z" fill="#212F3C"/>
<path d="M65.5521 15.5027H57.4195C57.5588 16.5341 57.9895 17.3662 58.7116 17.999C59.4399 18.6254 60.3393 18.9386 61.4098 18.9386C62.0051 18.9386 62.629 18.8405 63.2814 18.6444C63.9338 18.4482 64.4658 18.1888 64.8775 17.8661C64.9979 17.7712 65.1024 17.7237 65.191 17.7237C65.2924 17.7237 65.3811 17.7648 65.4571 17.8471C65.5331 17.923 65.5711 18.0148 65.5711 18.1224C65.5711 18.2299 65.5204 18.3343 65.4191 18.4356C65.115 18.7519 64.5735 19.0493 63.7944 19.3278C63.0217 19.5998 62.2268 19.7359 61.4098 19.7359C60.0417 19.7359 58.8984 19.2898 57.98 18.3976C57.0679 17.4991 56.6119 16.4139 56.6119 15.142C56.6119 13.9841 57.0394 12.9907 57.8945 12.1617C58.7559 11.3328 59.82 10.9184 61.0867 10.9184C62.3915 10.9184 63.4651 11.3455 64.3075 12.1997C65.1499 13.0476 65.5647 14.1486 65.5521 15.5027ZM64.7445 14.6959C64.5862 13.8164 64.1681 13.1014 63.4904 12.5509C62.819 12.0004 62.0178 11.7251 61.0867 11.7251C60.1557 11.7251 59.3544 11.9972 58.6831 12.5414C58.0117 13.0856 57.5936 13.8038 57.429 14.6959H64.7445Z" fill="#212F3C"/>
<path d="M69.9129 11.2031V12.6553C70.3879 12.0795 70.8978 11.646 71.4425 11.355C71.9872 11.0639 72.6301 10.9184 73.3711 10.9184C74.1565 10.9184 74.8818 11.1019 75.5468 11.4689C76.2119 11.8359 76.7249 12.3484 77.0859 13.0065C77.4533 13.6582 77.637 14.3448 77.637 15.0661C77.637 16.2114 77.2253 17.1922 76.4019 18.0085C75.5848 18.8184 74.5777 19.2234 73.3806 19.2234C71.9555 19.2234 70.7996 18.6444 69.9129 17.4864V22.2891H71.851C72.041 22.2891 72.1772 22.3239 72.2596 22.3935C72.3419 22.4694 72.3831 22.5675 72.3831 22.6877C72.3831 22.8016 72.3419 22.8965 72.2596 22.9725C72.1772 23.0484 72.041 23.0864 71.851 23.0864H68.0413C67.8512 23.0864 67.7151 23.0484 67.6327 22.9725C67.5504 22.9029 67.5092 22.8079 67.5092 22.6877C67.5092 22.5675 67.5504 22.4694 67.6327 22.3935C67.7151 22.3239 67.8512 22.2891 68.0413 22.2891H69.1148V12.0099H68.0413C67.8512 12.0099 67.7151 11.9719 67.6327 11.896C67.5504 11.82 67.5092 11.722 67.5092 11.6017C67.5092 11.4878 67.5504 11.3929 67.6327 11.317C67.7151 11.2411 67.8512 11.2031 68.0413 11.2031H69.9129ZM76.8294 15.0661C76.8294 14.1486 76.4937 13.364 75.8223 12.7122C75.1573 12.0542 74.3434 11.7251 73.3806 11.7251C72.4116 11.7251 71.5914 12.0542 70.92 12.7122C70.2486 13.3703 69.9129 14.1549 69.9129 15.0661C69.9129 15.9836 70.2486 16.7714 70.92 17.4295C71.5914 18.0875 72.4116 18.4166 73.3806 18.4166C74.3371 18.4166 75.1509 18.0907 75.8223 17.439C76.4937 16.7809 76.8294 15.9899 76.8294 15.0661Z" fill="#212F3C"/>
<path d="M83.6509 11.2031V13.2153C84.6897 12.2788 85.4655 11.6777 85.9786 11.4119C86.498 11.1398 86.9762 11.0038 87.4132 11.0038C87.8882 11.0038 88.3284 11.1651 88.7338 11.4878C89.1455 11.8042 89.3513 12.0447 89.3513 12.2092C89.3513 12.3294 89.3102 12.4307 89.2278 12.5129C89.1518 12.5889 89.0536 12.6268 88.9333 12.6268C88.87 12.6268 88.8161 12.6173 88.7718 12.5983C88.7275 12.573 88.6451 12.5003 88.5248 12.38C88.3031 12.1586 88.1099 12.0067 87.9452 11.9245C87.7805 11.8422 87.619 11.8011 87.4607 11.8011C87.1123 11.8011 86.6911 11.9403 86.1971 12.2187C85.7094 12.4971 84.8607 13.1773 83.6509 14.2593V18.6254H87.1852C87.3815 18.6254 87.5209 18.6634 87.6032 18.7393C87.6855 18.8089 87.7267 18.9038 87.7267 19.024C87.7267 19.1379 87.6855 19.2328 87.6032 19.3088C87.5209 19.3847 87.3815 19.4227 87.1852 19.4227H80.9242C80.7342 19.4227 80.598 19.3879 80.5157 19.3183C80.4333 19.2423 80.3922 19.1474 80.3922 19.0335C80.3922 18.926 80.4302 18.8374 80.5062 18.7678C80.5885 18.6918 80.7279 18.6539 80.9242 18.6539H82.8529V12.0099H81.3802C81.1902 12.0099 81.0541 11.9719 80.9717 11.896C80.8894 11.82 80.8482 11.722 80.8482 11.6017C80.8482 11.4878 80.8862 11.3929 80.9622 11.317C81.0446 11.2411 81.1839 11.2031 81.3802 11.2031H83.6509Z" fill="#212F3C"/>
<path d="M96.6859 7.1123V9.17194H95.5078V7.1123L96.6859 7.1123ZM96.7144 11.2031V18.6254H99.8496C100.046 18.6254 100.185 18.6634 100.268 18.7393C100.35 18.8089 100.391 18.9038 100.391 19.024C100.391 19.1379 100.35 19.2328 100.268 19.3088C100.185 19.3847 100.046 19.4227 99.8496 19.4227H92.7811C92.5911 19.4227 92.4549 19.3847 92.3726 19.3088C92.2902 19.2328 92.2491 19.1379 92.2491 19.024C92.2491 18.9038 92.2902 18.8089 92.3726 18.7393C92.4549 18.6634 92.5911 18.6254 92.7811 18.6254H95.9163V12.0099H93.5886C93.3986 12.0099 93.2593 11.9719 93.1706 11.896C93.0883 11.82 93.0471 11.7251 93.0471 11.6112C93.0471 11.491 93.0883 11.3929 93.1706 11.317C93.253 11.2411 93.3923 11.2031 93.5886 11.2031H96.7144Z" fill="#212F3C"/>
<path d="M104.343 11.2031V12.0099C105.021 11.2822 105.702 10.9184 106.386 10.9184C106.798 10.9184 107.159 11.0291 107.469 11.2506C107.78 11.4657 108.039 11.7947 108.248 12.2377C108.603 11.7947 108.961 11.4657 109.322 11.2506C109.689 11.0291 110.057 10.9184 110.424 10.9184C111 10.9184 111.459 11.105 111.802 11.4784C112.251 11.9593 112.476 12.4844 112.476 13.0539V18.6254H113.151C113.341 18.6254 113.477 18.6634 113.559 18.7393C113.641 18.8089 113.683 18.9038 113.683 19.024C113.683 19.1379 113.641 19.2328 113.559 19.3088C113.477 19.3847 113.341 19.4227 113.151 19.4227H111.678V13.1299C111.678 12.7249 111.554 12.3895 111.307 12.1238C111.06 11.858 110.775 11.7251 110.452 11.7251C110.161 11.7251 109.854 11.8359 109.531 12.0573C109.208 12.2725 108.84 12.6996 108.429 13.3387V18.6254H109.094C109.284 18.6254 109.42 18.6634 109.502 18.7393C109.585 18.8089 109.626 18.9038 109.626 19.024C109.626 19.1379 109.585 19.2328 109.502 19.3088C109.42 19.3847 109.284 19.4227 109.094 19.4227H107.621V13.1868C107.621 12.7629 107.495 12.4148 107.241 12.1428C106.994 11.8643 106.715 11.7251 106.405 11.7251C106.12 11.7251 105.838 11.8169 105.56 12.0004C105.173 12.2598 104.768 12.7059 104.343 13.3387V18.6254H105.018C105.208 18.6254 105.344 18.6634 105.427 18.7393C105.509 18.8089 105.55 18.9038 105.55 19.024C105.55 19.1379 105.509 19.2328 105.427 19.3088C105.344 19.3847 105.208 19.4227 105.018 19.4227L102.871 19.4227C102.681 19.4227 102.545 19.3847 102.462 19.3088C102.38 19.2328 102.339 19.1379 102.339 19.024C102.339 18.9038 102.38 18.8089 102.462 18.7393C102.545 18.6634 102.681 18.6254 102.871 18.6254H103.545V12.0099H102.871C102.681 12.0099 102.545 11.9719 102.462 11.896C102.38 11.82 102.339 11.722 102.339 11.6017C102.339 11.4878 102.38 11.3929 102.462 11.317C102.545 11.2411 102.681 11.2031 102.871 11.2031L104.343 11.2031Z" fill="#212F3C"/>
<path d="M123.981 15.5027H115.849C115.988 16.5341 116.419 17.3662 117.141 17.999C117.869 18.6254 118.769 18.9386 119.839 18.9386C120.434 18.9386 121.058 18.8405 121.711 18.6444C122.363 18.4482 122.895 18.1888 123.307 17.8661C123.427 17.7712 123.532 17.7237 123.62 17.7237C123.722 17.7237 123.81 17.7648 123.886 17.8471C123.962 17.923 124 18.0148 124 18.1223C124 18.2299 123.95 18.3343 123.848 18.4356C123.544 18.7519 123.003 19.0493 122.224 19.3278C121.451 19.5998 120.656 19.7359 119.839 19.7359C118.471 19.7359 117.328 19.2898 116.409 18.3976C115.497 17.4991 115.041 16.4139 115.041 15.142C115.041 13.9841 115.469 12.9907 116.324 12.1617C117.185 11.3328 118.249 10.9184 119.516 10.9184C120.821 10.9184 121.894 11.3455 122.737 12.1997C123.579 13.0476 123.994 14.1486 123.981 15.5027ZM123.174 14.6959C123.016 13.8164 122.597 13.1014 121.92 12.5509C121.248 12.0004 120.447 11.7251 119.516 11.7251C118.585 11.7251 117.784 11.9972 117.112 12.5414C116.441 13.0856 116.023 13.8038 115.858 14.6959H123.174Z" fill="#212F3C"/>
<path d="M8.2514 21.9901C12.5763 21.9889 16.0833 18.4853 16.0845 14.1646C16.0857 9.84391 12.5806 6.34224 8.25573 6.34343C3.93083 6.34462 0.423836 9.84821 0.422642 14.1689C0.421447 18.4897 3.9265 21.9913 8.2514 21.9901Z" fill="#D4E6F1"/>
<path d="M14.272 9.16708C15.4573 10.5822 16.0339 12.1935 16.0866 13.9734C14.7939 14.6635 13.5207 15.4139 12.2184 16.0743C12.9189 13.7668 13.5766 11.4731 14.272 9.16708ZM1.17406 10.8094L1.38595 10.3968C1.76355 9.76039 2.16484 9.19716 2.60592 8.75712C4.03619 9.18056 5.45764 9.57707 6.88482 9.99112C4.7372 11.1908 2.5955 12.4094 0.444095 13.5975C0.499578 12.7286 0.726146 11.8047 1.17406 10.8094ZM15.3418 17.5262L15.1299 17.9388C14.7522 18.5752 14.351 19.1385 13.9099 19.5786C12.4637 19.1426 11.0291 18.7422 9.58824 18.3227C11.7422 17.1425 13.9406 15.9031 16.0714 14.7739C16.0072 15.6337 15.7848 16.5445 15.3418 17.5262ZM4.39864 12.1693C3.70534 14.5142 2.99329 16.865 2.27203 19.2189C1.0896 17.7988 0.498653 16.1883 0.421664 14.4122C1.73953 13.6406 3.07213 12.9145 4.39864 12.1693ZM13.3173 20.1019L13.3458 20.1165C11.889 21.3304 10.2328 21.9267 8.40527 21.9929C7.75747 20.8611 7.1141 19.6914 6.49121 18.5366C6.40633 18.3791 6.33283 18.2318 6.25249 18.0554C8.61387 18.7577 10.9638 19.4244 13.3173 20.1019ZM11.6277 7.09788L12.0411 7.30908C12.6974 7.70322 13.3036 8.11353 13.7262 8.58297C13.3294 9.96948 12.8973 11.3673 12.5025 12.7531C11.3466 10.6279 10.1525 8.515 9.02718 6.38004C9.84513 6.46805 10.7036 6.6813 11.6277 7.09788ZM4.47475 21.0266C3.8278 20.6413 3.24238 20.2362 2.81086 19.7815C3.25066 18.3811 3.66204 16.99 4.07774 15.5975C5.24839 17.7179 6.44753 19.8291 7.57459 21.9636C6.73085 21.8818 5.84505 21.6697 4.88817 21.2378C4.75035 21.1674 4.61255 21.097 4.47473 21.0266L4.47475 21.0266ZM5.68452 6.76786C5.83216 6.72125 5.97984 6.67468 6.12748 6.62806C6.84647 6.44844 7.52992 6.33704 8.15343 6.34063C8.85633 7.65348 9.57232 8.94119 10.2798 10.2452C7.91585 9.56481 5.54255 8.90189 3.18418 8.21067C3.84251 7.63895 4.66038 7.14992 5.68452 6.76786Z" fill="#212F3C" stroke="#212F3C" stroke-width="0.0785301"/>
</svg>
