<svg width="60" height="60" viewBox="0 0 60 60" fill="none" xmlns="http://www.w3.org/2000/svg">
<circle cx="30" cy="30" r="30" fill="#071927"/>
<mask id="mask0_647_1524" style="mask-type:alpha" maskUnits="userSpaceOnUse" x="13" y="34" width="34" height="13">
<path d="M13.8232 37.2949C13.8232 35.6381 15.1664 34.2949 16.8232 34.2949H43.4008C45.0576 34.2949 46.4008 35.6381 46.4008 37.2949V43.0693C46.4008 44.7261 45.0576 46.0693 43.4008 46.0693H16.8232C15.1664 46.0693 13.8232 44.7261 13.8232 43.0693V37.2949Z" fill="white"/>
</mask>
<g mask="url(#mask0_647_1524)">
<path fill-rule="evenodd" clip-rule="evenodd" d="M30.0804 40.2877C28.9325 40.2877 27.8657 40.0599 26.995 39.6288L19.0479 35.6952C18.1546 35.253 17.1 35.2834 16.2336 35.7763L14.8098 36.5864C13.4743 37.3458 13.4977 38.5101 14.8618 39.1855L27.8294 45.6047C28.4592 45.9161 29.2644 46.0695 30.0804 46.0695C31.0332 46.0695 31.9999 45.8608 32.7194 45.4517L45.4142 38.2291C46.7497 37.4692 46.7263 36.3049 45.3622 35.63L44.0952 35.0025C43.2017 34.5601 42.1468 34.5904 41.2803 35.0835L33.6466 39.4268C32.6705 39.9817 31.4041 40.2877 30.0804 40.2877Z" fill="url(#paint0_linear_647_1524)"/>
</g>
<path fill-rule="evenodd" clip-rule="evenodd" d="M45.4457 27.9447L44.6401 27.5401C43.7378 27.0868 42.6681 27.1179 41.7936 27.6227L37.9526 29.8399L37.0526 30.3593L36.1531 30.8787L33.6991 32.2954C32.7204 32.8607 31.4503 33.1716 30.1235 33.1716C28.9725 33.1716 27.903 32.9399 27.03 32.5017L24.2185 31.0894L23.288 30.6224L22.3574 30.1551L18.6226 28.2789C17.7203 27.8256 16.6504 27.8566 15.7759 28.3615L14.8126 28.9177C13.4736 29.6907 13.4966 30.8748 14.8643 31.5619L17.5678 32.9196L18.4984 33.387L19.4285 33.8544L27.8666 38.0923C28.4976 38.4092 29.3054 38.5649 30.1235 38.5649C31.0784 38.5649 32.048 38.3529 32.769 37.9367L40.8814 33.2537L41.7814 32.7343L42.681 32.215L45.4978 30.5889C46.8368 29.8163 46.8134 28.6318 45.4457 27.9447Z" fill="url(#paint1_linear_647_1524)"/>
<path fill-rule="evenodd" clip-rule="evenodd" d="M45.4457 21.0172L32.4434 14.6007C31.8124 14.2889 31.005 14.136 30.1865 14.136C29.2316 14.136 28.2619 14.3447 27.5409 14.7536L14.8126 21.9737C13.4736 22.7329 13.4966 23.8963 14.8643 24.5715L17.1154 25.6826L18.0459 26.1418L18.9765 26.601L24.1569 29.1578L25.0875 29.6166L26.018 30.0763L27.8666 30.9888C28.4976 31.3002 29.3054 31.4531 30.1235 31.4531C31.0784 31.4531 32.048 31.2444 32.769 30.8354L34.2919 29.9715L35.1919 29.4611L36.0914 28.9508L41.3335 25.9774L42.2334 25.4671L43.133 24.9568L45.4978 23.6154C46.8368 22.8562 46.8134 21.6923 45.4457 21.0172Z" fill="url(#paint2_linear_647_1524)"/>
<defs>
<linearGradient id="paint0_linear_647_1524" x1="30.112" y1="15.1625" x2="30.112" y2="46.0695" gradientUnits="userSpaceOnUse">
<stop stop-color="#B3F9BA"/>
<stop offset="1" stop-color="#F6FB8C"/>
</linearGradient>
<linearGradient id="paint1_linear_647_1524" x1="30.1551" y1="15.1863" x2="30.1551" y2="45.3583" gradientUnits="userSpaceOnUse">
<stop stop-color="#B1FFBF"/>
<stop offset="1" stop-color="#FFF16D"/>
</linearGradient>
<linearGradient id="paint2_linear_647_1524" x1="30.1551" y1="14.136" x2="30.1551" y2="45.4459" gradientUnits="userSpaceOnUse">
<stop stop-color="#B3F9BA"/>
<stop offset="1" stop-color="#F6FB8C"/>
</linearGradient>
</defs>
</svg>
