<svg width="48" height="48" viewBox="0 0 48 48" fill="none"
  xmlns="http://www.w3.org/2000/svg">
  <circle cx="24" cy="24" r="24" fill="#E7EFF4"/>
  <path d="M29 20H31C31.5304 20 32.0391 20.2107 32.4142 20.5858C32.7893 20.9609 33 21.4696 33 22V28C33 28.5304 32.7893 29.0391 32.4142 29.4142C32.0391 29.7893 31.5304 30 31 30H29V34L25 30H21C20.7373 30.0003 20.4772 29.9486 20.2345 29.8481C19.9919 29.7475 19.7715 29.6 19.586 29.414M19.586 29.414L23 26H27C27.5304 26 28.0391 25.7893 28.4142 25.4142C28.7893 25.0391 29 24.5304 29 24V18C29 17.4696 28.7893 16.9609 28.4142 16.5858C28.0391 16.2107 27.5304 16 27 16H17C16.4696 16 15.9609 16.2107 15.5858 16.5858C15.2107 16.9609 15 17.4696 15 18V24C15 24.5304 15.2107 25.0391 15.5858 25.4142C15.9609 25.7893 16.4696 26 17 26H19V30L19.586 29.414Z" stroke="#4A687B" stroke-width="2" stroke-linecap="round" stroke-linejoin="round"/>
</svg>
