<?xml version="1.0" encoding="UTF-8"?>
<svg width="68px" height="79px" viewBox="0 0 68 79" version="1.1" xmlns="http://www.w3.org/2000/svg" xmlns:xlink="http://www.w3.org/1999/xlink">
    <title>Group 10</title>
    <defs>
        <filter x="-52.6%" y="-40.8%" width="205.3%" height="181.6%" filterUnits="objectBoundingBox" id="filter-1">
            <feOffset dx="0" dy="0" in="SourceAlpha" result="shadowOffsetOuter1"></feOffset>
            <feGaussianBlur stdDeviation="5" in="shadowOffsetOuter1" result="shadowBlurOuter1"></feGaussianBlur>
            <feColorMatrix values="0 0 0 0 1   0 0 0 0 1   0 0 0 0 1  0 0 0 0.5 0" type="matrix" in="shadowBlurOuter1" result="shadowMatrixOuter1"></feColorMatrix>
            <feMerge>
                <feMergeNode in="shadowMatrixOuter1"></feMergeNode>
                <feMergeNode in="SourceGraphic"></feMergeNode>
            </feMerge>
        </filter>
        <polygon id="path-2" points="0.000132672414 0.510048493 38.0000328 0.510048493 38.0000328 48.734733 0.000132672414 48.734733"></polygon>
    </defs>
    <g id="Nwtwork-page-new" stroke="none" stroke-width="1" fill="none" fill-rule="evenodd">
        <g id="Network-page-new" transform="translate(-377.000000, -1926.000000)">
            <g id="Group-10" filter="url(#filter-1)" transform="translate(392.000000, 1941.000000)">
                <g id="Group-3">
                    <mask id="mask-3" fill="white">
                        <use xlink:href="#path-2"></use>
                    </mask>
                    <g id="Clip-2"></g>
                    <path d="M35.3467172,43.6269044 C35.3467172,44.9714563 34.2601301,46.064322 32.9247822,46.064322 L5.0748525,46.064322 C3.74016802,46.064322 2.65358095,44.9714563 2.65358095,43.6269044 L2.65358095,16.3486565 L13.505521,16.3486565 C14.7181469,16.3486565 15.7019128,15.3586016 15.7019128,14.1382238 L15.7019128,3.36845638 L15.8916344,3.18019241 L32.9247822,3.18019241 C34.2601301,3.18019241 35.3467172,4.2737257 35.3467172,5.61694241 L35.3467172,43.6269044 Z M32.9247822,0.509781452 L14.8057107,0.509781452 L0.000132672414,15.162994 L0.000132672414,43.6269044 C0.000132672414,46.4435204 2.27612793,48.734733 5.0748525,48.734733 L32.9247822,48.734733 C35.7228434,48.734733 38.0001654,46.4435204 38.0001654,43.6269044 L38.0001654,5.61694241 C38.0001654,2.80099405 35.7228434,0.509781452 32.9247822,0.509781452 L32.9247822,0.509781452 Z" id="Fill-1" fill="#FFFFFF" mask="url(#mask-3)"></path>
                </g>
                <path d="M29.4542283,23.94 L9.02077172,23.94 C8.28828284,23.94 7.695,23.36544 7.695,22.6575 C7.695,21.94956 8.28828284,21.375 9.02077172,21.375 L29.4542283,21.375 C30.1860543,21.375 30.78,21.94956 30.78,22.6575 C30.78,23.36544 30.1860543,23.94 29.4542283,23.94" id="Fill-4" fill="#FFFFFF"></path>
                <path d="M29.4542283,30.78 L9.02077172,30.78 C8.28828284,30.78 7.695,30.20544 7.695,29.4975 C7.695,28.78956 8.28828284,28.215 9.02077172,28.215 L29.4542283,28.215 C30.1860543,28.215 30.78,28.78956 30.78,29.4975 C30.78,30.20544 30.1860543,30.78 29.4542283,30.78" id="Fill-6" fill="#FFFFFF"></path>
                <path d="M29.4542283,37.62 L9.02077172,37.62 C8.28828284,37.62 7.695,37.04544 7.695,36.3375 C7.695,35.62956 8.28828284,35.055 9.02077172,35.055 L29.4542283,35.055 C30.1860543,35.055 30.78,35.62956 30.78,36.3375 C30.78,37.04544 30.1860543,37.62 29.4542283,37.62" id="Fill-8" fill="#FFFFFF"></path>
            </g>
        </g>
    </g>
</svg>