<?xml version="1.0" encoding="UTF-8"?>
<svg width="81px" height="81px" viewBox="0 0 81 81" version="1.1" xmlns="http://www.w3.org/2000/svg" xmlns:xlink="http://www.w3.org/1999/xlink">
    <title>Group 3</title>
    <defs>
        <filter x="-39.2%" y="-39.2%" width="178.4%" height="178.4%" filterUnits="objectBoundingBox" id="filter-1">
            <feOffset dx="0" dy="0" in="SourceAlpha" result="shadowOffsetOuter1"></feOffset>
            <feGaussianBlur stdDeviation="5" in="shadowOffsetOuter1" result="shadowBlurOuter1"></feGaussianBlur>
            <feColorMatrix values="0 0 0 0 1   0 0 0 0 1   0 0 0 0 1  0 0 0 0.5 0" type="matrix" in="shadowBlurOuter1" result="shadowMatrixOuter1"></feColorMatrix>
            <feMerge>
                <feMergeNode in="shadowMatrixOuter1"></feMergeNode>
                <feMergeNode in="SourceGraphic"></feMergeNode>
            </feMerge>
        </filter>
        <polygon id="path-2" points="0.000141362556 7.2e-05 50.10768 7.2e-05 50.10768 50.126904 0.000141362556 50.126904"></polygon>
    </defs>
    <g id="Nwtwork-page-new" stroke="none" stroke-width="1" fill="none" fill-rule="evenodd">
        <g id="Network-page-new" transform="translate(-376.000000, -2273.000000)">
            <g id="Group-3" filter="url(#filter-1)" transform="translate(391.000000, 2288.000000)">
                <mask id="mask-3" fill="white">
                    <use xlink:href="#path-2"></use>
                </mask>
                <g id="Clip-2"></g>
                <path d="M45.753264,35.739144 L45.753264,35.738424 L45.579744,36.076824 L36.775584,36.152424 L36.949104,35.377704 C37.576944,32.584824 37.929024,29.583144 37.997424,26.456184 L38.010384,25.844904 L48.340224,25.757784 L48.300624,26.429544 C48.111264,29.694024 47.254464,32.826744 45.753264,35.739144 L45.753264,35.739144 Z M43.746624,38.930184 C41.037264,42.595704 37.356624,45.360504 33.102864,46.925784 L31.048704,47.682504 L32.386464,45.950184 C33.195744,44.902584 33.918624,43.734024 34.532784,42.479064 C35.116704,41.294664 35.655264,39.928824 36.134064,38.419704 L36.271584,37.983384 L44.496864,37.915704 L43.746624,38.930184 Z M26.953344,48.034584 L26.126784,48.314664 L26.043984,38.064024 L34.424784,37.999944 L34.126704,38.845944 C33.747984,39.918744 33.351264,40.879944 32.948064,41.702904 C31.299984,45.071064 29.227104,47.260584 26.953344,48.034584 L26.953344,48.034584 Z M25.939584,25.944264 L36.251424,25.855704 L36.236304,26.506584 C36.158544,29.731464 35.762544,32.821704 35.059824,35.693064 L34.943904,36.169704 L26.024544,36.240984 L25.939584,25.944264 Z M25.843104,13.887144 L34.762464,13.815144 L34.886304,14.289624 C35.627904,17.117784 36.070704,20.197944 36.201024,23.444424 L36.227664,24.093144 L25.927344,24.185304 L25.843104,13.887144 Z M25.745184,1.765224 L26.581824,2.043864 C27.120384,2.223864 27.602784,2.451384 28.055664,2.738664 C29.757024,3.786984 31.356864,5.710104 32.678064,8.297784 C33.081264,9.085464 33.483024,10.017144 33.906384,11.145384 L34.224624,11.989224 L25.826544,12.059784 L25.745184,1.765224 Z M32.776704,3.103704 C34.763904,3.811464 36.594144,4.733064 38.214864,5.841864 C40.240224,7.227864 42.033024,8.930664 43.545744,10.902024 L44.314704,11.905704 L36.061344,11.970504 L35.916624,11.537064 C35.419104,10.048824 34.858224,8.689464 34.249104,7.495704 C33.627024,6.276744 32.894064,5.129784 32.070384,4.087224 L30.711744,2.370024 L32.776704,3.103704 Z M45.582624,14.063544 C47.127024,16.944264 48.037104,20.061144 48.286944,23.324184 L48.337344,23.995944 L37.994544,24.081624 L37.969344,23.471784 C37.844784,20.319624 37.444464,17.325144 36.781344,14.569704 L36.596304,13.797864 L45.403344,13.725864 L45.582624,14.063544 Z M23.533344,48.063384 C21.243744,47.323944 19.132704,45.170424 17.427744,41.835384 C17.007984,40.998024 16.597584,40.043304 16.207344,38.992104 L15.893424,38.150424 L24.280704,38.080584 L24.364224,48.332664 L23.533344,48.063384 Z M17.346384,47.039544 C15.362784,46.341144 13.528224,45.418104 11.892384,44.299224 C9.870624,42.915384 8.076384,41.211864 6.557904,39.235464 L5.784624,38.231784 L14.049504,38.165544 L14.194224,38.599704 C14.682384,40.059864 15.242544,41.417064 15.859584,42.633144 C16.488144,43.869384 17.225424,45.020664 18.048384,46.053144 L19.417104,47.769624 L17.346384,47.039544 Z M4.525344,36.079704 C2.980224,33.196824 2.070144,30.080664 1.820304,26.816904 L1.769904,26.145864 L12.108384,26.056584 L12.132864,26.665704 C12.253824,29.802744 12.657744,32.797224 13.333824,35.569224 L13.522464,36.341784 L4.703904,36.415224 L4.525344,36.079704 Z M1.806624,23.710824 C1.996704,20.442744 2.854944,17.309304 4.357584,14.396904 L4.531104,14.059944 L13.331664,13.988664 L13.158144,14.762664 C12.536064,17.518824 12.183984,20.520504 12.109824,23.686344 L12.095424,24.296184 L1.767024,24.383304 L1.806624,23.710824 Z M6.360624,11.211624 C9.069984,7.545384 12.744144,4.781304 16.987824,3.218184 L19.027584,2.466504 L17.705664,4.191624 C16.896384,5.249304 16.179264,6.414264 15.573024,7.653384 C14.990544,8.847144 14.452704,10.216584 13.973184,11.722104 L13.833504,12.156984 L5.610384,12.226104 L6.360624,11.211624 Z M23.148864,2.091384 L23.976144,1.806984 L24.063264,12.077064 L15.679584,12.141864 L15.979824,11.294424 C16.377984,10.171944 16.762464,9.233784 17.155584,8.423064 C18.807984,5.057784 20.880144,2.868984 23.148864,2.091384 L23.148864,2.091384 Z M24.167664,24.196824 L13.872384,24.281064 L13.886784,23.631624 C13.962384,20.402424 14.351904,17.315064 15.043824,14.454504 L15.158304,13.975704 L24.079104,13.904424 L24.167664,24.196824 Z M24.264144,36.253944 L15.348384,36.329544 L15.225984,35.853624 C14.478624,33.006744 14.032944,29.925144 13.900464,26.693784 L13.874544,26.042904 L24.179904,25.956504 L24.264144,36.253944 Z M46.985904,12.989304 L46.923984,12.808584 C46.692864,12.237624 42.152544,6.402024 39.210624,4.387464 C35.047584,1.538424 30.181104,0.027144 25.138224,0.017784 L24.816384,-0.000216 C24.618384,0.004824 24.362064,0.025704 24.047424,0.067464 C16.010064,0.415944 8.849664,4.368744 4.370544,10.913544 L4.244544,11.095704 C3.176784,12.636504 3.039984,12.984984 3.023424,13.054824 L2.980944,13.205304 C-1.040976,20.724984 -0.985536,29.641464 3.102624,37.117224 L3.165984,37.307304 C3.414384,37.920024 8.083584,43.828344 10.896624,45.752904 C15.069744,48.609864 19.947744,50.119704 25.004304,50.119704 L25.282224,50.126904 C25.517664,50.126904 25.761744,50.108904 26.010144,50.085864 C34.055424,49.755384 41.238864,45.798264 45.737424,39.227544 L45.915264,38.971944 C46.944144,37.504584 47.096784,37.139544 47.115504,37.049544 L47.186064,36.813384 C51.151824,29.349144 51.076944,20.443464 46.985904,12.989304 L46.985904,12.989304 Z" id="Fill-1" fill="#FFFFFF" mask="url(#mask-3)"></path>
            </g>
        </g>
    </g>
</svg>