<?xml version="1.0" encoding="UTF-8"?>
<svg width="31px" height="31px" viewBox="0 0 31 31" version="1.1" xmlns="http://www.w3.org/2000/svg" xmlns:xlink="http://www.w3.org/1999/xlink">
    <!-- Generator: Sketch 64 (93537) - https://sketch.com -->
    <title>Group 18 Copy</title>
    <desc>Created with Sketch.</desc>
    <defs>
        <polygon id="path-1" points="0 0.134367131 30.9703191 0.134367131 30.9703191 30.2389972 0 30.2389972"></polygon>
    </defs>
    <g id="new-web-design" stroke="none" stroke-width="1" fill="none" fill-rule="evenodd">
        <g id="Group-18-Copy">
            <g id="Group-3" transform="translate(0.000000, 0.522941)">
                <mask id="mask-2" fill="white">
                    <use xlink:href="#path-1"></use>
                </mask>
                <g id="Clip-2"></g>
                <path d="M15.4850936,0.134367131 C6.93437021,0.134367131 -0.000395744681,7.04401937 -0.000395744681,15.5681808 C-0.000395744681,22.3871155 4.43722128,28.1713444 10.5897319,30.2124889 C11.3634128,30.3557963 11.6476894,29.8778858 11.6476894,29.4703143 C11.6476894,29.1021852 11.6331787,27.8867017 11.626583,26.596935 C7.31890213,27.5304053 6.41000851,24.7753532 6.41000851,24.7753532 C5.7049234,22.991899 4.69049787,22.5172754 4.69049787,22.5172754 C3.28494468,21.5594823 4.79602979,21.5792035 4.79602979,21.5792035 C6.35130638,21.6883275 7.1698383,23.1700472 7.1698383,23.1700472 C8.55098723,25.5293605 10.7922213,24.8470069 11.6760511,24.4525828 C11.8152213,23.4560047 12.2162426,22.7743084 12.6594766,22.3890876 C9.21979574,21.9992652 5.60400851,20.675315 5.60400851,14.7615836 C5.60400851,13.0767354 6.20949787,11.7001955 7.19951915,10.6188161 C7.03924255,10.2303084 6.50894468,8.66115803 7.34990213,6.53455495 C7.34990213,6.53455495 8.6499234,6.11975231 11.609434,8.1175102 C12.844817,7.77501864 14.1692426,7.60344417 15.4850936,7.59752781 C16.8009447,7.60344417 18.1266894,7.77501864 19.3640511,8.1175102 C22.3202638,6.11975231 23.6183064,6.53455495 23.6183064,6.53455495 C24.4612426,8.66115803 23.9309447,10.2303084 23.7706681,10.6188161 C24.7633277,11.7001955 25.3642,13.0767354 25.3642,14.7615836 C25.3642,20.6897773 21.741817,21.9946635 18.2935617,22.3765975 C18.8489234,22.8551654 19.3436043,23.794552 19.3436043,25.2348572 C19.3436043,27.2996672 19.3257957,28.9621646 19.3257957,29.4703143 C19.3257957,29.8811727 19.6047957,30.3617127 20.3896894,30.2105168 C26.5389021,28.1680575 30.970583,22.384486 30.970583,15.5681808 C30.970583,7.04401937 24.0371362,0.134367131 15.4850936,0.134367131" id="Fill-1" fill="#FFF16D" mask="url(#mask-2)"></path>
            </g>
        </g>
    </g>
</svg>