<svg xmlns="http://www.w3.org/2000/svg" xmlns:xlink="http://www.w3.org/1999/xlink" width="31" height="32" viewBox="0 0 31 32">
    <defs>
        <path id="prefix__a" d="M0 0.134L30.97 0.134 30.97 30.239 0 30.239z"/>
    </defs>
    <g fill="none" fill-rule="evenodd">
        <g transform="translate(0 .523)">
            <mask id="prefix__b" fill="#fff">
                <use xlink:href="#prefix__a"/>
            </mask>
            <path fill="#05283E" d="M15.485.134C6.935.134 0 7.044 0 15.568c0 6.82 4.437 12.603 10.59 14.644.773.144 1.058-.334 1.058-.742 0-.368-.015-1.583-.021-2.873-4.308.933-5.217-1.822-5.217-1.822-.705-1.783-1.72-2.258-1.72-2.258-1.405-.958.106-.938.106-.938 1.555.11 2.374 1.591 2.374 1.591 1.381 2.36 3.622 1.677 4.506 1.283.14-.997.54-1.679.983-2.064-3.44-.39-7.055-1.714-7.055-7.627 0-1.685.605-3.062 1.596-4.143-.16-.389-.691-1.958.15-4.084 0 0 1.3-.415 4.26 1.583 1.235-.343 2.56-.515 3.875-.52 1.316.005 2.642.177 3.88.52 2.955-1.998 4.253-1.583 4.253-1.583.843 2.126.313 3.695.153 4.084.992 1.081 1.593 2.458 1.593 4.143 0 5.928-3.622 7.233-7.07 7.615.555.478 1.05 1.418 1.05 2.858 0 2.065-.018 3.727-.018 4.235 0 .411.279.892 1.064.74 6.149-2.042 10.58-7.826 10.58-14.642C30.97 7.044 24.038.134 15.486.134" mask="url(#prefix__b)"/>
        </g>
        <path fill="#05283E" d="M5.865 22.816c-.034.077-.155.1-.265.047-.113-.05-.176-.155-.14-.231.034-.079.155-.101.268-.049.112.051.176.157.137.233M6.492 23.514c-.074.068-.218.036-.316-.072-.101-.107-.12-.25-.045-.32.076-.068.216-.037.317.071.102.11.121.252.044.32M7.103 24.402c-.095.067-.25.005-.346-.132-.095-.138-.095-.303.002-.369.096-.065.249-.005.346.13.095.14.095.304-.002.371M7.94 25.261c-.086.094-.267.069-.4-.059-.134-.124-.172-.301-.087-.394.087-.094.268-.067.401.059.135.124.176.302.085.394M9.093 25.76c-.037.121-.211.176-.386.124-.176-.053-.29-.194-.255-.317.036-.121.211-.178.388-.123.175.052.29.193.253.316M10.36 25.852c.004.127-.144.233-.328.235-.185.004-.335-.098-.337-.223 0-.13.145-.234.33-.237.184-.004.336.1.336.225M11.54 25.652c.022.124-.106.252-.289.286-.18.032-.346-.044-.37-.167-.021-.128.109-.255.288-.288.184-.032.347.043.37.17"/>
    </g>
</svg>
