<?xml version="1.0" encoding="UTF-8"?>
<svg width="33px" height="33px" viewBox="0 0 33 33" version="1.1" xmlns="http://www.w3.org/2000/svg" xmlns:xlink="http://www.w3.org/1999/xlink">
    <!-- Generator: Sketch 56.3 (81716) - https://sketch.com -->
    <title>Fill 1</title>
    <desc>Created with Sketch.</desc>
    <g id="Page-1" stroke="none" stroke-width="1" fill="none" fill-rule="evenodd">
        <g id="Artboard-Copy-25" transform="translate(-1476.000000, -4425.000000)" fill="#FFFFFF">
            <g id="Group-18" transform="translate(1476.000000, 4425.000000)">
                <g id="Group-3" transform="translate(0.000000, 0.555624)">
                    <path d="M16.4841319,0.142765077 C7.38174894,0.142765077 -0.000421276596,7.48427058 -0.000421276596,16.5411921 C-0.000421276596,23.7863102 4.72349362,29.9320534 11.2729404,32.1007695 C12.0965362,32.2530336 12.3991532,31.7452537 12.3991532,31.312209 C12.3991532,30.9210718 12.3837064,29.6296205 12.3766851,28.2592434 C7.79108936,29.2510556 6.82355745,26.3238128 6.82355745,26.3238128 C6.07298298,24.4288927 4.99311064,23.9246051 4.99311064,23.9246051 C3.4968766,22.90695 5.10545106,22.9279037 5.10545106,22.9279037 C6.76106809,23.043848 7.63240851,24.6181752 7.63240851,24.6181752 C9.10266383,27.1249456 11.4884936,26.3999448 12.4293447,25.9808693 C12.5774936,24.922005 13.0043872,24.1977027 13.476217,23.7884056 C9.81462128,23.3742192 5.96555745,21.9675222 5.96555745,15.6841825 C5.96555745,13.8940314 6.61011064,12.4314577 7.66400426,11.2824921 C7.49338723,10.8697027 6.9288766,9.20248041 7.82408936,6.94296464 C7.82408936,6.94296464 9.20798298,6.50223683 12.3584298,8.62485459 C13.6735149,8.2609573 15.0833872,8.07865943 16.4841319,8.07237329 C17.8848766,8.07865943 19.2961532,8.2609573 20.6133447,8.62485459 C23.7602809,6.50223683 25.1420681,6.94296464 25.1420681,6.94296464 C26.0393872,9.20248041 25.4748766,10.8697027 25.3042596,11.2824921 C26.3609617,12.4314577 27.0006,13.8940314 27.0006,15.6841825 C27.0006,21.9828883 23.1445149,23.36933 19.4737915,23.7751348 C20.064983,24.2836132 20.5915787,25.2817115 20.5915787,26.8120358 C20.5915787,29.0058964 20.5726213,30.7722999 20.5726213,31.312209 C20.5726213,31.748746 20.8696213,32.2593197 21.7051532,32.0986741 C28.2510894,29.9285611 32.9686851,23.7835164 32.9686851,16.5411921 C32.9686851,7.48427058 25.5879191,0.142765077 16.4841319,0.142765077" id="Fill-1"></path>
                </g>
            </g>
        </g>
    </g>
</svg>