<svg width="48" height="48" viewBox="0 0 48 48" fill="none"
  xmlns="http://www.w3.org/2000/svg">
  <circle cx="24" cy="24" r="24" fill="#E7EFF4"/>
  <path d="M18.7409 27.6778C19.4873 28.305 20.4003 28.6229 21.2988 28.7951C21.2166 28.9739 21.1488 29.1727 21.0993 29.391C20.8564 29.4695 20.5504 29.5337 20.2407 29.5069C19.8481 29.4728 19.4134 29.2922 19.0639 28.6816L19.0632 28.6802L19.0553 28.6666C19.049 28.6558 19.0404 28.6415 19.0296 28.6242C19.0081 28.5896 18.9775 28.5428 18.9379 28.4876C18.8592 28.3778 18.7424 28.2314 18.5874 28.0816C18.2809 27.7856 17.7936 27.4473 17.1349 27.4012L17.1226 27.4004L17.1102 27.4001L17.1 27.9C17.1102 27.4001 17.11 27.4001 17.1099 27.4001L17.1096 27.4001L17.1088 27.4001L17.107 27.4L17.1024 27.4L17.0889 27.3999C17.0781 27.3999 17.0637 27.4001 17.0464 27.4005C17.0123 27.4014 16.9649 27.4037 16.911 27.4091C16.8232 27.4179 16.6421 27.4414 16.482 27.5298C16.3969 27.5768 16.2694 27.6686 16.1957 27.8339C16.1145 28.0158 16.1368 28.1983 16.1965 28.3395C16.2509 28.4679 16.3385 28.5721 16.4227 28.6542C16.5106 28.7399 16.62 28.8257 16.7485 28.9132L16.7802 28.9348L16.8074 28.9478C16.808 28.9481 16.8087 28.9485 16.8095 28.949C16.8165 28.953 16.8319 28.9622 16.854 28.9776C16.8983 29.0082 16.9699 29.0635 17.057 29.1516C17.2283 29.3248 17.4659 29.6316 17.6698 30.1408C17.6716 30.1462 17.6738 30.1523 17.6762 30.1591C17.6839 30.1808 17.6947 30.2095 17.709 30.244C17.7376 30.3127 17.7804 30.4053 17.8414 30.5119C17.9629 30.7244 18.1593 30.9985 18.4618 31.2497C18.9999 31.6965 19.8162 32.0241 21 31.8976V31.9003V31.9045V31.9086V31.9128V31.917V31.9212V31.9253V31.9295V31.9336V31.9378V31.9419V31.946V31.9502V31.9543V31.9584V31.9625V31.9666V31.9707V31.9748V31.9789V31.983V31.987V31.9911V31.9952V31.9992V32.0033V32.0073V32.0114V32.0154V32.0194V32.0234V32.0274V32.0314V32.0354V32.0394V32.0434V32.0474V32.0514V32.0554V32.0593V32.0633V32.0672V32.0712V32.0751V32.0791V32.083V32.0869V32.0908V32.0947V32.0986V32.1025V32.1064V32.1103V32.1142V32.1181V32.1219V32.1258V32.1297V32.1335V32.1373V32.1412V32.145V32.1488V32.1526V32.1565V32.1603V32.1641V32.1678V32.1716V32.1754V32.1792V32.1829V32.1867V32.1905V32.1942V32.1979V32.2017V32.2054V32.2091V32.2128V32.2166V32.2203V32.2239V32.2276V32.2313V32.235V32.2387V32.2423V32.246V32.2496V32.2533V32.2569V32.2605V32.2642V32.2678V32.2714V32.275V32.2786V32.2822V32.2858V32.2893V32.2929V32.2965V32.3V32.3036V32.3071V32.3107V32.3142V32.3177V32.3212V32.3248V32.3283V32.3318V32.3352V32.3387V32.3422V32.3457V32.3491V32.3526V32.356V32.3595V32.3629V32.3664V32.3698V32.3732V32.3766V32.38V32.3834V32.3868V32.3902V32.3935V32.3969V32.4003V32.4036V32.407V32.4103V32.4136V32.417V32.4203V32.4236V32.4269V32.4302V32.4335V32.4368V32.4401V32.4433V32.4466V32.4498V32.4531V32.4563V32.4596V32.4628V32.466V32.4692V32.4724V32.4756V32.4788V32.482V32.4852V32.4884V32.4915V32.4947V32.4978V32.501V32.5041V32.5072V32.5103V32.5135V32.5166V32.5197V32.5228V32.5258V32.5289V32.532V32.535V32.5381V32.5412V32.5442V32.5472V32.5503V32.5533V32.5563V32.5593V32.5623V32.5653V32.5683V32.5712V32.5742V32.5772V32.5801V32.583V32.586V32.5889V32.5918V32.5947V32.5977V32.6006V32.6034V32.6063V32.6092V32.6121V32.6149V32.6178V32.6206V32.6235V32.6263V32.6291V32.632V32.6348V32.6376V32.6404V32.6431V32.6459V32.6487V32.6515V32.6542V32.657V32.6597V32.6624V32.6652V32.6679V32.6706V32.6733V32.676V32.6787V32.6814V32.684V32.6867V32.6893V32.692V32.6946V32.6973V32.6999V32.7025V32.7051V32.7077V32.7103V32.7129V32.7155V32.718V32.7206V32.7232V32.7257V32.7282V32.7308V32.7333V32.7358V32.7383V32.7408V32.7433V32.7458V32.7483V32.7507V32.7532V32.7556V32.7581V32.7605V32.7629V32.7653V32.7678V32.7702V32.7726V32.7749V32.7773V32.7797V32.782V32.7844V32.7867V32.7891V32.7914V32.7937V32.796V32.7984V32.8006V32.8029V32.8052V32.8075V32.8098V32.812V32.8143V32.8165V32.8187V32.8209V32.8232V32.8254V32.8276V32.8298V32.8319V32.8341V32.8363V32.8384V32.8406V32.8427V32.8449V32.847V32.8491V32.8512V32.8533V32.8554V32.8575V32.8595V32.8616V32.8637V32.8657V32.8677V32.8698V32.8718V32.8738V32.8758V32.8778V32.8798V32.8818V32.8837V32.8857V32.8877V32.8896V32.8915V32.8935V32.8954V32.8973V32.8992V32.9011V32.903V32.9049V32.9067V32.9086V32.9104V32.9123V32.9141V32.9159V32.9178V32.9196V32.9214V32.9231V32.9249V32.9267V32.9285V32.9302V32.932V32.9337V32.9354V32.9372V32.9389V32.9406V32.9423V32.9439V32.9456V32.9473V32.9489V32.9506V32.9522V32.9539V32.9555V32.9571V32.9587V32.9603V32.9619V32.9635V32.965V32.9666V32.9682V32.9697V32.9712V32.9728V32.9743V32.9758V32.9773V32.9788V32.9802V32.9817V32.9832V32.9846V32.9861V32.9875V32.9889V32.9903V32.9917V32.9931V32.9945V32.9959V32.9973V32.9986V33C21 33.0046 20.9998 33.0088 20.9996 33.0127C20.9881 33.013 20.9732 33.0127 20.9543 33.0109C17.2044 31.7338 14.5 28.1815 14.5 24C14.5 21.4804 15.5009 19.0641 17.2825 17.2825C18.1646 16.4003 19.2119 15.7006 20.3645 15.2231C21.5171 14.7457 22.7524 14.5 24 14.5C25.2476 14.5 26.4829 14.7457 27.6355 15.2231C28.7881 15.7006 29.8354 16.4003 30.7175 17.2825C31.5997 18.1646 32.2994 19.2119 32.7769 20.3645C33.2543 21.5171 33.5 22.7524 33.5 24C33.5 28.1829 30.8035 31.7269 27.0507 33.0125C27.0296 33.015 27.0131 33.0156 27.0007 33.0155C27.0003 33.0108 27 33.0056 27 33V32.9981V32.9962V32.9943V32.9924V32.9904V32.9884V32.9865V32.9844V32.9824V32.9804V32.9783V32.9763V32.9742V32.9721V32.9699V32.9678V32.9656V32.9635V32.9613V32.9591V32.9568V32.9546V32.9523V32.95V32.9477V32.9454V32.9431V32.9408V32.9384V32.936V32.9336V32.9312V32.9288V32.9263V32.9239V32.9214V32.9189V32.9164V32.9139V32.9113V32.9088V32.9062V32.9036V32.901V32.8984V32.8957V32.893V32.8904V32.8877V32.885V32.8822V32.8795V32.8767V32.874V32.8712V32.8684V32.8656V32.8627V32.8599V32.857V32.8541V32.8512V32.8483V32.8454V32.8424V32.8394V32.8365V32.8335V32.8304V32.8274V32.8244V32.8213V32.8182V32.8151V32.812V32.8089V32.8058V32.8026V32.7994V32.7962V32.793V32.7898V32.7866V32.7833V32.7801V32.7768V32.7735V32.7702V32.7669V32.7635V32.7602V32.7568V32.7534V32.75V32.7466V32.7431V32.7397V32.7362V32.7327V32.7292V32.7257V32.7222V32.7187V32.7151V32.7115V32.708V32.7044V32.7007V32.6971V32.6935V32.6898V32.6861V32.6824V32.6787V32.675V32.6713V32.6675V32.6638V32.66V32.6562V32.6524V32.6486V32.6447V32.6409V32.637V32.6331V32.6292V32.6253V32.6214V32.6174V32.6135V32.6095V32.6055V32.6015V32.5975V32.5935V32.5895V32.5854V32.5813V32.5773V32.5732V32.569V32.5649V32.5608V32.5566V32.5524V32.5483V32.5441V32.5399V32.5356V32.5314V32.5271V32.5229V32.5186V32.5143V32.51V32.5057V32.5013V32.497V32.4926V32.4882V32.4838V32.4794V32.475V32.4706V32.4661V32.4617V32.4572V32.4527V32.4482V32.4437V32.4391V32.4346V32.43V32.4255V32.4209V32.4163V32.4117V32.4071V32.4024V32.3978V32.3931V32.3884V32.3837V32.379V32.3743V32.3696V32.3648V32.3601V32.3553V32.3505V32.3457V32.3409V32.3361V32.3313V32.3264V32.3216V32.3167V32.3118V32.3069V32.302V32.2971V32.2921V32.2872V32.2822V32.2772V32.2722V32.2672V32.2622V32.2572V32.2521V32.2471V32.242V32.2369V32.2319V32.2268V32.2216V32.2165V32.2114V32.2062V32.201V32.1959V32.1907V32.1855V32.1802V32.175V32.1698V32.1645V32.1593V32.154V32.1487V32.1434V32.1381V32.1327V32.1274V32.122V32.1167V32.1113V32.1059V32.1005V32.0951V32.0897V32.0842V32.0788V32.0733V32.0679V32.0624V32.0569V32.0514V32.0459V32.0403V32.0348V32.0292V32.0237V32.0181V32.0125V32.0069V32.0013V31.9957V31.99V31.9844V31.9787V31.973V31.9674V31.9617V31.956V31.9502V31.9445V31.9388V31.933V31.9273V31.9215V31.9157V31.9099V31.9041V31.8983V31.8925V31.8866V31.8808V31.8749V31.869V31.8631V31.8572V31.8513V31.8454V31.8395V31.8335V31.8276V31.8216V31.8156V31.8097V31.8037V31.7977V31.7916V31.7856V31.7796V31.7735V31.7675V31.7614V31.7553V31.7492V31.7431V31.737V31.7309V31.7247V31.7186V31.7124V31.7063V31.7001V31.6939V31.6877V31.6815V31.6753V31.669V31.6628V31.6566V31.6503V31.644V31.6377V31.6314V31.6251V31.6188V31.6125V31.6062V31.5998V31.5935V31.5871V31.5807V31.5744V31.568V31.5616V31.5552V31.5487V31.5423V31.5359V31.5294V31.5229V31.5165V31.51V31.5035V31.497V31.4905V31.484V31.4774V31.4709V31.4643V31.4578V31.4512V31.4446V31.438V31.4314V31.4248V31.4182V31.4116V31.4049V31.3983V31.3916V31.385V31.3783V31.3716V31.3649V31.3582V31.3515V31.3448V31.338V31.3313V31.3246V31.3178V31.311V31.3043V31.2975V31.2907V31.2839V31.2771V31.2702V31.2634V31.2566V31.2497V31.2429V31.236V31.2291V31.2222V31.2153V31.2084V31.2015V31.1946V31.1877V31.1807V31.1738V31.1668V31.1599V31.1529V31.1459V31.1389V31.1319V31.1249V31.1179V31.1109V31.1039V31.0968V31.0898V31.0827V31.0756V31.0686V31.0615V31.0544V31.0473V31.0402V31.0331V31.0259V31.0188V31.0117V31.0045V30.9974V30.9902V30.983V30.9759V30.9687V30.9615V30.9543V30.947V30.9398V30.9326V30.9254V30.9181V30.9109V30.9036V30.8963V30.8891V30.8818V30.8745V30.8672V30.8599V30.8526V30.8452V30.8379V30.8306V30.8232V30.8159V30.8085V30.8011V30.7938V30.7864V30.779V30.7716V30.7642V30.7568V30.7493V30.7419V30.7345V30.727V30.7196V30.7121V30.7047V30.6972V30.6897V30.6822V30.6747V30.6672V30.6597V30.6522V30.6447V30.6371V30.6296V30.6221V30.6145V30.607V30.5994V30.5918V30.5842V30.5767V30.5691V30.5615V30.5539V30.5462V30.5386V30.531V30.5234V30.5157V30.5081V30.5004V30.4928V30.4851V30.4774V30.4697V30.4621V30.4544V30.4467V30.439V30.4313V30.4235V30.4158V30.4081V30.4003V30.3926V30.3848V30.3771V30.3693V30.3616V30.3538V30.346V30.3382V30.3304V30.3226V30.3148V30.307V30.2992V30.2914V30.2835V30.2757V30.2678V30.26C27 29.6754 26.8836 29.1804 26.6954 28.7838C27.5929 28.613 28.5048 28.2991 29.2511 27.6781C30.2553 26.8424 30.88 25.5204 30.88 23.5C30.88 22.3771 30.5271 21.4412 29.9135 20.679C30.0578 20.1629 30.2042 19.167 29.713 17.9614L29.625 17.7454L29.403 17.674L29.25 18.15C29.403 17.674 29.4025 17.6738 29.402 17.6737L29.4011 17.6734L29.399 17.6727L29.3947 17.6714L29.3851 17.6686C29.3782 17.6666 29.3705 17.6645 29.3619 17.6623C29.3447 17.658 29.324 17.6534 29.2998 17.649C29.2513 17.6402 29.189 17.6322 29.1126 17.6285C28.9596 17.6213 28.7525 17.6318 28.489 17.6868C27.9969 17.7896 27.3118 18.0468 26.4111 18.6294C25.6373 18.4358 24.8129 18.34 24 18.34C23.1871 18.34 22.3627 18.4358 21.5889 18.6294C20.6882 18.0468 20.0031 17.7896 19.511 17.6868C19.2475 17.6318 19.0404 17.6213 18.8874 17.6285C18.811 17.6322 18.7487 17.6402 18.7002 17.649C18.676 17.6534 18.6553 17.658 18.6381 17.6623C18.6295 17.6645 18.6218 17.6666 18.6149 17.6686L18.6053 17.6714L18.601 17.6727L18.5989 17.6734L18.598 17.6737C18.5975 17.6738 18.597 17.674 18.75 18.15L18.597 17.674L18.375 17.7454L18.287 17.9614C17.7958 19.167 17.9422 20.1629 18.0865 20.679C17.4729 21.4412 17.12 22.3771 17.12 23.5C17.12 25.5151 17.7419 26.8385 18.7409 27.6778Z" fill="#4A687B" stroke="#4A687B"/>
</svg>
