<svg width="47" height="47" viewBox="0 0 47 47" fill="none" xmlns="http://www.w3.org/2000/svg">
<path fill-rule="evenodd" clip-rule="evenodd" d="M0 7.65102C0 3.42561 3.42537 0.000244141 7.65078 0.000244141H39.3492C43.5746 0.000244141 47 3.42562 47 7.65102V39.3495C47 43.5749 43.5746 47.0002 39.3492 47.0002H7.65078C3.42537 47.0002 0 43.5749 0 39.3495V7.65102ZM23.4995 7.83382C14.8487 7.83382 7.83284 14.8243 7.83284 23.4482C7.83284 30.3469 12.3224 36.1988 18.5469 38.2639C19.3296 38.4088 19.6172 37.9253 19.6172 37.513C19.6172 37.3442 19.6142 36.9992 19.6103 36.551C19.6055 36.0103 19.5995 35.3194 19.5959 34.606C15.2378 35.5504 14.3182 32.7631 14.3182 32.7631C13.6049 30.9588 12.5786 30.4786 12.5786 30.4786C11.1566 29.5096 12.6854 29.5296 12.6854 29.5296C14.2589 29.64 15.087 31.139 15.087 31.139C16.4843 33.5259 18.7517 32.8356 19.6459 32.4366C19.7867 31.4283 20.1924 30.7387 20.6408 30.3489C17.1609 29.9545 13.5028 28.6151 13.5028 22.6322C13.5028 20.9276 14.1154 19.535 15.117 18.4409C14.9548 18.0479 14.4183 16.4604 15.2691 14.3089C15.2691 14.3089 16.5844 13.8892 19.5785 15.9104C20.8283 15.5639 22.1683 15.3903 23.4995 15.3843C24.8308 15.3903 26.172 15.5639 27.4238 15.9104C30.4146 13.8892 31.7279 14.3089 31.7279 14.3089C32.5807 16.4604 32.0442 18.0479 31.882 18.4409C32.8863 19.535 33.4942 20.9276 33.4942 22.6322C33.4942 28.6297 29.8294 29.9499 26.3408 30.3363C26.9027 30.8205 27.4032 31.7708 27.4032 33.228C27.4032 34.6243 27.3951 35.8387 27.3898 36.6441L27.3898 36.6456L27.3897 36.6488C27.3871 37.046 27.3851 37.3432 27.3851 37.513C27.3851 37.9287 27.6674 38.4148 28.4615 38.2619C34.6826 36.1955 39.1662 30.3443 39.1662 23.4482C39.1662 14.8243 32.1516 7.83382 23.4995 7.83382ZM13.4995 30.2996C13.6109 30.3529 13.7337 30.3296 13.7677 30.2518C13.8071 30.1746 13.7424 30.0675 13.6289 30.0163C13.5148 29.9631 13.3927 29.9857 13.3587 30.0655C13.322 30.1427 13.3854 30.2484 13.4995 30.2996ZM14.4022 30.9576C14.3274 31.0267 14.1813 30.9941 14.0825 30.8851C13.9798 30.7767 13.9604 30.631 14.0365 30.5605C14.1132 30.492 14.2547 30.5239 14.3575 30.633C14.4602 30.7434 14.4802 30.8877 14.4022 30.9576ZM14.6694 31.722C14.7668 31.861 14.9236 31.9235 15.0197 31.8564C15.1178 31.7879 15.1178 31.6216 15.0217 31.4813C14.9236 31.3436 14.7688 31.2831 14.6721 31.3496C14.574 31.4161 14.574 31.583 14.6694 31.722ZM15.8653 32.7254C15.7792 32.8198 15.5963 32.7946 15.4622 32.6656C15.3254 32.5399 15.2874 32.361 15.3735 32.2665C15.4609 32.1721 15.6444 32.1987 15.7792 32.3264C15.9153 32.4521 15.9567 32.6316 15.8653 32.7254ZM16.6418 33.3553C16.8186 33.4078 16.9948 33.3526 17.0328 33.2302C17.0695 33.1059 16.9534 32.9636 16.7766 32.9103C16.5977 32.8551 16.4209 32.9123 16.3842 33.0354C16.3482 33.1591 16.4636 33.3021 16.6418 33.3553ZM18.3147 33.323C18.3187 33.452 18.1686 33.5585 17.9824 33.5611C17.7949 33.5651 17.6434 33.4614 17.6414 33.335C17.6414 33.204 17.7882 33.0989 17.9757 33.0956C18.1619 33.0916 18.3147 33.196 18.3147 33.323ZM19.2156 33.4103C19.4005 33.3758 19.5299 33.2461 19.5079 33.121C19.4839 32.9934 19.3184 32.9175 19.1329 32.9495C18.9514 32.9834 18.8199 33.1117 18.8419 33.2414C18.8653 33.3651 19.0341 33.4429 19.2156 33.4103Z" fill="black"/>
</svg>
