<svg xmlns="http://www.w3.org/2000/svg" width="127" height="36" viewBox="0 0 127 36">
    <defs>
        <linearGradient id="q92bszcw6a" x1="-23.881%" x2="168.704%" y1="29.18%" y2="85.002%">
            <stop offset="0%" stop-color="#B1FFBF"/>
            <stop offset="100%" stop-color="#FFF16D"/>
        </linearGradient>
        <linearGradient id="esjcovpvzb" x1="-233.825%" x2="283.82%" y1="-10.818%" y2="76.083%">
            <stop offset="0%" stop-color="#B1FFBF"/>
            <stop offset="100%" stop-color="#FFF16D"/>
        </linearGradient>
        <linearGradient id="hm18bllkdc" x1="-263.37%" x2="166.761%" y1="0%" y2="74.858%">
            <stop offset="0%" stop-color="#B1FFBF"/>
            <stop offset="100%" stop-color="#FFF16D"/>
        </linearGradient>
        <linearGradient id="gaqr51v6ad" x1="-430.293%" x2="95.747%" y1="0%" y2="50%">
            <stop offset="0%" stop-color="#B1FFBF"/>
            <stop offset="100%" stop-color="#FFF16D"/>
            <stop offset="100%" stop-color="#FFF16D"/>
        </linearGradient>
        <linearGradient id="imkgwb5qye" x1="22.603%" x2="369.402%" y1="12.405%" y2="80.233%">
            <stop offset="0%" stop-color="#B1FFBF"/>
            <stop offset="100%" stop-color="#FFF16D"/>
        </linearGradient>
    </defs>
    <g fill="none" fill-rule="evenodd">
        <path fill="url(#q92bszcw6a)" d="M52.283 5.03c-1.602 0-2.937 1.257-2.937 2.785v2.73h6.408v4.716h-6.408V33h-5.608V15.261H40v-4.715h3.738V7.455C43.738 2.919 47.432 0 51.704 0 55.13 0 57 1.886 57 1.886l-2.136 3.997s-1.246-.853-2.581-.853"/>
        <path fill="url(#esjcovpvzb)" d="M81 11v22.772h-4.603l-.828-2.55h-.598C74.05 32.36 72.025 34 68.25 34 62.13 34 59 29.719 59 23.343V11h6.26v10.977c0 2.823.23 6.74 4.188 6.74 2.025 0 5.34-1.047 5.34-7.014V11H81z"/>
        <path fill="url(#hm18bllkdc)" d="M93.226 15.78c-1.9 0-2.713.947-2.713 1.895 0 1.533 2.035 1.983 3.391 2.254 4.025.857 8.096 2.075 8.096 6.855C102 31.429 98.155 34 93.497 34c-5.2 0-9.225-3.158-9.497-7.937h5.563c.136 1.353 1.04 3.111 3.798 3.111 2.307 0 2.85-1.217 2.85-2.164 0-1.67-1.584-2.165-3.12-2.526-2.669-.586-8.413-1.669-8.413-6.809 0-4.42 4.251-6.675 8.638-6.675 5.066 0 8.412 3.066 8.684 6.855h-5.562c-.181-.767-.906-2.075-3.212-2.075"/>
        <path fill="url(#gaqr51v6ad)" d="M126.94 24.213h-16.309c.67 3.427 3.441 4.69 5.853 4.69 3.039 0 4.335-1.893 4.335-1.893h5.63c-1.698 4.509-5.765 6.99-10.144 6.99C110.273 34 105 29.355 105 22.319 105 15.329 110.229 11 116.127 11c5.72 0 11.528 4.014 10.813 13.213m-15.952-4.555h10.054c-.67-2.66-2.502-3.742-4.737-3.742-2.457 0-4.423 1.398-5.317 3.742"/>
        <path fill="url(#imkgwb5qye)" d="M8.951 25.027l2.6 1.175c1.723.779 3.557 1.173 5.449 1.173 1.893 0 3.727-.394 5.45-1.173l1.514-.685-3.878-1.75-.13.04c-2.351.719-4.876.56-7.11-.45L3.206 19l5.746-2.597 2.602 1.177c1.724.778 3.557 1.173 5.447 1.173 1.89 0 3.723-.395 5.447-1.174l1.514-.684-3.878-1.752-.131.04c-2.348.719-4.87.56-7.102-.448l-9.645-4.359 9.645-4.359c2.638-1.192 5.663-1.191 8.3 0l9.645 4.359-9.535 4.31L30.795 19l-9.531 4.308 9.531 4.316-9.644 4.358c-2.638 1.193-5.664 1.193-8.302 0l-9.644-4.358 5.746-2.597zM34 19c0-1.223-.695-2.296-1.813-2.801l-3.344-1.512 3.343-1.51C33.305 12.672 34 11.6 34 10.376s-.695-2.296-1.813-2.801l-9.739-4.401c-3.462-1.565-7.434-1.565-10.896 0l-9.74 4.4C.695 8.08 0 9.155 0 10.377s.695 2.296 1.813 2.801l3.343 1.51L1.813 16.2C.695 16.704 0 17.777 0 19c0 1.222.695 2.296 1.813 2.801l3.343 1.51-3.343 1.512C.694 25.328 0 26.4 0 27.623c0 1.223.695 2.297 1.813 2.802l9.739 4.402C13.275 35.605 15.108 36 17 36c1.892 0 3.725-.395 5.448-1.173l9.738-4.402C33.305 29.921 34 28.847 34 27.624s-.695-2.296-1.813-2.801l-3.344-1.511 3.343-1.51C33.305 21.295 34 20.221 34 19z"/>
    </g>
</svg>
