<svg width="36" height="35" viewBox="0 0 36 35" fill="none" xmlns="http://www.w3.org/2000/svg">
<g clip-path="url(#clip0_564_968)">
<path d="M34.7991 12.5227C34.7991 12.4963 34.8013 12.4705 34.8013 12.4446C34.8013 7.5144 31.2356 3 25.8742 3C21.6139 3 19.1439 6.06185 18.3013 8.92735C17.4587 6.06185 14.9881 3 10.7283 3C5.36692 3 1.80127 7.5144 1.80127 12.4441C1.80127 12.4705 1.80292 12.4963 1.80347 12.5222C1.77487 13.5952 1.80127 24.5094 18.2963 33.4057V33.4079C18.2963 33.4079 18.298 33.4068 18.2985 33.4068C18.2996 33.4068 18.3002 33.4073 18.3007 33.4079C18.3018 33.4079 18.3024 33.4068 18.3029 33.4068C18.3035 33.4068 18.3046 33.4073 18.3051 33.4079V33.4057C34.8002 24.5094 34.8266 13.5952 34.798 12.5227H34.7991Z" fill="#00FFC2"/>
<path d="M2.71491 13.5679C2.71491 13.5679 2.59941 4.17391 12.3559 4.06226C12.3559 4.06226 5.71626 5.67431 2.71491 13.5679V13.5679Z" fill="white" fill-opacity="0.5"/>
</g>
<defs>
<clipPath id="clip0_564_968">
<rect width="33" height="30.4079" fill="white" transform="translate(1.80127 3)"/>
</clipPath>
</defs>
</svg>
