<?xml version="1.0" encoding="UTF-8"?>
<svg width="47px" height="47px" viewBox="0 0 47 47" version="1.1" xmlns="http://www.w3.org/2000/svg" xmlns:xlink="http://www.w3.org/1999/xlink">
    <!-- Generator: Sketch 64 (93537) - https://sketch.com -->
    <title>Highly customizable</title>
    <desc>Created with Sketch.</desc>
    <g id="Highly-customizable" stroke="none" stroke-width="1" fill="none" fill-rule="evenodd">
        <g id="Group-8-Copy" transform="translate(4.000000, 5.000000)">
            <path d="M8.99707031,2.203125 L2.65058594,8.2801444 L12.6009766,18.4 L5.38320313,26.1980469 L2.65058594,34.8369141 L12.1246094,32.8943442 L18.8,26.1980469 L29.3651023,35.1902344 L35.5351562,29.4777344 L25.9111328,19.1845969 L32.8238281,11.3642578 C34.1375,9.02096127 34.7943359,7.70636109 34.7943359,7.42045728 C34.7943359,7.13455347 33.9355469,5.87122396 32.2179688,3.63046875 L27.6373047,4.11744886 L22.8824219,8.01582031 L19.0928711,12.2621094 L8.99707031,2.203125 Z" id="Path-11" fill="#FFFFFF"></path>
            <g id="icons8-design" fill="#9EAFB9" fill-rule="nonzero">
                <path d="M8.41588448,0 L7.42045728,1.04067389 L1.04067389,7.42045728 L0,8.41588448 L10.4067389,18.8226233 L3.16726835,26.0620939 L3.07677497,26.5145608 L1.49314079,34.4779783 L1.04067389,36.6045728 L3.16726835,36.1521059 L11.1306859,34.5684717 L11.5831528,34.4779783 L18.8226233,27.2385078 L29.1841155,37.6 L30.1795427,36.5593261 L36.5593261,30.1795427 L37.6,29.1841155 L27.2385078,18.8226233 L34.387485,11.6736462 C36.7176895,9.34344164 36.7176895,5.58796631 34.387485,3.25776173 C33.2223834,2.09266017 31.7009623,1.49314079 30.1795427,1.49314079 C28.6581231,1.49314079 27.1367035,2.09266017 25.9716005,3.25776173 L18.8226233,10.4067389 L8.41588448,0 Z M8.41588448,4.11744886 L11.2211793,6.96799037 L9.09458484,9.09458484 L11.1759326,11.1759326 L13.3025271,9.04933815 L16.7412756,12.4880866 L12.44284,16.7865223 L4.07220217,8.41588448 L8.41588448,4.11744886 Z M30.1795427,4.29843562 C30.9317686,4.29843562 31.6953069,4.6377858 32.3513839,5.29386282 C33.6578824,6.60036137 33.6578824,8.28579988 32.3513839,9.59229844 L31.4012034,10.5424789 L27.1027677,6.24404332 L28.0529483,5.29386282 C28.7090253,4.6377858 29.4273168,4.29843562 30.1795427,4.29843562 Z M25.0666667,8.2801444 L29.3651023,12.57858 L11.854633,30.0890493 C10.898797,28.2509029 9.3943438,26.7464497 7.55619735,25.7906137 L25.0666667,8.2801444 Z M25.2024067,20.8587244 L28.6411552,24.2974729 L26.4693141,26.4693141 L28.5506619,28.5506619 L30.722503,26.3788207 L33.4825511,29.1388688 L29.1388688,33.4825511 L20.8587244,25.2024067 L25.2024067,20.8587244 Z M5.70108303,28.0981949 C7.43742515,28.8277975 8.81744922,30.2078215 9.54705174,31.9441637 L4.75090253,32.8943442 L5.70108303,28.0981949 Z" id="Shape"></path>
            </g>
        </g>
    </g>
</svg>