<?xml version="1.0" encoding="UTF-8"?>
<svg width="40px" height="40px" viewBox="0 0 40 40" version="1.1" xmlns="http://www.w3.org/2000/svg" xmlns:xlink="http://www.w3.org/1999/xlink">
    <!-- Generator: Sketch 59.1 (86144) - https://sketch.com -->
    <title>Group 37</title>
    <desc>Created with Sketch.</desc>
    <g id="fuse-web-5" stroke="none" stroke-width="1" fill="none" fill-rule="evenodd">
        <g id="3.3" transform="translate(-966.000000, -4077.000000)">
            <g id="Group-37" transform="translate(968.000000, 4078.972656)">
                <g id="Group-35">
                    <path d="M24.1028544,22.4216314 C25.4748955,20.6657193 25.3723822,18.0782077 23.7949247,16.4464509 C22.107548,14.7014224 19.3622965,14.7010193 17.6749198,16.4456447 L16.2284299,17.9415561 C15.6975436,18.4909841 14.8330017,18.490581 14.3013358,17.941153 C14.0436883,17.6747026 13.9021966,17.3207791 13.9018068,16.9442819 C13.9018068,16.5681877 14.0436883,16.2142642 14.3005563,15.9482169 L16.7480125,13.4171396 C17.3272321,12.8185332 17.3272321,11.8478636 16.7480125,11.2492572 C16.1691826,10.6502476 15.2305818,10.6502476 14.651752,11.2492572 L13.9758658,11.948236 L13.3307727,11.2811022 C12.7519429,10.6824958 11.813342,10.6824958 11.2341224,11.2811022 C10.6552925,11.8801118 10.6552925,12.8503781 11.2341224,13.4493877 L11.8967558,14.134258 C11.2750497,14.9279658 10.9371067,15.9095191 10.9371067,16.945088 C10.9371067,18.1402854 11.3876974,19.2641337 12.2050753,20.1094385 C13.0485688,20.9821543 14.1571156,21.4183106 15.2652727,21.4183106 C16.3734297,21.4183106 17.4815867,20.9821543 18.3246904,20.1102448 L19.7711804,18.6143333 C20.3024564,18.0649053 21.1669983,18.0653085 21.6986642,18.6147365 C22.2299403,19.1645675 22.2303301,20.0586477 21.699054,20.6076726 L18.860644,23.5430612 C18.2814243,24.1416676 18.2814243,25.1123371 18.860644,25.7109435 C19.149864,26.0104483 19.5291242,26.1604023 19.9087742,26.16 C20.2880344,26.16 20.6676844,26.0104483 20.9569045,25.7109435 L22.0241341,24.6076535 L22.6692273,25.2743842 C22.9588372,25.573889 23.3380974,25.7234397 23.7173576,25.7234397 C24.0970076,25.7234397 24.4762678,25.573889 24.7658776,25.2743842 C25.3447075,24.6757777 25.3447075,23.7051081 24.7658776,23.1065017 L24.1028544,22.4216314 Z" id="Path-Copy-2" fill="#9EAFB9" fill-rule="nonzero" transform="translate(18.000000, 18.480000) rotate(47.000000) translate(-18.000000, -18.480000) "></path>
                    <circle id="Oval" stroke="#9EAFB9" stroke-width="2.4" cx="18" cy="18" r="18"></circle>
                    <circle id="Oval" stroke="#9EAFB9" stroke-width="1.2" cx="18" cy="18" r="14.4"></circle>
                </g>
            </g>
        </g>
    </g>
</svg>