<?xml version="1.0" encoding="utf-8"?>
<svg viewBox="416.587 221.513 24 24" xmlns="http://www.w3.org/2000/svg">
  <circle style="fill: rgb(255, 255, 255);" cx="529.604" cy="249.586" r="8.746" transform="matrix(0.991112, 0, 0, 1.044438, -96.621843, -27.603583)"/>
  <path d="M 428.577 223.513 C 423.057 223.513 418.587 227.993 418.587 233.513 C 418.587 239.033 423.057 243.513 428.577 243.513 C 434.107 243.513 438.587 239.033 438.587 233.513 C 438.587 227.993 434.107 223.513 428.577 223.513 Z M 435.507 229.513 L 432.557 229.513 C 432.237 228.263 431.777 227.063 431.177 225.953 C 433.017 226.583 434.547 227.863 435.507 229.513 Z M 428.587 225.553 C 429.417 226.753 430.067 228.083 430.497 229.513 L 426.677 229.513 C 427.107 228.083 427.757 226.753 428.587 225.553 Z M 420.847 235.513 C 420.687 234.873 420.587 234.203 420.587 233.513 C 420.587 232.823 420.687 232.153 420.847 231.513 L 424.227 231.513 C 424.147 232.173 424.087 232.833 424.087 233.513 C 424.087 234.193 424.147 234.853 424.227 235.513 L 420.847 235.513 Z M 421.667 237.513 L 424.617 237.513 C 424.937 238.763 425.397 239.963 425.997 241.073 C 424.157 240.443 422.627 239.173 421.667 237.513 Z M 424.617 229.513 L 421.667 229.513 C 422.627 227.853 424.157 226.583 425.997 225.953 C 425.397 227.063 424.937 228.263 424.617 229.513 Z M 428.587 241.473 C 427.757 240.273 427.107 238.943 426.677 237.513 L 430.497 237.513 C 430.067 238.943 429.417 240.273 428.587 241.473 Z M 430.927 235.513 L 426.247 235.513 C 426.157 234.853 426.087 234.193 426.087 233.513 C 426.087 232.833 426.157 232.163 426.247 231.513 L 430.927 231.513 C 431.017 232.163 431.087 232.833 431.087 233.513 C 431.087 234.193 431.017 234.853 430.927 235.513 Z M 431.177 241.073 C 431.777 239.963 432.237 238.763 432.557 237.513 L 435.507 237.513 C 434.547 239.163 433.017 240.443 431.177 241.073 Z M 432.947 235.513 C 433.027 234.853 433.087 234.193 433.087 233.513 C 433.087 232.833 433.027 232.173 432.947 231.513 L 436.327 231.513 C 436.487 232.153 436.587 232.823 436.587 233.513 C 436.587 234.203 436.487 234.873 436.327 235.513 L 432.947 235.513 Z" style="fill: rgb(5, 40, 62);"/>
</svg>