<svg width="240" height="80" viewBox="0 0 240 80" fill="none" xmlns="http://www.w3.org/2000/svg">
<g clip-path="url(#clip0_671_493)">
<path d="M64.1788 66C64.1788 61.889 63.9306 58.6622 64.3184 55.513C64.4425 54.4581 66.0249 53.0929 67.2039 52.7361C70.772 51.6502 74.4332 50.8745 78.1098 50.1919C80.9798 49.6645 81.802 48.4544 80.592 45.662C77.2566 37.9363 77.3031 37.8898 85.5252 35.842C89.2795 34.9112 93.0182 33.9339 96.819 33.2668C97.7187 33.1117 99.6424 33.9804 99.6889 34.4924C99.9527 37.4244 100.077 40.4495 99.5959 43.3505C99.4252 44.3899 97.5946 45.5224 96.307 45.9412C93.2509 46.9186 90.0706 47.4926 86.9369 48.2527C82.9035 49.2301 82.5622 49.9747 84.4238 53.8376C85.0909 55.2338 86.1458 56.5369 86.394 57.9951C86.5646 58.9725 85.82 60.9272 85.1529 61.0978C78.4666 62.8353 71.7028 64.2936 64.1943 66H64.1788Z" fill="black"/>
<path d="M99.8441 16.1401C99.8441 19.9875 100.061 23.3228 99.7044 26.6117C99.6114 27.5425 98.0135 28.7835 96.8965 29.0783C91.1721 30.5986 85.4011 31.9948 79.5991 33.1738C76.2327 33.8564 74.5262 35.4233 75.0071 38.9758C75.1002 39.6119 75.0071 40.2634 75.0071 40.915C75.0071 46.655 72.3854 49.075 66.5058 48.7027C65.9163 48.6717 64.8614 48.3769 64.8304 48.1287C64.5666 44.8089 64.1012 41.458 64.4115 38.2002C64.5046 37.2538 66.7851 36.1524 68.2278 35.749C74.821 33.8874 74.852 33.965 71.7183 27.6511C69.4689 23.1056 69.4534 23.0746 74.2935 21.8801C81.4297 20.1271 88.5814 18.4361 95.733 16.7607C96.9276 16.4814 98.1531 16.3884 99.8596 16.1401H99.8441Z" fill="black"/>
<path d="M165.062 43.5678V53.1241H159.399V28.7681H177.612V33.4376H165.248V38.6191H176.588V43.5678H165.062Z" fill="black"/>
<path d="M135.493 47.9581V53.1396H117.9V28.7681H123.128V47.9426H135.477L135.493 47.9581Z" fill="black"/>
<path d="M144.972 53.2168H139.791V28.7212H144.972V53.2323V53.2168Z" fill="black"/>
<path d="M187.339 53.1549H182.111V28.6748H187.339V53.1549Z" fill="black"/>
<path d="M149.843 47.9575H154.667V53.0769H149.843V47.9575Z" fill="black"/>
</g>
<defs>
<clipPath id="clip0_671_493">
<rect width="123.238" height="49.86" fill="white" transform="translate(64.1006 16.1401)"/>
</clipPath>
</defs>
</svg>
