<?xml version="1.0" encoding="UTF-8"?>
<svg width="17px" height="17px" viewBox="0 0 17 17" version="1.1" xmlns="http://www.w3.org/2000/svg" xmlns:xlink="http://www.w3.org/1999/xlink">
    <title>icons8-link (1) copy</title>
    <g id="new-new-new" stroke="none" stroke-width="1" fill="none" fill-rule="evenodd">
        <g id="roots--graet-britain" transform="translate(-640.000000, -4468.000000)" fill="#006FFF" fill-rule="nonzero">
            <g id="icons8-link-(1)-copy" transform="translate(640.000000, 4468.000000)">
                <path d="M13.3581731,0 C12.4250857,0 11.4917011,0.355590157 10.7811822,1.06591007 L8.75691174,3.09019033 C7.74801537,4.09909157 7.45965804,5.55599112 7.88394512,6.82561965 L9.3380984,5.37145895 C9.39882652,4.9556718 9.58245983,4.55460522 9.9018897,4.23517381 L11.9261601,2.21089355 C12.3208928,1.81656377 12.8399599,1.61863342 13.3581731,1.61863342 C13.8763864,1.61863342 14.3950676,1.81615887 14.7893955,2.21089355 C15.5784561,3.0003629 15.5784561,4.2842877 14.7893955,5.07335212 L12.7651251,7.0976323 C12.4456952,7.41706371 12.0450354,7.60029264 11.6288454,7.6614259 L10.173901,9.11637728 C10.5496056,9.24188265 10.9408084,9.30852601 11.333112,9.30852601 C12.2663007,9.30852601 13.1995841,8.95313811 13.910103,8.24261577 L15.9343734,6.21833559 C17.3554113,4.79769576 17.3550064,2.48654998 15.9343734,1.06591007 C15.2238545,0.355792545 14.2912606,0 13.3581731,0 Z M10.9132342,5.25363977 C10.7028731,5.25990789 10.5032155,5.34782578 10.3565599,5.49876755 L5.49831086,10.35704 C5.28678205,10.5601292 5.20157254,10.8617068 5.27554491,11.145464 C5.34951728,11.4292211 5.57111244,11.6508174 5.85486824,11.7247901 C6.13862403,11.7987628 6.44020018,11.7135529 6.64328841,11.5020231 L11.5015374,6.64375062 C11.7410168,6.41096537 11.8130227,6.05503668 11.6828588,5.74747026 C11.5526949,5.43990385 11.2470634,5.24379507 10.9132342,5.25363977 Z M5.8478137,7.70017225 C4.8550799,7.6496535 3.84672117,8.00070822 3.08974525,8.75738415 L1.06547475,10.7816643 C-0.35515823,12.2023042 -0.35515827,14.5142406 1.06547475,15.9348804 C1.77599367,16.6449979 2.70889132,17 3.64167513,17 C4.57445894,17 5.50735651,16.6446121 6.21787543,15.9340898 L8.24214585,13.9098096 C9.25104222,12.9009083 9.54019023,11.4440088 9.11590315,10.1743803 L7.66095878,11.6293317 C7.60023067,12.0451188 7.41659776,12.4461854 7.09716789,12.7656168 L5.07289747,14.789897 C4.28383686,15.5793662 2.9995134,15.5793662 2.21045271,14.789897 C1.4213921,14.0004277 1.4213921,12.7165029 2.21045271,11.9274385 L4.23472321,9.90315831 C4.55415308,9.5837269 4.95521773,9.39970687 5.37100287,9.33857361 L6.82515655,7.88441332 C6.50775095,7.77834104 6.17872482,7.71701142 5.8478137,7.70017225 Z" id="Shape"></path>
            </g>
        </g>
    </g>
</svg>