<?xml version="1.0" encoding="UTF-8"?>
<svg width="23px" height="23px" viewBox="0 0 23 23" version="1.1" xmlns="http://www.w3.org/2000/svg" xmlns:xlink="http://www.w3.org/1999/xlink">
    <title>icons8-linkedin copy 5</title>
    <g id="About" stroke="none" stroke-width="1" fill="none" fill-rule="evenodd">
        <g id="new-about" transform="translate(-1023.000000, -2627.000000)" fill-rule="nonzero">
            <g id="icons8-linkedin-copy-5" transform="translate(1023.000000, 2627.000000)">
                <path d="M23,19.8055556 C23,21.5701667 21.5701667,23 19.8055556,23 L3.19444444,23 C1.43047222,23 0,21.5701667 0,19.8055556 L0,3.19444444 C0,1.42983333 1.43047222,0 3.19444444,0 L19.8055556,0 C21.5701667,0 23,1.42983333 23,3.19444444 L23,19.8055556 Z" id="Path" fill="#0078D4"></path>
                <path d="M15.4230769,20 L15.4230769,13.3968077 C15.4230769,12.2924615 14.8875769,11.6327308 13.9898462,11.6327308 C13.4569615,11.6327308 13.0653077,11.9328462 12.8266538,12.5245769 C12.8155385,12.5664231 12.7998462,12.7370769 12.8063846,13.2529615 L12.8076923,20 L8.23076923,20 L8.23076923,7.57692308 L12.8076923,7.57692308 L12.8076923,8.27065385 C13.4759231,7.80969231 14.2951923,7.57692308 15.2517692,7.57692308 C18.2248077,7.57692308 19.9993462,9.59926923 19.9993462,12.9868462 L20,20 L15.4230769,20 Z M3,20 L3,7.57692308 L5.26034615,7.57692308 C3.95069231,7.57692308 3,6.61446154 3,5.28780769 C3,3.96246154 3.96638462,3 5.29761538,3 C6.61315385,3 7.55011538,3.93565385 7.57692308,5.27473077 C7.57692308,6.61119231 6.60988462,7.57692308 5.27865385,7.57692308 L7.57692308,7.57692308 L7.57692308,20 L3,20 Z" id="Shape" fill="#000000" opacity="0.05"></path>
                <path d="M15.16,20 L15.16,13.85664 C15.16,12.59392 14.50016,11.80992 13.43712,11.80992 C12.60832,11.80992 12.19872,12.3936 12.0016,12.8832 C11.94912,13.01056 11.95616,13.51616 11.95872,13.73184 L11.96,20 L8.12,20 L8.12,8.48 L11.96,8.48 L11.96,9.52832 C12.4688,9.0016 13.288,8.48 14.67232,8.48 C17.38144,8.48 18.99936,10.33984 18.99936,13.45536 L19,20 L15.16,20 Z M3,20 L3,8.48 L6.84,8.48 L6.84,20 L3,20 Z M4.89248,7.84 C3.79616,7.84 3,7.03232 3,5.91936 C3,4.80704 3.81152,4 4.92896,4 C6.03232,4 6.8176,4.78656 6.84,5.91296 C6.84,7.03232 6.02848,7.84 4.9104,7.84 L4.89248,7.84 Z" id="Shape" fill="#000000" opacity="0.07"></path>
                <path d="M4,8.375 L7.125,8.375 L7.125,19 L4,19 L4,8.375 Z M5.553125,7.125 L5.535625,7.125 C4.603125,7.125 4,6.43 4,5.561875 C4,4.675 4.621875,4 5.57125,4 C6.521875,4 7.1075,4.675 7.125,5.561875 C7.125,6.429375 6.521875,7.125 5.553125,7.125 Z M19,19 L15.875,19 L15.875,13.313125 C15.875,11.939375 15.109375,11.001875 13.88,11.001875 C12.941875,11.001875 12.434375,11.634375 12.188125,12.245625 C12.098125,12.464375 12.125,13.069375 12.125,13.375 L12.125,19 L9,19 L9,8.375 L12.125,8.375 L12.125,10.01 C12.575625,9.3125 13.28125,8.375 15.08625,8.375 C17.3225,8.375 18.999375,9.78125 18.999375,12.92125 L19,19 L19,19 Z" id="Shape" fill="#FFFFFF"></path>
            </g>
        </g>
    </g>
</svg>