<?xml version="1.0" encoding="UTF-8"?>
<svg width="31px" height="31px" viewBox="0 0 31 31" version="1.1" xmlns="http://www.w3.org/2000/svg" xmlns:xlink="http://www.w3.org/1999/xlink">
    <!-- Generator: Sketch 64 (93537) - https://sketch.com -->
    <title>Combined Shape Copy 2</title>
    <desc>Created with Sketch.</desc>
    <g id="new-web-design" stroke="none" stroke-width="1" fill="none" fill-rule="evenodd">
        <path d="M15.5,0 C24.0604136,0 31,6.93958638 31,15.5 C31,24.0604136 24.0604136,31 15.5,31 C6.93958638,31 0,24.0604136 0,15.5 C0,6.93958638 6.93958638,0 15.5,0 Z M11.5620168,9 L7.19008404,9 L7.19008404,9.27421516 L8.59811391,11.1099334 C8.73634113,11.2447713 8.80693369,11.4427873 8.78819795,11.6431295 L8.78819795,11.6431295 L8.78819795,18.8565118 C8.82921365,19.1167254 8.75341976,19.3825353 8.58403362,19.5725182 L8.58403362,19.5725182 L7,21.6519832 L7,21.9261983 L11.4916153,21.9261983 L11.4916153,21.6519832 L9.9075817,19.5725182 C9.73695323,19.3828498 9.65646607,19.1187915 9.68933706,18.8565118 L9.68933706,18.8565118 L9.68933706,12.6181168 L13.6318207,21.9261983 L14.0894304,21.9261983 L17.4757423,12.6181168 L17.4751882,20.1240165 C17.4724178,20.250439 17.4557952,20.2948719 17.3560598,20.4027807 L17.3560598,20.4027807 L16.1381139,21.6824515 L16.1381139,21.9566667 L22.0518394,21.9566667 L22.0518394,21.6824515 L20.8761344,20.4332491 C20.7723481,20.3476295 20.7208647,20.2069079 20.7423717,20.0676289 L20.7423717,20.0676289 L20.7423717,10.8890378 C20.7208647,10.7497587 20.7723481,10.6090371 20.8761344,10.5234176 L20.8761344,10.5234176 L22.08,9.27421516 L22.08,9 L17.9122317,9 L14.9412885,17.0207936 L11.5620168,9 Z" id="Combined-Shape-Copy-2" fill="#FFF16D"></path>
    </g>
</svg>