<?xml version="1.0" encoding="UTF-8"?>
<svg width="31px" height="31px" viewBox="0 0 31 31" version="1.1" xmlns="http://www.w3.org/2000/svg" xmlns:xlink="http://www.w3.org/1999/xlink">
    <!-- Generator: Sketch 56.3 (81716) - https://sketch.com -->
    <title>Combined Shape</title>
    <desc>Created with Sketch.</desc>
    <g id="Page-1" stroke="none" stroke-width="1" fill="none" fill-rule="evenodd">
        <g id="Artboard-Copy-25" transform="translate(-1389.000000, -4426.000000)" fill="#FFFFFF">
            <path d="M1404.5,4457 C1395.93959,4457 1389,4450.06041 1389,4441.5 C1389,4432.93959 1395.93959,4426 1404.5,4426 C1413.06041,4426 1420,4432.93959 1420,4441.5 C1420,4450.06041 1413.06041,4457 1404.5,4457 Z M1397.7882,4437.64313 L1397.7882,4444.85651 C1397.82921,4445.11673 1397.75342,4445.38254 1397.58403,4445.57252 L1396,4447.65198 L1396,4447.9262 L1400.49162,4447.9262 L1400.49162,4447.65198 L1398.90758,4445.57252 C1398.73695,4445.38285 1398.65647,4445.11879 1398.68934,4444.85651 L1398.68934,4438.61812 L1402.63182,4447.9262 L1403.08943,4447.9262 L1406.47574,4438.61812 L1406.47574,4446.03716 C1406.47574,4446.2352 1406.47574,4446.27329 1406.35606,4446.40278 L1405.13811,4447.68245 L1405.13811,4447.95667 L1411.05184,4447.95667 L1411.05184,4447.68245 L1409.87613,4446.43325 C1409.77235,4446.34763 1409.72086,4446.20691 1409.74237,4446.06763 L1409.74237,4436.88904 C1409.72086,4436.74976 1409.77235,4436.60904 1409.87613,4436.52342 L1411.08,4435.27422 L1411.08,4435 L1406.91223,4435 L1403.94129,4443.02079 L1400.56202,4435 L1396.19008,4435 L1396.19008,4435.27422 L1397.59811,4437.10993 C1397.73634,4437.24477 1397.80693,4437.44279 1397.7882,4437.64313 Z" id="Combined-Shape"></path>
        </g>
    </g>
</svg>