<svg xmlns="http://www.w3.org/2000/svg" width="31" height="31" viewBox="0 0 31 31">
    <path fill="#05283E" fill-rule="evenodd" d="M15.5 0C24.06 0 31 6.94 31 15.5 31 24.06 24.06 31 15.5 31 6.94 31 0 24.06 0 15.5 0 6.94 6.94 0 15.5 0zm-3.938 9H7.19v.274l1.408 1.836c.138.135.209.333.19.533v7.214c.041.26-.035.526-.204.716L7 21.652v.274h4.492v-.274l-1.584-2.08c-.171-.19-.252-.453-.219-.715v-6.239l3.943 9.308h.457l3.387-9.308v7.506c-.004.126-.02.17-.12.279l-1.218 1.28v.274h5.914v-.275l-1.176-1.249c-.104-.085-.155-.226-.134-.365v-9.179c-.021-.14.03-.28.134-.366l1.204-1.249V9h-4.168l-2.97 8.02L11.561 9z"/>
</svg>
