<?xml version="1.0" encoding="UTF-8"?>
<svg width="47px" height="47px" viewBox="0 0 47 47" version="1.1" xmlns="http://www.w3.org/2000/svg" xmlns:xlink="http://www.w3.org/1999/xlink">
    <!-- Generator: Sketch 64 (93537) - https://sketch.com -->
    <title>Merchant support</title>
    <desc>Created with Sketch.</desc>
    <g id="Merchant-support" stroke="none" stroke-width="1" fill="none" fill-rule="evenodd">
        <g id="Group-11-Copy" transform="translate(3.000000, 5.000000)">
            <polygon id="Path-16" fill="#FFFFFF" points="1.8 1.8 4.5 -8.15347789e-13 36.9 0.9 37.8 3.69 37.8 9.83087402 39.6 13.05 37.8 17.55 37.8 36.09 1.8 36.09 1.8 16.2 1.8 11.7"></polygon>
            <g id="icons8-online-store" fill="#9EAFB9" fill-rule="nonzero" stroke="#9EAFB9" stroke-width="0.9">
                <path d="M3.6,0 C2.11952718,0 0.9,1.21952718 0.9,2.7 L0.9,6.2208981 C0.86629797,6.3851499 0,10.6193466 0,13.05 C0,14.290785 0.23945436,15.4786851 0.89648442,16.4267577 C0.89768259,16.4284866 0.89879859,16.4303046 0.9,16.4320308 L0.9,35.1 C0.9,36.580473 2.11952718,37.8 3.6,37.8 L6.14882808,37.8 C6.24602031,37.8160641 6.34519047,37.8160641 6.4423827,37.8 L14.2488279,37.8 C14.3460202,37.8160641 14.4451904,37.8160641 14.5423827,37.8 L36,37.8 C37.480473,37.8 38.7,36.580473 38.7,35.1 L38.7,16.4320308 C38.7012015,16.4303046 38.7023175,16.4284866 38.7035154,16.4267577 C39.360546,15.4786851 39.6,14.290785 39.6,13.05 C39.6,10.6193466 38.7337023,6.385149 38.7,6.2208981 L38.7,2.7 C38.7,1.21952718 37.480473,0 36,0 L3.6,0 Z M3.6,1.8 L36,1.8 C36.508527,1.8 36.9,2.19147282 36.9,2.7 L36.9,5.4 L26.2388673,5.4 C26.1883338,5.3915534 26.1371714,5.38743688 26.0859375,5.38769529 C26.0423374,5.38864023 25.9988636,5.39275264 25.9558596,5.4 L19.9388673,5.4 C19.8883338,5.3915534 19.8371714,5.38743688 19.7859375,5.38769529 C19.7423374,5.38864023 19.6988636,5.39275264 19.6558596,5.4 L13.6388673,5.4 C13.5883338,5.3915534 13.5371714,5.38743688 13.4859375,5.38769529 C13.4423374,5.38864023 13.3988636,5.39275264 13.3558596,5.4 L2.7,5.4 L2.7,2.7 C2.7,2.19147282 3.09147282,1.8 3.6,1.8 Z M4.5,2.7 C4.00294373,2.7 3.6,3.10294373 3.6,3.6 C3.6,4.09705627 4.00294373,4.5 4.5,4.5 C4.99705627,4.5 5.4,4.09705627 5.4,3.6 C5.4,3.10294373 4.99705627,2.7 4.5,2.7 Z M7.2,2.7 C6.70294373,2.7 6.3,3.10294373 6.3,3.6 C6.3,4.09705627 6.70294373,4.5 7.2,4.5 C7.69705627,4.5 8.1,4.09705627 8.1,3.6 C8.1,3.10294373 7.69705627,2.7 7.2,2.7 Z M9.9,2.7 C9.40294373,2.7 9,3.10294373 9,3.6 C9,4.09705627 9.40294373,4.5 9.9,4.5 C10.3970563,4.5 10.8,4.09705627 10.8,3.6 C10.8,3.10294373 10.3970563,2.7 9.9,2.7 Z M2.58574221,7.2 L6.3,7.2 L6.3,15.1980471 C5.72536062,15.8067684 4.94696556,16.2 4.05,16.2 C3.17500956,16.2 2.73540753,15.9179976 2.3765625,15.4001952 C2.01771747,14.8823937 1.8,14.045715 1.8,13.05 C1.8,11.2747032 2.43177669,8.0202951 2.58574221,7.2 Z M8.1,7.2 L12.6,7.2 L12.6,15.1980471 C12.0253608,15.8067684 11.2469652,16.2 10.35,16.2 C9.4543722,16.2 8.6751252,15.8097096 8.1,15.2033202 L8.1,7.2 Z M14.4,7.2 L18.9,7.2 L18.9,15.1980471 C18.3253608,15.8067684 17.5469652,16.2 16.65,16.2 C15.7543722,16.2 14.9751252,15.8097096 14.4,15.2033202 L14.4,7.2 Z M20.7,7.2 L25.2,7.2 L25.2,15.1980471 C24.6261555,15.8061285 23.846778,16.2 22.95,16.2 C22.0543722,16.2 21.2751252,15.8097096 20.7,15.2033202 L20.7,7.2 Z M27,7.2 L31.5,7.2 L31.5,15.2033202 C30.9257136,15.8092821 30.1455396,16.2 29.25,16.2 C28.3543722,16.2 27.5743917,15.809292 27,15.2033202 L27,7.2 Z M33.3,7.2 L37.0142577,7.2 C37.1682234,8.0202951 37.8,11.2747032 37.8,13.05 C37.8,14.045715 37.5822828,14.8823937 37.2234375,15.4001952 C36.8645922,15.9179976 36.4249908,16.2 35.55,16.2 C34.6543722,16.2 33.8743917,15.809292 33.3,15.2033202 L33.3,7.2 Z M7.2,16.8416019 C8.0530218,17.5561758 9.1480401,18 10.35,18 C11.5519599,18 12.6469782,17.5561758 13.5,16.8416019 C14.3530218,17.5561758 15.4480401,18 16.65,18 C17.8519599,18 18.9469782,17.5561758 19.8,16.8416019 C20.6530218,17.5561758 21.7480401,18 22.95,18 C24.1511949,18 25.2472995,17.557263 26.1,16.8433596 C26.9527005,17.557263 28.0488051,18 29.25,18 C30.4511949,18 31.5472995,17.557263 32.4,16.8433596 C33.2527005,17.557263 34.3488051,18 35.55,18 C36.033174,18 36.4851216,17.9172018 36.9,17.7732423 L36.9,35.1 C36.9,35.608527 36.508527,36 36,36 L15.3,36 L15.3,20.7 L5.4,20.7 L5.4,36 L3.6,36 C3.09147282,36 2.7,35.608527 2.7,35.1 L2.7,17.7732423 C3.11487822,17.9172018 3.56682546,18 4.05,18 C5.25195963,18 6.3469782,17.5561758 7.2,16.8416019 Z M18,20.7 L18,21.6 L18,33.3 L34.2,33.3 L34.2,20.7 L18,20.7 Z M7.2,22.5 L13.5,22.5 L13.5,36 L7.2,36 L7.2,22.5 Z M19.8,22.5 L32.4,22.5 L32.4,31.5 L19.8,31.5 L19.8,22.5 Z" id="Shape"></path>
            </g>
        </g>
    </g>
</svg>