<svg width="35" height="37" viewBox="0 0 35 37" fill="none" xmlns="http://www.w3.org/2000/svg">
<mask id="mask0_115_385" style="mask-type:alpha" maskUnits="userSpaceOnUse" x="0" y="22" width="35" height="15">
<path fill-rule="evenodd" clip-rule="evenodd" d="M0.00146484 22.7061H34.9999V36.0652H0.00146484V22.7061Z" fill="white"/>
</mask>
<g mask="url(#mask0_115_385)">
<path fill-rule="evenodd" clip-rule="evenodd" d="M17.4667 29.5054C16.2335 29.5054 15.0875 29.247 14.1521 28.7579L4.07954 23.4924L1.06129 25.3059C-0.373375 26.1676 -0.348316 27.4886 1.11719 28.2549L15.0485 35.5381C15.7251 35.8914 16.5901 36.0655 17.4667 36.0655C18.4903 36.0655 19.5288 35.8286 20.3018 35.3645L33.9401 27.1698C35.3747 26.3076 35.3497 24.9866 33.8842 24.2208L30.9879 22.7061L21.298 28.5287C20.2493 29.1583 18.8888 29.5054 17.4667 29.5054Z" fill="#021934"/>
</g>
<path fill-rule="evenodd" clip-rule="evenodd" d="M33.8829 15.743L31.4709 14.4819L25.8542 17.8567L24.8899 18.4359L23.9261 19.0152L21.2967 20.5951C20.2481 21.2257 18.8871 21.5724 17.4655 21.5724C16.2323 21.5724 15.0863 21.3139 14.1509 20.8253L11.1384 19.2501L10.1413 18.7294L9.14422 18.2082L3.5935 15.3057L1.06006 16.8281C-0.374604 17.6903 -0.350026 19.0108 1.11548 19.7771L4.01229 21.2914L5.00937 21.8126L6.00598 22.3338L15.0472 27.0603C15.7233 27.4137 16.5889 27.5873 17.4655 27.5873C18.4886 27.5873 19.5276 27.3509 20.3001 26.8867L28.9925 21.6639L29.9568 21.0847L30.9206 20.5055L33.9388 18.692C35.3735 17.8303 35.3485 16.5093 33.8829 15.743Z" fill="#B3F9BA"/>
<path fill-rule="evenodd" clip-rule="evenodd" d="M33.8829 7.81016L19.9512 0.527454C19.2751 0.17358 18.41 0 17.5329 0C16.5098 0 15.4708 0.236875 14.6983 0.701034L1.06006 8.89575C-0.374604 9.75742 -0.350026 11.078 1.11548 11.8442L3.52748 13.1053L4.52456 13.6265L5.52165 14.1478L11.0724 17.0497L12.0695 17.5705L13.0665 18.0922L15.0472 19.1279C15.7233 19.4813 16.5889 19.6549 17.4655 19.6549C18.4886 19.6549 19.5276 19.418 20.3001 18.9538L21.9319 17.9732L22.8962 17.394L23.86 16.8148L29.4768 13.44L30.4411 12.8608L31.4049 12.2815L33.9388 10.7591C35.3735 9.89744 35.3485 8.5764 33.8829 7.81016Z" fill="#021934"/>
</svg>
