<svg width="115" height="20" viewBox="0 0 115 20" fill="none" xmlns="http://www.w3.org/2000/svg">
<path fill-rule="evenodd" clip-rule="evenodd" d="M58.6585 10.5997L53.7364 4.13794H51.1113V16.3542H54.4792V10.5997L59.3493 16.3542H62.026V4.13794H58.6585V10.5997Z" fill="#374248"/>
<path fill-rule="evenodd" clip-rule="evenodd" d="M84.0645 16.3542H87.432V4.13794H84.0645V16.3542Z" fill="#374248"/>
<path fill-rule="evenodd" clip-rule="evenodd" d="M43.5544 12.8638C42.1618 12.8638 41.0287 11.6896 41.0287 10.2459C41.0287 8.80256 42.1618 7.62836 43.5544 7.62836C44.9469 7.62836 46.0801 8.80256 46.0801 10.2459C46.0801 11.6896 44.9469 12.8638 43.5544 12.8638ZM43.5544 4.13794C40.2996 4.13794 37.6611 6.87265 37.6611 10.2459C37.6611 13.6195 40.2996 16.3542 43.5544 16.3542C46.8089 16.3542 49.4476 13.6195 49.4476 10.2459C49.4476 6.87265 46.8089 4.13794 43.5544 4.13794Z" fill="#374248"/>
<path fill-rule="evenodd" clip-rule="evenodd" d="M63.2168 4.13794V7.62836V12.8638V16.3542H66.5843H71.6355V12.8638H66.5843V11.6422H71.6355V8.84996H66.5843V7.62836H71.6355V4.13794H63.2168Z" fill="#374248"/>
<path fill-rule="evenodd" clip-rule="evenodd" d="M97.1466 10.5493V10.617C97.1466 11.8559 96.1745 12.8638 94.9793 12.8638C93.784 12.8638 92.8119 11.8559 92.8119 10.6173V4.13794H89.4443V10.6173C89.4443 13.7858 91.9224 16.3542 94.9793 16.3542C98.0361 16.3542 100.514 13.7854 100.514 10.617V4.13794H97.1466V10.5493Z" fill="#374248"/>
<mask id="mask0" mask-type="alpha" maskUnits="userSpaceOnUse" x="101" y="4" width="14" height="13">
<path d="M114.496 16.4878V4.27148H101.854V16.4878H114.496Z" fill="white"/>
</mask>
<g mask="url(#mask0)">
<path fill-rule="evenodd" clip-rule="evenodd" d="M110.835 4.27148L108.175 10.2765L105.533 4.27148H101.854V16.4878H105.222V10.3124L107.334 15.0414H109.017L111.128 10.3124V16.4878H114.496V4.27148H110.835Z" fill="#374248"/>
</g>
<path fill-rule="evenodd" clip-rule="evenodd" d="M29.8589 10.143L27.2166 4.13794H23.5381V16.3542H26.9056V10.1792L29.0171 14.9078H30.7007L32.8119 10.1792V16.3542H36.1795V4.13794H32.5183L29.8589 10.143Z" fill="#374248"/>
<path fill-rule="evenodd" clip-rule="evenodd" d="M76.6712 8.56081V7.1943H78.7093C78.9164 7.1943 79.1238 7.31145 79.3306 7.54507C79.538 7.77869 79.6415 8.11761 79.6415 8.56081C79.6415 9.00401 79.538 9.34293 79.3306 9.57655C79.1238 9.81017 78.9164 9.92732 78.7093 9.92732H76.6712V8.56081ZM81.8952 11.5904C82.2581 11.1767 82.5429 10.7033 82.75 10.1701C82.9575 9.63648 83.061 9.10017 83.061 8.56081C83.061 8.02145 82.9575 7.48514 82.75 6.95154C82.5429 6.41828 82.2581 5.94494 81.8952 5.5312C81.5326 5.11779 81.0978 4.78226 80.5915 4.52426C80.0848 4.26694 79.5321 4.13794 78.9337 4.13794H73.3037V8.56081V12.9837V16.3542H76.6712V12.9837H78.2082L79.6935 16.3542H83.061L81.2301 12.1992C81.4728 12.0191 81.6959 11.8176 81.8952 11.5904Z" fill="#374248"/>
<mask id="mask1" mask-type="alpha" maskUnits="userSpaceOnUse" x="5" y="0" width="10" height="18">
<path d="M5.01367 0.0598145H14.3838V17.0068H5.01367V0.0598145Z" fill="white"/>
</mask>
<g mask="url(#mask1)">
<path fill-rule="evenodd" clip-rule="evenodd" d="M12.2526 4.51071C12.2519 4.51004 12.2516 4.50936 12.251 4.50868L8.56821 0.691868C7.75516 -0.151196 6.43676 -0.151196 5.62371 0.691868C4.81033 1.53459 4.81033 2.9011 5.62371 3.74417L9.3045 7.55929C10.5223 8.82151 10.5223 10.875 9.30483 12.1376L8.0534 13.4347L9.52565 14.9606C10.0793 15.5349 10.4008 16.2581 10.4965 17.0067L12.25 15.1892C15.0942 12.2402 15.0952 7.46076 12.2526 4.51071Z" fill="#2383C5"/>
</g>
<path fill-rule="evenodd" clip-rule="evenodd" d="M8.7603 16.0211L5.07918 12.2056C3.86172 10.9437 3.8614 8.88989 5.07918 7.62766L6.33061 6.33056L4.85836 4.80424C4.30435 4.23035 3.98324 3.50715 3.8872 2.75854L2.1337 4.57604C-0.710524 7.52473 -0.711177 12.3045 2.13141 15.2545C2.13174 15.2552 2.13239 15.2559 2.13304 15.2565L5.81547 19.0734C6.62885 19.9161 7.94725 19.9161 8.7603 19.0734C9.57336 18.2303 9.57336 16.8638 8.7603 16.0211Z" fill="#312F30"/>
</svg>
