<?xml version="1.0" encoding="UTF-8"?>
<svg width="31px" height="32px" viewBox="0 0 31 32" version="1.1" xmlns="http://www.w3.org/2000/svg" xmlns:xlink="http://www.w3.org/1999/xlink">
    <title>Group 18</title>
    <defs>
        <polygon id="path-1" points="0 0.134367131 30.9703191 0.134367131 30.9703191 30.2389972 0 30.2389972"></polygon>
    </defs>
    <g id="Nwtwork-page" stroke="none" stroke-width="1" fill="none" fill-rule="evenodd">
        <g id="Network-page01" transform="translate(-1535.000000, -61.000000)">
            <g id="Group-18" transform="translate(1535.000000, 61.000000)">
                <g id="Group-3" transform="translate(0.000000, 0.522941)">
                    <mask id="mask-2" fill="white">
                        <use xlink:href="#path-1"></use>
                    </mask>
                    <g id="Clip-2"></g>
                    <path d="M15.4850936,0.134367131 C6.93437021,0.134367131 -0.000395744681,7.04401937 -0.000395744681,15.5681808 C-0.000395744681,22.3871155 4.43722128,28.1713444 10.5897319,30.2124889 C11.3634128,30.3557963 11.6476894,29.8778858 11.6476894,29.4703143 C11.6476894,29.1021852 11.6331787,27.8867017 11.626583,26.596935 C7.31890213,27.5304053 6.41000851,24.7753532 6.41000851,24.7753532 C5.7049234,22.991899 4.69049787,22.5172754 4.69049787,22.5172754 C3.28494468,21.5594823 4.79602979,21.5792035 4.79602979,21.5792035 C6.35130638,21.6883275 7.1698383,23.1700472 7.1698383,23.1700472 C8.55098723,25.5293605 10.7922213,24.8470069 11.6760511,24.4525828 C11.8152213,23.4560047 12.2162426,22.7743084 12.6594766,22.3890876 C9.21979574,21.9992652 5.60400851,20.675315 5.60400851,14.7615836 C5.60400851,13.0767354 6.20949787,11.7001955 7.19951915,10.6188161 C7.03924255,10.2303084 6.50894468,8.66115803 7.34990213,6.53455495 C7.34990213,6.53455495 8.6499234,6.11975231 11.609434,8.1175102 C12.844817,7.77501864 14.1692426,7.60344417 15.4850936,7.59752781 C16.8009447,7.60344417 18.1266894,7.77501864 19.3640511,8.1175102 C22.3202638,6.11975231 23.6183064,6.53455495 23.6183064,6.53455495 C24.4612426,8.66115803 23.9309447,10.2303084 23.7706681,10.6188161 C24.7633277,11.7001955 25.3642,13.0767354 25.3642,14.7615836 C25.3642,20.6897773 21.741817,21.9946635 18.2935617,22.3765975 C18.8489234,22.8551654 19.3436043,23.794552 19.3436043,25.2348572 C19.3436043,27.2996672 19.3257957,28.9621646 19.3257957,29.4703143 C19.3257957,29.8811727 19.6047957,30.3617127 20.3896894,30.2105168 C26.5389021,28.1680575 30.970583,22.384486 30.970583,15.5681808 C30.970583,7.04401937 24.0371362,0.134367131 15.4850936,0.134367131" id="Fill-1" fill="#FFFFFF" mask="url(#mask-2)"></path>
                </g>
                <path d="M5.86493617,22.8160517 C5.83129787,22.8929643 5.70993617,22.9159724 5.59978723,22.8633825 C5.487,22.8127648 5.42434043,22.7082424 5.46061702,22.6319871 C5.49425532,22.5531023 5.61495745,22.5307516 5.72774468,22.5833415 C5.83987234,22.6339592 5.90385106,22.7397963 5.86493617,22.8160517" id="Fill-4" fill="#FFFFFF"></path>
                <path d="M6.4923234,23.5138536 C6.41845106,23.5822204 6.27400426,23.5500091 6.17638723,23.4421999 C6.07481277,23.335048 6.05568511,23.1910832 6.1308766,23.1214016 C6.20672766,23.0536921 6.34655745,23.0852461 6.44813191,23.1930553 C6.54970638,23.3021793 6.56949362,23.4448293 6.4923234,23.5138536" id="Fill-6" fill="#FFFFFF"></path>
                <path d="M7.10295745,24.4023595 C7.00797872,24.4687542 6.85297872,24.4069611 6.75668085,24.2695701 C6.6623617,24.132179 6.6623617,23.9671783 6.75931915,23.9014409 C6.85495745,23.8357036 7.00797872,23.8955246 7.10493617,24.0316009 C7.19991489,24.1703067 7.19991489,24.33465 7.10295745,24.4023595" id="Fill-8" fill="#FFFFFF"></path>
                <path d="M7.93929787,25.2612836 C7.85421277,25.3546307 7.67348936,25.3296505 7.54091489,25.20212 C7.40570213,25.0778764 7.36810638,24.901043 7.45319149,24.807696 C7.53959574,24.7143489 7.72097872,24.7406439 7.85421277,24.8668596 C7.98876596,24.9911032 8.02965957,25.168594 7.93929787,25.2612836" id="Fill-10" fill="#FFFFFF"></path>
                <path d="M9.0932234,25.7600986 C9.05562766,25.8810553 8.8815,25.9356173 8.70671277,25.8836848 C8.53060638,25.8310949 8.4165,25.6897596 8.45211702,25.5674882 C8.48839362,25.4458741 8.66318085,25.38934 8.83994681,25.443902 C9.01473404,25.4964919 9.1295,25.6371698 9.0932234,25.7600986" id="Fill-12" fill="#FFFFFF"></path>
                <path d="M10.3605298,25.8519337 C10.3644872,25.9794641 10.216083,26.0846439 10.0320617,26.0872734 C9.84672128,26.0912176 9.69699787,25.9886674 9.69501915,25.8637664 C9.69501915,25.7342638 9.84012553,25.6303988 10.025466,25.627112 C10.2094872,25.6231677 10.3605298,25.7263753 10.3605298,25.8519337" id="Fill-14" fill="#FFFFFF"></path>
                <path d="M11.5399149,25.6522894 C11.5616809,25.7758756 11.4337234,25.9040634 11.2510213,25.9382468 C11.071617,25.9704581 10.9047447,25.8935454 10.8816596,25.771274 C10.8598936,25.6430861 10.9898298,25.5162131 11.169234,25.482687 C11.3525957,25.4511331 11.5161702,25.5260737 11.5399149,25.6522894" id="Fill-16" fill="#FFFFFF"></path>
            </g>
        </g>
    </g>
</svg>