<?xml version="1.0" encoding="UTF-8"?>
<svg width="31px" height="31px" viewBox="0 0 31 31" version="1.1" xmlns="http://www.w3.org/2000/svg" xmlns:xlink="http://www.w3.org/1999/xlink">
    <title>Combined Shape</title>
    <g id="Nwtwork-page" stroke="none" stroke-width="1" fill="none" fill-rule="evenodd">
        <g id="Network-page01" transform="translate(-1475.000000, -61.000000)" fill="#FFFFFF">
            <path d="M1490.5,61 C1499.06041,61 1506,67.9395864 1506,76.5 C1506,85.0604136 1499.06041,92 1490.5,92 C1481.93959,92 1475,85.0604136 1475,76.5 C1475,67.9395864 1481.93959,61 1490.5,61 Z M1486.56202,70 L1482.19008,70 L1482.19008,70.2742152 L1483.59811,72.1099334 C1483.73634,72.2447713 1483.80693,72.4427873 1483.7882,72.6431295 L1483.7882,72.6431295 L1483.7882,79.8565118 C1483.82921,80.1167254 1483.75342,80.3825353 1483.58403,80.5725182 L1483.58403,80.5725182 L1482,82.6519832 L1482,82.9261983 L1486.49162,82.9261983 L1486.49162,82.6519832 L1484.90758,80.5725182 C1484.73695,80.3828498 1484.65647,80.1187915 1484.68934,79.8565118 L1484.68934,79.8565118 L1484.68934,73.6181168 L1488.63182,82.9261983 L1489.08943,82.9261983 L1492.47574,73.6181168 L1492.47519,81.1240165 C1492.47242,81.250439 1492.4558,81.2948719 1492.35606,81.4027807 L1492.35606,81.4027807 L1491.13811,82.6824515 L1491.13811,82.9566667 L1497.05184,82.9566667 L1497.05184,82.6824515 L1495.87613,81.4332491 C1495.77235,81.3476295 1495.72086,81.2069079 1495.74237,81.0676289 L1495.74237,81.0676289 L1495.74237,71.8890378 C1495.72086,71.7497587 1495.77235,71.6090371 1495.87613,71.5234176 L1495.87613,71.5234176 L1497.08,70.2742152 L1497.08,70 L1492.91223,70 L1489.94129,78.0207936 L1486.56202,70 Z" id="Combined-Shape"></path>
        </g>
    </g>
</svg>