<?xml version="1.0" encoding="UTF-8"?>
<svg width="32px" height="32px" viewBox="0 0 32 32" version="1.1" xmlns="http://www.w3.org/2000/svg" xmlns:xlink="http://www.w3.org/1999/xlink">
    <title>Combined Shape</title>
    <g id="Nwtwork-page" stroke="none" stroke-width="1" fill="none" fill-rule="evenodd">
        <g id="Network-page01" transform="translate(-1701.000000, -61.000000)" fill="#FFFFFF">
            <path d="M1717,61 C1725.83656,61 1733,68.163444 1733,77 C1733,85.836556 1725.83656,93 1717,93 C1708.16344,93 1701,85.836556 1701,77 C1701,68.163444 1708.16344,61 1717,61 Z M1725.8882,69.6679688 L1714.81328,80.75625 L1717.79242,86.7145312 C1717.8659,86.8598146 1718.01786,86.955 1718.17984,86.955 L1718.1932,86.955 C1718.3602,86.9499901 1718.50047,86.8531349 1718.56727,86.7011719 L1725.8882,69.6679688 Z M1725.28703,69.0667969 L1708.25383,76.3877344 C1708.10187,76.4528614 1708.00501,76.6081641 1708,76.7751562 C1707.99499,76.9421484 1708.09185,77.0874317 1708.24047,77.1625781 L1714.19875,80.1417187 L1725.28703,69.0667969 Z" id="Combined-Shape"></path>
        </g>
    </g>
</svg>