<?xml version="1.0" encoding="UTF-8"?>
<svg width="19px" height="15px" viewBox="0 0 19 15" version="1.1" xmlns="http://www.w3.org/2000/svg" xmlns:xlink="http://www.w3.org/1999/xlink">
    <title>icons8-down-arrow copy</title>
    <g id="Nwtwork-page" stroke="none" stroke-width="1" fill="none" fill-rule="evenodd">
        <g id="Network-page01" transform="translate(-651.000000, -3132.000000)" fill="#25435A" fill-rule="nonzero">
            <g id="icons8-down-arrow-copy" transform="translate(660.500000, 3139.500000) rotate(-90.000000) translate(-660.500000, -3139.500000) translate(653.000000, 3130.000000)">
                <path d="M7.6840014,0.803732147 C7.09257283,0.803732147 6.61257283,1.25173215 6.61257283,1.80373215 L6.61257283,14.8740441 L2.47334297,11.0107631 C2.05441429,10.6197631 1.37613315,10.6197631 0.958275897,11.0107631 L0.866200112,11.0967011 C0.447271433,11.4877011 0.447271433,12.1207631 0.866200112,12.5107631 L6.92646818,18.1670131 C7.34539675,18.5580131 8.02367747,18.5580131 8.44153461,18.1670131 L14.5018025,12.5107631 C14.920731,12.1197631 14.920731,11.4867011 14.5018025,11.0967011 L14.4097271,11.0107631 C13.9907985,10.6197631 13.3125168,10.6197631 12.8946596,11.0107631 L8.75542997,14.8740441 L8.75542997,1.80373215 C8.75542997,1.25173215 8.27542997,0.803732147 7.6840014,0.803732147 Z" id="Path"></path>
            </g>
        </g>
    </g>
</svg>