<?xml version="1.0" encoding="UTF-8"?>
<svg width="31px" height="32px" viewBox="0 0 31 32" version="1.1" 
    xmlns="http://www.w3.org/2000/svg" 
    xmlns:xlink="http://www.w3.org/1999/xlink">
    <title>Group 16</title>
    <defs>
        <polygon id="path-1" points="0 0.134367131 30.9703191 0.134367131 30.9703191 30.2389972 0 30.2389972"></polygon>
    </defs>
    <g id="Nwtwork-page" stroke="none" stroke-width="1" fill="none" fill-rule="evenodd">
        <g id="Group-16" transform="translate(0.000000, 0.522941)">
            <g id="Group-3">
                <mask id="mask-2" fill="white">
                    <use xlink:href="#path-1"></use>
                </mask>
                <g id="Clip-2"></g>
                <path d="M15.4850936,0.134367131 C6.93437021,0.134367131 -0.000395744681,7.04401937 -0.000395744681,15.5681808 C-0.000395744681,22.3871155 4.43722128,28.1713444 10.5897319,30.2124889 C11.3634128,30.3557963 11.6476894,29.8778858 11.6476894,29.4703143 C11.6476894,29.1021852 11.6331787,27.8867017 11.626583,26.596935 C7.31890213,27.5304053 6.41000851,24.7753532 6.41000851,24.7753532 C5.7049234,22.991899 4.69049787,22.5172754 4.69049787,22.5172754 C3.28494468,21.5594823 4.79602979,21.5792035 4.79602979,21.5792035 C6.35130638,21.6883275 7.1698383,23.1700472 7.1698383,23.1700472 C8.55098723,25.5293605 10.7922213,24.8470069 11.6760511,24.4525828 C11.8152213,23.4560047 12.2162426,22.7743084 12.6594766,22.3890876 C9.21979574,21.9992652 5.60400851,20.675315 5.60400851,14.7615836 C5.60400851,13.0767354 6.20949787,11.7001955 7.19951915,10.6188161 C7.03924255,10.2303084 6.50894468,8.66115803 7.34990213,6.53455495 C7.34990213,6.53455495 8.6499234,6.11975231 11.609434,8.1175102 C12.844817,7.77501864 14.1692426,7.60344417 15.4850936,7.59752781 C16.8009447,7.60344417 18.1266894,7.77501864 19.3640511,8.1175102 C22.3202638,6.11975231 23.6183064,6.53455495 23.6183064,6.53455495 C24.4612426,8.66115803 23.9309447,10.2303084 23.7706681,10.6188161 C24.7633277,11.7001955 25.3642,13.0767354 25.3642,14.7615836 C25.3642,20.6897773 21.741817,21.9946635 18.2935617,22.3765975 C18.8489234,22.8551654 19.3436043,23.794552 19.3436043,25.2348572 C19.3436043,27.2996672 19.3257957,28.9621646 19.3257957,29.4703143 C19.3257957,29.8811727 19.6047957,30.3617127 20.3896894,30.2105168 C26.5389021,28.1680575 30.970583,22.384486 30.970583,15.5681808 C30.970583,7.04401937 24.0371362,0.134367131 15.4850936,0.134367131" id="Fill-1" fill="#FAE83E" mask="url(#mask-2)"></path>
            </g>
            <path d="M5.86493617,22.2931111 C5.83129787,22.3700238 5.70993617,22.3930318 5.59978723,22.340442 C5.487,22.2898242 5.42434043,22.1853018 5.46061702,22.1090465 C5.49425532,22.0301617 5.61495745,22.007811 5.72774468,22.0604009 C5.83987234,22.1110186 5.90385106,22.2168558 5.86493617,22.2931111" id="Fill-4" fill="#FAE83E"></path>
            <path d="M6.4923234,22.990913 C6.41845106,23.0592798 6.27400426,23.0270685 6.17638723,22.9192593 C6.07481277,22.8121074 6.05568511,22.6681426 6.1308766,22.598461 C6.20672766,22.5307516 6.34655745,22.5623055 6.44813191,22.6701147 C6.54970638,22.7792387 6.56949362,22.9218888 6.4923234,22.990913" id="Fill-6" fill="#FAE83E"></path>
            <path d="M7.10295745,23.8794189 C7.00797872,23.9458136 6.85297872,23.8840205 6.75668085,23.7466295 C6.6623617,23.6092384 6.6623617,23.4442377 6.75931915,23.3785004 C6.85495745,23.312763 7.00797872,23.372584 7.10493617,23.5086603 C7.19991489,23.6473661 7.19991489,23.8117095 7.10295745,23.8794189" id="Fill-8" fill="#FAE83E"></path>
            <path d="M7.93929787,24.7383431 C7.85421277,24.8316901 7.67348936,24.8067099 7.54091489,24.6791795 C7.40570213,24.5549359 7.36810638,24.3781024 7.45319149,24.2847554 C7.53959574,24.1914084 7.72097872,24.2177033 7.85421277,24.343919 C7.98876596,24.4681626 8.02965957,24.6456534 7.93929787,24.7383431" id="Fill-10" fill="#FAE83E"></path>
            <path d="M9.0932234,25.237158 C9.05562766,25.3581147 8.8815,25.4126767 8.70671277,25.3607442 C8.53060638,25.3081544 8.4165,25.1668191 8.45211702,25.0445476 C8.48839362,24.9229335 8.66318085,24.8663994 8.83994681,24.9209614 C9.01473404,24.9735513 9.1295,25.1142292 9.0932234,25.237158" id="Fill-12" fill="#FAE83E"></path>
            <path d="M10.3605298,25.3289931 C10.3644872,25.4565236 10.216083,25.5617033 10.0320617,25.5643328 C9.84672128,25.568277 9.69699787,25.4657268 9.69501915,25.3408258 C9.69501915,25.2113233 9.84012553,25.1074583 10.025466,25.1041714 C10.2094872,25.1002271 10.3605298,25.2034348 10.3605298,25.3289931" id="Fill-14" fill="#FAE83E"></path>
            <path d="M11.5399149,25.1293488 C11.5616809,25.252935 11.4337234,25.3811228 11.2510213,25.4153062 C11.071617,25.4475175 10.9047447,25.3706048 10.8816596,25.2483334 C10.8598936,25.1201456 10.9898298,24.9932725 11.169234,24.9597464 C11.3525957,24.9281925 11.5161702,25.0031331 11.5399149,25.1293488" id="Fill-16" fill="#FAE83E"></path>
        </g>
    </g>
</svg>