<svg width="35" height="37" viewBox="0 0 35 37" fill="none" xmlns="http://www.w3.org/2000/svg">
<mask id="mask0_115_391" style="mask-type:alpha" maskUnits="userSpaceOnUse" x="0" y="22" width="35" height="15">
<path fill-rule="evenodd" clip-rule="evenodd" d="M0 22.7056H34.9998V36.0647H0V22.7056Z" fill="white"/>
</mask>
<g mask="url(#mask0_115_391)">
<path fill-rule="evenodd" clip-rule="evenodd" d="M17.4659 29.5049C16.2326 29.5049 15.0866 29.2465 14.1512 28.7574L4.07823 23.492L1.05987 25.3054C-0.374854 26.1671 -0.349794 27.4881 1.11577 28.2544L15.0476 35.5375C15.7242 35.8909 16.5893 36.065 17.4659 36.065C18.4895 36.065 19.5281 35.8281 20.3011 35.364L33.9399 27.1693C35.3746 26.3071 35.3496 24.9861 33.884 24.2203L30.9876 22.7056L21.2973 28.5282C20.2486 29.1578 18.8881 29.5049 17.4659 29.5049Z" fill="#021934"/>
</g>
<path fill-rule="evenodd" clip-rule="evenodd" d="M33.8842 15.743L31.4721 14.4819L25.8552 17.8567L24.8908 18.4359L23.927 19.0152L21.2975 20.5951C20.2488 21.2257 18.8878 21.5723 17.4661 21.5723C16.2329 21.5723 15.0868 21.3139 14.1514 20.8253L11.1388 19.2501L10.1417 18.7294L9.14457 18.2081L3.59364 15.3057L1.0601 16.8281C-0.374618 17.6903 -0.35004 19.0108 1.11553 19.7771L4.01244 21.2913L5.00956 21.8126L6.0062 22.3338L15.0478 27.0602C15.7239 27.4136 16.5895 27.5872 17.4661 27.5872C18.4893 27.5872 19.5283 27.3508 20.3009 26.8867L28.9935 21.6639L29.9579 21.0847L30.9218 20.5054L33.9401 18.692C35.3749 17.8303 35.3498 16.5093 33.8842 15.743Z" fill="#021934"/>
<path fill-rule="evenodd" clip-rule="evenodd" d="M33.8842 7.81014L19.952 0.527453C19.2758 0.17358 18.4107 0 17.5336 0C16.5105 0 15.4714 0.236874 14.6989 0.701033L1.0601 8.89573C-0.374618 9.7574 -0.35004 11.0779 1.11553 11.8442L3.52761 13.1053L4.52473 13.6265L5.52186 14.1477L11.0728 17.0497L12.0699 17.5704L13.067 18.0921L15.0478 19.1278C15.7239 19.4812 16.5895 19.6548 17.4661 19.6548C18.4893 19.6548 19.5283 19.4179 20.3009 18.9538L21.9327 17.9732L22.8971 17.394L23.8609 16.8147L29.4779 13.44L30.4422 12.8607L31.4061 12.2815L33.9401 10.7591C35.3749 9.89741 35.3498 8.57638 33.8842 7.81014Z" fill="#B3F9BA"/>
</svg>
