<?xml version="1.0" encoding="UTF-8"?>
<svg width="23px" height="24px" viewBox="0 0 23 24" version="1.1" xmlns="http://www.w3.org/2000/svg" xmlns:xlink="http://www.w3.org/1999/xlink">
    <title>Group 17 Copy 2</title>
    <defs>
        <polygon id="path-1" points="0 0 22.1363065 0 22.1363065 8.55306137 0 8.55306137"></polygon>
    </defs>
    <g id="Page-1" stroke="none" stroke-width="1" fill="none" fill-rule="evenodd">
        <g id="home-page" transform="translate(-1267.000000, -1691.000000)">
            <g id="Group-17-Copy-2" transform="translate(1267.000000, 1691.909368)">
                <g id="Group-3" transform="translate(0.000058, 14.537570)">
                    <mask id="mask-2" fill="white">
                        <use xlink:href="#path-1"></use>
                    </mask>
                    <g id="Clip-2"></g>
                    <path d="M11.0466642,4.35321856 C10.2666563,4.35321856 9.54181894,4.18774713 8.95018342,3.87461011 L2.57935703,0.503475207 L0.670334222,1.66453815 C-0.237084091,2.2162119 -0.22123399,3.06198885 0.705692141,3.55257018 L9.51712936,8.21554879 C9.9450821,8.44180563 10.4922154,8.55324557 11.0466642,8.55324557 C11.6940798,8.55324557 12.3509446,8.40158902 12.8398593,8.10441585 L21.4659723,2.85783579 C22.3733906,2.30585505 22.3575405,1.4600781 21.4306143,0.969803767 L19.5987084,0 L13.4699008,3.72786551 C12.8066351,4.13095267 11.9461574,4.35321856 11.0466642,4.35321856" id="Fill-1" fill="#25435A" mask="url(#mask-2)"></path>
                </g>
                <path d="M21.4307636,10.0796043 L19.9051913,9.27220203 L16.3526349,11.4328475 L15.7427108,11.8036999 L15.1330915,12.1745524 L13.4700501,13.1861078 C12.8067843,13.5898089 11.9460018,13.8117678 11.0468134,13.8117678 C10.2668055,13.8117678 9.54196818,13.6462964 8.95033265,13.3334664 L7.04496756,12.324981 L6.41431641,11.9915821 L5.78366525,11.6578763 L2.27286776,9.79962301 L0.670483455,10.7743387 C-0.236934858,11.3263195 -0.221389566,12.1717894 0.705536564,12.6623708 L2.53774734,13.6318675 L3.1683985,13.9655733 L3.79874484,14.2992792 L9.51727859,17.3253494 C9.94492653,17.5516062 10.4923646,17.6627392 11.0468134,17.6627392 C11.6939243,17.6627392 12.3510939,17.5113896 12.8397037,17.2142164 L18.3375553,13.8704043 L18.9474794,13.4995518 L19.5570987,13.1286993 L21.4661215,11.9676364 C22.3735398,11.4159626 22.3576897,10.5701857 21.4307636,10.0796043" id="Fill-4" fill="#CBDAE9"></path>
                <path d="M21.4307636,5.0003684 L12.6190215,0.337696785 C12.1913736,0.111132942 11.6442403,1.8189894e-12 11.0894867,1.8189894e-12 C10.4423759,1.8189894e-12 9.78520627,0.151656556 9.29659641,0.448829727 L0.670483455,5.69540978 C-0.236934858,6.24708353 -0.221389566,7.09255348 0.705536564,7.58313481 L2.23110884,8.39053712 L2.86175999,8.72424295 L3.49241115,9.05794877 L7.00320864,10.9158951 L7.6338598,11.2492939 L8.26451095,11.5833067 L9.51727859,12.2464204 C9.94492653,12.4726773 10.4923646,12.5838102 11.0468134,12.5838102 C11.6939243,12.5838102 12.3510939,12.4321536 12.8397037,12.1349805 L13.8717892,11.5071715 L14.4817133,11.136319 L15.0913326,10.7654665 L18.643889,8.60482108 L19.2538131,8.23396861 L19.8634324,7.86311614 L21.4661215,6.88840042 C22.3735398,6.33672667 22.3576897,5.49094973 21.4307636,5.0003684" id="Fill-6" fill="#CBDAE9"></path>
            </g>
        </g>
    </g>
</svg>