<svg width="240" height="80" viewBox="0 0 240 80" fill="none" xmlns="http://www.w3.org/2000/svg">
<g clip-path="url(#clip0_708_437)">
<path d="M101.24 64.6723C101.641 64.6723 101.965 64.3478 101.965 63.9475C101.965 63.5472 101.641 63.2227 101.24 63.2227C100.84 63.2227 100.516 63.5472 100.516 63.9475C100.516 64.3478 100.84 64.6723 101.24 64.6723Z" fill="#FF344D"/>
<path d="M69.2952 64.6723C69.6955 64.6723 70.02 64.3478 70.02 63.9475C70.02 63.5472 69.6955 63.2227 69.2952 63.2227C68.8948 63.2227 68.5703 63.5472 68.5703 63.9475C68.5703 64.3478 68.8948 64.6723 69.2952 64.6723Z" fill="#FF344D"/>
<path d="M104.072 64.6723C104.473 64.6723 104.797 64.3478 104.797 63.9475C104.797 63.5472 104.473 63.2227 104.072 63.2227C103.672 63.2227 103.348 63.5472 103.348 63.9475C103.348 64.3478 103.672 64.6723 104.072 64.6723Z" fill="#FF344D"/>
<path d="M138.85 64.6723C139.25 64.6723 139.575 64.3478 139.575 63.9475C139.575 63.5472 139.25 63.2227 138.85 63.2227C138.45 63.2227 138.125 63.5472 138.125 63.9475C138.125 64.3478 138.45 64.6723 138.85 64.6723Z" fill="#FF344D"/>
<path d="M80.8498 64.6723C81.2502 64.6723 81.5747 64.3478 81.5747 63.9475C81.5747 63.5472 81.2502 63.2227 80.8498 63.2227C80.4495 63.2227 80.125 63.5472 80.125 63.9475C80.125 64.3478 80.4495 64.6723 80.8498 64.6723Z" fill="#FF344D"/>
<path d="M115.74 64.6723C116.141 64.6723 116.465 64.3478 116.465 63.9475C116.465 63.5472 116.141 63.2227 115.74 63.2227C115.34 63.2227 115.016 63.5472 115.016 63.9475C115.016 64.3478 115.34 64.6723 115.74 64.6723Z" fill="#FF344D"/>
<path d="M150.518 64.6723C150.918 64.6723 151.243 64.3478 151.243 63.9475C151.243 63.5472 150.918 63.2227 150.518 63.2227C150.117 63.2227 149.793 63.5472 149.793 63.9475C149.793 64.3478 150.117 64.6723 150.518 64.6723Z" fill="#FF344D"/>
<path d="M92.5178 64.6723C92.9181 64.6723 93.2427 64.3478 93.2427 63.9475C93.2427 63.5472 92.9181 63.2227 92.5178 63.2227C92.1175 63.2227 91.793 63.5472 91.793 63.9475C91.793 64.3478 92.1175 64.6723 92.5178 64.6723Z" fill="#FF344D"/>
<path d="M127.295 64.6723C127.695 64.6723 128.02 64.3478 128.02 63.9475C128.02 63.5472 127.695 63.2227 127.295 63.2227C126.895 63.2227 126.57 63.5472 126.57 63.9475C126.57 64.3478 126.895 64.6723 127.295 64.6723Z" fill="#FF344D"/>
<path d="M162.072 64.6723C162.473 64.6723 162.797 64.3478 162.797 63.9475C162.797 63.5472 162.473 63.2227 162.072 63.2227C161.672 63.2227 161.348 63.5472 161.348 63.9475C161.348 64.3478 161.672 64.6723 162.072 64.6723Z" fill="#FF344D"/>
<path d="M75.0725 64.6723C75.4728 64.6723 75.7973 64.3478 75.7973 63.9475C75.7973 63.5472 75.4728 63.2227 75.0725 63.2227C74.6722 63.2227 74.3477 63.5472 74.3477 63.9475C74.3477 64.3478 74.6722 64.6723 75.0725 64.6723Z" fill="#FF344D"/>
<path d="M109.85 64.6723C110.25 64.6723 110.575 64.3478 110.575 63.9475C110.575 63.5472 110.25 63.2227 109.85 63.2227C109.45 63.2227 109.125 63.5472 109.125 63.9475C109.125 64.3478 109.45 64.6723 109.85 64.6723Z" fill="#FF344D"/>
<path d="M144.627 64.6723C145.028 64.6723 145.352 64.3478 145.352 63.9475C145.352 63.5472 145.028 63.2227 144.627 63.2227C144.227 63.2227 143.902 63.5472 143.902 63.9475C143.902 64.3478 144.227 64.6723 144.627 64.6723Z" fill="#FF344D"/>
<path d="M86.7405 64.6723C87.1408 64.6723 87.4653 64.3478 87.4653 63.9475C87.4653 63.5472 87.1408 63.2227 86.7405 63.2227C86.3401 63.2227 86.0156 63.5472 86.0156 63.9475C86.0156 64.3478 86.3401 64.6723 86.7405 64.6723Z" fill="#FF344D"/>
<path d="M121.518 64.6723C121.918 64.6723 122.243 64.3478 122.243 63.9475C122.243 63.5472 121.918 63.2227 121.518 63.2227C121.117 63.2227 120.793 63.5472 120.793 63.9475C120.793 64.3478 121.117 64.6723 121.518 64.6723Z" fill="#FF344D"/>
<path d="M156.295 64.6723C156.695 64.6723 157.02 64.3478 157.02 63.9475C157.02 63.5472 156.695 63.2227 156.295 63.2227C155.895 63.2227 155.57 63.5472 155.57 63.9475C155.57 64.3478 155.895 64.6723 156.295 64.6723Z" fill="#FF344D"/>
<path d="M98.2952 64.6723C98.6955 64.6723 99.02 64.3478 99.02 63.9475C99.02 63.5472 98.6955 63.2227 98.2952 63.2227C97.8948 63.2227 97.5703 63.5472 97.5703 63.9475C97.5703 64.3478 97.8948 64.6723 98.2952 64.6723Z" fill="#FF344D"/>
<path d="M133.072 64.6723C133.473 64.6723 133.797 64.3478 133.797 63.9475C133.797 63.5472 133.473 63.2227 133.072 63.2227C132.672 63.2227 132.348 63.5472 132.348 63.9475C132.348 64.3478 132.672 64.6723 133.072 64.6723Z" fill="#FF344D"/>
<path d="M167.85 64.6723C168.25 64.6723 168.575 64.3478 168.575 63.9475C168.575 63.5472 168.25 63.2227 167.85 63.2227C167.45 63.2227 167.125 63.5472 167.125 63.9475C167.125 64.3478 167.45 64.6723 167.85 64.6723Z" fill="#FF344D"/>
<path d="M72.2405 64.6723C72.6408 64.6723 72.9653 64.3478 72.9653 63.9475C72.9653 63.5472 72.6408 63.2227 72.2405 63.2227C71.8401 63.2227 71.5156 63.5472 71.5156 63.9475C71.5156 64.3478 71.8401 64.6723 72.2405 64.6723Z" fill="#FF344D"/>
<path d="M107.018 64.6723C107.418 64.6723 107.743 64.3478 107.743 63.9475C107.743 63.5472 107.418 63.2227 107.018 63.2227C106.617 63.2227 106.293 63.5472 106.293 63.9475C106.293 64.3478 106.617 64.6723 107.018 64.6723Z" fill="#FF344D"/>
<path d="M141.795 64.6723C142.195 64.6723 142.52 64.3478 142.52 63.9475C142.52 63.5472 142.195 63.2227 141.795 63.2227C141.395 63.2227 141.07 63.5472 141.07 63.9475C141.07 64.3478 141.395 64.6723 141.795 64.6723Z" fill="#FF344D"/>
<path d="M83.7952 64.6723C84.1955 64.6723 84.52 64.3478 84.52 63.9475C84.52 63.5472 84.1955 63.2227 83.7952 63.2227C83.3948 63.2227 83.0703 63.5472 83.0703 63.9475C83.0703 64.3478 83.3948 64.6723 83.7952 64.6723Z" fill="#FF344D"/>
<path d="M118.572 64.6723C118.973 64.6723 119.297 64.3478 119.297 63.9475C119.297 63.5472 118.973 63.2227 118.572 63.2227C118.172 63.2227 117.848 63.5472 117.848 63.9475C117.848 64.3478 118.172 64.6723 118.572 64.6723Z" fill="#FF344D"/>
<path d="M153.35 64.6723C153.75 64.6723 154.075 64.3478 154.075 63.9475C154.075 63.5472 153.75 63.2227 153.35 63.2227C152.95 63.2227 152.625 63.5472 152.625 63.9475C152.625 64.3478 152.95 64.6723 153.35 64.6723Z" fill="#FF344D"/>
<path d="M95.3498 64.6723C95.7502 64.6723 96.0747 64.3478 96.0747 63.9475C96.0747 63.5472 95.7502 63.2227 95.3498 63.2227C94.9495 63.2227 94.625 63.5472 94.625 63.9475C94.625 64.3478 94.9495 64.6723 95.3498 64.6723Z" fill="#FF344D"/>
<path d="M130.127 64.6723C130.528 64.6723 130.852 64.3478 130.852 63.9475C130.852 63.5472 130.528 63.2227 130.127 63.2227C129.727 63.2227 129.402 63.5472 129.402 63.9475C129.402 64.3478 129.727 64.6723 130.127 64.6723Z" fill="#FF344D"/>
<path d="M165.018 64.6723C165.418 64.6723 165.743 64.3478 165.743 63.9475C165.743 63.5472 165.418 63.2227 165.018 63.2227C164.617 63.2227 164.293 63.5472 164.293 63.9475C164.293 64.3478 164.617 64.6723 165.018 64.6723Z" fill="#FF344D"/>
<path d="M78.0178 64.6723C78.4181 64.6723 78.7427 64.3478 78.7427 63.9475C78.7427 63.5472 78.4181 63.2227 78.0178 63.2227C77.6175 63.2227 77.293 63.5472 77.293 63.9475C77.293 64.3478 77.6175 64.6723 78.0178 64.6723Z" fill="#FF344D"/>
<path d="M112.795 64.6723C113.195 64.6723 113.52 64.3478 113.52 63.9475C113.52 63.5472 113.195 63.2227 112.795 63.2227C112.395 63.2227 112.07 63.5472 112.07 63.9475C112.07 64.3478 112.395 64.6723 112.795 64.6723Z" fill="#FF344D"/>
<path d="M147.572 64.6723C147.973 64.6723 148.297 64.3478 148.297 63.9475C148.297 63.5472 147.973 63.2227 147.572 63.2227C147.172 63.2227 146.848 63.5472 146.848 63.9475C146.848 64.3478 147.172 64.6723 147.572 64.6723Z" fill="#FF344D"/>
<path d="M89.5725 64.6723C89.9728 64.6723 90.2973 64.3478 90.2973 63.9475C90.2973 63.5472 89.9728 63.2227 89.5725 63.2227C89.1722 63.2227 88.8477 63.5472 88.8477 63.9475C88.8477 64.3478 89.1722 64.6723 89.5725 64.6723Z" fill="#FF344D"/>
<path d="M124.35 64.6723C124.75 64.6723 125.075 64.3478 125.075 63.9475C125.075 63.5472 124.75 63.2227 124.35 63.2227C123.95 63.2227 123.625 63.5472 123.625 63.9475C123.625 64.3478 123.95 64.6723 124.35 64.6723Z" fill="#FF344D"/>
<path d="M159.127 64.6723C159.528 64.6723 159.852 64.3478 159.852 63.9475C159.852 63.5472 159.528 63.2227 159.127 63.2227C158.727 63.2227 158.402 63.5472 158.402 63.9475C158.402 64.3478 158.727 64.6723 159.127 64.6723Z" fill="#FF344D"/>
<path d="M136.018 64.6723C136.418 64.6723 136.743 64.3478 136.743 63.9475C136.743 63.5472 136.418 63.2227 136.018 63.2227C135.617 63.2227 135.293 63.5472 135.293 63.9475C135.293 64.3478 135.617 64.6723 136.018 64.6723Z" fill="#FF344D"/>
<path d="M170.795 64.6723C171.195 64.6723 171.52 64.3478 171.52 63.9475C171.52 63.5472 171.195 63.2227 170.795 63.2227C170.395 63.2227 170.07 63.5472 170.07 63.9475C170.07 64.3478 170.395 64.6723 170.795 64.6723Z" fill="#FF344D"/>
<path d="M147.948 14.3109C147.46 14.4735 146.322 15.0222 144.818 15.835C144.452 16.0179 143.721 16.1602 143.03 16.1602C141.709 16.1602 140.652 16.5869 140.652 17.1356C140.652 17.5014 140.164 19.0255 139.839 19.7164C139.433 20.5699 138.559 23.0288 138.214 24.3091C138.01 25.0407 137.563 26.4632 137.238 27.459C136.893 28.4547 136.161 31.0965 135.572 33.3319C135.003 35.5672 134.291 38.209 134.007 39.2251C133.743 40.2209 133.296 42.0498 133.032 43.2895C132.442 46.0532 131.995 47.7195 131.751 48.2073C131.629 48.4105 131.487 49.0201 131.406 49.5891C131.325 50.1378 131.142 51.1132 130.999 51.7229C130.41 54.1005 129.536 59.506 129.374 61.7821C129.333 62.3307 129.211 63.611 129.069 64.6068C128.825 66.5983 128.886 66.7608 129.902 66.7608C130.187 66.7608 130.491 66.8218 130.573 66.9031C131.182 67.5128 133.438 67.655 134.109 67.1063C134.678 66.6592 134.962 65.4806 134.962 63.6923C134.962 61.6805 135.734 55.9295 136.486 52.3529C136.974 50.0768 137.035 49.9143 138.356 48.0244C139.128 46.9473 141.241 44.1023 143.091 41.7247C146.505 37.3149 149.594 33.088 149.594 32.8035C149.594 32.7222 149.817 32.3768 150.102 32.0516C150.732 31.2997 152.215 28.4344 152.804 26.829C153.8 24.0449 154.288 21.9315 154.41 19.9197C154.511 17.9688 154.491 17.8265 153.881 16.5463C153.353 15.3676 153.15 15.1238 152.317 14.7173C151.28 14.2296 148.903 14.0061 147.948 14.3109ZM149.614 19.1678C149.187 21.078 148.191 24.2888 147.622 25.5081C146.85 27.1745 144.513 30.873 142.725 33.2709C140.835 35.7908 140.266 36.3598 140.53 35.4047C141.038 33.657 142.928 25.7113 143.396 23.2727C144.025 20.0416 144.127 19.8384 145.854 18.6801C146.627 18.1517 149.695 16.9934 149.858 17.1559C149.939 17.2372 149.837 18.1517 149.614 19.1678Z" fill="black"/>
<path d="M85.5027 14.6286C85.076 14.7709 84.7102 14.9334 84.6898 14.9741C84.5273 15.157 83.3486 19.3229 83.3486 19.6887C83.3486 19.9325 83.247 20.2374 83.1048 20.3796C82.9422 20.5422 82.8406 21.3144 82.8203 22.3102C82.8 23.2246 82.6374 24.7487 82.4545 25.7039C82.1497 27.2889 81.7229 32.8367 81.7635 34.747C81.7635 35.4379 81.479 37.2465 80.5239 42.1643C80.4223 42.6724 80.0566 44.1152 79.6907 45.3955C79.1014 47.4479 78.9185 47.8137 78.187 48.525C77.0083 49.663 76.6019 50.3133 76.8864 50.6384C77.0083 50.7806 77.2319 50.9026 77.3741 50.9026C77.6993 50.9026 77.7399 51.4716 77.4757 52.1828C77.3741 52.4673 77.0896 53.707 76.8661 54.9872C76.6222 56.2472 76.2767 57.6087 76.0532 58.0151C75.85 58.4216 75.6874 58.9906 75.6874 59.2954C75.6874 59.6205 75.4436 60.4334 75.1794 61.1243C74.7323 62.242 74.3055 63.7661 73.5536 66.9566C73.3911 67.6069 73.4114 67.8711 73.574 67.9321C73.6959 67.9727 73.7975 68.115 73.7975 68.2572C73.7975 68.623 74.8136 69.3139 75.6061 69.4968C76.4596 69.6797 76.927 69.2733 77.2115 68.115C77.496 66.9769 78.0244 64.4164 78.187 63.4004C78.2682 62.9533 78.3902 62.4452 78.4918 62.2827C78.5731 62.0998 78.695 61.5917 78.756 61.165C78.8372 60.7179 79.1421 59.336 79.4672 58.1167C80.8897 52.6299 80.971 52.3251 81.3368 52.3251C81.6823 52.3251 83.308 50.6181 86.5798 46.8383C88.4697 44.6639 90.8676 41.4124 93.1843 37.8358C96.0902 33.3854 96.4764 32.349 96.9641 28.244C97.2892 25.46 96.9234 22.9604 95.8261 20.7048C95.1758 19.3839 93.0827 17.0062 92.0056 16.3763C91.5585 16.1121 90.6034 15.5431 89.8922 15.096C88.7542 14.4254 88.4697 14.3238 87.4333 14.3441C86.783 14.3644 85.9092 14.4864 85.5027 14.6286ZM89.5264 18.6116C90.4409 19.4042 91.2131 20.9892 91.4773 22.6556C91.8024 24.8097 91.7211 27.8376 91.274 29.6462C90.8066 31.4955 89.3232 35.0315 88.3884 36.5556C87.7178 37.6733 85.6856 40.3557 84.6289 41.5344C84.0802 42.144 83.9583 42.205 83.9583 41.8595C83.9583 41.636 84.0599 41.1279 84.1615 40.7418C84.9134 38.1406 85.9092 31.9426 86.3156 27.3296C86.5391 24.6065 88.2055 17.9817 88.6322 17.9817C88.7338 17.9817 89.1403 18.2662 89.5264 18.6116Z" fill="black"/>
<path d="M113.205 15.0009C112.819 15.2245 111.722 15.8341 110.767 16.3422C109.812 16.8299 108.653 17.4598 108.186 17.7443L107.332 18.2321L107.19 17.724C107.007 16.9925 106.54 16.6673 105.28 16.3828C104.67 16.2406 103.857 16.0577 103.512 15.956C102.577 15.7528 101.907 16.3015 101.724 17.4598C101.053 21.7883 99.529 27.7425 98.3503 30.6079C97.7813 32.0304 96.2166 37.1514 95.5257 39.8542C94.855 42.496 92.6197 52.7381 92.1726 55.197C91.7255 57.6762 91.0549 60.5416 90.872 60.7854C90.7704 60.887 90.6485 62.0453 90.6282 63.3256L90.5469 65.6626L91.1565 65.7032C91.502 65.7235 92.9042 65.7845 94.3063 65.8048L96.8465 65.8658L98.4926 65.0123C99.5899 64.4433 100.728 64.0572 101.846 63.8336C104.366 63.3459 104.467 63.285 104.467 62.2689C104.467 61.7812 104.386 61.2528 104.264 61.0902C104.162 60.9277 103.288 60.6025 102.333 60.3586L100.586 59.9319L99.021 60.3993C96.8465 61.0699 96.6636 61.0496 96.8262 60.1961C96.9075 59.749 96.8669 59.4645 96.7246 59.4239C96.4401 59.3223 98.2081 50.9498 98.5536 50.7262C98.6755 50.6653 99.021 49.5069 99.3054 48.186C99.8744 45.4833 99.8948 45.4223 100.322 45.5849C100.484 45.6459 100.83 45.5239 101.073 45.3004C102.049 44.4266 105.321 42.3741 107.82 41.0735C110.726 39.5494 111.58 38.8991 111.58 38.1878C111.58 37.6188 109.974 35.7289 109.466 35.7086C109.243 35.6883 108.918 35.546 108.714 35.3632C108.389 35.0786 108.288 35.0786 107.393 35.4647C106.865 35.7086 105.971 36.1963 105.402 36.5418C103.634 37.6391 101.642 38.6959 101.541 38.5943C101.5 38.5333 101.52 38.2488 101.622 37.9643C102.435 35.3835 103.329 32.4572 104.061 29.8966C104.548 28.2099 105.056 26.7062 105.199 26.5436C105.341 26.381 105.544 25.8526 105.666 25.3852C105.93 24.4301 106.255 24.2066 110.929 21.8696C113.144 20.7723 116.823 18.1914 117.026 17.5818C117.066 17.4802 116.863 17.1144 116.599 16.7892C116.315 16.4641 116.03 16.017 115.949 15.7935C115.888 15.5903 115.563 15.3667 115.238 15.2854C114.872 15.2245 114.628 15.0416 114.628 14.8587C114.628 14.4319 114.039 14.4726 113.205 15.0009Z" fill="black"/>
<path d="M130.37 16.0523C129.841 16.4181 129.069 16.9464 128.683 17.2106C128.297 17.4748 127.85 17.8609 127.687 18.0438C127.362 18.4502 126.854 18.4705 126.854 18.0844C126.854 17.5154 126.224 17.2513 124.964 17.3122C123.582 17.3935 123.44 17.4951 122.688 18.9989C122.383 19.6085 122.058 20.1369 121.997 20.1979C121.916 20.2588 121.692 20.7466 121.489 21.3156C121.266 21.8643 120.697 23.2461 120.189 24.3638C118.807 27.4324 115.352 37.5118 113.95 42.5516C113.808 43.0596 113.462 44.2383 113.198 45.1934C112.283 48.2619 110.78 54.0333 110.129 56.8783C109.52 59.5404 108.89 63.7673 109.032 64.1737C109.134 64.4379 111.471 65.2711 112.487 65.4133C112.731 65.4337 113.178 65.5353 113.462 65.6165C113.93 65.7385 114.112 65.6165 114.783 64.885C116.409 63.117 118.888 60.6987 120.514 59.3372C121.428 58.565 122.18 57.8537 122.18 57.7724C122.18 57.6911 122.993 56.9799 123.989 56.1873C126.854 53.9316 127.26 53.4643 127.26 52.4482C127.24 51.4118 126.305 50.1721 125.269 49.8876C124.659 49.7048 124.517 49.7657 123.338 50.7615C121.469 52.3466 116.49 56.1873 116.145 56.3093C115.921 56.4109 115.86 56.3296 115.941 56.0451C116.246 55.0493 116.368 54.4194 116.307 54.0942C116.287 53.891 116.49 52.9765 116.775 52.0621C117.039 51.1273 117.608 49.1764 118.034 47.7336C118.441 46.2704 118.908 44.6244 119.091 44.0554C119.355 43.1409 119.477 42.9987 120.331 42.5922C121.855 41.881 122.587 41.3526 122.587 40.9868C122.587 40.7226 123.379 40.2146 125.289 39.2595C128.5 37.6134 130.309 36.2722 130.309 35.5406C130.309 34.9716 128.663 33.2036 128.134 33.2036C127.951 33.2036 127.687 33.0411 127.545 32.8379C127.301 32.5127 127.078 32.594 124.598 33.854C123.115 34.6058 121.875 35.1952 121.855 35.1749C121.733 35.0529 122.444 32.5737 123.542 29.3019L124.72 25.705L126.935 23.8761C129.211 21.9658 132.077 20.0759 133.885 19.2631C135.592 18.5112 136.263 17.2919 135.348 16.6416C133.743 15.5239 133.377 15.3613 132.381 15.3613C131.548 15.3613 131.162 15.5036 130.37 16.0523Z" fill="black"/>
<path d="M161.272 15.5111C160.561 15.572 160.459 15.6533 160.093 16.5271C159.87 17.0352 159.585 17.9293 159.463 18.4983C159.342 19.047 159.179 19.5957 159.098 19.7176C159.016 19.8192 158.874 20.2257 158.793 20.5711C158.732 20.9369 158.59 21.2417 158.488 21.2417C158.183 21.2417 157.533 23.2942 156.862 26.4237C156.517 28.0901 156.029 30.2035 155.806 31.0977C155.582 31.9918 155.318 33.0486 155.216 33.4347C155.135 33.8208 154.871 34.8775 154.647 35.7716C152.859 42.8842 152.249 46.5827 151.071 57.1906C150.888 58.796 150.644 60.3201 150.542 60.6046C150.441 60.8688 150.359 61.4987 150.359 61.9865C150.359 62.8603 150.38 62.8806 151.335 63.2057C151.863 63.3886 152.595 63.6731 152.981 63.8357C153.448 64.0389 153.956 64.0999 154.607 63.9983C155.684 63.8357 155.927 63.6122 159.707 59.3447C162.349 56.3574 165.641 53.0246 167.084 51.846C167.612 51.4193 168.039 50.9518 168.039 50.8096C168.039 50.4844 166.149 48.8587 165.255 48.3913C164.889 48.2084 164.422 48.0662 164.198 48.0662C163.812 48.0662 161.109 50.3219 158.752 52.5979C158.061 53.2888 157.431 53.7766 157.35 53.7156C157.208 53.553 157.574 50.3016 158.082 47.3549C158.285 46.1153 158.569 44.388 158.691 43.4938C158.813 42.5997 159.098 41.1365 159.301 40.2424C159.789 38.2102 160.134 36.5845 160.927 32.7234C161.272 31.0367 161.658 29.1671 161.78 28.5575C161.902 27.9478 162.024 27.1553 162.044 26.8301C162.126 26.0173 162.898 20.7743 163.264 18.5796C163.711 16.0598 163.67 15.7956 163.02 15.633C162.126 15.4501 162.085 15.4501 161.272 15.5111Z" fill="black"/>
</g>
<defs>
<clipPath id="clip0_708_437">
<rect width="240" height="80" fill="white"/>
</clipPath>
</defs>
</svg>
