<svg width="240" height="80" viewBox="0 0 240 80" fill="none" xmlns="http://www.w3.org/2000/svg">
<mask id="mask0_78_437" style="mask-type:alpha" maskUnits="userSpaceOnUse" x="56" y="21" width="129" height="38">
<rect x="56" y="21" width="128.502" height="37.9034" fill="#C4C4C4"/>
</mask>
<g mask="url(#mask0_78_437)">
<g clip-path="url(#clip0_78_437)">
<path d="M80.1859 22.0446V28.8951C80.1859 31.1177 78.3529 32.9167 76.0883 32.9167H76.0285C74.8928 32.9102 73.8701 32.9167 73.8701 32.9167C73.6774 32.9167 73.4649 32.8971 73.279 32.9167C72.0038 33.0471 70.8948 33.6142 69.9649 34.6244C69.9384 34.6505 69.9118 34.6831 69.8919 34.7092C69.1414 35.6609 68.7296 36.8928 68.7296 38.2225V38.2877C68.7296 39.1415 68.909 39.9562 69.2344 40.6863C69.5598 41.4164 69.3938 42.2637 68.7695 42.7721C68.1585 43.274 67.4346 43.8607 66.9498 44.2451C65.5352 42.6678 64.705 40.6081 64.705 38.3593V38.2941C64.705 33.399 68.6965 29.3187 74.1158 29.3187C74.4544 29.3187 75.557 29.3187 76.075 29.3187V21.308C75.6367 21.2754 75.1916 21.2559 74.7467 21.2559C64.4128 21.2559 56.0381 29.4752 56.0381 39.6173C56.0381 47.9018 61.6301 54.9023 69.3074 57.1836V50.3852C69.3074 48.143 71.1604 46.3245 73.445 46.3245H73.4649C74.6006 46.3309 75.6233 46.3245 75.6233 46.3245C75.8159 46.3245 76.0285 46.344 76.2145 46.3245C77.4896 46.1941 78.5987 45.6271 79.5284 44.6167C79.555 44.5906 79.5816 44.5581 79.6015 44.532C80.3519 43.5804 80.7637 42.3484 80.7637 41.0187V40.9536C80.7637 40.2887 80.4781 39.3957 80.1926 38.6787C79.8738 37.877 80.1195 36.958 80.7903 36.4104C81.3681 35.9346 81.9591 35.4653 82.5436 35.0025C83.9582 36.5799 84.7884 38.6396 84.7884 40.8884V40.9536C84.7884 45.8486 80.797 49.929 75.3776 49.929C75.0389 49.929 73.9365 49.929 73.4184 49.929V57.9267C73.8568 57.9592 74.3017 57.9788 74.7467 57.9788C85.0806 57.9788 93.4553 49.7594 93.4553 39.6173C93.4553 31.3328 87.8633 24.3324 80.1859 22.0446Z" fill="#1D8AED"/>
<path d="M172.646 37.5247V52.0144C175.024 52.0144 176.956 50.1176 176.956 47.7842V33.2944C174.58 33.2944 172.646 35.1912 172.646 37.5247Z" fill="#011833"/>
<path d="M164.889 31.4635H179.235C181.632 31.4635 183.578 29.5537 183.578 27.2007H169.233C166.835 27.2007 164.889 29.1105 164.889 31.4635Z" fill="#011833"/>
<path d="M113.984 27.2593C113.499 27.6373 112.795 28.2109 112.178 28.7193C111.454 29.3125 111.241 30.3033 111.606 31.1571C111.919 31.9001 112.091 32.728 112.091 33.5949V33.6666C112.091 35.081 111.653 36.3911 110.856 37.4079C110.843 37.421 110.829 37.434 110.823 37.4471C109.82 38.5551 108.624 39.1743 107.25 39.3113C107.051 39.3308 106.825 39.3113 106.619 39.3113C106.619 39.3113 105.53 39.3177 104.321 39.3113H104.301C101.864 39.3113 99.8911 41.2471 99.8911 43.6393V52.0216C102.309 52.0216 104.274 50.0987 104.274 47.7196V43.1569C104.826 43.1569 106.001 43.1569 106.36 43.1569C112.131 43.1569 116.382 38.8094 116.382 33.5949V33.5232C116.368 31.131 115.485 28.9344 113.984 27.2593Z" fill="#011833"/>
<path d="M149.435 27.252V48.4814C149.435 50.4303 147.814 52.0077 145.829 52.0077H145.165V30.7913C145.165 28.8424 146.772 27.252 148.758 27.252H149.435Z" fill="#011833"/>
<path d="M117.823 39.6827C117.743 45.1057 121.522 49.9812 126.736 51.5912C127.207 51.7346 127.685 51.852 128.164 51.9432C128.184 51.9432 128.19 51.9367 128.19 51.9236L128.21 49.4859V49.4077C128.203 48.5668 127.732 47.8368 127.041 47.4326C126.961 47.3871 126.868 47.3414 126.762 47.2958C124.823 46.4289 123.368 44.8776 122.532 42.9482C120.778 38.9005 122.698 33.9467 126.762 32.1347C126.862 32.0891 126.955 32.0435 127.041 31.9978C127.732 31.5937 128.197 30.8637 128.21 30.0228V29.9446L128.19 27.5069C128.19 27.5003 128.184 27.4873 128.164 27.4873C127.685 27.5786 127.207 27.6959 126.736 27.8393C121.516 29.4427 117.75 34.3248 117.823 39.7479V39.6827Z" fill="#011833"/>
<path d="M142.96 39.6827C143.04 45.1057 139.261 49.9812 134.048 51.5912C133.576 51.7346 133.098 51.852 132.62 51.9432C132.6 51.9432 132.593 51.9367 132.593 51.9236L132.573 49.4859V49.4077C132.58 48.5668 133.051 47.8368 133.742 47.4326C133.822 47.3871 133.915 47.3414 134.021 47.2958C135.96 46.4289 137.415 44.8776 138.252 42.9482C140.005 38.9005 138.086 33.9467 134.021 32.1347C133.921 32.0891 133.828 32.0435 133.742 31.9978C133.051 31.5937 132.587 30.8637 132.573 30.0228V29.9446L132.593 27.5069C132.593 27.5003 132.6 27.4873 132.62 27.4873C133.098 27.5786 133.576 27.6959 134.048 27.8393C139.268 29.4427 143.033 34.3248 142.96 39.7479V39.6827Z" fill="#011833"/>
<path d="M152.344 40.6148C151.985 40.0022 151.958 39.2591 152.25 38.6203L157.849 29.2603C158.414 28.0414 159.655 27.2593 161.023 27.2593H163.481L163.215 27.8459L156.58 39.6502L165.294 52.015H162.239C160.984 52.015 159.828 51.3502 159.204 50.2812L152.344 40.6148Z" fill="#011833"/>
</g>
</g>
<defs>
<clipPath id="clip0_78_437">
<rect width="127.577" height="36.9789" fill="white" transform="translate(56.001 21)"/>
</clipPath>
</defs>
</svg>
