<svg width="106" height="32" viewBox="0 0 106 32" fill="none" xmlns="http://www.w3.org/2000/svg">
<g clip-path="url(#clip0)">
<path d="M0.302734 18.3965L1.08461 18.0643L10.6586 13.9358L21.0145 18.3965L17.121 26.3688L7.61088 27.6975L0.462301 20.0416L0.302734 18.3965Z" fill="#133444"/>
<path d="M18.8598 13.4928C17.1525 11.4523 14.727 10.1236 12.0782 9.7756C12.0144 9.7756 11.9665 9.75978 11.9027 9.75978C11.073 9.66487 10.2432 9.66487 9.41348 9.75978C9.34966 9.75978 9.30179 9.7756 9.23796 9.7756C6.58916 10.1236 4.16375 11.4523 2.45638 13.4928L2.02556 14.2047L1.30751 15.391L0.780937 16.261C0.780937 16.2927 0.76498 16.3085 0.749023 16.3243V16.3401L1.8979 17.0203L9.23796 21.3228L10.6581 22.1453V11.8636L9.23796 12.4963V10.962L10.6581 10.3292L12.0782 10.962L19.2906 14.2047L18.8598 13.4928Z" fill="#C42370"/>
<path d="M21.334 20.959C21.3181 24.3283 19.7862 27.5077 17.1534 29.6431C16.1481 30.4499 15.0152 31.0826 13.7865 31.4939C12.7813 31.826 11.7281 32 10.675 32C4.77104 32 0 26.7959 0 20.959C0 20.089 0.111697 19.2348 0.319133 18.3965L10.675 24.4706L21.0309 18.3965C21.2223 19.2348 21.334 20.089 21.334 20.959Z" fill="#1C4D6B"/>
<path d="M9.4138 9.74394L10.6584 10.3134L9.23828 10.9461V9.68066L9.4138 9.74394Z" fill="black"/>
<path d="M9.23828 12.4963L10.6584 11.8478V22.1295L9.23828 21.307V12.4963Z" fill="black"/>
<path d="M10.6582 11.8478V22.1295L20.5832 16.3243L10.6582 11.8478Z" fill="#1D4259"/>
<path d="M10.6582 0V11.8478L20.5832 16.3243L10.6582 0Z" fill="#4B6B9A"/>
<path d="M10.6581 11.8478V22.1295L9.23796 21.307L0.749023 16.3243C0.749023 16.2927 0.76498 16.2768 0.780937 16.261L2.02556 14.2205L9.23796 10.9778V12.528L10.6581 11.8478Z" fill="#343535"/>
<path d="M10.6584 11.8478V22.1295L9.23829 21.307L0.749355 16.3243H0.733398L0.749355 16.3085L9.23829 12.4963L10.6584 11.8478Z" fill="#3E5578"/>
<path d="M10.6584 0V11.8478L0.733398 16.3243L10.6584 0Z" fill="#6DB2D8"/>
<path d="M6.6377 31.1616C6.78131 31.2249 6.94087 31.2882 7.08448 31.3514C6.94087 31.2882 6.79726 31.2249 6.6377 31.1616Z" fill="#335F8A"/>
<path d="M7.08398 31.3356C7.22759 31.3988 7.38716 31.4463 7.54673 31.4937C7.38716 31.4463 7.24355 31.3988 7.08398 31.3356Z" fill="#335F8A"/>
<path d="M7.94629 31.6204C8.07394 31.652 8.18564 31.6836 8.29733 31.7153L7.94629 31.6204Z" fill="#335F8A"/>
<path d="M0.302531 18.3965L10.6584 24.4706C10.5148 25.3881 10.2754 26.2897 9.90843 27.1597C9.07869 29.1528 7.40324 31.2408 4.16404 29.6431C1.53119 27.5077 -0.000644917 24.3124 -0.0166016 20.9432C-0.0166016 20.089 0.095095 19.2348 0.302531 18.3965Z" fill="#6DB2D8"/>
<path d="M17.1209 29.659C17.057 29.7064 17.1209 29.659 16.9134 29.833L16.8177 29.8963L16.6741 29.9912L16.4985 30.1177C16.6741 29.9912 16.3549 30.2126 16.2911 30.2601C16.2273 30.2917 16.1794 30.3233 16.1156 30.3708L16.0039 30.4499C15.972 30.4657 15.9241 30.4973 15.8922 30.529C15.8922 30.529 15.8443 30.5764 15.8284 30.5764C15.8922 30.529 15.7486 30.6081 15.6848 30.6555C15.605 30.6872 15.5412 30.7188 15.4773 30.7663L15.2539 30.877L15.1582 30.9244C15.0944 30.9561 15.1263 30.9244 15.0625 30.9719C14.9986 31.0193 14.9188 31.0352 14.8391 31.0826C14.7593 31.1301 14.8391 31.0826 14.5678 31.2092C14.8391 31.0826 14.5678 31.2092 14.4242 31.2724C14.5678 31.2092 14.1689 31.3673 13.9934 31.4306C13.9295 31.4464 13.5785 31.5572 13.5147 31.573C13.4508 31.5888 13.371 31.6204 13.3072 31.6362C13.1796 31.6679 13.0679 31.6995 12.9562 31.7312C12.9083 31.747 12.8604 31.747 12.8285 31.7628L12.7487 31.7786L12.5573 31.8261C12.4934 31.8419 12.4456 31.8419 12.3817 31.8577C12.3179 31.8735 12.27 31.8735 12.2222 31.8893C12.1743 31.9052 12.0945 31.9052 12.0466 31.921C12.0147 31.921 11.9828 31.921 11.9669 31.9368L11.8392 31.9526H11.7754C11.7275 31.9526 11.6796 31.9684 11.6318 31.9684C11.5839 31.9684 11.5041 31.9842 11.4403 31.9842H9.81272C9.74889 31.9842 9.68506 31.9684 9.62123 31.9684C9.57336 31.9684 9.5255 31.9684 9.47763 31.9526H9.4138C9.36593 31.9526 9.31806 31.9368 9.28615 31.9368C9.25423 31.9368 9.22232 31.9368 9.20636 31.921C9.14254 31.921 9.09467 31.9052 9.03084 31.8893C8.98297 31.8893 8.91914 31.8735 8.87127 31.8577C8.8234 31.8419 8.75958 31.8419 8.69575 31.8261L8.50427 31.7786L8.42449 31.7628C8.37662 31.7628 8.32875 31.747 8.29683 31.7312C8.16918 31.6995 8.05748 31.6679 7.94579 31.6362L7.73835 31.573C7.67452 31.5572 7.6107 31.5413 7.54687 31.5097C7.3873 31.4622 7.2437 31.399 7.08413 31.3515C6.92456 31.3041 6.78095 31.225 6.63734 31.1617C6.57352 31.1301 6.49373 31.0984 6.41395 31.0668C6.33417 31.0352 6.25438 31.0035 6.19056 30.9561C6.11077 30.9244 6.04695 30.8928 5.98312 30.8453C5.91929 30.8137 5.83951 30.7663 5.77568 30.7346C5.71186 30.703 5.66399 30.6713 5.61612 30.6397C5.45655 30.5448 5.36081 30.4815 5.45655 30.5448L5.36081 30.4815L5.18529 30.3708L5.12146 30.3392L4.96189 30.2284C4.89807 30.181 4.83424 30.1493 4.77041 30.1019C4.70659 30.0544 4.62681 30.007 4.56298 29.9595C4.49915 29.9121 4.43533 29.8488 4.38746 29.8172L4.32363 29.7697C4.2598 29.7381 4.21193 29.6906 4.16406 29.6432C7.40326 31.2408 9.06275 29.1212 9.8925 27.1439C10.2435 26.2739 10.4989 25.3723 10.6425 24.4548C10.7861 25.3881 11.0254 26.3056 11.3924 27.1755C12.2541 29.137 13.8817 31.2408 17.1209 29.659Z" fill="#529BBA"/>
<path d="M13.0205 31.7153C13.1482 31.6836 13.2599 31.652 13.3716 31.6204L13.0205 31.7153Z" fill="#335F8A"/>
<path d="M13.7705 31.4937C13.9301 31.4463 14.0737 31.3988 14.2332 31.3356C14.0737 31.3988 13.9301 31.4463 13.7705 31.4937Z" fill="#335F8A"/>
<path d="M14.2012 31.3514C14.3448 31.2881 14.5363 31.2248 14.6799 31.1458C14.5203 31.2248 14.3448 31.2881 14.2012 31.3514Z" fill="#335F8A"/>
<path d="M21.3332 20.959C21.3172 24.3283 19.7854 27.5077 17.1526 29.6431C13.9134 31.2408 12.2379 29.137 11.4082 27.1597C11.0571 26.2897 10.8018 25.3881 10.6582 24.4706L21.0141 18.3965C21.2215 19.2348 21.3332 20.089 21.3332 20.959Z" fill="#4B6B9A"/>
<path d="M32.7585 31.6837H29.248V8.44692H32.7585V10.092C34.1467 8.71582 35.7105 8.03564 37.4657 8.03564C39.556 8.03564 41.2794 8.79491 42.6197 10.3293C43.992 11.8478 44.6781 13.746 44.6781 16.0554C44.6781 18.3174 43.992 20.1839 42.6357 21.6867C41.3591 23.1419 39.4763 23.9645 37.5295 23.9328C35.7584 23.9328 34.1627 23.221 32.7585 21.8132V31.6837ZM41.1038 16.0554C41.1038 14.616 40.7049 13.4454 39.923 12.528C39.189 11.6422 38.0721 11.136 36.9072 11.1518C35.6147 11.1518 34.5776 11.5947 33.7797 12.4805C32.9819 13.3663 32.583 14.5369 32.583 15.9763C32.583 17.3841 32.9819 18.5547 33.7797 19.4721C34.5776 20.3896 35.6147 20.8167 36.8913 20.8167C38.0561 20.8483 39.1571 20.3421 39.8911 19.4563C40.689 18.5547 41.1038 17.4158 41.1038 16.0554Z" fill="#6DB2D8"/>
<path d="M47.6776 15.8656C47.6457 13.7776 48.4914 11.7529 50.0233 10.3134C51.5391 8.8107 53.6135 7.98816 55.7517 8.0198C58.0175 8.0198 59.9323 8.79489 61.512 10.3292C63.0918 11.8636 63.8417 13.7459 63.8417 15.9763C63.8417 18.2383 63.0598 20.1206 61.4961 21.6392C59.9323 23.1577 57.9856 23.917 55.6879 23.917C53.3901 23.917 51.5072 23.1419 49.9754 21.6075C48.4436 20.0732 47.6776 18.1592 47.6776 15.8656ZM51.2679 15.9288C51.2679 17.4316 51.6668 18.6179 52.4806 19.5037C53.2944 20.3895 54.4113 20.8325 55.7677 20.8325C57.124 20.8325 58.2409 20.3895 59.0547 19.5196C59.8685 18.6496 60.2834 17.479 60.2834 16.0079C60.2834 14.5369 59.8685 13.3821 59.0547 12.4963C58.2409 11.6105 57.124 11.1676 55.7677 11.1676C54.4113 11.1676 53.3422 11.6105 52.5125 12.4963C51.6828 13.3821 51.2679 14.521 51.2679 15.9288Z" fill="#6DB2D8"/>
<path d="M66.6185 8.44689H70.129V9.79143C70.7672 9.12707 71.3417 8.66834 71.8363 8.41525C72.3948 8.14635 73.0171 8.0198 73.6394 8.03562C74.5649 8.03562 75.5223 8.33616 76.5435 8.93725L74.9319 12.1167C74.2617 11.6421 73.6235 11.4049 72.9852 11.4049C71.0704 11.4049 70.113 12.8285 70.113 15.6916V23.4899H66.6025L66.6185 8.44689Z" fill="#6DB2D8"/>
<path d="M83.1334 11.6896V23.4899H79.623V11.6896H78.123V8.4469H79.623V2.92639H83.1334V8.4469H85.862V11.6896H83.1334Z" fill="#6DB2D8"/>
<path d="M87.7127 2.18294C87.7127 1.58185 87.952 1.0124 88.3828 0.601127C89.2764 -0.284686 90.7285 -0.284686 91.622 0.601127C92.0688 1.0124 92.3082 1.59767 92.2922 2.19875C92.3082 2.79984 92.0529 3.38511 91.622 3.8122C91.2072 4.25511 90.6168 4.49238 90.0104 4.47656C89.4041 4.49238 88.8137 4.23929 88.3828 3.8122C87.9361 3.38511 87.6967 2.79984 87.7127 2.18294ZM91.7497 8.4469V23.4899H88.2392V8.4469H91.7497Z" fill="#6DB2D8"/>
<path d="M105.01 11.0094L102.106 12.5437C101.643 11.6105 101.085 11.1518 100.415 11.1518C100.112 11.1518 99.8084 11.2625 99.585 11.4681C99.3616 11.6738 99.234 11.9743 99.2499 12.2748C99.2499 12.8443 99.9201 13.4296 101.276 13.9832C103.143 14.7741 104.388 15.5017 105.026 16.1819C105.665 16.8621 106 17.7479 106 18.8868C106.032 20.2788 105.425 21.6075 104.372 22.525C103.335 23.4582 101.979 23.9486 100.574 23.9169C98.0213 23.9169 96.2341 22.6831 95.165 20.2313L98.1649 18.8552C98.5798 19.5828 98.8989 20.0415 99.1223 20.2313C99.5372 20.611 100.08 20.8324 100.654 20.8166C101.835 20.8166 102.425 20.2788 102.425 19.2032C102.425 18.5863 101.963 18.001 101.053 17.479C100.702 17.305 100.351 17.131 99.9999 16.9728C99.6489 16.8146 99.2819 16.6406 98.9308 16.4666C97.9096 15.9763 97.1915 15.4859 96.7767 14.9797C96.2501 14.347 95.9788 13.5403 95.9788 12.5596C95.9788 11.2467 96.4256 10.171 97.3351 9.31686C98.2447 8.46268 99.4574 8.00396 100.702 8.03559C102.617 8.01977 104.053 9.01631 105.01 11.0094Z" fill="#6DB2D8"/>
<path d="M100.719 29.564H101.181V26.8275H100.719V29.564Z" fill="black"/>
<path d="M101.181 26.0208H100.719V26.4795H101.181V26.0208Z" fill="black"/>
<path d="M79.3366 25.9892C78.826 25.9892 78.2994 26.179 78.2994 26.6693C78.2994 27.0964 78.7941 27.223 79.3685 27.3179C80.1663 27.4444 80.9482 27.6026 80.9482 28.4884C80.9482 29.3742 80.0865 29.6589 79.3366 29.6589C78.6345 29.6589 77.9643 29.4059 77.6611 28.7573L78.076 28.52C78.3313 28.9788 78.8579 29.216 79.3525 29.216C79.8312 29.216 80.4695 29.0579 80.4695 28.4884C80.4695 27.998 79.927 27.8557 79.3206 27.7766C78.5547 27.6659 77.8207 27.4919 77.8207 26.6851C77.8047 25.8626 78.6504 25.5779 79.3366 25.5779C79.927 25.5779 80.4855 25.6886 80.8365 26.2897L80.4695 26.527C80.2301 26.1631 79.7834 26.005 79.3366 25.9892Z" fill="black"/>
<path d="M81.7782 25.657V27.2704C82.0175 26.9066 82.3845 26.7801 82.7515 26.7801C83.5334 26.7801 83.9164 27.3021 83.9164 28.0613V29.5799H83.4536V28.0613C83.4536 27.5235 83.1664 27.2072 82.6558 27.2072C82.1452 27.2072 81.7782 27.6026 81.7782 28.1088V29.5799H81.3154V25.657H81.7782Z" fill="black"/>
<path d="M86.7881 29.5799L86.7721 29.0738C86.5487 29.4534 86.1338 29.6274 85.7349 29.6274C84.9371 29.6274 84.2988 29.0738 84.2988 28.1721C84.2988 27.2705 84.9371 26.7327 85.7349 26.7485C86.1498 26.7485 86.5647 26.9383 86.7721 27.3021V26.796H87.2189V29.5641L86.7881 29.5799ZM85.7668 27.1914C85.2084 27.1914 84.7616 27.5869 84.7616 28.2038C84.7616 28.8207 85.2084 29.2161 85.7668 29.2161C87.1072 29.2161 87.1072 27.1914 85.7668 27.1914Z" fill="black"/>
<path d="M87.666 26.8117H88.1128L88.1288 27.3496C88.3521 26.9857 88.767 26.7643 89.1978 26.7643C89.9957 26.7801 90.5861 27.3496 90.5861 28.1879C90.5861 29.0579 89.9957 29.6274 89.1659 29.6274C88.767 29.6274 88.3362 29.4534 88.1128 29.0737V30.877H87.666V26.8117ZM90.1393 28.2037C90.1393 27.5868 89.7244 27.2072 89.15 27.2072C88.5596 27.2072 88.1766 27.6343 88.1766 28.2037C88.1766 28.7732 88.5915 29.2003 89.15 29.2003C89.7085 29.2003 90.1393 28.8206 90.1393 28.2037Z" fill="black"/>
<path d="M93.5694 29.1211C93.2822 29.4533 92.8035 29.6114 92.3567 29.6114C91.495 29.6114 90.8887 29.042 90.8887 28.172C90.8887 27.3336 91.495 26.7325 92.3407 26.7325C93.2024 26.7325 93.8406 27.2545 93.7449 28.3618H91.3674C91.4152 28.868 91.8461 29.1844 92.3726 29.1844C92.6918 29.1844 93.0747 29.0578 93.2662 28.8364L93.5694 29.1211ZM93.2981 27.9822C93.2822 27.4444 92.8992 27.1596 92.3567 27.1596C91.878 27.1596 91.4472 27.4444 91.3674 27.9822H93.2981Z" fill="black"/>
<path d="M95.692 25.9892C95.1814 25.9892 94.6549 26.179 94.6549 26.6693C94.6549 27.0964 95.1495 27.223 95.724 27.3179C96.5218 27.4444 97.3037 27.6026 97.3037 28.4884C97.3037 29.3742 96.442 29.6589 95.692 29.6589C94.99 29.6589 94.3198 29.4059 94.0166 28.7573L94.4315 28.52C94.6868 28.9788 95.2133 29.216 95.708 29.216C96.1867 29.216 96.825 29.0579 96.825 28.4884C96.825 27.998 96.2824 27.8557 95.6761 27.7766C94.9102 27.6659 94.1762 27.4919 94.1762 26.6851C94.1602 25.8626 95.0059 25.5779 95.692 25.5779C96.2824 25.5779 96.8409 25.6886 97.192 26.2897L96.825 26.527C96.5856 26.1631 96.1229 26.005 95.692 25.9892Z" fill="black"/>
<path d="M98.118 25.6411V27.2546C98.3574 26.8907 98.7244 26.7642 99.0914 26.7642C99.8732 26.7642 100.256 27.2862 100.256 28.0455V29.564H99.7935V28.0455C99.7935 27.5076 99.5062 27.1913 98.9956 27.1913C98.485 27.1913 98.118 27.5867 98.118 28.0929V29.564H97.6553V25.6411H98.118Z" fill="black"/>
<path d="M102.617 26.6061C102.617 26.1948 102.809 26.005 103.112 26.005H103.128L103.24 25.6096C103.192 25.6096 103.144 25.5938 103.112 25.5938C102.521 25.5938 102.17 25.9576 102.17 26.5903V26.8117H101.628V27.223H102.17V29.5641H102.633V27.223H103.192V26.8276H102.633L102.617 26.6061Z" fill="black"/>
<path d="M104.979 29.1844C104.947 29.1844 104.899 29.2002 104.867 29.2002C104.532 29.2002 104.421 28.9946 104.421 28.6624V27.2388H105.011V26.8275H104.421V25.9891L103.958 26.0366V26.8275H103.399V27.2229H103.958V28.6466C103.958 29.2635 104.245 29.6115 104.836 29.5957C104.915 29.5957 104.979 29.5798 105.059 29.564L104.979 29.1844Z" fill="black"/>
<path d="M72.2674 27.5551C72.4269 27.4919 72.5546 27.3969 72.6663 27.2704C72.8099 27.1122 72.8737 26.9066 72.8737 26.6851C72.8737 26.4795 72.8259 26.3055 72.7461 26.1631C72.6663 26.0208 72.5546 25.91 72.4269 25.831C72.2993 25.7519 72.1557 25.6886 71.9961 25.657C71.8365 25.6253 71.677 25.6095 71.5174 25.6095H70.2568V29.7222H71.5015C71.7408 29.7222 71.9482 29.6906 72.1397 29.6431C72.3312 29.5957 72.4908 29.5166 72.6344 29.4058C72.762 29.3109 72.8737 29.1844 72.9535 29.042C73.0333 28.8997 73.0652 28.7415 73.0652 28.5675C73.0652 28.2669 72.9695 28.0138 72.7939 27.8398C72.6344 27.6975 72.4589 27.6026 72.2674 27.5551ZM72.2993 27.0331C72.2514 27.1122 72.1876 27.1913 72.1078 27.2388C72.028 27.2862 71.9323 27.3337 71.8365 27.3495C71.7408 27.3653 71.6451 27.3811 71.5493 27.3811H70.7675V26.0524H71.4376C71.5653 26.0524 71.6929 26.0682 71.8046 26.084C71.9163 26.0999 72.0121 26.1473 72.0919 26.1948C72.1716 26.2422 72.2355 26.3213 72.2833 26.4004C72.3312 26.4795 72.3472 26.5902 72.3472 26.7009C72.3631 26.8433 72.3312 26.954 72.2993 27.0331ZM70.7515 27.8082H71.5493C71.8685 27.8082 72.1238 27.8715 72.2993 27.998C72.4748 28.1246 72.5546 28.2986 72.5546 28.5517C72.5546 28.6782 72.5227 28.8048 72.4748 28.8838C72.411 28.9788 72.3472 29.0578 72.2514 29.1211C72.1557 29.1844 72.044 29.2318 71.9163 29.2477C71.7887 29.2793 71.6451 29.2951 71.5015 29.2951H70.7834V27.8082H70.7515Z" fill="black"/>
<path d="M75.6666 26.9857L74.8528 29.1686L73.9592 26.9857H73.4326L74.5975 29.6906L74.39 30.2284C74.3421 30.3708 74.2624 30.4815 74.1985 30.5606C74.1347 30.6397 74.039 30.6713 73.9113 30.6713C73.8156 30.6713 73.7198 30.6555 73.6401 30.6239L73.5922 30.6081L73.5443 31.051H73.5762C73.6879 31.0668 73.8156 31.0826 73.9273 31.0826C74.1666 31.0826 74.3581 31.0193 74.5017 30.8928C74.6294 30.7662 74.7411 30.5922 74.8208 30.3866L76.1772 26.9857H75.6666Z" fill="black"/>
</g>
<defs>
<clipPath id="clip0">
<rect width="106" height="32" fill="white"/>
</clipPath>
</defs>
</svg>
