<svg width="126" height="32" viewBox="0 0 126 32" fill="none" xmlns="http://www.w3.org/2000/svg">
<g opacity="0.7" clip-path="url(#clip0)">
<path d="M17.1507 13.4478L19.5141 11.0844V0H13.157L6.80161 6.35717H13.1587V13.4478H6.35711V6.35717H0V26.334H6.35711V19.805H10.7936L17.1507 13.4478Z" fill="#374248"/>
<path d="M25.6433 5.66626V12.1949H21.2069L14.8497 18.5537L12.4863 20.9172V32.0016H18.8441L25.2012 25.6447H18.8441V18.5537H25.644V25.6444H32.0011V5.66626H25.6433Z" fill="#374248"/>
</g>
<path d="M41.3682 21.9999H43.7982V17.8059H45.8322C48.3162 17.8059 50.1162 16.2219 50.1162 13.9539C50.1162 11.6679 48.3162 10.1199 45.8322 10.1199H41.3682V21.9999ZM43.7982 15.6819V12.2619H45.8322C46.9302 12.2619 47.6322 12.9459 47.6322 13.9539C47.6322 14.9799 46.9662 15.6819 45.8322 15.6819H43.7982Z" fill="#374248"/>
<path d="M57.3657 13.0899C57.1317 13.0179 56.8797 12.9819 56.5737 12.9819C55.5837 12.9819 54.7197 13.4139 54.1257 14.1519V13.0899H51.8937V21.9999H54.3237V17.5539C54.3237 16.0239 55.2597 15.2319 56.7177 15.2319H57.3657V13.0899Z" fill="#374248"/>
<path d="M58.8722 21.9999H61.3022V13.0899H58.8722V21.9999ZM58.5302 9.84989C58.5302 10.6959 59.2142 11.3439 60.0782 11.3439C60.9422 11.3439 61.6442 10.6959 61.6442 9.84989C61.6442 8.98589 60.9422 8.33789 60.0782 8.33789C59.2142 8.33789 58.5302 8.98589 58.5302 9.84989Z" fill="#374248"/>
<path d="M77.4402 16.4739C77.4402 14.3139 76.1622 12.8919 74.0742 12.8919C72.8502 12.8919 71.8062 13.3779 71.1042 14.1699C70.5102 13.3239 69.6282 12.8919 68.4582 12.8919C67.4322 12.8919 66.5322 13.2519 65.9382 13.8819V13.0899H63.7062V21.9999H66.1362V16.8159C66.1362 15.7539 66.7842 15.0879 67.7742 15.0879C68.7282 15.0879 69.3582 15.7539 69.3582 16.8159V21.9999H71.7882V16.7619C71.7882 15.7719 72.4722 15.0879 73.4262 15.0879C74.3802 15.0879 75.0102 15.7539 75.0102 16.8159V21.9999H77.4402V16.4739Z" fill="#374248"/>
<path d="M87.945 18.3639C88.053 17.9139 88.107 17.4639 88.107 17.0319C88.107 14.7099 86.379 12.8919 83.913 12.8919C81.339 12.8379 79.197 14.9799 79.251 17.5539C79.197 20.1279 81.375 22.2699 84.129 22.2159C85.443 22.2159 86.631 21.7659 87.693 20.8839L86.685 19.2279C85.911 19.8219 85.083 20.1279 84.201 20.1279C82.905 20.1279 81.987 19.4979 81.699 18.3639H87.945ZM81.699 16.6539C81.969 15.5559 82.797 14.8539 83.823 14.8539C84.885 14.8539 85.731 15.5559 85.749 16.6539H81.699Z" fill="#374248"/>
<path d="M90.165 21.9999H94.053C97.815 22.0539 100.587 19.4619 100.533 16.0239C100.587 12.5139 97.815 10.0839 94.053 10.1199H90.165V21.9999ZM92.595 19.8039V12.3159H94.035C96.465 12.3159 98.031 13.7199 98.031 16.0239C98.031 18.3099 96.429 19.8039 94.035 19.8039H92.595Z" fill="#374248"/>
<path d="M109.997 21.9999H112.607L107.315 9.90389H106.505L101.195 21.9999H103.805L104.471 20.4519H109.331L109.997 21.9999ZM108.485 18.4539H105.317L106.901 14.4399L108.485 18.4539Z" fill="#374248"/>
<path d="M113.282 16.0599C113.228 19.4619 116.162 22.2879 119.582 22.2159C123.002 22.2879 125.972 19.4619 125.918 16.0599C125.972 12.6579 123.002 9.83189 119.582 9.90389C116.162 9.83189 113.228 12.6579 113.282 16.0599ZM123.416 16.0599C123.416 18.3459 121.778 19.9659 119.6 19.9659C117.404 19.9659 115.784 18.3459 115.784 16.0599C115.784 13.7739 117.404 12.1539 119.6 12.1539C121.778 12.1539 123.416 13.8099 123.416 16.0599Z" fill="#374248"/>
<defs>
<clipPath id="clip0">
<rect width="32" height="32" fill="white"/>
</clipPath>
</defs>
</svg>
