<svg width="105" height="24" viewBox="0 0 105 24" fill="none" xmlns="http://www.w3.org/2000/svg">
<g clip-path="url(#clip0)">
<path d="M26.2063 14.1232L21.5964 18.684C21.2058 19.0704 21.2062 19.6985 21.5971 20.0844L25.12 23.5618C25.7204 24.146 26.7019 24.146 27.3023 23.5618L38.0998 13.057C38.7002 12.4729 38.7002 11.5178 38.0998 10.9337L27.3023 0.438091C26.7019 -0.14603 25.7204 -0.14603 25.12 0.438091L21.5971 3.91558C21.2062 4.30151 21.2058 4.92961 21.5964 5.31596L26.2063 9.87683C27.4072 11.045 27.4072 12.955 26.2063 14.1232Z" fill="#0A6E5C"/>
<path d="M12.3437 14.1232L16.9537 18.684C17.3443 19.0704 17.3439 19.6985 16.9529 20.0844L13.4301 23.5618C12.8297 24.146 11.8482 24.146 11.2478 23.5618L0.450292 13.057C-0.150097 12.4729 -0.150097 11.5178 0.450292 10.9337L11.2478 0.438091C11.8482 -0.14603 12.8297 -0.14603 13.4301 0.438091L16.9529 3.91558C17.3439 4.30151 17.3443 4.92961 16.9537 5.31596L12.3437 9.87683C11.1429 11.045 11.1429 12.955 12.3437 14.1232Z" fill="#21BF73"/>
<path d="M13.5532 12.8677C13.0669 12.3885 13.0669 11.6115 13.5532 11.1322L18.3951 6.35944C18.8813 5.88019 19.6696 5.88019 20.1558 6.35944L24.9977 11.1322C25.4839 11.6115 25.4839 12.3885 24.9977 12.8677L20.1558 17.6405C19.6696 18.1198 18.8813 18.1198 18.3951 17.6405L13.5532 12.8677Z" fill="#21BF73"/>
<path d="M59.1997 19.2002H55.7589L53.8613 14.3071C53.7084 13.9216 53.4721 13.6532 53.1523 13.5019C52.8465 13.3505 52.4572 13.2747 51.9846 13.2747H49.8784V19.2002H46.667V4.5H53.2774C55.0013 4.5 56.3081 4.87163 57.1978 5.6149C58.0875 6.35818 58.5324 7.42491 58.5324 8.81513C58.5324 9.79238 58.2683 10.632 57.74 11.334C57.2256 12.0359 56.4818 12.5384 55.5087 12.8411C56.3845 13.0201 57.0171 13.6189 57.4064 14.6374L59.1997 19.2002ZM52.7978 10.8178C53.7292 10.8178 54.4104 10.6664 54.8414 10.3636C55.2724 10.047 55.4878 9.55838 55.4878 8.8977C55.4878 8.23703 55.2724 7.75523 54.8414 7.45244C54.4104 7.13586 53.7292 6.97757 52.7978 6.97757H49.8366V10.8178H52.7978Z" fill="#374248"/>
<path d="M71.8158 8.73254V19.2002H68.7087V17.6518C68.389 18.1885 67.9372 18.6084 67.3533 18.9112C66.7694 19.214 66.109 19.3654 65.3722 19.3654C64.4547 19.3654 63.6414 19.1452 62.9324 18.7048C62.2373 18.2643 61.6882 17.638 61.2851 16.8259C60.8958 16 60.7012 15.0503 60.7012 13.9767C60.7012 12.9031 60.8958 11.9464 61.2851 11.1068C61.6882 10.2672 62.2443 9.62031 62.9533 9.16611C63.6622 8.69811 64.4686 8.46411 65.3722 8.46411C66.109 8.46411 66.7694 8.62236 67.3533 8.93894C67.9372 9.25551 68.389 9.68226 68.7087 10.219V8.73254H71.8158ZM66.2898 16.9911C67.0683 16.9911 67.6661 16.7296 68.0831 16.2065C68.5002 15.6835 68.7087 14.9264 68.7087 13.9354C68.7087 12.9444 68.5002 12.1873 68.0831 11.6643C67.6661 11.1275 67.0683 10.8591 66.2898 10.8591C65.5112 10.8591 64.9065 11.1343 64.4755 11.6849C64.0446 12.2355 63.8291 12.9994 63.8291 13.9767C63.8291 14.9539 64.0377 15.7041 64.4547 16.2271C64.8856 16.7365 65.4974 16.9911 66.2898 16.9911Z" fill="#374248"/>
<path d="M87.2861 8.46411C88.4958 8.46411 89.3921 8.82884 89.9765 9.55836C90.5738 10.2741 90.8728 11.3752 90.8728 12.8618V19.2002H87.7243V12.965C87.7243 12.2355 87.6056 11.7124 87.3698 11.3959C87.1331 11.0656 86.7443 10.9004 86.2018 10.9004C85.5627 10.9004 85.0689 11.1206 84.7212 11.5611C84.3735 12.0015 84.2 12.6209 84.2 13.4192V19.2002H81.0507V12.965C81.0507 12.2493 80.926 11.7262 80.6756 11.3959C80.4398 11.0656 80.057 10.9004 79.529 10.9004C78.8891 10.9004 78.3892 11.1206 78.027 11.5611C77.6801 12.0015 77.5058 12.6209 77.5058 13.4192V19.2002H74.3573V11.7262C74.3573 10.6114 74.3017 9.61341 74.1904 8.73254H77.1513L77.3392 10.3016C77.6588 9.70979 78.1039 9.25551 78.6738 8.93894C79.2574 8.62236 79.9254 8.46411 80.6756 8.46411C82.2468 8.46411 83.2892 9.11099 83.8036 10.4049C84.1513 9.81299 84.6306 9.34499 85.2424 9.00089C85.8678 8.64306 86.5495 8.46411 87.2861 8.46411Z" fill="#374248"/>
<path d="M99.8214 8.46411C100.725 8.46411 101.532 8.69811 102.241 9.16611C102.949 9.62031 103.499 10.2672 103.888 11.1068C104.292 11.9464 104.492 12.9031 104.492 13.9767C104.492 15.0503 104.298 16 103.909 16.8259C103.52 17.638 102.971 18.2643 102.262 18.7048C101.552 19.1452 100.739 19.3654 99.8214 19.3654C99.0849 19.3654 98.4245 19.214 97.8409 18.9112C97.2565 18.6084 96.8122 18.1885 96.5063 17.6518V24H93.3571V11.7262C93.3571 10.6114 93.3015 9.61341 93.1904 8.73254H96.1517L96.3602 10.4668C96.6379 9.84741 97.083 9.35879 97.6948 9.00089C98.3202 8.64306 99.0293 8.46411 99.8214 8.46411ZM98.9251 16.9911C99.7035 16.9911 100.302 16.7365 100.718 16.2271C101.135 15.7041 101.344 14.9539 101.344 13.9767C101.344 12.9994 101.129 12.2355 100.697 11.6849C100.28 11.1343 99.6898 10.8591 98.9251 10.8591C98.1467 10.8591 97.5418 11.1275 97.1104 11.6643C96.6935 12.1873 96.485 12.9444 96.485 13.9354C96.485 14.9264 96.6935 15.6835 97.1104 16.2065C97.5418 16.7296 98.1467 16.9911 98.9251 16.9911Z" fill="#374248"/>
</g>
<defs>
<clipPath id="clip0">
<rect width="105" height="24" fill="white"/>
</clipPath>
</defs>
</svg>
