<svg width="240" height="80" viewBox="0 0 240 80" fill="none" xmlns="http://www.w3.org/2000/svg">
<mask id="mask0_78_453" style="mask-type:alpha" maskUnits="userSpaceOnUse" x="40" y="21" width="161" height="39">
<rect x="40" y="21" width="160.585" height="38.7618" fill="#C4C4C4"/>
</mask>
<g mask="url(#mask0_78_453)">
<path d="M80.3101 43.2956L73.2192 50.1981C72.6185 50.7829 72.6191 51.7336 73.2204 52.3176L78.6391 57.5805C79.5626 58.4646 81.0724 58.4646 81.9959 57.5805L98.6042 41.6819C99.5277 40.7979 99.5277 39.3525 98.6042 38.4685L81.9959 22.5839C81.0724 21.6999 79.5626 21.6999 78.6391 22.5839L73.2204 27.8469C72.6191 28.431 72.6185 29.3816 73.2192 29.9663L80.3101 36.8689C82.1571 38.6369 82.1571 41.5276 80.3101 43.2956Z" fill="#0A6E5C"/>
<path d="M58.9867 43.2956L66.0776 50.1981C66.6783 50.7829 66.6777 51.7336 66.0764 52.3176L60.6577 57.5805C59.7342 58.4646 58.2245 58.4646 57.301 57.5805L40.6926 41.6819C39.7691 40.7979 39.7691 39.3525 40.6926 38.4685L57.301 22.5839C58.2245 21.6999 59.7342 21.6999 60.6577 22.5839L66.0764 27.8469C66.6777 28.431 66.6783 29.3816 66.0776 29.9663L58.9867 36.8689C57.1397 38.6369 57.1397 41.5276 58.9867 43.2956Z" fill="#21BF73"/>
<path d="M60.8471 41.3949C60.0991 40.6696 60.0991 39.4937 60.8471 38.7684L68.2948 31.545C69.0427 30.8196 70.2551 30.8196 71.003 31.545L78.4507 38.7684C79.1986 39.4937 79.1986 40.6696 78.4507 41.3949L71.003 48.6183C70.2551 49.3437 69.0427 49.3437 68.2948 48.6183L60.8471 41.3949Z" fill="#21BF73"/>
<path d="M131.058 50.977H125.765L122.846 43.5715C122.611 42.9882 122.248 42.5819 121.756 42.3529C121.285 42.1237 120.687 42.009 119.96 42.009H116.72V50.977H111.78V28.729H121.948C124.6 28.729 126.61 29.2914 127.978 30.4164C129.347 31.5413 130.031 33.1557 130.031 35.2597C130.031 36.7387 129.625 38.0095 128.812 39.0719C128.021 40.1342 126.877 40.8946 125.38 41.3528C126.727 41.6237 127.7 42.5299 128.299 44.0714L131.058 50.977ZM121.21 38.2906C122.643 38.2906 123.691 38.0616 124.354 37.6032C125.017 37.1241 125.348 36.3846 125.348 35.3847C125.348 34.3848 125.017 33.6556 124.354 33.1974C123.691 32.7182 122.643 32.4787 121.21 32.4787H116.656V38.2906H121.21Z" fill="#011833"/>
<path d="M150.463 35.1367V50.979H145.684V48.6355C145.192 49.4479 144.497 50.0833 143.599 50.5415C142.701 50.9999 141.685 51.229 140.552 51.229C139.141 51.229 137.89 50.8957 136.799 50.2291C135.73 49.5625 134.885 48.6146 134.265 47.3856C133.667 46.1357 133.367 44.6983 133.367 43.0735C133.367 41.4486 133.667 40.0008 134.265 38.7301C134.885 37.4593 135.741 36.4803 136.831 35.7929C137.922 35.0846 139.162 34.7305 140.552 34.7305C141.685 34.7305 142.701 34.97 143.599 35.4491C144.497 35.9282 145.192 36.5741 145.684 37.3865V35.1367H150.463ZM141.963 47.6356C143.161 47.6356 144.08 47.2398 144.722 46.4482C145.363 45.6566 145.684 44.5108 145.684 43.011C145.684 41.5111 145.363 40.3654 144.722 39.5738C144.08 38.7614 143.161 38.3551 141.963 38.3551C140.766 38.3551 139.836 38.7717 139.173 39.605C138.51 40.4382 138.178 41.5944 138.178 43.0735C138.178 44.5525 138.499 45.6878 139.141 46.4794C139.804 47.2502 140.745 47.6356 141.963 47.6356Z" fill="#011833"/>
<path d="M174.262 34.7305C176.123 34.7305 177.502 35.2825 178.401 36.3866C179.319 37.4698 179.779 39.1363 179.779 41.3861V50.979H174.937V41.5423C174.937 40.4382 174.754 39.6466 174.391 39.1675C174.027 38.6676 173.429 38.4177 172.595 38.4177C171.612 38.4177 170.852 38.7509 170.317 39.4176C169.782 40.0841 169.515 41.0216 169.515 42.2297V50.979H164.671V41.5423C164.671 40.4591 164.479 39.6675 164.094 39.1675C163.732 38.6676 163.143 38.4177 162.331 38.4177C161.346 38.4177 160.578 38.7509 160.02 39.4176C159.487 40.0841 159.219 41.0216 159.219 42.2297V50.979H154.376V39.6675C154.376 37.9802 154.29 36.4699 154.119 35.1367H158.673L158.962 37.5114C159.454 36.6157 160.139 35.9282 161.015 35.4491C161.913 34.97 162.94 34.7305 164.094 34.7305C166.511 34.7305 168.115 35.7095 168.906 37.6677C169.441 36.7719 170.178 36.0636 171.119 35.5428C172.081 35.0013 173.13 34.7305 174.262 34.7305Z" fill="#011833"/>
<path d="M193.541 34.7305C194.932 34.7305 196.172 35.0846 197.263 35.7929C198.353 36.4803 199.198 37.4593 199.797 38.7301C200.417 40.0008 200.726 41.4486 200.726 43.0735C200.726 44.6983 200.428 46.1357 199.828 47.3856C199.23 48.6146 198.385 49.5625 197.295 50.2291C196.204 50.8957 194.953 51.229 193.541 51.229C192.408 51.229 191.393 50.9999 190.495 50.5415C189.596 50.0833 188.913 49.4479 188.442 48.6355V58.2432H183.598V39.6675C183.598 37.9802 183.513 36.4699 183.342 35.1367H187.897L188.217 37.7615C188.645 36.824 189.329 36.0845 190.27 35.5428C191.232 35.0013 192.323 34.7305 193.541 34.7305ZM192.163 47.6356C193.36 47.6356 194.28 47.2502 194.921 46.4794C195.563 45.6878 195.883 44.5525 195.883 43.0735C195.883 41.5944 195.552 40.4382 194.888 39.605C194.247 38.7717 193.339 38.3551 192.163 38.3551C190.965 38.3551 190.035 38.7614 189.371 39.5738C188.73 40.3654 188.409 41.5111 188.409 43.011C188.409 44.5108 188.73 45.6566 189.371 46.4482C190.035 47.2398 190.965 47.6356 192.163 47.6356Z" fill="#011833"/>
</g>
</svg>
