<svg width="240" height="80" viewBox="0 0 240 80" fill="none" xmlns="http://www.w3.org/2000/svg">
<mask id="mask0_647_1365" style="mask-type:alpha" maskUnits="userSpaceOnUse" x="34" y="25" width="173" height="30">
<rect x="34" y="25" width="173" height="29.6864" fill="#C4C4C4"/>
</mask>
<g mask="url(#mask0_647_1365)">
<mask id="mask1_647_1365" style="mask-type:alpha" maskUnits="userSpaceOnUse" x="34" y="25" width="173" height="30">
<rect x="34" y="25.0015" width="173" height="29.6864" fill="#C4C4C4"/>
</mask>
<g mask="url(#mask1_647_1365)">
<path d="M50.5413 38.6022L57.2224 32.5722C57.4751 32.3439 57.6745 32.0715 57.8088 31.7715C57.9431 31.4715 58.0094 31.15 58.0038 30.8261V25.937C57.9968 25.6914 57.8895 25.457 57.7028 25.2793L44.8915 36.9201C44.6436 37.1445 44.4469 37.4112 44.3127 37.7048C44.1785 37.9985 44.1094 38.3133 44.1094 38.6313C44.1094 38.9492 44.1785 39.2641 44.3127 39.5577C44.4469 39.8514 44.6436 40.1181 44.8915 40.3425L53.9363 48.5027C54.1836 48.7274 54.4772 48.9056 54.8003 49.0272C55.1234 49.1489 55.4698 49.2115 55.8195 49.2115C56.1693 49.2115 56.5156 49.1489 56.8387 49.0272C57.1619 48.9056 57.4555 48.7274 57.7028 48.5027C57.9501 48.2779 58.1463 48.0112 58.2801 47.7176C58.414 47.4239 58.4828 47.1093 58.4828 46.7915C58.4828 46.4737 58.414 46.159 58.2801 45.8654C58.1463 45.5718 57.9501 45.305 57.7028 45.0803L50.5413 38.6022Z" fill="#008C62"/>
<path d="M56.9659 25.0068H36.8394C36.4587 25.0001 36.0806 25.0644 35.7283 25.1957C35.376 25.3269 35.0571 25.5224 34.7911 25.77C34.5252 26.0176 34.318 26.3121 34.1822 26.6353C34.0464 26.9586 33.985 27.3036 34.0017 27.6493V46.7402C33.9974 47.0646 34.0646 47.3865 34.1992 47.6869C34.3339 47.9874 34.5333 48.2604 34.7857 48.4898C35.0382 48.7192 35.3386 48.9004 35.6693 49.0227C36 49.1451 36.3543 49.2061 36.7113 49.2022C37.0685 49.2069 37.4232 49.1464 37.7543 49.0244C38.0854 48.9023 38.3861 48.7211 38.6388 48.4916C38.8914 48.262 39.0908 47.9887 39.2252 47.6879C39.3595 47.387 39.426 47.0648 39.4209 46.7402V29.7155H52.815L57.7025 25.2804C57.506 25.1049 57.2414 25.0067 56.9659 25.0068Z" fill="#00E6A0"/>
<path d="M75.7803 40.0869V48.2354H71.623V26.5195H82.4614C88.1239 26.5195 91.0129 28.9583 91.0129 32.7415C91.0129 35.8613 88.5275 38.1545 84.793 38.7773C85.7161 38.8622 86.6078 39.1283 87.4065 39.5572C88.7837 40.3604 89.5012 41.8213 90.2891 44.3183L91.5317 48.2121H87.1119L85.9973 44.3765C84.9852 40.8377 84.0308 40.0636 79.8735 40.0636L75.7803 40.0869ZM75.7803 29.7964V37.3629H81.2827C84.8827 37.3629 86.8813 35.8729 86.8813 33.4633C86.8813 31.1351 85.2798 29.8081 81.4493 29.8081L75.7803 29.7964Z" fill="black"/>
<path d="M102.338 48.5396C96.0157 48.5396 92.7744 44.8786 92.7744 40.0011C92.7744 35.2691 96.3424 31.2705 102.204 31.2705C108.193 31.2705 111.011 35.1702 111.011 39.6286V40.9382H96.7779C97.1046 43.7669 98.9687 45.4606 102.274 45.4606C104.663 45.4606 106.04 44.5701 107.123 42.8414L110.556 44.541C108.981 46.8692 106.425 48.5396 102.338 48.5396ZM96.8356 38.5984H106.982C106.822 36.1305 105.381 34.3146 102.171 34.3146C99.1288 34.3204 97.2904 35.921 96.8356 38.5984Z" fill="black"/>
<path d="M121.682 31.3696C124.661 31.3696 126.659 32.5628 127.806 34.9433V31.5792H131.867V54.6919H127.742V44.7973C127.205 45.9228 126.306 46.8744 125.162 47.5268C124.019 48.1792 122.685 48.5019 121.336 48.4525C116.98 48.4525 113.444 45.6296 113.444 40.0071C113.464 34.2565 117.493 31.3696 121.682 31.3696ZM128.088 39.879C128.088 36.6953 126.48 34.3788 122.848 34.3788C119.446 34.3788 117.64 36.608 117.64 39.9372C117.64 43.2665 119.357 45.3793 122.861 45.3793C126.493 45.3793 128.1 43.0512 128.1 39.879H128.088Z" fill="black"/>
<path d="M152.755 48.2351H148.662V44.3122C147.413 47.135 145.158 48.5669 142.372 48.5669C137.952 48.5669 135.825 45.8895 135.825 41.8094V31.5771H139.918V40.8025C139.918 43.6254 141.001 45.4588 144.076 45.4588C146.894 45.4588 148.63 43.2587 148.63 39.7781V31.5771H152.755V48.2351Z" fill="black"/>
<path d="M165.524 48.5396C159.201 48.5396 155.96 44.8786 155.96 40.0011C155.96 35.2691 159.528 31.2705 165.389 31.2705C171.385 31.2705 174.197 35.1702 174.197 39.6286V40.9382H159.957C160.284 43.7669 162.148 45.4606 165.46 45.4606C167.849 45.4606 169.22 44.5701 170.302 42.8414L173.742 44.541C172.166 46.8692 169.617 48.5396 165.524 48.5396ZM160.021 38.5984H170.174C170.008 36.1305 168.566 34.3146 165.357 34.3146C162.314 34.3204 160.482 35.921 160.021 38.5984Z" fill="black"/>
<path d="M178.976 42.7371C179.649 43.6142 180.553 44.3241 181.606 44.8019C182.659 45.2798 183.827 45.5104 185.003 45.4727C187.521 45.4727 188.571 44.3726 188.571 43.2143C188.571 41.5148 185.689 41.3984 182.416 40.8862C179.142 40.374 176.689 39.4311 176.689 36.4219C176.689 33.5118 179.373 31.1836 183.985 31.1836C187.719 31.1836 190.339 32.1963 192.562 34.5711L189.423 37.0156C188.822 36.1552 187.982 35.4535 186.988 34.9805C185.995 34.5076 184.882 34.2801 183.761 34.3208C181.237 34.3208 180.289 35.3626 180.289 36.4627C180.289 37.9527 182.448 38.2088 185.49 38.6395C188.962 39.111 192.203 39.856 192.203 43.2202C192.203 46.3399 189.455 48.604 184.901 48.604C180.744 48.604 177.797 47.3526 175.997 45.298L178.976 42.7371Z" fill="black"/>
<path d="M206.956 47.8521C205.902 48.3333 204.734 48.5693 203.555 48.5389C199.558 48.5389 197.924 46.6007 197.924 42.9164V34.6747H193.729V31.5783H197.988V27.3352L201.832 25.2573V31.5783H206.956V34.6747H201.832V42.4682C201.832 44.5519 202.78 45.326 204.58 45.326C205.416 45.3305 206.242 45.1676 207.001 44.8488L206.956 47.8521Z" fill="black"/>
</g>
</g>
</svg>
