<?xml version="1.0" encoding="UTF-8"?>
<svg width="39px" height="40px" viewBox="0 0 39 40" version="1.1" xmlns="http://www.w3.org/2000/svg" xmlns:xlink="http://www.w3.org/1999/xlink">
    <!-- Generator: Sketch 59.1 (86144) - https://sketch.com -->
    <title>Group 40</title>
    <desc>Created with Sketch.</desc>
    <defs>
        <polygon id="path-1" points="7.47296525e-05 0.167208791 31.8899391 0.167208791 31.8899391 15.9784323 7.47296525e-05 15.9784323"></polygon>
        <polygon id="path-3" points="0.0808650237 0.146142906 17.5964444 0.146142906 17.5964444 22.3871899 0.0808650237 22.3871899"></polygon>
    </defs>
    <g id="fuse-web-5" stroke="none" stroke-width="1" fill="none" fill-rule="evenodd">
        <g id="3.3" transform="translate(-967.000000, -4278.000000)">
            <g id="Group-40" transform="translate(967.000000, 4278.472656)">
                <g id="Group-3">
                    <mask id="mask-2" fill="white">
                        <use xlink:href="#path-1"></use>
                    </mask>
                    <g id="Clip-2"></g>
                    <path d="M12.2455697,4.51212308 C9.55359135,7.27309011 6.93495351,9.95898022 4.25542919,12.7071121 L12.2455697,12.7071121 L12.2455697,4.51212308 Z M29.4017211,2.72662857 L14.7663049,2.72662857 C14.7585211,2.87625495 14.7452022,3.01603516 14.7452022,3.15563956 C14.7429535,6.62763956 14.7422616,10.0996396 14.7407049,13.5716396 C14.7401859,14.856211 14.34304,15.2657055 13.0957319,15.2658813 C9.24777514,15.266233 5.39964541,15.2730901 1.55168865,15.2541011 C1.19622919,15.252167 0.782996757,15.1698813 0.498283243,14.9731341 C-0.169046486,14.5119473 -0.156592432,13.6498813 0.479256216,12.9924747 C1.91406703,11.5097495 3.35856432,10.036167 4.79925622,8.55924396 C7.33573189,5.9588044 9.87618595,3.36188132 12.4052238,0.753881319 C12.7828238,0.364430769 13.1951914,0.166276923 13.74144,0.167153132 C19.29024,0.177002198 24.83904,0.172606593 30.387667,0.173485714 C31.437613,0.173661538 31.8833643,0.625705495 31.8844022,1.70262857 C31.8885535,5.95106813 31.8888995,10.1995077 31.8899391,14.4479473 C31.8899391,14.5504527 31.8902832,14.6534857 31.8812886,14.7552879 C31.8153859,15.4955077 31.2895481,15.9988923 30.6069968,15.9777934 C29.926867,15.9568703 29.4167697,15.4234198 29.4103697,14.6788044 C29.3970508,13.1115077 29.402413,11.5438593 29.4018941,9.97621099 C29.4008562,7.7348044 29.4017211,5.4933978 29.4017211,3.25199121 L29.4017211,2.72662857 Z" id="Fill-1" fill="#9EAFB9" mask="url(#mask-2)"></path>
                </g>
                <g id="Group-6" transform="translate(20.800000, 16.800000)">
                    <mask id="mask-4" fill="white">
                        <use xlink:href="#path-3"></use>
                    </mask>
                    <g id="Clip-5"></g>
                    <path d="M13.3487467,8.30310698 C13.6986133,6.19403411 12.7905244,4.19418295 11.0760356,3.23133023 C9.43372444,2.30911008 7.44936889,2.45340775 6.00705778,3.59980155 C4.60652444,4.71285581 3.84012444,6.85335814 4.33416889,8.30310698 L13.3487467,8.30310698 Z M15.1208356,10.8454202 L2.67816889,10.8454202 C2.67816889,12.1046822 2.57825778,13.3389395 2.69825778,14.5525333 C2.97968,17.4006326 5.46359111,19.7031442 8.30999111,19.8757457 C11.46128,20.0669271 14.2301689,18.2004341 14.8289244,15.2736744 C15.12048,13.8487566 15.0339022,12.350214 15.1208356,10.8454202 L15.1208356,10.8454202 Z M1.71159111,8.27723411 C1.52279111,5.88008682 2.13381333,3.76806202 3.91976889,2.08285271 C5.13185778,0.939063566 6.58554667,0.266021705 8.28012444,0.162530233 C10.5811022,0.0220527132 12.5247467,0.784694574 14.0779911,2.45219225 C15.6173689,4.10475659 16.0838578,6.1059969 15.9355911,8.29268837 C16.1345244,8.30692713 16.26448,8.31526202 16.3946133,8.32568062 C17.0465244,8.37812093 17.5878578,8.8268155 17.5837689,9.45939845 C17.5718578,11.4095876 17.6806578,13.3820031 17.4205689,15.3042357 C16.9235022,18.9773147 13.79888,21.8205519 10.02288,22.3100527 C5.21932444,22.9329116 0.838524444,19.7187721 0.199413333,15.0175504 C0.0234133333,13.7218233 0.112835556,12.3915411 0.0858133333,11.0770605 C0.0767466667,10.6431256 0.0824355556,10.2090171 0.0849244444,9.77508217 C0.0897244444,8.84209612 0.516924444,8.3907969 1.45896889,8.31804031 C1.51603556,8.31369922 1.57239111,8.2999814 1.71159111,8.27723411 L1.71159111,8.27723411 Z" id="Fill-4" fill="#9EAFB9" mask="url(#mask-4)"></path>
                </g>
                <path d="M2.53542668,36.6689704 L3.78864725,36.6689704 C9.982148,36.6687948 16.1760003,36.6684435 22.3696769,36.6705512 C22.5735955,36.6705512 22.7820847,36.6726589 22.9805538,36.7127046 C23.6165689,36.8414481 24.0307347,37.3792554 23.9982132,38.0068143 C23.9649885,38.6445603 23.4650363,39.1437269 22.8044103,39.1936085 C22.6732695,39.2036199 22.5408982,39.1988777 22.4092301,39.1988777 C15.4686137,39.1990533 8.52817307,39.1992289 1.58755668,39.1988777 C0.445963981,39.1988777 0.000331476414,38.7509977 0.000331476414,37.6031954 C0,30.8883327 -0.000371691246,24.1731187 0.000858852159,17.4582559 C0.00103464407,16.6050006 0.43207642,16.0619242 1.14280313,16.0051927 C1.95654391,15.9400306 2.52364863,16.4929428 2.52927397,17.3936207 C2.54034886,19.1491346 2.53560248,20.9046486 2.53577827,22.6603381 C2.53612985,27.1514328 2.53560248,31.6428787 2.53542668,36.134149 L2.53542668,36.6689704 Z" id="Fill-7" fill="#9EAFB9"></path>
                <path d="M28.417503,32.4316644 C28.4360929,31.9256373 28.3989131,31.4539731 28.1467153,30.9728922 C27.8101225,30.329909 28.0842005,29.5000774 28.6481497,29.0996171 C29.2422047,28.6778453 30.0886221,28.7041131 30.635791,29.1610739 C31.1765439,29.6125829 31.3777429,30.434815 31.0210795,31.0685467 C30.8184,31.4288618 30.7787525,31.7794297 30.7868136,32.1646909 C30.7942166,32.5079898 30.799481,32.8522798 30.7840169,33.1950831 C30.7509498,33.9228171 30.2649796,34.4065414 29.591794,34.3999331 C28.9217342,34.3933249 28.4418509,33.8945668 28.4188191,33.1736062 C28.410758,32.9266227 28.417503,32.6789784 28.417503,32.4316644" id="Fill-15" fill="#9EAFB9"></path>
            </g>
        </g>
    </g>
</svg>