<?xml version="1.0" encoding="UTF-8"?>
<svg width="18px" height="14px" viewBox="0 0 18 14" version="1.1" xmlns="http://www.w3.org/2000/svg" xmlns:xlink="http://www.w3.org/1999/xlink">
    <!-- Generator: Sketch 64 (93537) - https://sketch.com -->
    <title>icons8-down-arrow copy</title>
    <desc>Created with Sketch.</desc>
    <g id="new-web-design" stroke="none" stroke-width="1" fill="none" fill-rule="evenodd">
        <g id="Paywise" transform="translate(-546.000000, -3831.000000)" fill="#FFFFFF" fill-rule="nonzero">
            <g id="icons8-down-arrow-copy" transform="translate(555.000000, 3838.000000) rotate(-90.000000) translate(-555.000000, -3838.000000) translate(548.000000, 3829.000000)">
                <path d="M7.17173464,0 C6.61973464,0 6.17173464,0.448 6.17173464,1 L6.17173464,14.070312 L2.30845344,10.207031 C1.91745334,9.816031 1.28439094,9.816031 0.894390837,10.207031 L0.808453437,10.292969 C0.417453337,10.683969 0.417453337,11.317031 0.808453437,11.707031 L6.46470364,17.363281 C6.85570364,17.754281 7.48876564,17.754281 7.87876564,17.363281 L13.5350156,11.707031 C13.9260156,11.316031 13.9260156,10.682969 13.5350156,10.292969 L13.4490786,10.207031 C13.0580786,9.816031 12.4250156,9.816031 12.0350156,10.207031 L8.17173464,14.070312 L8.17173464,1 C8.17173464,0.448 7.72373464,0 7.17173464,0 Z" id="Path"></path>
            </g>
        </g>
    </g>
</svg>