<svg width="61" height="60" viewBox="0 0 61 60" fill="none" xmlns="http://www.w3.org/2000/svg">
<g clip-path="url(#clip0_647_1546)">
<path d="M60.6427 33.7998C60.1872 34.8665 59.2126 35.0619 58.2282 35.1984C57.8293 35.2541 57.6686 35.431 57.5701 35.8056C57.3892 36.4888 57.1228 37.1493 56.9435 37.8333C56.891 38.0335 56.9483 38.3251 57.0687 38.4946C57.3061 38.8297 57.6347 39.0978 57.9028 39.4128C58.5343 40.154 58.573 40.9002 57.9763 41.6697C57.4571 42.34 56.9071 42.9876 56.3362 43.615C55.6902 44.3256 54.8577 44.517 54.1172 43.9219C53.1256 43.1249 52.3633 43.1515 51.2199 43.7644C50.1968 44.3127 49.7737 44.8182 49.8455 45.9535C49.9158 47.0728 49.2447 47.6848 48.1215 47.7801C47.4141 47.8399 46.7076 47.9069 46.0002 47.9739C44.8834 48.0805 44.0904 47.5904 43.9629 46.4897C43.824 45.2914 43.3282 44.735 42.1145 44.3805C41.093 44.0826 40.5092 44.1455 39.7994 44.9086C38.8578 45.9212 38.0931 45.8849 37.0199 44.991C36.4894 44.5493 35.9565 44.11 35.4388 43.653C34.641 42.948 34.448 42.1211 35.0989 41.2983C35.8587 40.3382 35.9548 39.584 35.2798 38.4631C34.7799 37.6322 34.3649 37.2931 33.4193 37.3278C31.9391 37.3819 31.3682 36.7682 31.2753 35.2775C31.235 34.6283 31.1607 33.9807 31.1268 33.3306C31.0711 32.2607 31.5087 31.5751 32.5601 31.4395C33.693 31.2933 34.1791 30.8177 34.5086 29.6686C34.8316 28.5413 34.8154 27.8283 33.911 27.0369C33.1253 26.3498 33.1754 25.4809 33.8311 24.6629C34.3245 24.0476 34.8308 23.4411 35.3508 22.8484C36.0388 22.0635 36.8875 21.8762 37.7063 22.5311C38.6002 23.2465 39.3391 23.2958 40.2128 22.5561C40.5455 22.2735 41.0122 22.1338 41.4354 21.9779C41.7503 21.8617 41.8464 21.6816 41.8399 21.3618C41.8319 20.9686 41.8569 20.5721 41.9037 20.1812C42.0103 19.2881 42.536 18.752 43.4283 18.6478C44.2309 18.5541 45.0376 18.4855 45.8435 18.4273C46.8844 18.3522 47.641 18.8117 47.7646 19.8397C47.9002 20.9702 48.4316 21.3465 49.491 21.6977C50.6708 22.0894 51.4678 22.1628 52.3447 21.1688C52.9076 20.5301 53.7256 20.6229 54.4386 21.1801C55.1064 21.7018 55.7556 22.2509 56.3831 22.821C57.1074 23.4799 57.2705 24.3165 56.652 25.0917C55.9519 25.9702 56.0108 26.6251 56.5252 27.6272C57.0565 28.6616 57.5249 29.2027 58.7571 29.1082C59.7407 29.0331 60.3067 29.7332 60.4174 30.7442C60.486 31.3684 60.5668 31.991 60.6419 32.6144V33.799L60.6427 33.7998ZM45.8694 38.3057C48.8394 38.3283 51.1432 36.0398 51.165 33.044C51.186 30.1854 48.8507 27.8848 45.9065 27.8638C43.0011 27.8428 40.7345 30.1499 40.7094 33.1546C40.6852 35.9534 43.0205 38.2839 45.8694 38.3057Z" fill="url(#paint0_radial_647_1546)"/>
<path d="M7.7364 3.33905C8.21525 3.58937 8.63192 3.76057 8.99449 4.00847C9.51452 4.36377 9.96269 5.02027 10.5029 5.09295C11.027 5.16401 11.6229 4.64721 12.1971 4.41222C12.7066 4.20389 13.2202 3.99232 13.7507 3.8502C14.1181 3.75168 14.2594 3.5708 14.2836 3.20823C14.3168 2.71727 14.3991 2.22954 14.454 1.73938C14.5808 0.600801 15.1719 0.0323182 16.3072 0.0137456C17.4709 -0.00563451 18.6361 -0.00482701 19.7997 0.0137456C20.9326 0.0315107 21.5318 0.595956 21.6675 1.73211C21.728 2.24084 21.7393 2.76007 21.8524 3.25668C21.9008 3.46906 22.1148 3.71615 22.3167 3.80902C23.2268 4.2273 24.1691 4.57695 25.08 4.99443C25.3747 5.12929 25.5637 5.13655 25.81 4.91853C26.2081 4.56565 26.6328 4.24184 27.0608 3.92449C27.9143 3.29141 28.7 3.31402 29.4583 4.03835C30.3288 4.86927 31.1807 5.72119 32.0116 6.59168C32.7392 7.35396 32.7634 8.12916 32.1287 8.98916C31.8129 9.41713 31.4883 9.84269 31.1379 10.2424C30.9005 10.5129 30.8657 10.735 31.0232 11.079C31.4157 11.9365 31.7346 12.8272 32.1141 13.6913C32.1844 13.8511 32.383 14.028 32.5486 14.0603C33.0694 14.1628 33.6024 14.2064 34.1321 14.2605C35.3385 14.3833 35.9199 14.9776 35.9393 16.1687C35.9579 17.3129 35.9587 18.458 35.9393 19.6022C35.9191 20.7723 35.3466 21.3625 34.1797 21.4893C33.5523 21.5572 32.786 21.4514 32.3419 21.7768C31.9155 22.0901 31.8275 22.8605 31.5868 23.4289C31.4795 23.6825 31.4076 23.9692 31.2404 24.1775C30.6501 24.9131 30.8496 25.5075 31.469 26.101C31.7645 26.3844 32.0043 26.7341 32.2337 27.0781C32.7432 27.8403 32.7214 28.5776 32.0996 29.2381C31.221 30.1724 30.3142 31.0817 29.3816 31.961C28.6839 32.62 27.8748 32.6183 27.0745 32.0224C26.5521 31.634 26.0635 31.1996 25.5298 30.8289C25.3812 30.7256 25.0977 30.7054 24.9233 30.7708C23.9842 31.1229 23.0531 31.4967 22.1374 31.9045C21.9525 31.9869 21.7555 32.2291 21.7191 32.427C21.598 33.0851 21.5738 33.7602 21.464 34.4207C21.3025 35.3962 20.709 35.9089 19.7198 35.9259C18.5166 35.9461 17.3118 35.9453 16.1086 35.9267C15.0726 35.9114 14.475 35.3711 14.3216 34.3294C14.2271 33.6859 14.1528 33.0382 14.0979 32.3906C14.0697 32.0579 13.9566 31.8771 13.6175 31.7511C12.789 31.4426 11.9726 31.0938 11.1739 30.7151C10.8485 30.5608 10.6402 30.6077 10.3842 30.8249C9.90374 31.2335 9.40632 31.6243 8.90001 32.0014C8.03194 32.6474 7.2414 32.6054 6.45973 31.852C5.62154 31.0437 4.7987 30.2201 3.98796 29.3843C3.21357 28.5865 3.174 27.7871 3.84746 26.8956C4.2399 26.3763 4.67838 25.8902 5.04579 25.3548C5.15965 25.1885 5.18711 24.8784 5.11524 24.6854C4.81565 23.8747 4.48619 23.0712 4.11393 22.2912C4.02026 22.0949 3.7441 21.9076 3.52365 21.8656C2.88653 21.7437 2.23164 21.7138 1.58887 21.6177C0.577872 21.4659 0.0344213 20.8732 0.0166562 19.8695C-0.00514646 18.6461 -0.00595397 17.4219 0.0166562 16.1994C0.0344213 15.2425 0.548802 14.6481 1.48712 14.4842C2.10809 14.376 2.73795 14.3122 3.36618 14.2605C3.69888 14.2331 3.8741 14.1289 3.99442 13.7825C4.30935 12.8733 4.70583 11.9923 5.03449 11.0871C5.09828 10.9118 5.07002 10.6308 4.96666 10.4798C4.62024 9.97754 4.21326 9.51726 3.84342 9.03034C3.17158 8.14532 3.21437 7.33943 3.99038 6.54403C4.80354 5.71069 5.61185 4.87008 6.47023 4.08518C6.81342 3.77106 7.28581 3.59745 7.7364 3.33824V3.33905ZM18.083 24.2308C21.6037 24.2163 24.4889 21.323 24.4824 17.8152C24.4752 14.2832 21.5544 11.3963 18.0054 11.4133C14.5089 11.4302 11.6027 14.3736 11.6366 17.8636C11.6706 21.3924 14.5598 24.2461 18.0838 24.2316L18.083 24.2308Z" fill="url(#paint1_radial_647_1546)"/>
<path d="M14.1267 54.5081C14.3851 54.085 14.6443 53.5617 14.9988 53.1143C15.2709 52.7711 15.2613 52.5232 15.1232 52.1179C14.7711 51.081 14.3399 50.2889 13.0382 50.2776C12.4132 50.2719 11.9925 49.7067 11.9368 49.0615C11.8762 48.3597 11.8633 47.6427 11.9392 46.9434C12.0296 46.1108 12.5408 45.6586 13.3636 45.5206C13.5582 45.4883 13.7569 45.4398 13.9499 45.4503C14.3859 45.4753 14.5636 45.2549 14.6798 44.8616C14.8131 44.411 14.9883 43.9645 15.2136 43.5527C15.3969 43.2176 15.3347 43.0028 15.1191 42.7169C14.8518 42.3616 14.562 41.9724 14.4594 41.5541C14.1703 40.3743 16.1374 38.2692 17.3317 38.4969C17.8041 38.5873 18.2547 38.9039 18.66 39.1946C18.9419 39.3964 19.1373 39.4231 19.4441 39.2737C19.9553 39.025 20.4874 38.807 21.0293 38.635C21.3918 38.5203 21.5121 38.3144 21.5541 37.9615C21.7302 36.4717 22.2446 36.0348 23.761 36.0461C24.0178 36.0477 24.2738 36.0477 24.5306 36.051C25.8065 36.0671 26.4412 36.6219 26.513 37.8913C26.5413 38.3887 26.706 38.6584 27.1841 38.7521C27.2987 38.7747 27.4198 38.8086 27.5167 38.8716C28.4058 39.4473 29.2262 39.5862 30.1306 38.7981C30.557 38.4266 31.2103 38.5696 31.6681 38.9564C32.1631 39.3746 32.6387 39.8268 33.0595 40.3186C33.7022 41.0704 33.6804 41.8367 32.9577 42.658C32.5709 43.0972 32.4764 43.4751 32.818 43.9483C32.8406 43.9798 32.86 44.0178 32.8673 44.0549C33.0772 45.0772 33.5569 45.7168 34.7358 45.7959C35.4489 45.8436 35.8147 46.5324 35.8583 47.3956C35.8785 47.7888 35.8583 48.1845 35.8478 48.5794C35.8114 49.8746 35.2995 50.4811 34.0123 50.5699C33.4374 50.6095 33.1475 50.8097 33.0522 51.3483C33.049 51.3677 33.0449 51.3887 33.0352 51.4048C32.4659 52.3432 32.2455 53.2072 33.1354 54.1592C33.569 54.6236 33.3986 55.3422 32.9529 55.8461C32.5233 56.3314 32.0654 56.8038 31.564 57.2124C30.8525 57.7922 30.108 57.7607 29.3207 57.0541C28.7983 56.5858 28.4034 56.6342 27.7703 56.8571C26.752 57.2156 26.0431 57.6073 26.0083 58.8533C25.9898 59.5178 25.3752 59.9329 24.6719 59.9741C24.0243 60.012 23.3686 60.0136 22.7218 59.9636C21.8812 59.899 21.3474 59.3095 21.2239 58.3954C21.1948 58.1806 21.1738 57.9634 21.169 57.747C21.1617 57.407 21.0139 57.1946 20.6715 57.1309C20.6328 57.1236 20.5932 57.1131 20.5593 57.0937C19.5814 56.5276 18.66 56.2491 17.6975 57.2156C17.3155 57.6 16.6364 57.5516 16.2068 57.1906C15.5641 56.6512 14.998 56.0141 14.4376 55.385C14.2826 55.2114 14.2648 54.9159 14.1275 54.5105L14.1267 54.5081ZM24.0889 52.1841C26.5001 52.0412 28.3331 50.0458 28.1805 47.7299C28.0271 45.3889 26.0156 43.5212 23.8006 43.6609C21.2723 43.8208 19.5281 45.7604 19.6694 48.2548C19.797 50.5101 21.8303 52.3181 24.0889 52.1841Z" fill="url(#paint2_radial_647_1546)"/>
</g>
<defs>
<radialGradient id="paint0_radial_647_1546" cx="0" cy="0" r="1" gradientUnits="userSpaceOnUse" gradientTransform="translate(45.8824 45.1501) rotate(90) scale(26.7307 26.6871)">
<stop stop-color="#B3F9BA"/>
<stop offset="1" stop-color="#F6FB8C"/>
</radialGradient>
<radialGradient id="paint1_radial_647_1546" cx="0" cy="0" r="1" gradientUnits="userSpaceOnUse" gradientTransform="translate(17.9768 32.4911) rotate(90) scale(32.4916 32.5026)">
<stop stop-color="#B3F9BA"/>
<stop offset="1" stop-color="#F6FB8C"/>
</radialGradient>
<radialGradient id="paint2_radial_647_1546" cx="0" cy="0" r="1" gradientUnits="userSpaceOnUse" gradientTransform="translate(23.8768 57.7026) rotate(90) scale(21.6567 21.6785)">
<stop stop-color="#B3F9BA"/>
<stop offset="1" stop-color="#F6FB8C"/>
</radialGradient>
<clipPath id="clip0_647_1546">
<rect width="60.6428" height="60" fill="white"/>
</clipPath>
</defs>
</svg>
