<?xml version="1.0" encoding="UTF-8"?>
<svg width="64px" height="60px" viewBox="0 0 64 60" version="1.1" xmlns="http://www.w3.org/2000/svg" xmlns:xlink="http://www.w3.org/1999/xlink">
    <title>updates-06</title>
    <g id="new-design" stroke="none" stroke-width="1" fill="none" fill-rule="evenodd">
        <g id="web" transform="translate(-359.000000, -5920.000000)" fill-rule="nonzero">
            <g id="updates-06" transform="translate(359.000000, 5920.000000)">
                <path d="M35.3995488,41.7429936 L63.3862152,26.77752 C63.1051344,26.0523648 62.6544072,25.3954008 62.0606448,24.8681664 L35.5109832,1.2507264 C33.654852,-0.4008312 30.8623392,-0.4174632 28.9845864,1.2091464 L1.70478,24.8631768 C1.33056,25.189164 1.0112256,25.5650472 0.7534296,25.9775208 L28.3608864,41.6498544 C30.5929008,42.652764 33.1409232,42.6876912 35.3995488,41.7429936 Z" id="Path" fill="#25435A"></path>
                <path d="M0,54.503064 C0,57.2340384 2.2137192,59.4477576 4.9446936,59.4477576 L58.7741616,59.4477576 C61.505136,59.4477576 63.7188552,57.2340384 63.7188552,54.503064 L63.7188552,28.5621336 C63.7188552,27.9450864 63.6040944,27.3396816 63.3862152,26.77752 L35.3995488,41.7429936 C33.1409232,42.6876912 30.5929008,42.6544272 28.3608864,41.6498544 L0.7550928,25.9775208 C0.2677752,26.7558984 0,27.6623424 0,28.598724 L0,54.503064 Z" id="Path" fill="#4A687B"></path>
                <path d="M35.3995488,41.7429936 L53.6182416,32.0016312 L53.6182416,11.0752488 C53.6182416,9.0078912 51.941736,7.3313856 49.8743784,7.3313856 L13.84614,7.3313856 C11.7787824,7.3313856 10.1022768,9.0078912 10.1022768,11.0752488 L10.1022768,31.284792 L28.3608864,41.6498544 C30.5929008,42.652764 33.1409232,42.6876912 35.3995488,41.7429936 Z" id="Path" stroke="#E5E5E6" fill="#E7EFF4"></path>
                <path d="M43.3962144,19.1401056 L20.324304,19.1401056 C19.5891696,19.1401056 18.993744,18.54468 18.993744,17.8095456 C18.993744,17.0744112 19.5891696,16.4789856 20.324304,16.4789856 L43.3962144,16.4789856 C44.1313488,16.4789856 44.7267744,17.0744112 44.7267744,17.8095456 C44.7267744,18.54468 44.1296856,19.1401056 43.3962144,19.1401056 Z" id="Path" fill="#4A687B"></path>
                <path d="M43.3962144,26.2253376 L20.324304,26.2253376 C19.5891696,26.2253376 18.993744,25.629912 18.993744,24.8947776 C18.993744,24.1596432 19.5891696,23.5642176 20.324304,23.5642176 L43.3962144,23.5642176 C44.1313488,23.5642176 44.7267744,24.1596432 44.7267744,24.8947776 C44.7267744,25.629912 44.1296856,26.2253376 43.3962144,26.2253376 Z" id="Path" fill="#4A687B"></path>
                <path d="M43.3962144,33.3122328 L20.324304,33.3122328 C19.5891696,33.3122328 18.993744,32.7168072 18.993744,31.9816728 C18.993744,31.2465384 19.5891696,30.6511128 20.324304,30.6511128 L43.3962144,30.6511128 C44.1313488,30.6511128 44.7267744,31.2465384 44.7267744,31.9816728 C44.7267744,32.7168072 44.1296856,33.3122328 43.3962144,33.3122328 Z" id="Path" fill="#4A687B"></path>
            </g>
        </g>
    </g>
</svg>