<?xml version="1.0" encoding="utf-8"?>
<!-- Generator: Adobe Illustrator 23.0.1, SVG Export Plug-In . SVG Version: 6.00 Build 0)  -->
<svg version="1.1" id="Layer_1" xmlns="http://www.w3.org/2000/svg" xmlns:xlink="http://www.w3.org/1999/xlink" x="0px" y="0px"
	 viewBox="0 0 800 228" style="enable-background:new 0 0 800 228;" xml:space="preserve">
<style type="text/css">
	.st0{clip-path:url(#SVGID_2_);fill:url(#SVGID_3_);}
	.st1{clip-path:url(#SVGID_5_);fill:url(#SVGID_6_);}
	.st2{clip-path:url(#SVGID_8_);fill:url(#SVGID_9_);}
	.st3{clip-path:url(#SVGID_11_);fill:url(#SVGID_12_);}
	.st4{clip-path:url(#SVGID_14_);fill:url(#SVGID_15_);}
</style>
<g>
	<defs>
		<path id="SVGID_1_" d="M273.2,48.5v19.8h-24.2v30.3h24.2v113.9h36.3V98.7H351V68.4h-41.5V50.9c0-9.8,8.6-17.9,19-17.9
			c8.7,0,16.7,5.5,16.7,5.5l13.8-25.7c0,0-12.1-12.1-34.3-12.1C297.1,0.7,273.2,19.4,273.2,48.5"/>
	</defs>
	<clipPath id="SVGID_2_">
		<use xlink:href="#SVGID_1_"  style="overflow:visible;"/>
	</clipPath>
	
		<linearGradient id="SVGID_3_" gradientUnits="userSpaceOnUse" x1="-197.027" y1="449.169" x2="-191.7159" y2="449.169" gradientTransform="matrix(188.1 72.9 72.9 -188.1 4254.0918 98816.6406)">
		<stop  offset="0" style="stop-color:#89FDBD"/>
		<stop  offset="0.75" style="stop-color:#FDE739"/>
		<stop  offset="1" style="stop-color:#FDE739"/>
	</linearGradient>
	<polygon class="st0" points="263.3,-36.4 430.5,28.4 344.7,249.7 177.5,184.9 	"/>
</g>
<g>
	<defs>
		<path id="SVGID_4_" d="M468.2,68.4v67.8c0,37.8-20.8,44.4-33.5,44.4c-24.8,0-26.2-24.8-26.2-42.7V68.4h-39.2v0v78.1
			c0,40.4,19.6,67.5,58,67.5c23.7,0,36.3-10.4,42.1-17.6h3.7l5.2,16.1h28.8V68.4h0H468.2z"/>
	</defs>
	<clipPath id="SVGID_5_">
		<use xlink:href="#SVGID_4_"  style="overflow:visible;"/>
	</clipPath>
	
		<linearGradient id="SVGID_6_" gradientUnits="userSpaceOnUse" x1="-197.027" y1="449.2269" x2="-191.7159" y2="449.2269" gradientTransform="matrix(188.1 72.9 72.9 -188.1 4255.7446 98812.375)">
		<stop  offset="0" style="stop-color:#89FDBD"/>
		<stop  offset="0.75" style="stop-color:#FDE739"/>
		<stop  offset="1" style="stop-color:#FDE739"/>
	</linearGradient>
	<polygon class="st1" points="387.3,22 556.2,87.4 489.1,260.5 320.2,195 	"/>
</g>
<g>
	<defs>
		<path id="SVGID_7_" d="M532.7,109.6c0,32.9,36.6,39.8,53.6,43.5c9.8,2.3,19.9,5.5,19.9,16.2c0,6.1-3.5,13.8-18.2,13.8
			c-17.6,0-23.4-11.2-24.2-19.9h-35.5c1.7,30.6,27.4,50.7,60.6,50.7c29.7,0,54.2-16.4,54.2-46.1c0-30.6-26-38.3-51.6-43.8
			c-8.7-1.7-21.6-4.6-21.6-14.4c0-6.1,5.2-12.1,17.3-12.1c14.7,0,19.3,8.4,20.5,13.3h35.5C641.4,86.6,620,67,587.7,67
			C559.8,67,532.7,81.4,532.7,109.6"/>
	</defs>
	<clipPath id="SVGID_8_">
		<use xlink:href="#SVGID_7_"  style="overflow:visible;"/>
	</clipPath>
	
		<linearGradient id="SVGID_9_" gradientUnits="userSpaceOnUse" x1="-197.027" y1="449.451" x2="-191.7159" y2="449.451" gradientTransform="matrix(188.1 72.9 72.9 -188.1 4258.917 98804.1875)">
		<stop  offset="0" style="stop-color:#89FDBD"/>
		<stop  offset="0.75" style="stop-color:#FDE739"/>
		<stop  offset="1" style="stop-color:#FDE739"/>
	</linearGradient>
	<polygon class="st2" points="543.3,28.3 692.7,86.2 628.1,252.7 478.8,194.8 	"/>
</g>
<g>
	<defs>
		<path id="SVGID_10_" d="M731,98.4c14.4,0,26.2,6.9,30.6,23.9h-64.9C702.4,107.3,715.1,98.4,731,98.4 M658,139.3
			c0,45,34,74.7,73,74.7c28.3,0,54.5-15.9,65.5-44.7h-36.3c0,0-8.4,12.1-28,12.1c-15.6,0-33.4-8.1-37.8-30h105.3
			c4.6-58.8-32.9-84.5-69.8-84.5C691.8,67,658,94.6,658,139.3"/>
	</defs>
	<clipPath id="SVGID_11_">
		<use xlink:href="#SVGID_10_"  style="overflow:visible;"/>
	</clipPath>
	
		<linearGradient id="SVGID_12_" gradientUnits="userSpaceOnUse" x1="-197.027" y1="449.6634" x2="-191.7159" y2="449.6634" gradientTransform="matrix(188.1 72.9 72.9 -188.1 4262.4243 98795.1406)">
		<stop  offset="0" style="stop-color:#89FDBD"/>
		<stop  offset="0.75" style="stop-color:#FDE739"/>
		<stop  offset="1" style="stop-color:#FDE739"/>
	</linearGradient>
	<polygon class="st3" points="677.1,17.7 853.8,86.2 785.1,263.3 608.5,194.8 	"/>
</g>
<g>
	<defs>
		<path id="SVGID_13_" d="M77.8,97.9L16.4,70c-1-0.4-1.2-1.2-1.2-1.8c0-0.6,0.2-1.4,1.2-1.8l61.4-27.9c17.2-7.8,37-7.8,54.3,0
			l61.4,27.9c1,0.4,1.2,1.2,1.2,1.8c0,0.6-0.2,1.4-1.2,1.8l-56.2,25.5l56.2,25.5c1,0.4,1.2,1.2,1.2,1.8c0,0.6-0.2,1.4-1.2,1.8
			l-56.2,25.5l56.2,25.5c1,0.4,1.2,1.2,1.2,1.8c0,0.6-0.2,1.4-1.2,1.8l-61.4,27.9c-17.2,7.8-37,7.8-54.3,0l-61.4-27.9
			c-1-0.4-1.2-1.2-1.2-1.8c0-0.6,0.2-1.4,1.2-1.8l37.8-17.2l17.3,7.9c10.6,4.8,22,7.2,33.4,7.2c11.4,0,22.8-2.4,33.4-7.2l5-2.3
			l-19.1-8.7c-15.2,4.7-31.8,3.7-46.5-2.9l-61.4-27.9c-1-0.4-1.2-1.2-1.2-1.8c0-0.6,0.2-1.4,1.2-1.8l37.8-17.2l17.4,7.9
			c10.6,4.8,22,7.2,33.4,7.2c11.4,0,22.8-2.4,33.4-7.2l5-2.3l-19.1-8.7c-6.3,1.9-12.8,2.9-19.3,2.9C95.7,103.8,86.5,101.8,77.8,97.9
			 M71.5,24.6L10.1,52.5C3.9,55.4,0,61.4,0,68.2c0,6.8,3.9,12.8,10.1,15.7l25.7,11.7l-25.7,11.7C3.9,110,0,116,0,122.9
			s3.9,12.8,10.1,15.7l25.7,11.6l-25.7,11.7C3.9,164.7,0,170.7,0,177.5c0,6.8,3.9,12.8,10.1,15.7l61.4,27.9
			c10.6,4.8,22,7.2,33.4,7.2c11.4,0,22.8-2.4,33.4-7.2l61.4-27.9c6.2-2.8,10.1-8.8,10.1-15.7c0-6.8-3.9-12.8-10.1-15.7l-25.7-11.7
			l25.7-11.6c6.2-2.8,10.1-8.8,10.1-15.7s-3.9-12.8-10.1-15.7l-25.7-11.7l25.7-11.7c6.2-2.8,10.1-8.8,10.1-15.7
			c0-6.9-3.9-12.8-10.1-15.7l-61.4-27.9c-10.6-4.8-22-7.2-33.4-7.2C93.6,17.4,82.2,19.8,71.5,24.6"/>
	</defs>
	<clipPath id="SVGID_14_">
		<use xlink:href="#SVGID_13_"  style="overflow:visible;"/>
	</clipPath>
	
		<linearGradient id="SVGID_15_" gradientUnits="userSpaceOnUse" x1="-197.027" y1="448.8188" x2="-191.7159" y2="448.8188" gradientTransform="matrix(188.1 72.9 72.9 -188.1 4248.1592 98831.9453)">
		<stop  offset="0" style="stop-color:#89FDBD"/>
		<stop  offset="0.75" style="stop-color:#FDE739"/>
		<stop  offset="1" style="stop-color:#FDE739"/>
	</linearGradient>
	<polygon class="st4" points="27.4,-53.3 281,45 182.5,299.1 -71.1,200.8 	"/>
</g>
</svg>
