<?xml version="1.0" encoding="UTF-8"?>
<svg width="127px" height="37px" viewBox="0 0 127 37" version="1.1" 
    xmlns="http://www.w3.org/2000/svg" 
    xmlns:xlink="http://www.w3.org/1999/xlink">
    <!-- Generator: Sketch 57.1 (83088) - https://sketch.com -->
    <title>Group 11 Copy</title>
    <desc>Created with Sketch.</desc>
    <g id="fuse-web" stroke="none" stroke-width="1" fill="none" fill-rule="evenodd">
        <g id="Artboard-Copy-24" transform="translate(-27.000000, -21.000000)" fill="#052235">
            <g id="Group-11-Copy" transform="translate(27.000000, 21.000000)">
                <path d="M52.494624,5.255964 C50.856984,5.255964 49.491864,6.530004 49.491864,8.077284 L49.491864,10.844244 L56.043144,10.844244 L56.043144,15.621804 L49.491864,15.621804 L49.491864,33.594444 L43.758504,33.594444 L43.758504,15.621804 L39.937464,15.621804 L39.937464,10.844244 L43.758504,10.844244 L43.758504,7.712604 C43.758504,3.117564 47.535624,0.159804 51.902784,0.159804 C55.406304,0.159804 57.317184,2.070684 57.317184,2.070684 L55.133784,6.119964 C55.133784,6.119964 53.859744,5.255964 52.494624,5.255964" id="Fill-1"></path>
                <path d="M80.675856,10.844748 L80.675856,33.593508 L76.125816,33.593508 L75.307176,31.045788 L74.715336,31.045788 C73.805976,32.183388 71.803656,33.821028 68.072616,33.821028 C62.021016,33.821028 58.927176,29.544228 58.927176,23.174748 L58.927176,10.844748 L65.115216,10.844748 L65.115216,21.809988 C65.115216,24.630588 65.342376,28.543788 69.255576,28.543788 C71.257536,28.543788 74.533896,27.497268 74.533896,21.536388 L74.533896,10.844748 L80.675856,10.844748 Z" id="Fill-3"></path>
                <path d="M93.302568,15.44004 C91.391328,15.44004 90.573048,16.39548 90.573048,17.35164 C90.573048,18.89784 92.620368,19.35252 93.985128,19.62576 C98.034768,20.49012 102.130128,21.71916 102.130128,26.54172 C102.130128,31.2282 98.261568,33.822 93.575808,33.822 C88.343928,33.822 84.294288,30.63636 84.020688,25.8138 L89.617968,25.8138 C89.754048,27.17892 90.663408,28.953 93.438648,28.953 C95.759568,28.953 96.305328,27.72468 96.305328,26.76924 C96.305328,25.08552 94.712688,24.58548 93.166128,24.22152 C90.481968,23.62968 84.702888,22.53744 84.702888,17.35164 C84.702888,12.89196 88.979688,10.61712 93.393648,10.61712 C98.489808,10.61712 101.856168,13.7106 102.130128,17.53272 L96.533928,17.53272 C96.351768,16.75944 95.623128,15.44004 93.302568,15.44004" id="Fill-5"></path>
                <path d="M126.825804,23.948208 L110.219004,23.948208 C110.901564,27.405648 113.723244,28.680048 116.179164,28.680048 C119.273364,28.680048 120.593124,26.769528 120.593124,26.769528 L126.325764,26.769528 C124.596684,31.318848 120.455964,33.821928 115.996644,33.821928 C109.854684,33.821928 104.485284,29.135448 104.485284,22.036608 C104.485284,14.984928 109.809324,10.617048 115.815204,10.617048 C121.639644,10.617048 127.553724,14.666328 126.825804,23.948208 M110.582604,19.352448 L120.819924,19.352448 C120.138084,16.667928 118.272204,15.576768 115.996644,15.576768 C113.495004,15.576768 111.493044,16.986888 110.582604,19.352448" id="Fill-7"></path>
                <path d="M9.208296,25.4673 L11.795256,26.64162 C13.511376,27.42066 15.336576,27.81522 17.220096,27.81522 C19.104696,27.81522 20.930256,27.42066 22.645656,26.64162 L24.153336,25.95726 L20.292696,24.20622 L20.162376,24.24618 C17.822736,24.96546 15.309576,24.8067 13.085856,23.79726 L3.487536,19.43946 L9.208296,16.84314 L11.797776,18.01962 C13.514256,18.79794 15.338736,19.1925 17.220096,19.1925 C19.101816,19.1925 20.926296,18.79794 22.643136,18.01926 L24.150096,17.33454 L20.289096,15.58314 L20.158776,15.6231 C17.821296,16.34166 15.310656,16.1829 13.089456,15.17526 L3.487896,10.81602 L13.088736,6.45714 C15.714936,5.26554 18.727056,5.2659 21.352176,6.45714 L30.953016,10.81602 L21.461616,15.12522 L30.953376,19.43946 L21.465216,23.74758 L30.953376,28.06362 L21.352896,32.42214 C18.726696,33.61482 15.714216,33.61482 13.088016,32.42214 L3.487536,28.06362 L9.208296,25.4673 Z M34.143696,19.44018 C34.143696,18.2169 33.452136,17.1441 32.339376,16.63902 L29.010456,15.12738 L32.338296,13.61718 C33.451776,13.11246 34.143696,12.03858 34.143696,10.81602 C34.143696,9.59346 33.452136,8.5203 32.339016,8.01486 L22.643856,3.61386 C19.197216,2.04894 15.243696,2.04894 11.797056,3.61386 L2.101536,8.01486 C0.988416,8.5203 0.297216,9.59346 0.297216,10.81602 C0.297216,12.03822 0.988776,13.1121 2.102256,13.61718 L5.429736,15.12738 L2.101896,16.63902 C0.988776,17.1441 0.297216,18.2169 0.297216,19.44018 C0.297216,20.66202 0.988776,21.73554 2.102256,22.24098 L5.429736,23.75154 L2.101536,25.26282 C0.988416,25.76826 0.297216,26.84106 0.297216,28.06362 C0.297216,29.28618 0.988776,30.3597 2.102256,30.86514 L11.797056,35.2665 C13.512096,36.04518 15.336576,36.43974 17.220096,36.43974 C19.103976,36.43974 20.928816,36.04518 22.643856,35.2665 L32.338296,30.86514 C33.451776,30.36042 34.143696,29.28654 34.143696,28.06362 C34.143696,26.84106 33.452136,25.76826 32.339016,25.26282 L29.010456,23.75154 L32.338296,22.24098 C33.451776,21.73626 34.143696,20.66274 34.143696,19.44018 L34.143696,19.44018 Z" id="Fill-9"></path>
            </g>
        </g>
    </g>
</svg>