<svg width="132" height="22" viewBox="0 0 132 22" fill="none" xmlns="http://www.w3.org/2000/svg">
<g clip-path="url(#clip0)">
<path d="M29.6063 12.1028C30.4512 13.2208 31.7923 13.5661 32.8853 13.5661C34.1237 13.5661 34.9997 13.1998 34.9997 12.6122C34.9997 11.9216 34.3911 11.8605 32.3078 11.6373C30.4939 11.4351 29.1005 11.0993 29.1005 9.6589C29.1005 8.28717 30.4725 7.33325 32.5772 7.33325C34.2264 7.33325 35.7109 7.9056 36.3814 8.78511L35.3717 9.73903C34.8039 9.01787 33.7516 8.59433 32.4939 8.59433C31.1741 8.59433 30.5753 9.01024 30.5753 9.49864C30.5753 10.0271 31.0714 10.1473 32.9473 10.361C35.052 10.6033 36.5307 10.8761 36.5307 12.4501C36.5307 14.024 34.9183 14.8463 32.8233 14.8463C31.0598 14.8463 29.3078 14.1766 28.585 13.1502L29.6063 12.1028Z" fill="#374248"/>
<path d="M39.6434 14.7356H38.126V7.44385H42.7577C44.4496 7.44385 45.562 8.23751 45.562 9.75042C45.562 11.2633 44.4496 12.0551 42.7577 12.0551H39.6434V14.7356ZM42.6744 10.7845C43.5523 10.7845 44.0678 10.4029 44.0678 9.75042C44.0678 9.09794 43.5523 8.71446 42.6744 8.71446H39.6434V10.7845H42.6744Z" fill="#374248"/>
<path d="M50.7925 7.44385L54.527 14.7356H52.8874L52.0347 13.0395H47.8429L46.9766 14.7356H45.3584L49.0909 7.44385H50.7925ZM48.4824 11.7708H51.3894L49.9456 8.90906L48.4824 11.7708Z" fill="#374248"/>
<path d="M57.1463 14.7356H55.6289V7.44385H60.28C61.9603 7.44385 63.0959 8.23751 63.0959 9.73325C63.0959 10.8512 62.4351 11.5915 61.3827 11.8757L63.2703 14.7375H61.5262L59.782 12.0265H57.1463V14.7356ZM60.1986 10.7673C61.0862 10.7673 61.592 10.3857 61.592 9.74279C61.592 9.09985 61.0862 8.70683 60.1986 8.70683H57.1463V10.7673H60.1986Z" fill="#374248"/>
<path d="M66.244 10.9371L70.401 7.44385H72.5327L68.7517 10.5307L72.7711 14.7356H70.7731L67.6374 11.4446L66.244 12.5893V14.7356H64.7285V7.44385H66.244V10.9371Z" fill="#374248"/>
<path d="M81.0361 7.33325C82.9741 7.33325 84.3985 8.19559 84.9644 9.62265L83.6543 10.2713C83.2318 9.24681 82.3462 8.6363 81.0458 8.6363C79.4257 8.6363 78.2086 9.6112 78.2086 11.084C78.2086 12.5569 79.4257 13.5318 81.0458 13.5318C82.3462 13.5318 83.2318 12.9213 83.6543 11.8968L84.9644 12.5454C84.3985 13.9782 82.9741 14.8348 81.0361 14.8348C78.5284 14.8348 76.6621 13.2418 76.6621 11.0783C76.6621 8.91484 78.5284 7.33325 81.0361 7.33325Z" fill="#374248"/>
<path d="M90.8852 7.44385L94.6197 14.7356H92.9802L92.1236 13.0395H87.9357L87.0694 14.7356H85.4512L89.1837 7.44385H90.8852ZM88.5752 11.7708H91.4821L90.0384 8.90906L88.5752 11.7708Z" fill="#374248"/>
<path d="M97.2401 14.7356H95.7246V7.44385H100.354C102.046 7.44385 103.161 8.23751 103.161 9.75042C103.161 11.2633 102.046 12.0551 100.354 12.0551H97.2401V14.7356ZM100.273 10.7845C101.149 10.7845 101.664 10.4029 101.664 9.75042C101.664 9.09794 101.149 8.71446 100.273 8.71446H97.2401V10.7845H100.273Z" fill="#374248"/>
<path d="M106.016 14.7356H104.501V7.44385H106.016V14.7356Z" fill="#374248"/>
<path d="M112.154 8.73354V14.7356H110.627V8.73354H107.357V7.44385H115.423V8.73354H112.154Z" fill="#374248"/>
<path d="M120.416 7.44385L124.15 14.7356H122.51L121.654 13.0395H117.466L116.6 14.7356H114.981L118.714 7.44385H120.416ZM118.105 11.7708H121.012L119.569 8.90906L118.105 11.7708Z" fill="#374248"/>
<path d="M125.255 7.44385H126.77V13.4383H131.98V14.7356H125.255V7.44385Z" fill="#374248"/>
</g>
<g clip-path="url(#clip1)">
<path d="M14.2693 21.8629C16.7317 21.164 18.8752 19.6531 20.3406 17.5834C21.806 15.5137 22.5041 13.0111 22.3181 10.4949C22.132 7.97869 21.0731 5.60194 19.3187 3.76297C17.5643 1.92401 15.2211 0.734606 12.6818 0.394118C10.1426 0.0536311 7.5616 0.582754 5.37151 1.8928C3.18141 3.20285 1.5153 5.2142 0.652432 7.58973C-0.210438 9.96526 -0.217623 12.5606 0.632082 14.9407C1.48179 17.3208 3.13674 19.3411 5.31955 20.6629L7.91619 15.24H10.6084L12.4197 13.28L8.3824 10.7463L7.8818 11.6097L10.916 13.4907L10.1689 14.2882H5.82015V10.2084L9.9358 7.09721L12.4293 7.92484L14.7126 5.78428L16.5583 7.85337L13.0483 14.687L14.2693 21.8629ZM0.970789 11.2674C0.971287 9.44636 1.47473 7.65977 2.42724 6.09876C3.37975 4.53775 4.74548 3.26108 6.37829 2.40537C8.0111 1.54965 9.84952 1.14709 11.6968 1.24078C13.5442 1.33446 15.3308 1.92085 16.8657 2.93721C18.4005 3.95357 19.6258 5.36163 20.4103 7.01073C21.1948 8.65983 21.5091 10.4879 21.3195 12.2993C21.13 14.1107 20.4436 15.8373 19.334 17.2942C18.2244 18.7512 16.7333 19.8838 15.0202 20.5707L14.0495 14.8412L17.7104 7.69348L14.7699 4.398L12.2286 6.76992L9.68741 5.98743L4.84951 9.71554V15.24H6.82136L4.91066 19.2145C3.67807 18.2767 2.68149 17.072 1.99824 15.6938C1.31498 14.3155 0.963408 12.8009 0.970789 11.2674Z" fill="#374248"/>
</g>
<defs>
<clipPath id="clip0">
<rect width="103.693" height="7.62667" fill="white" transform="translate(28.3076 7.33325)"/>
</clipPath>
<clipPath id="clip1">
<rect width="22.3478" height="22" fill="white"/>
</clipPath>
</defs>
</svg>
