<svg width="67" height="60" viewBox="0 0 67 60" fill="none" xmlns="http://www.w3.org/2000/svg">
<g clip-path="url(#clip0_89_385)">
<path d="M0 58.7038C0 46.7719 0 34.8399 0 22.9093C0.180586 22.9693 0.372949 23.0071 0.539141 23.0932C11.1008 28.5714 21.6638 34.0458 32.2123 39.5488C33.1205 40.0222 33.8834 40.0248 34.789 39.554C45.3192 34.064 55.8639 28.6001 66.4072 23.1336C66.593 23.0371 66.8024 22.9836 67 22.9093V58.7038C66.6074 59.687 65.8589 60 64.829 60C43.9439 59.9856 23.0587 59.9856 2.17227 60C1.1424 60 0.392578 59.687 0 58.7038H0Z" fill="#011833"/>
<path d="M33.5365 0C40.6016 0 47.6654 0 54.7305 0C56.3898 0 56.9394 0.537263 56.9394 2.16079C56.9394 9.31734 56.9354 16.4752 56.9498 23.6317C56.9498 24.1025 56.8242 24.3555 56.3884 24.5811C48.9491 28.4241 41.5176 32.2827 34.0913 36.1518C33.6909 36.3604 33.3808 36.3969 32.9568 36.1753C25.5135 32.2931 18.061 28.4267 10.606 24.568C10.2186 24.3672 10.0446 24.1547 10.0459 23.6878C10.0642 16.4661 10.0577 9.24301 10.059 2.02126C10.0603 0.606377 10.6675 0 12.0821 0C19.2335 0 26.385 0 33.5365 0ZM33.4331 6.6545C28.6135 6.6545 23.7927 6.6545 18.9731 6.6545C18.7337 6.6545 18.4903 6.64406 18.2547 6.67666C17.3845 6.79272 16.7695 7.46561 16.7538 8.29628C16.7367 9.15433 17.357 9.85851 18.2547 9.9824C18.4693 10.0124 18.6905 10.0046 18.9077 10.0046C28.6345 10.0046 38.3613 10.0046 48.0893 10.0046C48.3288 10.0046 48.5722 10.0111 48.8065 9.97196C49.6727 9.82722 50.2603 9.13216 50.2446 8.29758C50.2289 7.48647 49.6492 6.82533 48.8078 6.6884C48.5513 6.64667 48.2856 6.6558 48.0252 6.6558C43.1612 6.6545 38.2984 6.6558 33.4344 6.6558L33.4331 6.6545ZM33.4331 16.6604C38.4267 16.6604 43.4216 16.6643 48.4152 16.6578C49.4882 16.6565 50.2237 15.9849 50.2446 15.029C50.2655 14.0784 49.551 13.3859 48.4819 13.3246C48.3511 13.3168 48.2202 13.3207 48.0893 13.3207C38.3626 13.3207 28.6358 13.3207 18.9103 13.3233C18.629 13.3233 18.3411 13.3351 18.0663 13.3898C17.357 13.5307 16.8323 14.1266 16.7603 14.8334C16.687 15.5663 17.1071 16.2835 17.819 16.5234C18.1396 16.6317 18.502 16.6551 18.8449 16.6551C23.7076 16.663 28.5717 16.6604 33.4344 16.6604H33.4331ZM33.471 23.3149C36.0856 23.3149 38.6989 23.3149 41.3134 23.3149C42.7712 23.3149 43.5655 22.7202 43.5498 21.6379C43.5354 20.5816 42.7529 20.0013 41.3357 20.0013C36.1079 20.0013 30.8787 20.0013 25.6509 20.0013C25.4114 20.0013 25.1706 20 24.9325 20.0248C24.2337 20.0991 23.7717 20.4877 23.5467 21.1384C23.1606 22.2586 23.9615 23.3018 25.2348 23.3083C27.9802 23.3227 30.7243 23.3123 33.4697 23.3136L33.471 23.3149Z" fill="url(#paint0_linear_89_385)"/>
<path d="M60.3467 22.509V16.6917C62.0609 17.7479 63.715 18.769 65.4685 19.85C63.7294 20.7524 62.0727 21.6131 60.3467 22.5103V22.509Z" fill="#011833"/>
<path d="M1.53613 19.8526C3.27395 18.7807 4.91361 17.7675 6.6318 16.7073V22.4855C4.94633 21.6144 3.28703 20.7576 1.53613 19.8526Z" fill="#011833"/>
</g>
<defs>
<linearGradient id="paint0_linear_89_385" x1="33.4979" y1="0" x2="33.4979" y2="65.6781" gradientUnits="userSpaceOnUse">
<stop stop-color="#B3F9BA"/>
<stop offset="1" stop-color="#F6FB8C"/>
</linearGradient>
<clipPath id="clip0_89_385">
<rect width="67" height="60" fill="white"/>
</clipPath>
</defs>
</svg>
