<svg width="24" height="45" viewBox="0 0 24 45" fill="none" xmlns="http://www.w3.org/2000/svg">
<path d="M1.16772 -0.000167898C1.35476 0.134819 1.67027 0.308838 1.92073 0.552792C6.07283 4.57803 10.2184 8.6114 14.364 12.6432C17.376 15.5706 20.388 18.498 23.4001 21.4271C24.197 22.2029 24.2002 22.6323 23.4082 23.4015C16.2652 30.3445 9.12063 37.289 1.97603 44.2336C1.83128 44.3751 1.69141 44.5296 1.52553 44.6418C0.948168 45.037 0.206548 44.7475 0.0504171 44.0628C0.00487904 43.8676 -5.06818e-08 43.6611 -5.95681e-08 43.4578C-6.72439e-07 29.4369 -1.28531e-06 15.4161 0.00162446 1.39525C0.00162445 1.17406 0.00487716 0.943119 0.0601734 0.731693C0.183777 0.260048 0.528565 0.046997 1.1661 -0.000167898L1.16772 -0.000167898Z" fill="white"/>
</svg>
