<?xml version="1.0" encoding="UTF-8"?>
<svg width="32px" height="32px" viewBox="0 0 32 32" version="1.1" xmlns="http://www.w3.org/2000/svg" xmlns:xlink="http://www.w3.org/1999/xlink">
    <title>Group 20</title>
    <g id="new-web-design--hover" stroke="none" stroke-width="1" fill="none" fill-rule="evenodd">
        <g id="Group-20">
            <rect id="Rectangle" fill="#FFFFFF" x="7" y="7" width="19" height="20"></rect>
            <path d="M16,0 C24.836556,0 32,7.163444 32,16 C32,24.836556 24.836556,32 16,32 C7.163444,32 0,24.836556 0,16 C0,7.163444 7.163444,0 16,0 Z M24.8882031,8.66796875 L13.8132812,19.75625 L16.7924219,25.7145313 C16.8658984,25.8598146 17.0178614,25.955 17.1798437,25.955 L17.1932031,25.955 C17.3601953,25.9499901 17.5004687,25.8531349 17.5672656,25.7011719 L24.8882031,8.66796875 Z M24.2870312,8.06679687 L7.25382812,15.3877344 C7.10186513,15.4528614 7.00500987,15.6081641 7,15.7751562 C6.99499013,15.9421484 7.09184581,16.0874317 7.24046875,16.1625781 L13.19875,19.1417187 L24.2870312,8.06679687 Z" id="Combined-Shape-Copy-3" fill="#05283E"></path>
        </g>
    </g>
</svg>