<svg width="48" height="48" viewBox="0 0 48 48" fill="none"
  xmlns="http://www.w3.org/2000/svg">
  <circle cx="24" cy="24" r="24" fill="#E7EFF4"/>
  <path d="M29.6614 19.6695C29.6614 19.6695 29.6603 19.6696 29.6584 19.6695C29.6604 19.6694 29.6614 19.6694 29.6614 19.6695ZM28.9534 18.8873L19.67 24.7531L15.7916 23.5234L15.7844 23.5211L15.7771 23.519C15.6731 23.4894 15.601 23.4579 15.5532 23.4314C15.5546 23.4302 15.556 23.4289 15.5575 23.4276C15.6392 23.355 15.7865 23.2613 16.0242 23.165L31.9904 17.0065L32.0036 17.0014L32.0164 16.9956C32.2398 16.8946 32.3637 16.9539 32.4146 17.0036C32.4735 17.0613 32.5903 17.259 32.4754 17.7187L32.4732 17.7274L32.4714 17.7361L29.7514 30.5461L29.751 30.5478C29.6701 30.9355 29.5422 31.0282 29.4977 31.0484C29.4527 31.0688 29.3116 31.0979 29.0097 30.9372L24.8977 27.8979L24.5567 27.6459L24.2524 27.941L22.338 29.7977L22.546 26.6555L30.0752 19.8714L30.0752 19.8714L30.0773 19.8694C30.1917 19.7651 30.3542 19.5804 30.3655 19.3234C30.3718 19.1786 30.3272 19.0361 30.2346 18.9202C30.1477 18.8116 30.0389 18.751 29.9484 18.7179C29.774 18.6541 29.5906 18.6624 29.4424 18.6917C29.2844 18.7229 29.1206 18.7868 28.9632 18.8812L28.9632 18.8811L28.9534 18.8873Z" fill="#4A687B" stroke="#4A687B"/>
</svg>
