<?xml version="1.0" encoding="UTF-8"?>
<svg width="32px" height="32px" viewBox="0 0 32 32" version="1.1" xmlns="http://www.w3.org/2000/svg" xmlns:xlink="http://www.w3.org/1999/xlink">
    <title>Combined Shape</title>
    <g id="Page-1" stroke="none" stroke-width="1" fill="none" fill-rule="evenodd">
        <g id="local-champions" transform="translate(-1561.000000, -4976.000000)" fill="#FFFFFF">
            <path d="M1577,4976 C1585.83656,4976 1593,4983.16344 1593,4992 C1593,5000.83656 1585.83656,5008 1577,5008 C1568.16344,5008 1561,5000.83656 1561,4992 C1561,4983.16344 1568.16344,4976 1577,4976 Z M1585.8882,4984.66797 L1574.81328,4995.75625 L1577.79242,5001.71453 C1577.8659,5001.85981 1578.01786,5001.955 1578.17984,5001.955 L1578.1932,5001.955 C1578.3602,5001.94999 1578.50047,5001.85313 1578.56727,5001.70117 L1585.8882,4984.66797 Z M1585.28703,4984.0668 L1568.25383,4991.38773 C1568.10187,4991.45286 1568.00501,4991.60816 1568,4991.77516 C1567.99499,4991.94215 1568.09185,4992.08743 1568.24047,4992.16258 L1574.19875,4995.14172 L1585.28703,4984.0668 Z" id="Combined-Shape"></path>
        </g>
    </g>
</svg>