<?xml version="1.0" encoding="UTF-8"?>
<svg width="32px" height="32px" viewBox="0 0 32 32" version="1.1" xmlns="http://www.w3.org/2000/svg" xmlns:xlink="http://www.w3.org/1999/xlink">
    <title>Combined Shape</title>
    <g id="new-new-new" stroke="none" stroke-width="1" fill="none" fill-rule="evenodd">
        <g id="roots--graet-britain" transform="translate(-1701.000000, -53.000000)" fill="#05283E">
            <path d="M1717,53 C1725.83656,53 1733,60.163444 1733,69 C1733,77.836556 1725.83656,85 1717,85 C1708.16344,85 1701,77.836556 1701,69 C1701,60.163444 1708.16344,53 1717,53 Z M1725.8882,61.6679688 L1714.81328,72.75625 L1717.79242,78.7145312 C1717.8659,78.8598146 1718.01786,78.955 1718.17984,78.955 L1718.1932,78.955 C1718.3602,78.9499901 1718.50047,78.8531349 1718.56727,78.7011719 L1725.8882,61.6679688 Z M1725.28703,61.0667969 L1708.25383,68.3877344 C1708.10187,68.4528614 1708.00501,68.6081641 1708,68.7751562 C1707.99499,68.9421484 1708.09185,69.0874317 1708.24047,69.1625781 L1714.19875,72.1417187 L1725.28703,61.0667969 Z" id="Combined-Shape"></path>
        </g>
    </g>
</svg>