<svg width="240" height="80" viewBox="0 0 240 80" fill="none" xmlns="http://www.w3.org/2000/svg">
<g clip-path="url(#clip0_78_435)">
<path d="M127.959 36.939C127.959 36.839 127.926 36.7833 127.825 36.7833H125.79C125.69 36.7833 125.646 36.8278 125.646 36.9279V37.6508C125.034 37.0836 124.678 36.8501 124.145 36.7166C122.81 36.383 121.631 36.6944 120.63 37.6063C119.374 38.7739 118.996 40.2419 119.352 41.8877C119.774 43.8116 121.509 45.2795 123.611 45.0571C124.3 44.9792 124.923 44.7235 125.423 44.2342C125.479 44.1786 125.512 44.0896 125.635 44.1118C125.624 44.5789 125.668 45.0348 125.579 45.5019C125.412 46.2915 124.834 46.8364 124.011 46.9254C123.155 47.0254 122.343 46.7808 121.965 45.9801C121.854 45.7466 121.731 45.6798 121.498 45.691C121.064 45.7132 120.63 45.691 120.197 45.7021C119.997 45.7021 119.807 45.6687 119.607 45.7243C119.585 45.88 119.607 46.0135 119.641 46.1469C119.941 47.3591 120.73 48.1375 121.876 48.5601C122.988 48.9715 124.122 48.9827 125.245 48.6379C126.591 48.2376 127.436 47.3479 127.781 45.9912C127.892 45.5575 127.937 45.1238 127.937 44.6679V37.1281C127.959 37.0725 127.959 37.0058 127.959 36.939ZM123.711 42.9998C122.376 42.9887 121.565 41.9767 121.565 40.8424C121.576 39.6191 122.476 38.7072 123.677 38.6961C124.901 38.685 125.813 39.608 125.813 40.8535C125.824 42.0656 124.912 43.0109 123.711 42.9998Z" fill="#32343F"/>
<path d="M155.226 37.6398C153.792 36.2497 151.568 36.2386 150.311 37.5842C150.289 37.6064 150.267 37.6064 150.222 37.573C150.222 37.4062 150.211 37.2061 150.222 37.017C150.233 36.828 150.155 36.7835 149.977 36.7835C149.421 36.7946 148.854 36.7835 148.298 36.7835C147.853 36.7835 147.909 36.739 147.909 37.1727V48.4712C147.92 48.7048 147.92 48.7159 148.165 48.7159H149.955C150.211 48.7159 150.222 48.7159 150.222 48.4379V44.2899C150.6 44.7014 150.978 44.9683 151.423 45.1462C152.78 45.68 154.381 45.2908 155.427 44.1453C156.083 43.4336 156.461 42.5884 156.583 41.6432C156.75 40.0974 156.361 38.7296 155.226 37.6398V37.6398ZM154.148 41.81C153.87 42.6996 153.113 43.2557 152.179 43.2557C151.112 43.2557 150.278 42.5662 150.089 41.4986C150.011 41.0649 150.022 40.6423 150.155 40.2198C150.444 39.2523 151.267 38.6517 152.246 38.6962C153.247 38.7407 154.025 39.4302 154.225 40.4199C154.303 40.8981 154.292 41.3541 154.148 41.81V41.81Z" fill="#32343F"/>
<path d="M129.605 26.1297C130.483 25.1177 131.551 24.8842 132.718 25.0955C134.053 25.3401 134.798 26.2187 135.12 27.4975C135.22 27.8979 135.265 28.2982 135.265 28.7097V33.4026C135.287 33.5694 135.22 33.6472 135.054 33.625H133.274C132.963 33.625 132.963 33.6472 132.963 33.3247V29.1434C132.963 28.8876 132.941 28.6318 132.885 28.3761C132.674 27.3085 131.717 26.8303 130.717 27.2751C130.316 27.453 130.038 27.7644 129.86 28.1648C129.66 28.6096 129.605 29.0878 129.605 29.566V33.3247C129.605 33.5175 129.512 33.6139 129.327 33.6139H127.536C127.38 33.6065 127.299 33.5175 127.291 33.347V21.3812C127.291 21.3256 127.303 21.2589 127.291 21.2033C127.269 21.0142 127.358 20.9697 127.536 20.9697C128.137 20.9808 128.726 20.9697 129.327 20.9697C129.605 20.9697 129.616 20.9697 129.616 21.2589V25.6737C129.605 25.8183 129.605 25.9295 129.605 26.1297Z" fill="#32343F"/>
<path d="M160.976 37.6175C162.01 36.5388 163.244 36.3498 164.568 36.8057C165.702 37.1949 166.258 38.1068 166.503 39.2411C166.58 39.597 166.592 39.964 166.592 40.3198V45.0238C166.592 45.135 166.558 45.2018 166.436 45.2018H164.434C164.334 45.2018 164.278 45.1573 164.278 45.0572V40.7424C164.278 40.4644 164.267 40.1864 164.201 39.9083C164.067 39.3634 163.8 38.9186 163.233 38.7629C162.633 38.5961 162.065 38.7296 161.61 39.1633C161.165 39.5747 161.009 40.1308 160.965 40.709C160.942 40.9648 160.953 41.2206 160.953 41.4764V44.8793C160.953 45.0868 160.853 45.1906 160.653 45.1906H158.896C158.726 45.1906 158.637 45.098 158.629 44.9126V32.9468C158.629 32.4909 158.585 32.5576 159.018 32.5576H160.598C160.976 32.5576 160.942 32.5354 160.942 32.8912V37.2394C160.953 37.3617 160.931 37.4841 160.976 37.6175V37.6175Z" fill="#32343F"/>
<path d="M145.151 36.7723C144.506 36.7723 143.861 36.7834 143.216 36.7723C143.049 36.7723 143.016 36.839 143.027 36.9836C143.038 37.1838 143.027 37.3728 143.027 37.6397C142.938 37.573 142.916 37.5508 142.882 37.5285C142.237 36.8502 141.426 36.561 140.514 36.5944C139.335 36.6277 138.367 37.1393 137.645 38.0623C136.699 39.2633 136.444 40.6312 136.777 42.0991C137.055 43.3446 137.734 44.3232 138.868 44.946C140.158 45.6577 141.926 45.502 142.905 44.4122C142.927 44.3899 142.96 44.3677 143.016 44.4233C143.016 44.5901 143.027 44.7903 143.016 44.9904C143.005 45.1573 143.083 45.2129 143.249 45.2017C143.805 45.1906 144.373 45.2017 144.929 45.2017C145.351 45.2017 145.329 45.2685 145.329 44.8125V36.9614C145.351 36.8168 145.284 36.7723 145.151 36.7723V36.7723ZM143.105 41.7655C142.816 42.7218 142.037 43.2779 141.025 43.2556C140.069 43.2334 139.302 42.6106 139.068 41.6543C138.946 41.1538 138.957 40.6645 139.112 40.1641C139.413 39.23 140.213 38.6517 141.181 38.6962C142.148 38.7295 142.905 39.3523 143.138 40.3087C143.194 40.52 143.227 40.7424 143.216 40.9648C143.227 41.2428 143.183 41.5097 143.105 41.7655Z" fill="#32343F"/>
<path d="M145.863 28.3982C145.496 26.8414 144.584 25.7515 143.038 25.24C142.371 25.0176 141.692 24.962 140.992 25.0621C139.357 25.2845 138.167 26.1185 137.511 27.642C137.155 28.4761 137.077 29.3546 137.244 30.2554C137.5 31.6566 138.212 32.7464 139.524 33.3469C141.17 34.1031 142.793 33.9808 144.328 33.0022C144.984 32.5796 145.462 31.9902 145.763 31.2785C145.807 31.1673 145.885 31.0561 145.863 30.8893H143.627C143.516 30.8893 143.461 30.956 143.416 31.0338C143.283 31.2451 143.094 31.4008 142.882 31.5231C142.415 31.7789 141.915 31.8567 141.392 31.8011C140.313 31.6899 139.602 31.0338 139.479 30.0107C139.624 29.9551 139.757 29.9774 139.88 29.9774H145.774C146.018 29.9774 146.018 29.9662 146.029 29.7327C146.018 29.2768 145.963 28.8319 145.863 28.3982V28.3982ZM139.568 28.4205C139.68 27.5197 140.558 26.8747 141.592 26.897C142.526 26.9192 143.349 27.6087 143.416 28.4205H139.568Z" fill="#32343F"/>
<path d="M125.312 31.5568V33.3917C125.312 33.5585 125.201 33.5807 125.09 33.603C124.7 33.7031 124.3 33.7253 123.911 33.7253C123.344 33.7253 122.788 33.6586 122.276 33.4139C121.375 33.0025 120.864 32.3019 120.686 31.3344C120.641 31.0786 120.63 30.8228 120.63 30.567V27.52C120.63 27.242 120.63 27.2309 120.341 27.2309C119.941 27.2309 119.551 27.2197 119.151 27.2309C118.984 27.2309 118.929 27.1864 118.929 27.0085C118.94 26.4747 118.94 25.9298 118.929 25.396C118.929 25.2403 118.984 25.1958 119.129 25.1958C119.551 25.2069 119.974 25.1847 120.386 25.2069C120.575 25.2069 120.63 25.1513 120.63 24.9734C120.619 24.3617 120.63 23.7612 120.63 23.1496C120.63 22.8827 120.63 22.8716 120.897 22.8716H122.721C122.888 22.8716 122.943 22.9161 122.943 23.094C122.932 23.6834 122.943 24.2617 122.943 24.8511C122.943 25.2514 122.91 25.218 123.332 25.218H125.09C125.256 25.218 125.345 25.2514 125.334 25.4516C125.323 25.9742 125.323 26.508 125.334 27.0307C125.334 27.2309 125.256 27.2642 125.09 27.2531C124.467 27.242 123.855 27.2531 123.232 27.2531C122.965 27.2531 122.954 27.2531 122.954 27.52V30.1778C122.954 30.3669 122.977 30.5559 123.01 30.7339C123.099 31.212 123.377 31.5012 123.844 31.6124C124.278 31.7125 124.7 31.6791 125.123 31.579C125.167 31.5457 125.223 31.5234 125.312 31.5568V31.5568Z" fill="#32343F"/>
<path d="M132.818 37.9398C132.952 37.8619 132.974 37.7507 133.03 37.6729C133.586 36.8833 134.487 36.5275 135.499 36.7276C135.61 36.7499 135.688 36.7944 135.688 36.9389V39.0852C135.499 39.0963 135.354 39.0296 135.198 38.9962C133.997 38.7405 133.096 39.3521 132.874 40.5642C132.83 40.7867 132.818 40.998 132.818 41.2204V44.7567C132.818 44.8234 132.807 44.9013 132.818 44.968C132.841 45.1571 132.741 45.2015 132.574 45.2015C131.962 45.1904 131.362 45.2015 130.75 45.2015C130.505 45.2015 130.505 45.1904 130.505 44.9458V37.0279C130.505 36.85 130.55 36.7832 130.739 36.7832C131.362 36.7944 131.973 36.7944 132.596 36.7832C132.785 36.7832 132.83 36.8611 132.83 37.0279C132.818 37.3059 132.818 37.6062 132.818 37.9398V37.9398Z" fill="#32343F"/>
<path d="M90.3482 51.6963C88.0017 51.6963 85.7331 51.2404 83.5979 50.3285C81.5295 49.45 79.6724 48.2044 78.0821 46.6142C76.4919 45.0239 75.2352 43.1668 74.3678 41.0984C73.4671 38.9521 73 36.6835 73 34.3482C73 32.0128 73.4559 29.7331 74.3678 27.5979C75.2464 25.5295 76.4919 23.6724 78.0821 22.0821C79.6724 20.4919 81.5295 19.2352 83.5979 18.3678C85.7442 17.4671 88.0128 17 90.3482 17C92.6835 17 94.9632 17.4559 97.0984 18.3678C99.1668 19.2464 101.024 20.4919 102.614 22.0821C104.204 23.6724 105.461 25.5295 106.328 27.5979C107.229 29.7442 107.696 32.0128 107.696 34.3482C107.696 36.6835 107.24 38.9632 106.328 41.0984C105.45 43.1668 104.204 45.0239 102.614 46.6142C101.024 48.2044 99.1668 49.4611 97.0984 50.3285C94.9632 51.2293 92.6946 51.6963 90.3482 51.6963ZM90.3482 22.6048C83.876 22.6048 78.6159 27.8648 78.6159 34.337C78.6159 40.8092 83.8871 46.0804 90.3593 46.0804C96.8315 46.0804 102.103 40.8092 102.103 34.337C102.092 27.8648 96.8204 22.6048 90.3482 22.6048V22.6048Z" fill="url(#paint0_linear_78_435)"/>
<path d="M110.61 22.527C112.121 22.527 113.345 21.3022 113.345 19.7913C113.345 18.2805 112.121 17.0557 110.61 17.0557C109.099 17.0557 107.874 18.2805 107.874 19.7913C107.874 21.3022 109.099 22.527 110.61 22.527Z" fill="url(#paint1_linear_78_435)"/>
<path d="M93.2285 68.9999C92.5057 68.9999 91.794 68.7219 91.249 68.177C90.1481 67.0761 90.1481 65.3079 91.249 64.2069L102.926 52.5303C104.027 51.4294 105.795 51.4294 106.896 52.5303C107.997 53.6312 107.997 55.3994 106.896 56.5004L95.2191 68.177C94.6631 68.733 93.9402 68.9999 93.2285 68.9999Z" fill="url(#paint2_linear_78_435)"/>
</g>
<defs>
<linearGradient id="paint0_linear_78_435" x1="79.6023" y1="21.0635" x2="100.528" y2="46.9334" gradientUnits="userSpaceOnUse">
<stop stop-color="#00D1E6"/>
<stop offset="1" stop-color="#2B4DD4"/>
</linearGradient>
<linearGradient id="paint1_linear_78_435" x1="98.9675" y1="5.39903" x2="119.893" y2="31.2678" gradientUnits="userSpaceOnUse">
<stop stop-color="#00D1E6"/>
<stop offset="1" stop-color="#2B4DD4"/>
</linearGradient>
<linearGradient id="paint2_linear_78_435" x1="72.1594" y1="27.0841" x2="93.0862" y2="52.9529" gradientUnits="userSpaceOnUse">
<stop stop-color="#00D1E6"/>
<stop offset="1" stop-color="#2B4DD4"/>
</linearGradient>
<clipPath id="clip0_78_435">
<rect width="93.5911" height="52" fill="white" transform="translate(73 17)"/>
</clipPath>
</defs>
</svg>
