<?xml version="1.0" encoding="UTF-8"?>
<svg width="44px" height="44px" viewBox="0 0 44 44" version="1.1" xmlns="http://www.w3.org/2000/svg" xmlns:xlink="http://www.w3.org/1999/xlink">
    <!-- Generator: Sketch 59.1 (86144) - https://sketch.com -->
    <title>Group 39</title>
    <desc>Created with Sketch.</desc>
    <g id="fuse-web-5" stroke="none" stroke-width="1" fill="none" fill-rule="evenodd">
        <g id="3.3" transform="translate(-962.000000, -4177.000000)" fill="#9EAFB9" fill-rule="nonzero">
            <g id="Group-39" transform="translate(962.000000, 4177.500000)">
                <path d="M26.285712,24.8846929 C27.4290796,23.4214328 27.3436518,21.2651731 26.0291039,19.9053758 C24.6229567,18.4511853 22.335247,18.4508494 20.9290998,19.9047039 L19.7236916,21.1512968 C19.2812863,21.6091535 18.5608348,21.6088175 18.1177798,21.1509609 C17.9030736,20.9289188 17.7851638,20.6339826 17.784839,20.3202349 C17.784839,20.0068231 17.9030736,19.7118868 18.1171302,19.4901807 L20.156677,17.3809496 C20.6393601,16.882111 20.6393601,16.0732197 20.156677,15.574381 C19.6743189,15.0752063 18.8921515,15.0752063 18.4097933,15.574381 L17.8465548,16.1568633 L17.3089772,15.6009185 C16.8266191,15.1020798 16.0444517,15.1020798 15.5617686,15.6009185 C15.0794105,16.1000931 15.0794105,16.9086484 15.5617686,17.4078231 L16.1139632,17.9785483 C15.5958747,18.6399715 15.3142556,19.4579326 15.3142556,20.3209067 C15.3142556,21.3169045 15.6897478,22.2534447 16.3708961,22.9578654 C17.0738073,23.6851286 17.9975963,24.0485922 18.9210606,24.0485922 C19.8445247,24.0485922 20.767989,23.6851286 21.4705754,22.9585373 L22.6759836,21.7119444 C23.1187137,21.2540877 23.8391652,21.2544237 24.2822202,21.7122804 C24.7249502,22.1704729 24.7252751,22.9155397 24.282545,23.3730605 L21.9172033,25.8192176 C21.4345203,26.3180563 21.4345203,27.1269476 21.9172033,27.6257863 C22.15822,27.8753736 22.4742702,28.0003352 22.7906452,28 C23.1066954,28 23.4230703,27.8753736 23.6640871,27.6257863 L24.5534451,26.7063779 L25.0910228,27.2619868 C25.3323643,27.5115741 25.6484145,27.6361998 25.9644646,27.6361998 C26.2808397,27.6361998 26.5968898,27.5115741 26.8382314,27.2619868 C27.3205895,26.7631481 27.3205895,25.9542568 26.8382314,25.4554181 L26.285712,24.8846929 Z" id="Path"></path>
                <path d="M29.8547324,8.2532851 C29.1746162,8.93358765 28.8,9.83802696 28.8,10.7999211 C28.8,11.7621309 29.1746162,12.6665702 29.8547324,13.3468727 C30.5566249,14.0489576 31.4788055,14.4 32.4009862,14.4 C33.3231669,14.4 34.245032,14.0489576 34.9469245,13.3468727 C36.3510252,11.9423874 36.3510252,9.65745478 34.9469245,8.25296944 C33.5431395,6.84879976 31.2585174,6.84911543 29.8547324,8.2532851 L29.8547324,8.2532851 Z M33.2496324,11.6491154 C32.7815988,12.1172772 32.0200581,12.1169615 31.5520245,11.6491154 C31.0843066,11.1809537 31.0843066,10.4192042 31.5520245,9.95104245 C32.0200581,9.48319631 32.7815988,9.48319631 33.2496324,9.95104245 C33.7176659,10.4192042 33.7176659,11.1809537 33.2496324,11.6491154 Z" id="Shape"></path>
                <path d="M42.6792055,1.73646823 C42.6592363,1.07366079 42.1217326,0.541041792 41.4527653,0.520936764 L24.1960686,0.000512657131 C23.8439454,-0.00937507172 23.5051351,0.124109247 23.2581829,0.37130251 L1.95772808,21.6823244 C-0.652576028,24.2940033 -0.652576028,28.5434195 1.95772808,31.1547688 L12.0298479,41.2316828 C13.2982234,42.5009376 14.9859517,43.2 16.7818463,43.2 C18.577408,43.2 20.2651362,42.5009376 21.5338446,41.2316828 L42.8339666,19.9206608 C43.0779233,19.6767635 43.2100528,19.3445358 43.1994026,19.0014316 L42.6792055,1.73646823 Z M19.7346218,39.4680415 C18.9451737,40.258071 17.8964591,40.6931311 16.7818463,40.6931311 C15.6669005,40.6931311 14.6181859,40.258071 13.8287379,39.4680415 L3.75695092,29.3911275 C2.11847998,27.7520716 2.11847998,25.0850216 3.75695092,23.4459657 L24.6696709,2.52287231 L40.1843897,2.99089147 L40.6529997,18.539345 L19.7346218,39.4680415 Z" id="Shape"></path>
            </g>
        </g>
    </g>
</svg>