<svg width="88" height="20" viewBox="0 0 88 20" fill="none" xmlns="http://www.w3.org/2000/svg">
<g clip-path="url(#clip0)">
<path d="M39.1124 9.99996C39.1317 11.4005 38.8998 12.7934 38.4273 14.1139C38.0071 15.2841 37.3509 16.3577 36.4986 17.2694C35.6603 18.145 34.6428 18.8335 33.5141 19.2889C31.0481 20.2369 28.3127 20.2369 25.8467 19.2889C24.72 18.8327 23.7046 18.1443 22.8679 17.2694C22.0155 16.3577 21.3593 15.2841 20.9391 14.1139C20.4667 12.7934 20.2347 11.4005 20.254 9.99996C20.2354 8.60396 20.4674 7.21577 20.9391 5.89996C21.3593 4.7297 22.0155 3.65612 22.8679 2.74441C23.7058 1.8696 24.7208 1.17957 25.8467 0.719408C27.0615 0.227755 28.3638 -0.0169199 29.6762 -3.66623e-05C30.9904 -0.0163403 32.2949 0.225358 33.5141 0.711074C34.6444 1.16745 35.6622 1.85902 36.4986 2.73885C37.3504 3.65309 38.0064 4.72835 38.4273 5.89996C38.899 7.21577 39.131 8.60396 39.1124 9.99996ZM37.6216 9.99996C37.6434 8.7507 37.4536 7.50663 37.0601 6.31941C36.7162 5.29788 36.1638 4.35714 35.4373 3.55552C34.7362 2.79787 33.8729 2.20472 32.9105 1.81941C30.834 1.01931 28.5296 1.01931 26.4531 1.81941C25.492 2.2071 24.6292 2.7999 23.9263 3.55552C23.1937 4.3604 22.6365 5.30598 22.2895 6.3333C21.8894 7.51464 21.6929 8.75415 21.7084 9.99996C21.6892 11.2522 21.8847 12.4985 22.2867 13.6861C22.6361 14.7065 23.1932 15.6452 23.9235 16.4444C24.6251 17.2001 25.4884 17.7913 26.4503 18.175C28.5289 18.9641 30.8291 18.9641 32.9077 18.175C33.8709 17.7937 34.7347 17.2021 35.4345 16.4444C36.1614 15.6447 36.7146 14.7059 37.0601 13.6861C37.4549 12.4972 37.6447 11.2511 37.6216 9.99996Z" fill="#374248"/>
<path d="M55.7108 20H54.467C54.3271 20.0046 54.188 19.9781 54.0599 19.9222C53.9351 19.8577 53.8296 19.7619 53.7539 19.6444L47.2684 11.5306C47.1982 11.4313 47.1193 11.3383 47.0326 11.2528C46.9507 11.1779 46.8555 11.1186 46.7518 11.0778C46.6383 11.0296 46.5181 10.9987 46.3953 10.9861C46.2268 10.9642 46.057 10.954 45.8871 10.9556H43.2368V20H41.7656V0H46.9371C49.2599 0 51.0006 0.44537 52.1592 1.33611C53.3178 2.22685 53.8999 3.53426 53.9055 5.25833C53.9142 5.97509 53.7777 6.6863 53.504 7.35C53.2421 7.97825 52.851 8.54581 52.3557 9.01667C51.8267 9.50996 51.2124 9.90514 50.542 10.1833C49.7773 10.4979 48.9707 10.7018 48.1472 10.7889C48.385 10.9351 48.5934 11.1234 48.7621 11.3444L55.7108 20ZM46.7266 9.88056C47.5401 9.89207 48.3509 9.78442 49.1327 9.56111C49.7876 9.37825 50.3993 9.06856 50.9323 8.65C51.4136 8.2668 51.7981 7.77796 52.0553 7.22222C52.3188 6.63007 52.45 5.9886 52.44 5.34167C52.44 3.91944 51.972 2.86481 51.0362 2.17778C50.1003 1.49074 48.7349 1.1463 46.94 1.14444H43.2368V9.88056H46.7266Z" fill="#374248"/>
<path d="M65.6409 18.7417C66.5274 18.7577 67.4074 18.5892 68.2239 18.2472C68.9586 17.9317 69.6156 17.4626 70.1499 16.8722C70.6883 16.2672 71.0988 15.5617 71.3571 14.7972C71.6381 13.9676 71.7766 13.0972 71.767 12.2222V0H73.2073V12.2222C73.2164 13.2632 73.0397 14.2976 72.6851 15.2778C72.3547 16.1927 71.8431 17.0332 71.1802 17.75C70.514 18.4664 69.7015 19.0345 68.7966 19.4167C66.7705 20.2168 64.5113 20.2168 62.4852 19.4167C61.5799 19.0352 60.7672 18.467 60.1016 17.75C59.4377 17.0339 58.926 16.1932 58.5968 15.2778C58.2422 14.2976 58.0654 13.2632 58.0746 12.2222V0H59.5204V12.2056C59.5123 13.0818 59.6528 13.9531 59.936 14.7833C60.1945 15.5465 60.6028 16.2517 61.1376 16.8583C61.6672 17.4536 62.3216 17.9276 63.0552 18.2472C63.8717 18.5922 64.7533 18.7608 65.6409 18.7417Z" fill="#374248"/>
<path d="M87.1072 2.59725C87.0769 2.66742 87.0264 2.72722 86.962 2.76921C86.8976 2.81119 86.8221 2.8335 86.745 2.83336C86.5638 2.80353 86.3984 2.71337 86.2761 2.57781C86.0324 2.37353 85.7733 2.18781 85.5012 2.02225C85.1169 1.78549 84.7061 1.59347 84.2771 1.45003C83.0703 1.08167 81.7779 1.09137 80.5768 1.47781C80.0673 1.65998 79.601 1.9436 79.2067 2.31114C78.8423 2.65335 78.5553 3.06799 78.3644 3.52781C78.1757 3.98825 78.0803 4.48093 78.0837 4.97781C78.0598 5.55514 78.2072 6.12677 78.5076 6.62225C78.8 7.06568 79.1825 7.44407 79.6307 7.73336C80.1265 8.05083 80.659 8.30823 81.2169 8.50003C81.8065 8.70558 82.4157 8.91114 83.039 9.11392C83.6623 9.31669 84.2715 9.54169 84.8611 9.78336C85.4304 10.0156 85.9643 10.325 86.4474 10.7028C86.9134 11.0743 87.2958 11.5379 87.5704 12.0639C87.8727 12.6909 88.0181 13.3807 87.9944 14.075C88.0017 14.8654 87.8598 15.6501 87.576 16.3889C87.3013 17.0964 86.8795 17.739 86.3379 18.275C85.7714 18.8259 85.0968 19.256 84.3558 19.5389C83.4988 19.86 82.5879 20.0165 81.6717 20C80.5106 20.0306 79.358 19.7968 78.3027 19.3167C77.362 18.8593 76.5223 18.222 75.832 17.4417L76.2223 16.8361C76.2663 16.7736 76.3245 16.7221 76.3923 16.6859C76.4601 16.6497 76.5355 16.6298 76.6125 16.6278C76.7359 16.6463 76.8495 16.705 76.9354 16.7945L77.4099 17.2C77.5952 17.3639 77.8198 17.5389 78.0809 17.7278C78.3652 17.9316 78.6689 18.1074 78.9877 18.2528C79.8375 18.6408 80.764 18.8363 81.6998 18.825C82.415 18.8372 83.1262 18.7176 83.7971 18.4722C84.3759 18.2557 84.9041 17.9249 85.3496 17.5C85.7735 17.0929 86.1039 16.6003 86.3182 16.0556C86.5454 15.4862 86.6598 14.8788 86.6551 14.2667C86.679 13.6688 86.5311 13.0764 86.2284 12.5584C85.9398 12.1119 85.5566 11.7328 85.1054 11.4472C84.61 11.1344 84.0783 10.8817 83.5219 10.6945C82.9295 10.4917 82.3231 10.2945 81.697 10.1C81.0709 9.90558 80.4673 9.69169 79.8749 9.45003C79.3036 9.22308 78.7691 8.91422 78.2886 8.53336C77.8185 8.15491 77.4356 7.68136 77.1656 7.14447C76.8593 6.48911 76.7131 5.77163 76.7389 5.05003C76.7387 4.40036 76.8665 3.75689 77.1151 3.15558C77.3669 2.54995 77.7425 2.00238 78.2185 1.54725C78.7375 1.06326 79.3481 0.685643 80.0153 0.436139C80.793 0.13816 81.6211 -0.00987057 82.455 2.76201e-05C83.3977 -0.0144588 84.3345 0.149601 85.2149 0.483361C86.0518 0.820476 86.8097 1.32445 87.4413 1.96392L87.1072 2.59725Z" fill="#374248"/>
<path d="M11.2274 0H0V6.03055H11.2274V0Z" fill="#374248"/>
<path d="M11.227 0.00830078H5.13184V20H11.227V0.00830078Z" fill="#374248"/>
<path d="M15.7835 6.02778C17.4659 6.02778 18.8297 4.67841 18.8297 3.01389C18.8297 1.34936 17.4659 0 15.7835 0C14.1011 0 12.7373 1.34936 12.7373 3.01389C12.7373 4.67841 14.1011 6.02778 15.7835 6.02778Z" fill="#374248"/>
</g>
<defs>
<clipPath id="clip0">
<rect width="88" height="20" fill="white"/>
</clipPath>
</defs>
</svg>
