<svg viewBox="0 0 260 28" class="logo__StyledLogo-sc-1gco7ve-0 gXNVXH"><svg xmlns="http://www.w3.org/2000/svg" viewBox="0 0 1431.55 149.9"><g id="Layer_2" data-name="Layer 2"><g id="Layer_1-2" data-name="Layer 1"><polygon points="0 29.5 42.3 29.5 42.3 147.08 73.32 147.08 73.32 29.5 115.41 29.5 115.41 2.39 0 2.39 0 29.5"></polygon><path d="M251.42,49c0-26.9-18.44-46.64-48.59-46.64H135.15V147.08H166V95.23h22.56l28.42,51.85h35.36L219.75,92C235.37,88.29,251.42,74.62,251.42,49ZM198.27,68.77H166V28.85h32.32c12.37,0,21.7,7.81,21.7,20S210.64,68.77,198.27,68.77Z"></path><path d="M337.33,93.71h38.61v17.58c-6.29,5.64-18,11.06-31.24,11.06-26.25,0-45.34-20.18-45.34-47.51s19.09-47.51,45.34-47.51A41.06,41.06,0,0,1,379,45.56l25.59-13.89C393.51,14.53,374.64,0,344.7,0c-42.3,0-77,29.07-77,74.84,0,45.56,34.71,75.06,77,75.06,26.25,0,46.86-10.85,61.61-27.33V67.25h-69Z"></path><path d="M658.1,27.33a39.63,39.63,0,0,1,35.15,21.05l26.46-13C709.52,17.35,691.08,0,658.1,0c-42.3,0-75.92,30.37-75.92,74.84s33.62,74.84,75.92,74.84c33,0,51.2-17.57,61.61-35.57l-26.46-12.8a39.23,39.23,0,0,1-35.15,21c-25.16,0-44.25-20.18-44.25-47.51S632.94,27.33,658.1,27.33ZM608.85,74.84c0,29.94,21.17,52.51,49.25,52.51a44.21,44.21,0,0,0,37.13-19.53l17.3,8.37c-12.65,18.91-30.94,28.49-54.43,28.49-19.48,0-37.37-6.87-50.36-19.35-13.26-12.73-20.56-30.66-20.56-50.49s7.3-37.75,20.56-50.49C620.73,11.87,638.62,5,658.1,5c23.82,0,42.12,9.51,54.49,28.29l-17.42,8.57A45.07,45.07,0,0,0,658.1,22.33C630,22.33,608.85,44.91,608.85,74.84Z"></path><path d="M796.53,14.35l-4.72,13L767.73,93.74l-2.43,6.71h62.18l-2.4-6.69L801.21,27.38Zm-24.1,81.1,24.08-66.38,23.86,66.38Z"></path><path d="M777.2,2.39l-56,144.69h33.85l9.11-25h64.64l9.11,25h33.63L815.82,2.39Zm64.24,139.69-7.91-21.66-1.2-3.29H760.69l-1.2,3.29-7.91,21.66H728.53L780.63,7.39h31.75l51.9,134.69Z"></path><path d="M948.58,23.85H910.82V73.77h37.76c15.21,0,26.26-10.5,26.26-25S963.79,23.85,948.58,23.85Zm0,44.92H915.82V28.85h32.76c12.15,0,21.26,8,21.26,20C969.84,61,960.73,68.77,948.58,68.77Z"></path><path d="M952.7,2.39H885V147.08h30.8V95.23H952.7c31.24,0,48.59-21,48.59-46.2C1001.29,23.65,984.15,2.39,952.7,2.39Zm32.44,75.68c-7.81,8-19,12.16-32.44,12.16H910.82v51.85H890V7.39H952.7c13.48,0,24.72,4.24,32.5,12.28,7.15,7.39,11.09,17.81,11.09,29.36C996.29,60.42,992.33,70.73,985.14,78.07Z"></path><path d="M1019.38,147.08h30.81V2.39h-30.81Zm5-139.69h20.81V142.08h-20.81Z"></path><path d="M1185.33,2.39h-115.4V29.5h42.3V147.08h31V29.5h42.08Zm-5,22.11h-42.08V142.08h-21V24.5h-42.3V7.39h105.4Z"></path><path d="M1231.76,2.39l-56,144.69h33.84l9.11-25h64.64l9.12,25h33.62L1270.37,2.39ZM1296,142.08l-7.91-21.66-1.2-3.29h-71.64l-1.2,3.29-7.91,21.66h-23.05l52.1-134.69h31.76l51.89,134.69Z"></path><path d="M1251.08,14.35l-4.72,13-24.08,66.38-2.43,6.71H1282l-2.4-6.69-23.86-66.38ZM1227,95.45l24.08-66.38,23.86,66.38Z"></path><path d="M1370.37,120V2.39h-30.8V147.08h92V120Zm56.18,22.12h-82V7.39h20.8V125h61.18Z"></path><path d="M532.51,41.26,519.82,54a27.17,27.17,0,0,0-34.79-.1l-12.6-12.6L468.9,44.8l12.59,12.59a27.17,27.17,0,0,0,0,34.89l-12.59,12.6,3.53,3.53L485,95.81a27.18,27.18,0,0,0,34.79-.09l12.69,12.69,3.54-3.53-12.7-12.71a27.17,27.17,0,0,0,0-34.67l12.7-12.7ZM502.37,52.61a22.14,22.14,0,0,1,13.9,4.9L502.47,71.3,488.59,57.42A22.09,22.09,0,0,1,502.37,52.61ZM480.15,74.84A22.12,22.12,0,0,1,485,60.94l13.9,13.9L485,88.73A22.11,22.11,0,0,1,480.15,74.84Zm22.22,22.22a22.09,22.09,0,0,1-13.78-4.81l13.88-13.88,13.8,13.79A22.14,22.14,0,0,1,502.37,97.06ZM524.6,74.84a22.15,22.15,0,0,1-4.81,13.78L506,74.84l13.78-13.78A22.13,22.13,0,0,1,524.6,74.84Z"></path></g></g></svg></svg>