<svg width="48" height="48" viewBox="0 0 48 48" fill="none"
  xmlns="http://www.w3.org/2000/svg">
  <circle cx="24" cy="24" r="24" fill="#E7EFF4"/>
  <path d="M15.1271 17.7001C17.3079 20.0611 20.3871 21.5961 23.8138 21.7694L24.4719 21.8026L24.3268 21.1599C24.2645 20.884 24.2291 20.591 24.2291 20.29C24.2291 18.1946 25.9267 16.5 27.9991 16.5C29.1213 16.5 30.097 16.943 30.7908 17.6983L30.9825 17.9069L31.26 17.8497C31.7554 17.7476 32.2395 17.608 32.7073 17.4309C32.4343 17.7598 32.1074 18.0411 31.7411 18.2617L32.0625 19.186C32.3702 19.1466 32.6747 19.0926 32.9746 19.024C32.6801 19.3158 32.3642 19.5833 32.0284 19.8231L31.8053 19.9825L31.8198 20.2563C31.829 20.4311 31.8291 20.5982 31.8291 20.79C31.8291 26.2446 27.6658 32.5 20.1191 32.5C18.5046 32.5 16.9647 32.1706 15.5635 31.5762C17.3063 31.3883 18.8989 30.7153 20.2001 29.6815L21.2941 28.8122L19.897 28.7901C18.5171 28.7682 17.3277 28.0021 16.6885 26.89C16.6887 26.89 16.6889 26.89 16.6891 26.89C17.1217 26.89 17.5469 26.8345 17.9529 26.7218L17.9166 25.7496C16.4288 25.4536 15.2526 24.2742 14.9531 22.7799C15.3823 22.9175 15.8436 23 16.3291 23H18.0233L16.6005 22.0801C15.5826 21.422 14.9191 20.2599 14.9191 18.94C14.9191 18.5069 14.9922 18.0886 15.1271 17.7001Z" fill="#4A687B" stroke="#4A687B"/>
</svg>
