<?xml version="1.0" encoding="UTF-8"?>
<svg width="31px" height="31px" viewBox="0 0 31 31" version="1.1" xmlns="http://www.w3.org/2000/svg" xmlns:xlink="http://www.w3.org/1999/xlink">
    <!-- Generator: Sketch 64 (93537) - https://sketch.com -->
    <title>Group 3 Copy</title>
    <desc>Created with Sketch.</desc>
    <defs>
        <polygon id="path-1" points="0 0.000258333333 30.4872083 0.000258333333 30.4872083 30.4871438 0 30.4871438"></polygon>
    </defs>
    <g id="new-web-design" stroke="none" stroke-width="1" fill="none" fill-rule="evenodd">
        <g id="Group-3-Copy">
            <mask id="mask-2" fill="white">
                <use xlink:href="#path-1"></use>
            </mask>
            <g id="Clip-2"></g>
            <path d="M22.8998292,12.3534354 C22.9069333,12.5110187 22.9101625,12.6692479 22.9101625,12.8287688 C22.9101625,17.6847896 19.2134125,23.2841646 12.4547667,23.2841646 C10.3790583,23.2841646 8.44801667,22.6757896 6.8211625,21.6334146 C7.10920417,21.6676437 7.40176667,21.6844354 7.69820417,21.6844354 C9.41999583,21.6844354 11.004225,21.0973729 12.2623083,20.1118312 C10.6535375,20.0814771 9.2972875,19.0190812 8.82905833,17.5594979 C9.0531625,17.6021229 9.283725,17.6253729 9.5201,17.6253729 C9.8552875,17.6253729 10.1801417,17.5801646 10.48885,17.4962062 C8.80774583,17.1590812 7.54062083,15.6736646 7.54062083,13.8937479 C7.54062083,13.8769562 7.54062083,13.8621021 7.54126667,13.8472479 C8.03662083,14.1217271 8.60301667,14.2877063 9.20557917,14.3064354 C8.21939167,13.6483313 7.57032917,12.5226438 7.57032917,11.2477688 C7.57032917,10.5741646 7.75245417,9.94383125 8.06826667,9.40068542 C9.880475,11.6242896 12.5884542,13.0864562 15.6426,13.2401646 C15.5799542,12.9708521 15.5476625,12.6899146 15.5476625,12.4018729 C15.5476625,10.3733104 17.1932458,8.72772708 19.2231,8.72772708 C20.2796833,8.72772708 21.234225,9.17399792 21.9052458,9.88893542 C22.7422458,9.72360208 23.528225,9.41747708 24.2386417,8.99703958 C23.9635167,9.85470625 23.3816208,10.5741646 22.6227667,11.0294771 C23.3661208,10.9403521 24.0746,10.7433729 24.7327042,10.4508104 C24.241225,11.1877062 23.61735,11.8348312 22.8998292,12.3534354 M15.2441208,-6.45833333e-05 C6.8250375,-6.45833333e-05 -0.000129166667,6.82445625 -0.000129166667,15.2441854 C-0.000129166667,23.6626229 6.8250375,30.4871438 15.2441208,30.4871438 C23.6625583,30.4871438 30.487725,23.6626229 30.487725,15.2441854 C30.487725,6.82445625 23.6625583,-6.45833333e-05 15.2441208,-6.45833333e-05" id="Fill-1" fill="#FFF16D" mask="url(#mask-2)"></path>
        </g>
    </g>
</svg>