<svg xmlns="http://www.w3.org/2000/svg" xmlns:xlink="http://www.w3.org/1999/xlink" width="31" height="31" viewBox="0 0 31 31">
    <defs>
        <path id="prefix__a" d="M0 0L30.487 0 30.487 30.487 0 30.487z"/>
    </defs>
    <g fill="none" fill-rule="evenodd">
        <mask id="prefix__b" fill="#fff">
            <use xlink:href="#prefix__a"/>
        </mask>
        <path fill="#05283E" d="M22.9 12.353c.007.158.01.316.01.476 0 4.856-3.697 10.455-10.455 10.455-2.076 0-4.007-.608-5.634-1.65.288.034.58.05.877.05 1.722 0 3.306-.587 4.564-1.572-1.608-.03-2.965-1.093-3.433-2.553.224.043.455.066.691.066.335 0 .66-.045.969-.129-1.681-.337-2.948-1.822-2.948-3.602v-.047c.496.275 1.062.44 1.665.46-.987-.659-1.636-1.784-1.636-3.06 0-.673.182-1.303.498-1.846 1.812 2.223 4.52 3.685 7.575 3.84-.063-.27-.095-.551-.095-.84 0-2.028 1.645-3.673 3.675-3.673 1.057 0 2.011.446 2.682 1.16.837-.164 1.623-.47 2.334-.891-.275.858-.857 1.577-1.616 2.032.743-.089 1.452-.286 2.11-.578-.492.737-1.116 1.384-1.833 1.902M15.244 0C6.825 0 0 6.824 0 15.244c0 8.419 6.825 15.243 15.244 15.243s15.244-6.824 15.244-15.243C30.488 6.824 23.663 0 15.244 0" mask="url(#prefix__b)"/>
    </g>
</svg>
