<?xml version="1.0" encoding="UTF-8"?>
<svg width="33px" height="33px" viewBox="0 0 33 33" version="1.1" xmlns="http://www.w3.org/2000/svg" xmlns:xlink="http://www.w3.org/1999/xlink">
    <!-- Generator: Sketch 56.3 (81716) - https://sketch.com -->
    <title>Group 3</title>
    <desc>Created with Sketch.</desc>
    <defs>
        <polygon id="path-1" points="0 0.000275 32.454125 0.000275 32.454125 32.4540563 0 32.4540563"></polygon>
    </defs>
    <g id="Page-1" stroke="none" stroke-width="1" fill="none" fill-rule="evenodd">
        <g id="Artboard-Copy-25" transform="translate(-1560.000000, -4426.000000)">
            <g id="Group-3" transform="translate(1560.000000, 4426.000000)">
                <mask id="mask-2" fill="white">
                    <use xlink:href="#path-1"></use>
                </mask>
                <g id="Clip-2"></g>
                <path d="M24.3772375,13.1504313 C24.3848,13.3181813 24.3882375,13.4866188 24.3882375,13.6564313 C24.3882375,18.8257438 20.4529875,24.7863688 13.2583,24.7863688 C11.048675,24.7863688 8.99305,24.1387437 7.2612375,23.0291187 C7.5678625,23.0655563 7.8793,23.0834313 8.1948625,23.0834313 C10.0277375,23.0834313 11.714175,22.4584937 13.053425,21.4093687 C11.3408625,21.3770562 9.8971125,20.2461188 9.398675,18.6923687 C9.6372375,18.7377437 9.882675,18.7624938 10.1343,18.7624938 C10.4911125,18.7624938 10.836925,18.7143687 11.16555,18.6249938 C9.3759875,18.2661187 8.0271125,16.6848687 8.0271125,14.7901188 C8.0271125,14.7722437 8.0271125,14.7564313 8.0278,14.7406188 C8.5551125,15.0328063 9.15805,15.2094938 9.7994875,15.2294313 C8.749675,14.5288688 8.0587375,13.3305563 8.0587375,11.9734313 C8.0587375,11.2563688 8.2526125,10.5853688 8.5888,10.0071813 C10.517925,12.3742437 13.4006125,13.9307438 16.6518,14.0943688 C16.5851125,13.8076812 16.5507375,13.5086188 16.5507375,13.2019938 C16.5507375,11.0425563 18.3024875,9.29080625 20.4633,9.29080625 C21.58805,9.29080625 22.604175,9.76586875 23.3184875,10.5269313 C24.2094875,10.3509313 25.046175,10.0250563 25.802425,9.57749375 C25.50955,10.4904938 24.8901125,11.2563688 24.0823,11.7410563 C24.8736125,11.6461813 25.6278,11.4364938 26.3283625,11.1250563 C25.805175,11.9094938 25.14105,12.5983688 24.3772375,13.1504313 M16.2276125,-6.875e-05 C7.2653625,-6.875e-05 -0.0001375,7.26474375 -0.0001375,16.2276813 C-0.0001375,25.1892438 7.2653625,32.4540563 16.2276125,32.4540563 C25.189175,32.4540563 32.454675,25.1892438 32.454675,16.2276813 C32.454675,7.26474375 25.189175,-6.875e-05 16.2276125,-6.875e-05" id="Fill-1" fill="#FFFFFF" mask="url(#mask-2)"></path>
            </g>
        </g>
    </g>
</svg>