<svg width="240" height="80" viewBox="0 0 240 80" fill="none" xmlns="http://www.w3.org/2000/svg">
<g clip-path="url(#clip0_708_519)">
<path d="M81.9911 42.17C81.9911 44.3151 81.2989 46.1026 79.9198 47.5313C78.5351 48.9594 76.7893 49.6752 74.6874 49.6752C72.5808 49.6752 70.8354 48.9594 69.4547 47.5313C68.0736 46.102 67.3838 44.3145 67.3838 42.17V32.752H69.5886V42.4473C69.5886 43.8415 70.0943 45.0376 71.1181 46.035C72.1362 47.0302 73.3261 47.5318 74.6874 47.5318C76.0485 47.5318 77.2371 47.0308 78.2569 46.035C79.2766 45.0376 79.7863 43.8415 79.7863 42.4473V32.752H81.9911V42.17Z" fill="black"/>
<path d="M101.347 49.2688H99.1464V39.6186C99.1464 38.2262 98.6367 37.0295 97.6165 36.0259C96.5967 35.0223 95.4085 34.5174 94.0452 34.5174C92.666 34.5174 91.4677 35.0217 90.4464 36.0259C89.4266 37.0301 88.9165 38.2262 88.9165 39.6186V49.2688H86.7158V39.8501C86.7158 37.7062 87.4104 35.9238 88.8007 34.5046C90.1915 33.0848 91.9405 32.374 94.0452 32.374C96.1317 32.374 97.8718 33.0848 99.2642 34.5046C100.653 35.9238 101.347 37.7062 101.347 39.8501V49.2688Z" fill="black"/>
<path d="M129.75 49.2692H127.459V39.128C127.459 37.8517 127.091 36.7604 126.356 35.8528C125.624 34.9451 124.658 34.4893 123.458 34.4893C122.242 34.4893 121.194 34.8854 120.315 35.6782C119.433 36.4703 118.998 37.4572 118.998 38.6349V49.2697H116.681V38.6349C116.681 37.4578 116.236 36.4703 115.36 35.6782C114.479 34.8854 113.432 34.4893 112.216 34.4893C111.015 34.4893 110.062 34.9395 109.346 35.8377C108.631 36.7354 108.273 37.8338 108.273 39.128V49.2692H105.986V39.3886C105.986 37.3206 106.575 35.6603 107.751 34.4023C108.854 33.2235 110.301 32.5585 112.098 32.4018C114.495 32.2115 116.406 33.2352 117.838 35.4751C119.268 33.2352 121.178 32.2115 123.576 32.4018C125.372 32.5585 126.829 33.2235 127.954 34.4023C129.149 35.6609 129.75 37.3206 129.75 39.3886V49.2692Z" fill="black"/>
<path d="M151.393 40.9821V49.2689H149.19V46.6882C147.4 48.7412 145.207 49.7236 142.61 49.6454C140.34 49.5668 138.406 48.6881 136.809 47.0101C135.209 45.3281 134.412 43.3286 134.412 41.0107C134.412 38.5961 135.272 36.5247 136.991 34.7936C138.71 33.0648 140.767 32.248 143.163 32.344C145.483 32.4227 147.451 33.3069 149.075 34.9967C150.698 36.6871 151.472 38.6826 151.393 40.9821ZM149.19 40.8226C149.154 39.0798 148.533 37.5863 147.333 36.3484C146.131 35.1099 144.689 34.489 143.005 34.489C141.244 34.489 139.74 35.1099 138.505 36.3484C137.265 37.5863 136.634 39.0888 136.615 40.8483C136.578 42.5934 137.152 44.1169 138.343 45.4252C139.535 46.7317 140.971 47.4252 142.657 47.5038C144.474 47.5785 146.027 46.9448 147.318 45.6015C148.605 44.2541 149.23 42.6614 149.19 40.8226Z" fill="black"/>
<path d="M162.52 34.6347C161.497 34.6731 160.669 34.9538 160.03 35.4742C159.391 35.9975 158.959 36.4522 158.727 36.8344C158.357 37.4736 158.176 38.3239 158.176 39.3861V49.2683H155.857V32.7512H157.915V35.0999C158.379 34.209 159.062 33.5228 159.972 33.0408C160.803 32.595 161.651 32.3925 162.521 32.4327V34.6347H162.52Z" fill="black"/>
<path d="M175.764 44.345C175.882 45.8312 175.361 47.1227 174.2 48.2116C173.043 49.3051 171.708 49.8033 170.202 49.7051C168.81 49.608 167.646 49.0479 166.709 48.0219C165.769 46.9982 165.307 45.7826 165.307 44.3728H167.592V44.9269C167.592 45.4942 167.904 46.0789 168.52 46.6814C169.141 47.2889 169.796 47.579 170.493 47.5606C171.417 47.5439 172.152 47.26 172.695 46.7182C173.175 46.2139 173.431 45.5556 173.447 44.7395C173.466 43.3235 172.662 42.3567 171.038 41.8328L169.101 41.2169C167.071 40.5799 166.009 39.1969 165.913 37.0708C165.854 35.795 166.285 34.7043 167.207 33.7938C168.125 32.8878 169.237 32.4019 170.536 32.3451C171.658 32.2887 172.709 32.6497 173.69 33.4312C174.667 34.2134 175.193 35.1846 175.271 36.345V36.8354H172.954V36.4555C172.954 35.8702 172.709 35.3949 172.218 35.0334C171.724 34.6709 171.16 34.4889 170.52 34.4889C169.9 34.5096 169.367 34.7316 168.912 35.1589C168.457 35.5863 168.222 36.1207 168.202 36.7623C168.125 37.9479 168.829 38.7914 170.318 39.295L172.23 39.9361C174.431 40.692 175.609 42.1603 175.764 44.345Z" fill="black"/>
<path d="M194.779 49.2688H192.575V39.6471C192.575 38.2569 192.056 37.0536 191.029 36.0393C189.993 35.0273 188.784 34.537 187.404 34.576C185.999 34.5972 184.815 35.0625 183.85 35.9807C182.886 36.9001 182.402 38.0633 182.402 39.473V49.2694H180.197V26.9253H182.402V35.0976C183.661 33.4575 185.278 32.5872 187.255 32.4901C189.306 32.392 191.07 33.0697 192.553 34.5169C194.036 35.9679 194.778 37.7548 194.778 39.8803V49.2688H194.779Z" fill="black"/>
<path d="M216.164 40.9821V49.2689H213.959V46.6882C212.174 48.7412 209.977 49.7236 207.381 49.6454C205.11 49.5668 203.176 48.6881 201.581 47.0101C199.98 45.3281 199.183 43.3286 199.183 41.0107C199.183 38.5961 200.042 36.5247 201.76 34.7936C203.482 33.0648 205.537 32.248 207.935 32.344C210.252 32.4227 212.221 33.3069 213.845 34.9967C215.469 36.6871 216.238 38.6826 216.164 40.9821ZM213.959 40.8226C213.92 39.0798 213.303 37.5863 212.103 36.3484C210.9 35.1099 209.459 34.489 207.772 34.489C206.011 34.489 204.508 35.1099 203.269 36.3484C202.034 37.5863 201.402 39.0888 201.383 40.8483C201.345 42.5934 201.92 44.1169 203.112 45.4252C204.306 46.7317 205.741 47.4252 207.427 47.5038C209.248 47.5785 210.801 46.9448 212.087 45.6015C213.378 44.2541 213.998 42.6614 213.959 40.8226Z" fill="black"/>
<path d="M222.999 26.9253H220.799V49.2688H222.999V26.9253Z" fill="black"/>
<path d="M53.4568 38.7631C53.4334 37.8404 53.4078 36.969 53.4078 36.1014V20H20.0857L26.5498 23.5007H49.9088V36.1009C49.9088 37.0175 49.9344 37.9536 49.9595 38.8574C50.0521 42.2894 50.1475 45.8381 48.8689 48.8071C46.6563 53.9424 41.6159 57.2623 36.0343 57.2623C29.2349 57.2623 23.5568 52.893 21.9049 46.3899C21.4129 44.4479 21.4776 42.4429 21.5479 40.3168C21.5713 39.567 21.5948 38.7927 21.5948 38.015V29.6647L18.0957 27.8136V38.0161C18.0957 38.7369 18.0701 39.4833 18.0489 40.2042C17.9747 42.4775 17.8999 44.8295 18.5136 47.2523C20.5632 55.3326 27.6081 60.7628 36.0338 60.7628C43.0161 60.7628 49.3157 56.6135 52.0811 50.1924C53.6683 46.5165 53.5607 42.5745 53.4568 38.7631Z" fill="#34D399"/>
<path d="M25.4062 43.6541C25.4062 43.7211 25.4101 43.7863 25.418 43.8533C25.7906 47.1587 28.4517 53.4169 35.8575 53.4169C43.3733 53.4169 45.5267 47.0621 45.6171 43.7015C45.6171 43.6858 45.6192 43.6708 45.6192 43.6541V28.3002C45.6192 27.3328 44.8349 26.5479 43.8675 26.5479H32.1767L38.6391 30.0497H42.1186V43.6245C42.0868 44.3374 41.675 49.9157 35.8581 49.9157C30.0723 49.9157 29.0447 44.5205 28.9053 43.5414V33.5341L25.4397 31.6988C25.4202 31.8047 25.4062 31.913 25.4062 32.0257V43.6541Z" fill="#34D399"/>
<path d="M25.446 31.665C25.4404 31.6762 25.4443 31.689 25.4404 31.699L28.906 33.5345L25.446 31.665Z" fill="#34D399"/>
</g>
<defs>
<clipPath id="clip0_708_519">
<rect width="205" height="41" fill="white" transform="translate(18 20)"/>
</clipPath>
</defs>
</svg>
