<?xml version="1.0" encoding="UTF-8"?>
<svg width="47px" height="47px" viewBox="0 0 47 47" version="1.1" xmlns="http://www.w3.org/2000/svg" xmlns:xlink="http://www.w3.org/1999/xlink">
    <!-- Generator: Sketch 64 (93537) - https://sketch.com -->
    <title>User owend data Copy</title>
    <desc>Created with Sketch.</desc>
    <g id="User-owend-data-Copy" stroke="none" stroke-width="1" fill="none" fill-rule="evenodd">
        <g id="icons8-user-2-copy" transform="translate(7.000000, 4.000000)">
            <g id="icons8-user">
                <polygon id="Path-13" fill="#FFFFFF" points="5.29589844 6.48 7.61538462 12.96 7.61538462 16.718498 12.6923077 25.2 11.8269043 28.1364746 2.26123047 33.1359943 0.577636719 35.4587402 1.26923077 37.8298828 32.2055664 38.3625488 32.2055664 33.7724609 24.4609375 29.0009766 21.447998 28.1364746 21.447998 24.4816895 24.4609375 18.5585938 25.7358398 17.5 26.092041 15.8569336 25.3846154 14.5153809 26.092041 6.48 23.7004395 4 20.9226074 3.43701172 17.9995117 0.673339844 12.6923077 1.25806452 9.05517578 3.43701172"></polygon>
                <path d="M15.6918573,0 C12.6204178,0 9.858849,1.66595294 7.85584419,3.2852191 C5.85283938,4.90694289 4.57617219,6.53358131 4.57617219,6.53358131 L4.00353081,7.26089985 L4.8984375,7.52135821 C4.8984375,7.52135821 5.24549279,7.6171875 5.66195913,8.03981855 C6.07594667,8.4599926 6.51968181,9.17748252 6.51968181,10.5362903 C6.51968181,12.2980719 6.79236779,13.7207661 6.9287111,14.3227695 C6.57421875,14.6422003 6.34615385,15.0943172 6.34615385,15.6004913 C6.34615385,16.0083797 6.47010248,16.3572957 6.57173994,16.6988407 C6.62131927,16.870842 6.6708986,17.0305571 6.703125,17.1509577 C6.7353514,17.2713582 6.74278846,17.3893018 6.74278846,17.2983871 C6.74278846,18.1534778 7.46664663,18.8218246 8.31941106,18.8513105 C8.43592263,21.2888105 9.62086823,23.4412802 11.4230769,24.8590598 L11.4230769,27.2056452 C10.5083385,27.4808468 8.311974,28.1835941 6.07594667,29.2303427 C4.61583565,29.9134328 3.14828758,30.73658 2.00548362,31.7120719 C0.862680288,32.6875632 0,33.854713 0,35.2258065 L0,39 L33,39 L33,35.2258065 C33,33.854713 32.1373197,32.6875632 30.9945164,31.7120719 C29.8517131,30.73658 28.384165,29.9134328 26.9240533,29.2303427 C24.688026,28.1835941 22.4916615,27.4808468 21.5769231,27.2056452 L21.5769231,24.8615175 C23.3791318,23.4437372 24.5640774,21.2912675 24.6805889,18.8513105 C25.5333534,18.8218246 26.2572115,18.1534778 26.2572115,17.2983871 C26.2572115,17.3893018 26.2646486,17.2713582 26.296875,17.1509577 C26.3291014,17.0305571 26.3786807,16.870842 26.4282601,16.6988407 C26.5298982,16.3572957 26.6538462,16.0083797 26.6538462,15.6004913 C26.6538462,15.0844886 26.4183442,14.6299146 26.0564154,14.3080269 C26.172927,13.6445941 26.6538462,10.8041203 26.6538462,8.80645161 C26.6538462,6.54586694 25.8010817,4.92660015 24.6508413,3.92162298 C23.6171125,3.02230374 22.4024187,2.66110147 21.3265476,2.58492944 C21.1530197,2.31218482 20.8456278,1.88463977 20.2085337,1.39075132 C19.2937952,0.685547032 17.8262472,0 15.6918573,0 Z M15.6918573,1.25806452 C17.55604,1.25806452 18.7137168,1.830582 19.4251803,2.38344285 C20.1391226,2.93630308 20.3746246,3.4228199 20.3746246,3.4228199 L20.5481519,3.77419355 L20.9423077,3.77419355 C21.7876351,3.77419355 22.9254808,4.09362431 23.8104716,4.86762837 C24.6979419,5.64163306 25.3846154,6.85055444 25.3846154,8.80645161 C25.3846154,10.5608622 24.9631914,13.1212198 24.8392428,13.8387097 C24.836764,13.8387097 24.8342852,13.8387097 24.8293269,13.8387097 C24.77479,13.8387097 24.7847058,13.8509953 24.75,13.8559099 L24.75,11.9516129 C24.75,9.79914315 23.8625304,8.35187768 22.9701025,7.49432995 C22.0776746,6.6367816 21.1431038,6.32226547 21.1431038,6.32226547 L20.781175,6.20186492 L20.5035308,6.4647809 C20.5035308,6.4647809 20.1044174,6.85301144 19.140099,7.29038574 C18.1757812,7.72775942 16.6834438,8.17741935 14.5961538,8.17741935 C13.4533505,8.17741935 11.9486178,8.57793615 10.6422024,9.48217002 C9.34074519,10.3839469 8.25743706,11.8582412 8.25247881,13.8583669 C8.2177736,13.8534529 8.22521065,13.8387097 8.17067308,13.8387097 C8.1557996,13.8387097 8.14092548,13.8436243 8.126052,13.8436243 C7.99714575,13.2367063 7.78891258,12.0523562 7.78891258,10.5362903 C7.78891258,8.88999527 7.19396065,7.79655982 6.57173994,7.16261356 C6.30649038,6.89232595 6.24699519,6.9390121 6.01645148,6.80386829 C6.45522837,6.29277958 7.27080813,5.38608871 8.65902929,4.263168 C10.5455232,2.7372735 13.0939006,1.25806452 15.6918573,1.25806452 Z M20.9423077,7.64667339 C21.0960039,7.70564516 21.4975962,7.83096034 22.0875905,8.39610619 C22.781701,9.06445297 23.4807692,10.1308595 23.4807692,11.9516129 L23.4807692,15.917465 L24.4351711,15.3621472 C24.5987832,15.2687755 24.75,15.1852319 24.8565957,15.1311747 C24.8689904,15.1238031 24.8739486,15.1238031 24.8863433,15.1164315 C25.1763822,15.1459173 25.3846154,15.3474045 25.3846154,15.5980343 L25.3846154,15.6004913 C25.3846154,15.6471774 25.3077673,16.0157513 25.2110881,16.3450101 C25.1615087,16.5071828 25.1119294,16.6718118 25.0697865,16.8216989 C25.030123,16.9715853 24.9879808,17.0772433 24.9879808,17.2983871 C24.9879808,17.4654738 24.8491587,17.6129032 24.6310096,17.6129032 L23.4807692,17.6129032 L23.4807692,18.4729086 C23.4807692,21.8834429 20.9993241,24.7018018 17.7320461,25.2792339 L17.5510817,25.3087198 L17.4147384,25.4340349 C17.1668418,25.6576364 16.8544923,25.7903226 16.5,25.7903226 C16.1455077,25.7903226 15.8331582,25.6576364 15.5852616,25.4340349 L15.4489183,25.3087198 L15.2679539,25.2792339 C12.0006759,24.7018018 9.51923077,21.8834429 9.51923077,18.4729086 L9.51923077,17.6129032 L8.36899038,17.6129032 C8.15084135,17.6129032 8.01201923,17.4654738 8.01201923,17.2983871 C8.01201923,17.0772433 7.96987696,16.9715853 7.92773469,16.8216989 C7.88559179,16.6718118 7.83601246,16.5071828 7.78643313,16.3450101 C7.68975392,16.0157513 7.61538462,15.6471774 7.61538462,15.6004913 C7.61538462,15.3474045 7.82361779,15.1459173 8.11365669,15.1164315 C8.126052,15.1238031 8.13100962,15.1238031 8.14340429,15.1311747 C8.25,15.1852319 8.40121679,15.2687755 8.56482888,15.3621472 L9.51923077,15.917465 L9.51923077,13.8706526 C9.51923077,12.3029865 10.3075424,11.2488662 11.36854,10.5141761 C12.4295376,9.77948589 13.7780953,9.43548387 14.5961538,9.43548387 C16.8693658,9.43548387 18.5501053,8.94159542 19.6681193,8.43542071 C20.4985726,8.05947581 20.7167216,7.82850334 20.9423077,7.64667339 Z M12.6923077,25.6797507 C13.3690653,26.0311243 14.1003606,26.3014113 14.8762769,26.4562124 C15.3249703,26.810043 15.8802587,27.0483871 16.5,27.0483871 C17.1172625,27.0483871 17.6700721,26.810043 18.1162861,26.4586694 C18.8946818,26.3063259 19.6284558,26.0360383 20.3076923,25.6822077 L20.3076923,29.3679435 C20.2308442,29.5202876 19.226863,31.4516129 16.5,31.4516129 C13.773137,31.4516129 12.7691558,29.5202876 12.6923077,29.3679435 L12.6923077,25.6797507 Z M11.4230769,28.5300531 L11.4230769,29.7119456 L11.4900092,29.8470894 C11.4900092,29.8470894 12.9873048,32.7096774 16.5,32.7096774 C20.0126952,32.7096774 21.5099908,29.8470894 21.5099908,29.8470894 L21.5769231,29.7119456 L21.5769231,28.5300531 C22.5957784,28.8470262 24.4624399,29.4711445 26.383639,30.3704637 C27.7792972,31.0240679 29.1675183,31.8128152 30.1665413,32.6654489 C31.1655649,33.518082 31.7307692,34.3952876 31.7307692,35.2258065 L31.7307692,37.7419355 L1.26923077,37.7419355 L1.26923077,35.2258065 C1.26923077,34.3952876 1.8344351,33.518082 2.83345869,32.6654489 C3.83248229,31.8128152 5.22070344,31.0240679 6.61636102,30.3704637 C8.5375601,29.4711445 10.4042216,28.8470262 11.4230769,28.5300531 Z" id="Shape" stroke="#9EAFB9" stroke-width="1.5" fill="#9EAFB9" fill-rule="nonzero" stroke-linejoin="round"></path>
            </g>
        </g>
    </g>
</svg>