<svg width="300" height="100" viewBox="0 0 300 100" fill="none" xmlns="http://www.w3.org/2000/svg">
<path fill-rule="evenodd" clip-rule="evenodd" d="M0.105345 47.6179L15.6069 25.0735C15.9367 24.5938 16.6881 24.8272 16.6881 25.4093L16.6881 41.5332L25.492 41.5332C25.9693 41.5332 26.2508 42.0685 25.9804 42.4618L10.4788 65.0063C10.149 65.4859 9.39762 65.2525 9.39762 64.6704L9.39762 48.5466L0.593791 48.5466C0.116485 48.5466 -0.165089 48.0112 0.105345 47.6179Z" fill="#5ED73E"/>
<path d="M33.0239 34.5742C32.5373 34.5742 32.2214 35.0871 32.4404 35.5217L47.0315 64.4713C47.2729 64.9503 47.9569 64.9503 48.1984 64.4713L62.7894 35.5217C63.0085 35.0871 62.6926 34.5742 62.206 34.5742H55.6394C55.3852 34.5742 55.1541 34.7216 55.047 34.9521L48.3321 49.3891C48.0978 49.8928 47.3815 49.8928 47.1472 49.3891L40.4323 34.9521C40.3252 34.7216 40.0941 34.5742 39.8399 34.5742H33.0239Z" fill="#4A4A4A"/>
<path d="M78.0882 33.8259C69.2956 33.8259 62.3115 40.623 62.3115 49.3533C62.3115 58.0211 69.2956 64.8806 78.0882 64.8806C86.8808 64.8806 93.865 58.0211 93.865 49.3533C93.865 40.623 86.8808 33.8259 78.0882 33.8259ZM78.0882 57.8964C73.0372 57.8964 69.9192 53.9678 69.9192 49.3533C69.9192 44.7387 73.0372 40.8101 78.0882 40.8101C83.1393 40.8101 86.2572 44.7387 86.2572 49.3533C86.2572 53.9678 83.1393 57.8964 78.0882 57.8964Z" fill="#4A4A4A"/>
<path d="M98.4745 63.4789C98.4745 63.8397 98.767 64.1323 99.1279 64.1323H105.304C105.665 64.1323 105.958 63.8397 105.958 63.4789V21.6534C105.958 21.2925 105.665 21 105.304 21H99.1279C98.767 21 98.4745 21.2925 98.4745 21.6534V63.4789Z" fill="#4A4A4A"/>
<path d="M110.196 40.6556C110.196 41.0164 110.489 41.309 110.85 41.309H115.342C115.703 41.309 115.996 41.6015 115.996 41.9624V54.4043C115.996 60.7025 120.361 64.8806 126.098 64.8806C129.37 64.8806 131.776 63.7627 132.742 63.2271C133.017 63.074 133.113 62.7384 132.984 62.4507L130.795 57.5762C130.624 57.1959 130.139 57.0619 129.768 57.2524C129.19 57.5493 128.308 57.8964 127.345 57.8964C125.349 57.8964 123.479 56.8363 123.479 53.2195V41.9624C123.479 41.6015 123.771 41.309 124.132 41.309H131.743C132.103 41.309 132.396 41.0164 132.396 40.6556V35.2276C132.396 34.8668 132.103 34.5742 131.743 34.5742H124.132C123.771 34.5742 123.479 34.2817 123.479 33.9209V32.3357C123.479 32.142 123.393 31.9583 123.244 31.8342L117.068 26.6769C116.642 26.3217 115.996 26.6242 115.996 27.1784V33.9209C115.996 34.2817 115.703 34.5742 115.342 34.5742H110.85C110.489 34.5742 110.196 34.8668 110.196 35.2276V40.6556Z" fill="#4A4A4A"/>
<path d="M148.908 59.1431C146.698 59.1431 143.771 58.4812 143.771 55.4726C143.771 52.4038 146.818 51.441 149.028 51.441C151.825 51.441 153.94 52.1902 154.904 52.6093C155.266 52.7666 155.48 53.1293 155.48 53.5239V55.4951C155.48 55.7156 155.415 55.9296 155.275 56.0998C154.628 56.886 152.461 59.1431 148.908 59.1431ZM149.745 35.1943C145.312 35.1943 141.248 36.6479 139.491 37.3761C138.966 37.5932 138.732 38.1878 138.939 38.7161L140.474 42.6405C140.705 43.2329 141.394 43.5091 141.985 43.2727C143.535 42.6524 146.518 41.6328 149.386 41.6328C151.896 41.6328 155.48 42.8363 155.48 46.567C155.48 47.2331 154.67 47.6798 154.062 47.4082C152.769 46.8309 150.602 46.1458 147.594 46.1458C141.441 46.1458 136.482 50.1172 136.482 55.5929C136.482 61.6704 141.381 65.1604 146.698 65.1604C150.117 65.1604 152.545 63.9211 154.063 62.7682C154.728 62.2635 156.018 62.7574 156.018 63.592C156.018 64.0594 156.397 64.4383 156.864 64.4383H161.557C162.16 64.4383 162.649 63.9495 162.649 63.3464V45.8449C162.649 39.3463 157.87 35.1943 149.745 35.1943Z" fill="#4A4A4A"/>
<path d="M185.743 63.5612C186.615 63.0055 188.07 63.5861 188.07 64.6201V64.9197C188.07 69.192 185.561 72.2608 180.005 72.2608C176.174 72.2608 173.085 70.1694 171.595 68.934C171.068 68.4977 170.252 68.5582 169.848 69.1093L167.113 72.8361C166.796 73.2676 166.841 73.8597 167.249 74.2054C168.931 75.6276 173.594 79.0001 180.005 79.0001C187.951 79.0001 195.239 74.6075 195.239 64.679V37.0083C195.239 36.4053 194.75 35.9164 194.147 35.9164H189.408C188.966 35.9164 188.608 36.2748 188.608 36.7168C188.608 37.5316 187.274 38.0066 186.642 37.4918C185.248 36.3554 183.085 35.1943 180.065 35.1943C172.717 35.1943 166.265 41.3921 166.265 50.1774C166.265 58.9626 172.717 65.1604 180.065 65.1604C182.511 65.1604 184.388 64.4249 185.743 63.5612ZM188.07 54.1798C188.07 54.357 188.028 54.5299 187.934 54.6801C187.403 55.5274 185.297 58.421 181.319 58.421C176.48 58.421 173.553 54.8708 173.553 50.1774C173.553 45.4839 176.48 41.9337 181.319 41.9337C185.355 41.9337 187.425 44.8378 187.94 45.6792C188.031 45.8266 188.07 45.9952 188.07 46.1681V54.1798Z" fill="#4A4A4A"/>
<path d="M213.08 35.1943C204.895 35.1943 198.862 41.8133 198.862 50.1774C198.862 58.5414 205.493 65.1604 214.095 65.1604C219.337 65.1604 223.188 62.7784 224.719 61.6493C225.152 61.3301 225.227 60.7381 224.931 60.2897L222.61 56.7837C222.225 56.2026 221.382 56.106 220.808 56.5012C219.571 57.3534 217.275 58.5414 214.095 58.5414C210.341 58.5414 207.677 56.26 206.596 54.0336C206.293 53.4089 206.804 52.7648 207.499 52.7648H226.265C226.844 52.7648 227.324 52.3117 227.339 51.7322C227.358 51.0377 227.358 50.4234 227.358 50.057C227.358 41.2718 220.846 35.1943 213.08 35.1943ZM207.35 47.5298C206.706 47.5298 206.197 46.971 206.385 46.3554C207.074 44.0996 209.171 41.7532 213.08 41.7532C217.107 41.7532 219.351 44.1631 219.997 46.403C220.169 47.0023 219.667 47.5298 219.043 47.5298H207.35Z" fill="#4A4A4A"/>
</svg>
