<svg width="240" height="80" viewBox="0 0 240 80" fill="none" xmlns="http://www.w3.org/2000/svg">
<path fill-rule="evenodd" clip-rule="evenodd" d="M34.0792 38.0198L45.7382 21.0637C45.9863 20.7029 46.5514 20.8785 46.5514 21.3163L46.5514 33.4433L53.1732 33.4433C53.5322 33.4433 53.744 33.8459 53.5406 34.1418L41.8816 51.0978C41.6336 51.4586 41.0684 51.2831 41.0684 50.8452L41.0684 38.7182L34.4466 38.7182C34.0876 38.7182 33.8758 38.3156 34.0792 38.0198Z" fill="#5ED73E"/>
<path d="M58.838 28.2094C58.472 28.2094 58.2345 28.5952 58.3992 28.922L69.3734 50.6955C69.555 51.0558 70.0694 51.0558 70.251 50.6955L81.2252 28.922C81.3899 28.5952 81.1524 28.2094 80.7864 28.2094H75.8475C75.6564 28.2094 75.4826 28.3203 75.402 28.4936L70.3516 39.3519C70.1754 39.7308 69.6367 39.7308 69.4604 39.3519L64.4101 28.4936C64.3294 28.3203 64.1556 28.2094 63.9645 28.2094H58.838Z" fill="#4A4A4A"/>
<path d="M92.7317 27.6466C86.1186 27.6466 80.8657 32.7588 80.8657 39.325C80.8657 45.8442 86.1186 51.0033 92.7317 51.0033C99.3447 51.0033 104.598 45.8442 104.598 39.325C104.598 32.7588 99.3447 27.6466 92.7317 27.6466ZM92.7317 45.7504C88.9327 45.7504 86.5876 42.7956 86.5876 39.325C86.5876 35.8543 88.9327 32.8995 92.7317 32.8995C96.5307 32.8995 98.8757 35.8543 98.8757 39.325C98.8757 42.7956 96.5307 45.7504 92.7317 45.7504Z" fill="#4A4A4A"/>
<path d="M108.065 49.9491C108.065 50.2205 108.285 50.4405 108.556 50.4405H113.201C113.473 50.4405 113.693 50.2205 113.693 49.9491V18.4914C113.693 18.22 113.473 18 113.201 18H108.556C108.285 18 108.065 18.22 108.065 18.4914V49.9491Z" fill="#4A4A4A"/>
<path d="M116.881 32.7833C116.881 33.0547 117.101 33.2747 117.372 33.2747H120.751C121.023 33.2747 121.243 33.4947 121.243 33.7661V43.124C121.243 47.861 124.526 51.0033 128.84 51.0033C131.301 51.0033 133.112 50.1625 133.837 49.7597C134.045 49.6446 134.117 49.3922 134.019 49.1758L132.373 45.5096C132.245 45.2235 131.88 45.1228 131.601 45.266C131.166 45.4894 130.503 45.7504 129.779 45.7504C128.278 45.7504 126.871 44.9531 126.871 42.2328V33.7661C126.871 33.4947 127.091 33.2747 127.362 33.2747H133.086C133.357 33.2747 133.578 33.0547 133.578 32.7833V28.7008C133.578 28.4294 133.357 28.2094 133.086 28.2094H127.362C127.091 28.2094 126.871 27.9894 126.871 27.718V26.5258C126.871 26.3801 126.806 26.242 126.694 26.1486L122.049 22.2697C121.729 22.0025 121.243 22.23 121.243 22.6469V27.718C121.243 27.9894 121.023 28.2094 120.751 28.2094H117.372C117.101 28.2094 116.881 28.4294 116.881 28.7008V32.7833Z" fill="#4A4A4A"/>
<path d="M145.996 46.6881C144.334 46.6881 142.132 46.1902 142.132 43.9274C142.132 41.6193 144.424 40.8952 146.086 40.8952C148.19 40.8952 149.78 41.4587 150.506 41.7739C150.778 41.8922 150.939 42.165 150.939 42.4618V43.9443C150.939 44.1102 150.89 44.2711 150.784 44.3992C150.298 44.9905 148.668 46.6881 145.996 46.6881ZM146.625 28.6758C143.291 28.6758 140.235 29.769 138.913 30.3167C138.519 30.48 138.342 30.9272 138.498 31.3246L139.652 34.2761C139.827 34.7217 140.344 34.9295 140.789 34.7517C141.954 34.2851 144.199 33.5183 146.356 33.5183C148.243 33.5183 150.939 34.4234 150.939 37.2294C150.939 37.7304 150.33 38.0663 149.872 37.862C148.9 37.4278 147.27 36.9126 145.008 36.9126C140.38 36.9126 136.65 39.8995 136.65 44.0179C136.65 48.5889 140.335 51.2138 144.334 51.2138C146.905 51.2138 148.731 50.2817 149.873 49.4145C150.373 49.035 151.343 49.4065 151.343 50.0342C151.343 50.3857 151.628 50.6707 151.98 50.6707H155.509C155.963 50.6707 156.331 50.303 156.331 49.8495V36.6863C156.331 31.7985 152.736 28.6758 146.625 28.6758Z" fill="#4A4A4A"/>
<path d="M173.7 50.011C174.356 49.593 175.45 50.0297 175.45 50.8074V51.0327C175.45 54.246 173.563 56.5541 169.385 56.5541C166.503 56.5541 164.18 54.9811 163.059 54.0519C162.663 53.7238 162.049 53.7693 161.745 54.1838L159.688 56.9868C159.45 57.3114 159.483 57.7567 159.791 58.0167C161.055 59.0864 164.562 61.6229 169.385 61.6229C175.361 61.6229 180.842 58.3191 180.842 50.8517V30.0401C180.842 29.5865 180.475 29.2189 180.021 29.2189H176.457C176.124 29.2189 175.855 29.4884 175.855 29.8209C175.855 30.4337 174.852 30.7909 174.377 30.4037C173.328 29.549 171.701 28.6758 169.43 28.6758C163.903 28.6758 159.05 33.3372 159.05 39.9448C159.05 46.5523 163.903 51.2138 169.43 51.2138C171.27 51.2138 172.681 50.6606 173.7 50.011ZM175.45 42.955C175.45 43.0884 175.419 43.2184 175.348 43.3314C174.949 43.9686 173.365 46.145 170.373 46.145C166.734 46.145 164.532 43.4748 164.532 39.9448C164.532 36.4147 166.734 33.7446 170.373 33.7446C173.409 33.7446 174.965 35.9288 175.353 36.5616C175.421 36.6725 175.45 36.7993 175.45 36.9293V42.955Z" fill="#4A4A4A"/>
<path d="M194.261 28.6758C188.105 28.6758 183.567 33.654 183.567 39.9448C183.567 46.2355 188.554 51.2138 195.024 51.2138C198.967 51.2138 201.863 49.4222 203.015 48.573C203.34 48.3329 203.397 47.8877 203.174 47.5504L201.428 44.9135C201.139 44.4765 200.505 44.4038 200.073 44.7011C199.143 45.342 197.416 46.2355 195.024 46.2355C192.201 46.2355 190.197 44.5196 189.384 42.8451C189.156 42.3753 189.541 41.8908 190.063 41.8908H204.177C204.613 41.8908 204.974 41.55 204.985 41.1142C204.999 40.5919 204.999 40.1298 204.999 39.8543C204.999 33.2467 200.102 28.6758 194.261 28.6758ZM189.951 37.9535C189.467 37.9535 189.084 37.5332 189.226 37.0702C189.743 35.3736 191.321 33.6088 194.261 33.6088C197.29 33.6088 198.977 35.4213 199.463 37.106C199.593 37.5568 199.215 37.9535 198.746 37.9535H189.951Z" fill="#4A4A4A"/>
</svg>
