<svg xmlns="http://www.w3.org/2000/svg" width="26" height="25" viewBox="0 0 26 25">
    <g fill="none">
        <path fill="#ABC3D2" d="M22.61 5.244H4.15v-.026C3.553 5.153 3.1 4.693 3.1 4.13s.468-1.024 1.05-1.09c.028 0 .042-.012.07-.012h16.095c.028 0 .056-.013.085-.013.481-.04.878-.42.878-.88 0-.485-.44-.892-.963-.892H2.718h-.014-.014c-.808 0-1.46.604-1.46 1.352v18.779c0 .905.794 1.64 1.772 1.64h19.622c.978 0 1.77-.735 1.77-1.64V6.885c-.013-.893-.807-1.64-1.784-1.64zm-2.076 11.832c-1.069 0-1.93-.884-1.93-1.98 0-1.095.861-1.979 1.93-1.979 1.07 0 1.93.884 1.93 1.98 0 1.095-.877 1.979-1.93 1.979z" transform="translate(.348 .865)"/>
        <path fill="#FFF" d="M22.61 5.244H4.15v-.026C3.553 5.153 3.1 4.693 3.1 4.13s.468-1.024 1.05-1.09c.028 0 .042-.012.07-.012h16.095c.028 0 .056-.013.085-.013.481-.04.878-.42.878-.88 0-.485-.44-.892-.963-.892H2.718h-.014-.014c-.808 0-1.46.604-1.46 1.352v18.779c0 .905.794 1.64 1.772 1.64h19.622c.978 0 1.77-.735 1.77-1.64V6.885c-.013-.893-.807-1.64-1.784-1.64zm-2.076 11.832c-1.069 0-1.93-.884-1.93-1.98 0-1.095.861-1.979 1.93-1.979 1.07 0 1.93.884 1.93 1.98 0 1.095-.877 1.979-1.93 1.979z" transform="translate(.348 .865)"/>
    </g>
</svg>
