<svg width="109" height="40" viewBox="0 0 109 40" fill="none" xmlns="http://www.w3.org/2000/svg">
<g clip-path="url(#clip0)">
<path d="M26.1569 12.4666L35.6407 23.327L24.7803 23.6329L26.1569 12.4666Z" fill="#15A4FC"/>
<path d="M20.9562 7.80115L4.2832 7.87763L18.2029 10.7839L24.5509 23.2505L20.9562 7.80115Z" fill="#15A4FC"/>
<path d="M41.2234 7.72473L41.4528 20.7266L35.0283 13.5374L41.2234 7.72473Z" fill="url(#paint0_linear)"/>
<path d="M37.3232 11.3959L41.2238 7.72473L46.5011 13.3079L37.3232 11.3959Z" fill="#15A4FC"/>
<path d="M41.4527 20.7266L28.9097 6.11852L20.1143 4.28296L24.5502 23.2505L24.9326 30.2103L41.5292 20.7266H41.4527Z" fill="url(#paint1_linear)"/>
<path d="M7.64844 40L26.0041 29.5985L24.6274 23.2505L7.64844 40Z" fill="url(#paint2_linear)"/>
<path d="M-0.229492 0.0764818L23.4034 0L28.9101 6.11855L-0.229492 0.0764818Z" fill="#15A4FC"/>
<path d="M67.4572 11.0134L63.8626 22.0268H61.9505L59.962 15.2199L57.897 22.0268H56.0614L52.4668 11.0134H54.7613L57.0557 18.1262L59.0442 11.0134H60.8033L62.7918 18.1262L65.1628 11.0134H67.4572Z" fill="#1164C7"/>
<path d="M72.1229 22.0268H69.9814V11.0134H72.1229V22.0268Z" fill="#1164C7"/>
<path d="M84.7423 22.0268H82.6008L77.6295 14.3021V22.0268H75.5645V11.0134H77.9354L82.6008 18.2027V11.0134H84.6658V22.0268H84.7423Z" fill="#1164C7"/>
<path d="M98.0503 19.9618C97.7443 20.3442 97.3619 20.6501 97.056 20.956C96.6736 21.262 96.2912 21.4914 95.9088 21.6444C95.5264 21.7973 95.0675 21.9503 94.6851 22.0268C94.3027 22.1033 93.8438 22.1797 93.4614 22.1797C92.6201 22.1797 91.8552 22.0268 91.1669 21.7208C90.4786 21.4149 89.7902 21.0325 89.3314 20.4971C88.796 19.9618 88.4136 19.3499 88.0312 18.6616C87.7252 17.9732 87.5723 17.2084 87.5723 16.3671C87.5723 15.6023 87.7252 14.8375 88.0312 14.1491C88.3371 13.4608 88.796 12.849 89.3314 12.3136C89.8667 11.7782 90.4786 11.3958 91.2434 11.0899C91.9317 10.7839 92.6966 10.631 93.5379 10.631C94.4556 10.631 95.3734 10.8604 96.1382 11.2428C96.903 11.6252 97.5914 12.1606 98.1268 12.7725L96.6736 14.2256C96.2912 13.6903 95.8323 13.2314 95.2969 13.0019C94.7616 12.7725 94.2262 12.6195 93.6143 12.6195C93.079 12.6195 92.6201 12.696 92.1612 12.9254C91.7023 13.1549 91.3199 13.3843 90.9375 13.6903C90.6315 13.9962 90.3256 14.3786 90.0962 14.8375C89.8667 15.2964 89.7902 15.7553 89.7902 16.2906C89.7902 16.826 89.8667 17.2849 90.0962 17.7438C90.3256 18.2027 90.5551 18.5851 90.9375 18.891C91.2434 19.1969 91.7023 19.5029 92.1612 19.6558C92.6201 19.8853 93.079 19.9618 93.6143 19.9618C94.0732 19.9618 94.6086 19.8853 94.991 19.6558C95.4499 19.5029 95.8323 19.1969 96.1382 18.891V17.8203H93.8438V15.9847H98.1268V19.9618H98.0503Z" fill="#1164C7"/>
<path d="M108.375 19.1205C108.375 19.5029 108.299 19.9618 108.069 20.2677C107.916 20.6502 107.611 20.9561 107.305 21.262C106.999 21.5679 106.616 21.7974 106.157 21.9504C105.698 22.1033 105.24 22.1798 104.704 22.1798C104.245 22.1798 103.786 22.1798 103.404 22.1033C103.022 22.0268 102.639 21.9504 102.333 21.8739C102.027 21.7209 101.645 21.5679 101.339 21.415C101.033 21.262 100.727 21.0326 100.345 20.7266L101.874 19.197C102.333 19.5794 102.716 19.8089 103.175 19.9618C103.633 20.1148 104.092 20.1913 104.551 20.1913C104.781 20.1913 104.934 20.1913 105.087 20.1148C105.24 20.0383 105.393 19.9618 105.545 19.8853C105.698 19.8089 105.775 19.6559 105.851 19.5029C105.928 19.35 106.004 19.197 106.004 19.044C106.004 18.8911 106.004 18.7381 105.928 18.5851C105.851 18.4322 105.775 18.2792 105.622 18.2027C105.469 18.0498 105.24 17.9733 104.934 17.8203C104.628 17.6674 104.245 17.5144 103.786 17.3614C103.404 17.2085 103.022 17.0555 102.639 16.8261C102.257 16.6731 101.951 16.4437 101.645 16.1377C101.339 15.9083 101.11 15.5259 100.957 15.2199C100.804 14.8375 100.727 14.4551 100.727 13.9198C100.727 13.4609 100.804 13.002 101.033 12.6196C101.186 12.2372 101.492 11.8547 101.798 11.6253C102.104 11.3194 102.486 11.0899 102.945 10.937C103.404 10.784 103.863 10.7075 104.322 10.7075C105.163 10.7075 105.851 10.784 106.463 11.0134C107.075 11.2429 107.534 11.5488 107.993 12.0077L106.54 13.5373C106.234 13.3079 105.928 13.0785 105.622 12.9255C105.316 12.7725 104.857 12.696 104.398 12.696C104.169 12.696 104.016 12.696 103.786 12.7725C103.633 12.849 103.48 12.9255 103.328 13.002C103.175 13.0785 103.098 13.2314 103.022 13.3844C102.945 13.5373 102.869 13.6903 102.869 13.8433C102.869 13.9962 102.869 14.1492 102.945 14.3022C103.022 14.4551 103.175 14.6081 103.328 14.6846C103.48 14.8375 103.71 14.914 104.016 15.067C104.322 15.2199 104.628 15.3729 105.087 15.5259C105.622 15.7553 106.081 15.9083 106.54 16.1377C106.922 16.3672 107.228 16.5966 107.534 16.9025C107.763 17.2085 107.993 17.5144 108.069 17.8203C108.375 18.2792 108.375 18.6616 108.375 19.1205Z" fill="#1164C7"/>
<path d="M57.2847 26.0038H55.6786V26.7686H57.2847V27.304H55.6786V28.8337H54.9902V25.392H57.2847V26.0038Z" fill="#15A4FC"/>
<path d="M63.633 27.151C63.633 27.3805 63.5566 27.6099 63.4801 27.8394C63.4036 28.0688 63.2506 28.2218 63.0977 28.3748C62.9447 28.5277 62.7153 28.6807 62.4858 28.7572C62.2564 28.8336 62.0269 28.9101 61.7975 28.9101C61.568 28.9101 61.3386 28.8336 61.1091 28.7572C60.8797 28.6807 60.7267 28.5277 60.4973 28.3748C60.3443 28.2218 60.1914 27.9924 60.1149 27.8394C60.0384 27.6099 59.9619 27.3805 59.9619 27.151C59.9619 26.9216 60.0384 26.6922 60.1149 26.4627C60.1914 26.2333 60.3443 26.0803 60.4973 25.9273C60.6502 25.7744 60.8797 25.6214 61.1091 25.5449C61.3386 25.4685 61.568 25.392 61.7975 25.392C62.0269 25.392 62.2564 25.4685 62.4858 25.5449C62.7153 25.6214 62.8682 25.7744 63.0977 25.9273C63.2506 26.0803 63.4036 26.3097 63.4801 26.4627C63.5566 26.6922 63.633 26.9216 63.633 27.151ZM62.9447 27.151C62.9447 26.9981 62.9447 26.8451 62.8682 26.6922C62.7917 26.5392 62.7153 26.4627 62.6388 26.3098C62.5623 26.1568 62.4093 26.1568 62.2564 26.0803C62.1034 26.0038 61.9504 26.0038 61.7975 26.0038C61.6445 26.0038 61.4915 26.0038 61.3386 26.0803C61.1856 26.1568 61.1091 26.2333 60.9562 26.3098C60.8797 26.3862 60.8032 26.5392 60.7267 26.6922C60.6503 26.8451 60.6503 26.9981 60.6503 27.151C60.6503 27.304 60.6503 27.457 60.7267 27.6099C60.8032 27.7629 60.8797 27.8394 60.9562 27.9923C61.0327 28.0688 61.1856 28.1453 61.3386 28.2218C61.4915 28.2983 61.6445 28.2983 61.7975 28.2983C61.9504 28.2983 62.1034 28.2983 62.2564 28.2218C62.4093 28.1453 62.4858 28.0688 62.6388 27.9923C62.7917 27.9159 62.7917 27.7629 62.8682 27.6099C62.9447 27.457 62.9447 27.304 62.9447 27.151Z" fill="#15A4FC"/>
<path d="M69.5215 25.4685V27.3041C69.5215 27.5335 69.5215 27.763 69.4451 27.9159C69.3686 28.1454 69.2921 28.2983 69.1391 28.4513C68.9862 28.6043 68.8332 28.6807 68.6802 28.8337C68.5273 28.9102 68.2978 28.9867 68.0684 28.9867C67.8389 28.9867 67.6095 28.9102 67.4565 28.8337C67.3036 28.7572 67.0741 28.6043 66.9976 28.5278C66.8447 28.3748 66.7682 28.2219 66.6917 27.9924C66.6152 27.763 66.6152 27.61 66.6152 27.3806V25.4685H67.3036V27.3806C67.3036 27.5335 67.3036 27.61 67.3801 27.763C67.3801 27.9159 67.4565 27.9924 67.533 28.0689C67.6095 28.1454 67.686 28.2219 67.8389 28.2983C67.9154 28.3748 68.0684 28.3748 68.2214 28.3748C68.3743 28.3748 68.5273 28.3748 68.6038 28.2983C68.6802 28.2219 68.8332 28.2219 68.8332 28.0689C68.9097 27.9924 68.9862 27.9159 68.9862 27.763C68.9862 27.6865 69.0627 27.5335 69.0627 27.3806V25.4685H69.5215Z" fill="#15A4FC"/>
<path d="M75.334 28.9102H74.6457L73.1161 26.4628V28.9102H72.4277V25.4685H73.1926L74.6457 27.6865V25.4685H75.334V28.9102Z" fill="#15A4FC"/>
<path d="M81.4528 27.1511C81.4528 27.3806 81.3763 27.61 81.2999 27.8394C81.2234 28.0689 81.0704 28.2219 80.9939 28.3748C80.841 28.5278 80.688 28.6807 80.4586 28.7572C80.2291 28.8337 80.0762 28.9102 79.8467 28.9102H78.3936V25.4685H79.8467C80.0762 25.4685 80.3056 25.545 80.4586 25.6215C80.688 25.698 80.841 25.8509 80.9939 26.0039C81.1469 26.1568 81.2234 26.3098 81.2999 26.5393C81.3763 26.6922 81.4528 26.9217 81.4528 27.1511ZM80.7645 27.1511C80.7645 26.9981 80.7645 26.8452 80.688 26.6922C80.6115 26.5393 80.535 26.3863 80.4586 26.3098C80.3821 26.2333 80.2291 26.0804 80.0762 26.0804C79.9232 26.0039 79.7702 26.0039 79.6173 26.0039H79.0054V28.2983H79.6173C79.7702 28.2983 79.9232 28.2983 80.0762 28.2219C80.2291 28.1454 80.3056 28.0689 80.4586 27.9924C80.535 27.9159 80.6115 27.763 80.688 27.61C80.7645 27.457 80.7645 27.3041 80.7645 27.1511Z" fill="#15A4FC"/>
<path d="M87.5712 28.9102H86.8063L86.5004 28.2219H84.8178L84.5119 28.9102H83.7471L85.3532 25.4685H85.8886L87.5712 28.9102ZM86.1945 27.61L85.6591 26.3863L85.0473 27.61H86.1945Z" fill="#15A4FC"/>
<path d="M92.0838 26.0038H91.166V28.8337H90.4777V26.0038H89.4834V25.392H92.0838V26.0038Z" fill="#15A4FC"/>
<path d="M95.6024 28.9102H94.9141V25.4685H95.6024V28.9102Z" fill="#15A4FC"/>
<path d="M102.103 27.151C102.103 27.3805 102.026 27.6099 101.95 27.8394C101.873 28.0688 101.72 28.2218 101.567 28.3748C101.414 28.5277 101.185 28.6807 100.956 28.7572C100.726 28.8336 100.497 28.9101 100.267 28.9101C100.038 28.9101 99.8083 28.8336 99.5789 28.7572C99.3494 28.6807 99.1965 28.5277 98.967 28.3748C98.814 28.2218 98.6611 27.9924 98.5846 27.8394C98.5081 27.6099 98.4316 27.3805 98.4316 27.151C98.4316 26.9216 98.5081 26.6922 98.5846 26.4627C98.6611 26.2333 98.814 26.0803 98.967 25.9273C99.12 25.7744 99.3494 25.6214 99.5789 25.5449C99.8083 25.4685 100.038 25.392 100.267 25.392C100.497 25.392 100.726 25.4685 100.956 25.5449C101.185 25.6214 101.338 25.7744 101.567 25.9273C101.72 26.0803 101.873 26.3097 101.95 26.4627C102.103 26.6922 102.103 26.9216 102.103 27.151ZM101.491 27.151C101.491 26.9981 101.491 26.8451 101.414 26.6922C101.338 26.5392 101.261 26.4627 101.185 26.3098C101.109 26.1568 100.956 26.1568 100.803 26.0803C100.65 26.0038 100.497 26.0038 100.344 26.0038C100.191 26.0038 100.038 26.0038 99.8848 26.0803C99.7318 26.1568 99.6554 26.2333 99.5024 26.3098C99.4259 26.3862 99.3494 26.5392 99.2729 26.6922C99.1965 26.8451 99.1965 26.9981 99.1965 27.151C99.1965 27.304 99.1965 27.457 99.2729 27.6099C99.3494 27.7629 99.4259 27.8394 99.5024 27.9923C99.5789 28.0688 99.7318 28.1453 99.8848 28.2218C100.038 28.2983 100.191 28.2983 100.344 28.2983C100.497 28.2983 100.65 28.2983 100.803 28.2218C100.956 28.1453 101.032 28.0688 101.185 27.9923C101.338 27.9159 101.338 27.7629 101.414 27.6099C101.414 27.457 101.491 27.304 101.491 27.151Z" fill="#15A4FC"/>
<path d="M107.916 28.9102H107.228L105.698 26.4628V28.9102H105.01V25.4685H105.775L107.228 27.6865V25.4685H107.916V28.9102Z" fill="#15A4FC"/>
</g>
<defs>
<linearGradient id="paint0_linear" x1="37.9296" y1="7.43624" x2="38.7158" y2="19.7537" gradientUnits="userSpaceOnUse">
<stop stop-color="#0094FF"/>
<stop offset="1" stop-color="#1145EA"/>
</linearGradient>
<linearGradient id="paint1_linear" x1="31.7023" y1="22.921" x2="22.3816" y2="7.11118" gradientUnits="userSpaceOnUse">
<stop stop-color="#15A4FC"/>
<stop offset="1" stop-color="#1145EA"/>
</linearGradient>
<linearGradient id="paint2_linear" x1="16.7071" y1="32.8894" x2="28.4211" y2="24.1039" gradientUnits="userSpaceOnUse">
<stop stop-color="#15A4FC"/>
<stop offset="1" stop-color="#1145EA"/>
</linearGradient>
<clipPath id="clip0">
<rect width="108.375" height="40" fill="white"/>
</clipPath>
</defs>
</svg>
