<svg width="112" height="25" viewBox="0 0 112 25" fill="none" xmlns="http://www.w3.org/2000/svg">
<g clip-path="url(#clip0)">
<path d="M13.9408 1.80688H11.3779V18.6532H13.9408V1.80688Z" fill="#374248"/>
<path d="M15.8626 1.80688H13.2998V18.6532H15.8626V1.80688Z" fill="#374248"/>
<path d="M14.6265 -0.00133898L11.2607 1.88379L12.5583 4.24898L15.9241 2.36385L14.6265 -0.00133898Z" fill="#374248"/>
<path d="M10.9926 14.1216H8.50684V18.0387H10.9926V14.1216Z" fill="#374248"/>
<path d="M12.8566 14.0642H10.3525V18.0366H12.8566V14.0642Z" fill="#374248"/>
<path d="M11.7204 12.3094L8.25 14.2532L9.50035 16.5324L12.9708 14.5886L11.7204 12.3094Z" fill="#374248"/>
<path d="M8.23773 11.3394H5.75195V17.2805H8.23773V11.3394Z" fill="#374248"/>
<path d="M10.1007 11.2759H7.59668V17.2908H10.1007V11.2759Z" fill="#374248"/>
<path d="M8.99781 9.50342L5.56641 11.4253L6.80397 13.6812L10.2354 11.7593L8.99781 9.50342Z" fill="#374248"/>
<path d="M5.41742 17.293H2.93164V21.21H5.41742V17.293Z" fill="#374248"/>
<path d="M7.2804 17.2375H4.77637V21.1464H7.2804V17.2375Z" fill="#374248"/>
<path d="M6.17458 15.4659L2.67578 17.4255L3.92613 19.7047L7.42492 17.7451L6.17458 15.4659Z" fill="#374248"/>
<path d="M2.72689 8.15161H0.164062V24.9979H2.72689V8.15161Z" fill="#374248"/>
<path d="M4.64876 8.15161H2.08594V24.9979H4.64876V8.15161Z" fill="#374248"/>
<path d="M3.50155 6.29647L0.000976562 8.25708L1.29851 10.6223L4.79908 8.66166L3.50155 6.29647Z" fill="#374248"/>
<path d="M21.035 1.5161L25.0901 11.2678L27.9773 4.36786C28.0131 4.29729 28.0665 4.23744 28.1323 4.1943C28.1982 4.15115 28.2741 4.12623 28.3524 4.12202C28.4357 4.1221 28.5174 4.145 28.5888 4.18829C28.6602 4.23159 28.7187 4.29365 28.7579 4.36786L31.6289 11.2678L35.684 1.5161C35.7283 1.41736 35.8095 1.34036 35.9098 1.30196C36.0101 1.26356 36.1214 1.2669 36.2193 1.31124C36.2675 1.33124 36.3112 1.36091 36.3477 1.39845C36.3842 1.43599 36.4128 1.48062 36.4317 1.52964C36.4507 1.57867 36.4596 1.63107 36.4579 1.68367C36.4563 1.73628 36.4441 1.78799 36.4221 1.8357L32.002 12.4376C31.9719 12.5039 31.9269 12.5621 31.8706 12.6076C31.8143 12.6531 31.7482 12.6847 31.6776 12.6998H31.5965C31.5233 12.703 31.4515 12.6798 31.3937 12.6343C31.3775 12.6179 31.3451 12.6015 31.3289 12.5687C31.3029 12.5391 31.281 12.506 31.264 12.4704C31.2651 12.4615 31.2643 12.4524 31.2614 12.4439C31.2586 12.4354 31.254 12.4276 31.2478 12.4212L28.3686 5.48234L25.4652 12.4151C25.4638 12.4457 25.4516 12.4748 25.4307 12.497C25.4133 12.5414 25.3855 12.5807 25.3496 12.6117C25.3373 12.6135 25.3259 12.6192 25.3172 12.6281C25.2506 12.6745 25.1708 12.6976 25.0901 12.6937C25.0028 12.6946 24.9178 12.6657 24.8488 12.6117L24.8143 12.579L24.7981 12.5626C24.7454 12.5062 24.7113 12.4346 24.7008 12.3577L20.3213 1.84389C20.3 1.79654 20.2881 1.74542 20.2864 1.69343C20.2846 1.64145 20.293 1.58963 20.3111 1.54093C20.3292 1.49223 20.3566 1.4476 20.3917 1.4096C20.4268 1.37159 20.4691 1.34095 20.5159 1.31943C20.5628 1.29791 20.6134 1.28592 20.6648 1.28416C20.7163 1.28239 20.7676 1.29089 20.8158 1.30915C20.864 1.32741 20.9081 1.35509 20.9457 1.3906C20.9833 1.42611 21.0137 1.46875 21.035 1.5161Z" fill="#374248"/>
<path d="M43.2244 1.05713C46.2657 1.05713 48.644 3.66304 48.6603 6.87537C48.644 10.0877 46.2576 12.6936 43.2244 12.6936C40.1587 12.6936 37.75 10.0877 37.75 6.87537C37.7581 3.66304 40.1587 1.05713 43.2244 1.05713ZM43.2244 11.8905C45.7223 11.8905 47.833 9.67796 47.8492 6.87537C47.833 4.03795 45.7223 1.8766 43.2244 1.8766C40.6453 1.8766 38.5367 4.04 38.5367 6.87537C38.5367 9.67796 40.6453 11.8905 43.2244 11.8905Z" fill="#374248"/>
<path d="M52.3729 12.6936H52.3405C52.2385 12.6895 52.1418 12.6468 52.0696 12.5739C51.9975 12.501 51.9552 12.4033 51.9512 12.3002V1.61433C51.9698 1.52171 52.0195 1.43843 52.0919 1.37862C52.1644 1.31881 52.255 1.28613 52.3486 1.28613C52.4421 1.28613 52.5328 1.31881 52.6052 1.37862C52.6776 1.43843 52.7274 1.52171 52.746 1.61433V11.8905H58.1818C58.2407 11.8784 58.3016 11.8797 58.3599 11.8943C58.4182 11.9089 58.4726 11.9364 58.5192 11.9748C58.5657 12.0132 58.6032 12.0616 58.6289 12.1165C58.6547 12.1714 58.668 12.2313 58.668 12.292C58.668 12.3528 58.6547 12.4127 58.6289 12.4676C58.6032 12.5225 58.5657 12.5709 58.5192 12.6093C58.4726 12.6477 58.4182 12.6752 58.3599 12.6898C58.3016 12.7044 58.2407 12.7057 58.1818 12.6936H52.3729Z" fill="#374248"/>
<path d="M61.084 1.61429C61.0844 1.5129 61.1233 1.41554 61.1928 1.34234C61.2622 1.26913 61.3568 1.22567 61.4571 1.22095H67.3369C67.4286 1.23976 67.511 1.29001 67.5702 1.36319C67.6294 1.43637 67.6618 1.52797 67.6618 1.62249C67.6618 1.717 67.6294 1.80861 67.5702 1.88179C67.511 1.95497 67.4286 2.00522 67.3369 2.02403H61.8788V6.5639H66.6476C66.7065 6.55181 66.7673 6.55311 66.8256 6.56769C66.884 6.58226 66.9384 6.60976 66.9849 6.64819C67.0314 6.68662 67.0689 6.73502 67.0947 6.78988C67.1204 6.84475 67.1338 6.90471 67.1338 6.96544C67.1338 7.02616 67.1204 7.08612 67.0947 7.14099C67.0689 7.19586 67.0314 7.24426 66.9849 7.28268C66.9384 7.32111 66.884 7.34861 66.8256 7.36319C66.7673 7.37777 66.7065 7.37906 66.6476 7.36698H61.8788V12.3002C61.8602 12.3928 61.8104 12.4761 61.738 12.5359C61.6656 12.5957 61.5749 12.6284 61.4814 12.6284C61.3878 12.6284 61.2972 12.5957 61.2248 12.5359C61.1523 12.4761 61.1026 12.3928 61.084 12.3002V1.61429Z" fill="#374248"/>
<path d="M70.8968 1.61432C70.9008 1.51129 70.9431 1.41357 71.0152 1.34066C71.0874 1.26775 71.1841 1.22501 71.2861 1.22097H77.1254C77.1767 1.22042 77.2276 1.23022 77.2751 1.24979C77.3225 1.26937 77.3657 1.29832 77.4019 1.33496C77.4382 1.37159 77.4668 1.41517 77.4862 1.46314C77.5056 1.51111 77.5153 1.56251 77.5147 1.61432C77.5172 1.6674 77.509 1.72045 77.4905 1.77021C77.472 1.81997 77.4437 1.86541 77.4073 1.90375C77.3708 1.94209 77.3271 1.97253 77.2786 1.99321C77.2302 2.01389 77.178 2.02439 77.1254 2.02405H71.6916V6.56392H76.4442C76.5358 6.58273 76.6183 6.63298 76.6775 6.70616C76.7367 6.77934 76.769 6.87094 76.769 6.96546C76.769 7.05997 76.7367 7.15158 76.6775 7.22476C76.6183 7.29794 76.5358 7.34819 76.4442 7.367H71.6916V11.8905H77.1254C77.178 11.8901 77.2302 11.9006 77.2786 11.9213C77.3271 11.942 77.3708 11.9724 77.4073 12.0108C77.4437 12.0491 77.472 12.0946 77.4905 12.1443C77.509 12.1941 77.5172 12.2471 77.5147 12.3002C77.5153 12.352 77.5056 12.4034 77.4862 12.4514C77.4668 12.4994 77.4382 12.5429 77.4019 12.5796C77.3657 12.6162 77.3225 12.6452 77.2751 12.6647C77.2276 12.6843 77.1767 12.6941 77.1254 12.6936H71.2455C71.148 12.6853 71.0571 12.6403 70.991 12.5674C70.9249 12.4945 70.8883 12.3991 70.8887 12.3002L70.8968 1.61432Z" fill="#374248"/>
<path d="M80.9374 12.6935H80.8725C80.775 12.6853 80.6841 12.6402 80.6179 12.5674C80.5518 12.4945 80.5153 12.3991 80.5156 12.3002V1.61429C80.5196 1.51126 80.5619 1.41355 80.6341 1.34064C80.7062 1.26773 80.803 1.22499 80.9049 1.22095H83.0298C84.5355 1.22095 85.9795 1.82531 87.0441 2.90107C88.1088 3.97683 88.7069 5.43588 88.7069 6.95724C88.7069 8.4786 88.1088 9.93765 87.0441 11.0134C85.9795 12.0892 84.5355 12.6935 83.0298 12.6935H80.9374ZM83.0298 11.8905C84.3247 11.8905 85.5665 11.3707 86.4821 10.4456C87.3977 9.5204 87.9121 8.26561 87.9121 6.95724C87.9121 5.64887 87.3977 4.39409 86.4821 3.46893C85.5665 2.54378 84.3247 2.02403 83.0298 2.02403H81.3104V11.8905H83.0298Z" fill="#374248"/>
<path d="M97.4827 7.53095C97.4302 7.53345 97.3777 7.52512 97.3284 7.50645C97.2792 7.48778 97.2342 7.45917 97.1962 7.42236C97.1583 7.38556 97.1282 7.34132 97.1077 7.29237C97.0872 7.24341 97.0769 7.19075 97.0772 7.1376C97.0772 7.02893 97.1199 6.92472 97.196 6.84788C97.272 6.77104 97.3752 6.72787 97.4827 6.72787H101.035C101.134 6.73994 101.225 6.78839 101.291 6.86396C101.357 6.93953 101.393 7.03694 101.392 7.1376V11.1366C101.38 11.2497 101.329 11.3546 101.246 11.4316C100.201 12.2601 98.9082 12.7051 97.58 12.6936C94.3197 12.6772 91.6758 10.1041 91.6758 6.85898C91.6758 3.66305 94.3116 1.05713 97.58 1.05713C98.914 1.0588 100.208 1.51497 101.254 2.35189C101.33 2.42125 101.378 2.51737 101.387 2.62082C101.396 2.72426 101.366 2.82731 101.303 2.90913C101.233 2.99006 101.137 3.04172 101.031 3.05387C100.926 3.06601 100.82 3.03775 100.735 2.97469C99.8393 2.24588 98.7219 1.85217 97.5719 1.86021C94.7333 1.86021 92.4625 4.11375 92.4625 6.85898C92.4625 9.64518 94.7333 11.8905 97.5719 11.8905C98.6499 11.8913 99.7004 11.5471 100.573 10.9072V7.53095H97.4827Z" fill="#374248"/>
<path d="M105.381 1.61432C105.385 1.51129 105.427 1.41357 105.5 1.34066C105.572 1.26775 105.668 1.22501 105.77 1.22097H111.61C111.661 1.22042 111.712 1.23022 111.759 1.24979C111.807 1.26937 111.85 1.29832 111.886 1.33496C111.923 1.37159 111.951 1.41517 111.971 1.46314C111.99 1.51111 112 1.56251 111.999 1.61432C112.002 1.6674 111.993 1.72045 111.975 1.77021C111.956 1.81997 111.928 1.86541 111.892 1.90375C111.855 1.94209 111.811 1.97253 111.763 1.99321C111.715 2.01389 111.662 2.02439 111.61 2.02405H106.176V6.56392H110.929C111.02 6.58273 111.103 6.63298 111.162 6.70616C111.221 6.77934 111.253 6.87094 111.253 6.96546C111.253 7.05997 111.221 7.15158 111.162 7.22476C111.103 7.29794 111.02 7.34819 110.929 7.367H106.176V11.8905H111.61C111.662 11.8901 111.715 11.9006 111.763 11.9213C111.811 11.942 111.855 11.9724 111.892 12.0108C111.928 12.0491 111.956 12.0946 111.975 12.1443C111.993 12.1941 112.002 12.2471 111.999 12.3002C112 12.352 111.99 12.4034 111.971 12.4514C111.951 12.4994 111.923 12.5429 111.886 12.5796C111.85 12.6162 111.807 12.6452 111.759 12.6647C111.712 12.6843 111.661 12.6941 111.61 12.6936H105.73C105.632 12.6853 105.541 12.6403 105.475 12.5674C105.409 12.4945 105.373 12.3991 105.373 12.3002L105.381 1.61432Z" fill="#374248"/>
<path d="M22.5602 19.8845C23.0737 19.8852 23.5727 20.0573 23.9795 20.3742C23.9959 20.3869 24.0097 20.403 24.0198 20.4212C24.03 20.4395 24.0364 20.4597 24.0387 20.4806C24.041 20.5014 24.0391 20.5225 24.0331 20.5426C24.0271 20.5627 24.0171 20.5814 24.0038 20.5975C23.9814 20.6291 23.9475 20.6506 23.9095 20.6571C23.8715 20.6636 23.8325 20.6547 23.801 20.6323C23.4493 20.3534 23.0154 20.2012 22.5683 20.2C22.0574 20.2 21.5675 20.4051 21.2063 20.7701C20.845 21.1351 20.6421 21.6301 20.6421 22.1463C20.6421 22.6624 20.845 23.1575 21.2063 23.5225C21.5675 23.8875 22.0574 24.0925 22.5683 24.0925C23.0116 24.0982 23.4426 23.9451 23.7848 23.6602C23.8013 23.6473 23.8204 23.6379 23.8407 23.6328C23.8611 23.6277 23.8822 23.627 23.9028 23.6307C23.9235 23.6343 23.9431 23.6423 23.9605 23.6541C23.9779 23.6659 23.9926 23.6813 24.0038 23.6992C24.0183 23.7143 24.0294 23.7323 24.0364 23.7521C24.0433 23.7719 24.0461 23.793 24.0443 23.814C24.0426 23.8349 24.0365 23.8553 24.0263 23.8736C24.0162 23.892 24.0023 23.9079 23.9855 23.9204C23.5782 24.2353 23.0792 24.4053 22.5662 24.4039C21.9747 24.4039 21.4074 24.1665 20.9892 23.7439C20.5709 23.3212 20.3359 22.748 20.3359 22.1504C20.3359 21.5527 20.5709 20.9795 20.9892 20.5569C21.4074 20.1342 21.9747 19.8968 22.5662 19.8968L22.5602 19.8845Z" fill="#374248"/>
<path d="M38.7888 23.2464H36.7774L36.3881 24.2932C36.3774 24.3231 36.3578 24.349 36.3321 24.3673C36.3063 24.3856 36.2757 24.3955 36.2442 24.3957H36.1874C36.15 24.3789 36.1202 24.3485 36.104 24.3105C36.0878 24.2725 36.0865 24.2298 36.1002 24.1908L37.627 20.0689C37.6405 20.0403 37.6618 20.0163 37.6884 19.9996C37.715 19.9829 37.7457 19.9743 37.777 19.9746C37.8088 19.9728 37.8405 19.9808 37.8677 19.9976C37.8949 20.0145 37.9163 20.0393 37.9291 20.0689L39.4558 24.1908C39.471 24.2289 39.471 24.2715 39.4559 24.3097C39.4408 24.3478 39.4117 24.3786 39.3747 24.3957C39.3504 24.3957 39.3362 24.3957 39.318 24.3957C39.2867 24.3947 39.2564 24.3844 39.2308 24.3662C39.2052 24.348 39.1855 24.3227 39.174 24.2932L38.7888 23.2464ZM36.897 22.935H38.6772L37.7912 20.5462L36.897 22.935Z" fill="#374248"/>
<path d="M51.6046 20.1016C51.6051 20.0611 51.6213 20.0223 51.6497 19.9936C51.6781 19.9649 51.7165 19.9485 51.7566 19.948H52.9975C53.3119 19.9736 53.6052 20.1179 53.8191 20.3521C54.033 20.5863 54.1517 20.8933 54.1517 21.212C54.1517 21.5307 54.033 21.8377 53.8191 22.072C53.6052 22.3062 53.3119 22.4505 52.9975 22.4761L51.9107 22.4884V24.2338C51.9107 24.2751 51.8945 24.3147 51.8656 24.3439C51.8367 24.3731 51.7975 24.3895 51.7566 24.3895C51.7158 24.3895 51.6766 24.3731 51.6477 24.3439C51.6188 24.3147 51.6025 24.2751 51.6025 24.2338L51.6046 20.1016ZM52.9975 22.1852C53.2502 22.1852 53.4926 22.0837 53.6713 21.9031C53.85 21.7226 53.9504 21.4776 53.9504 21.2223C53.9504 20.9669 53.85 20.722 53.6713 20.5414C53.4926 20.3608 53.2502 20.2594 52.9975 20.2594H51.9107V22.1852H52.9975Z" fill="#374248"/>
<path d="M66.4766 20.1017C66.4766 20.0613 66.4923 20.0225 66.5204 19.9938C66.5485 19.965 66.5866 19.9486 66.6266 19.9481C66.647 19.9475 66.6673 19.9511 66.6863 19.9585C66.7054 19.966 66.7228 19.9772 66.7375 19.9915C66.7522 20.0058 66.7639 20.0229 66.7721 20.0418C66.7802 20.0607 66.7845 20.0811 66.7848 20.1017V24.2421C66.7845 24.2627 66.7802 24.2831 66.7721 24.302C66.7639 24.3209 66.7522 24.338 66.7375 24.3523C66.7228 24.3666 66.7054 24.3778 66.6863 24.3853C66.6673 24.3927 66.647 24.3963 66.6266 24.3957C66.5866 24.3952 66.5485 24.3788 66.5204 24.35C66.4923 24.3212 66.4766 24.2825 66.4766 24.2421V20.1017Z" fill="#374248"/>
<path d="M80.6491 20.2594H79.323C79.2822 20.2594 79.243 20.243 79.2141 20.2138C79.1852 20.1846 79.1689 20.145 79.1689 20.1037C79.1689 20.0624 79.1852 20.0228 79.2141 19.9936C79.243 19.9644 79.2822 19.948 79.323 19.948H82.2772C82.318 19.948 82.3572 19.9644 82.3861 19.9936C82.415 20.0228 82.4313 20.0624 82.4313 20.1037C82.4313 20.145 82.415 20.1846 82.3861 20.2138C82.3572 20.243 82.318 20.2594 82.2772 20.2594H80.9512V24.242C80.9536 24.2636 80.9516 24.2854 80.9451 24.306C80.9386 24.3267 80.9279 24.3457 80.9137 24.3619C80.8994 24.3781 80.8819 24.3911 80.8623 24.3999C80.8428 24.4088 80.8216 24.4134 80.8001 24.4134C80.7787 24.4134 80.7575 24.4088 80.7379 24.3999C80.7183 24.3911 80.7008 24.3781 80.6866 24.3619C80.6723 24.3457 80.6616 24.3267 80.6551 24.306C80.6486 24.2854 80.6466 24.2636 80.6491 24.242V20.2594Z" fill="#374248"/>
<path d="M96.5573 23.2464H94.5622L94.1567 24.2932C94.1459 24.3231 94.1264 24.349 94.1006 24.3673C94.0749 24.3856 94.0442 24.3955 94.0127 24.3957H93.956C93.9185 24.3789 93.8887 24.3485 93.8726 24.3105C93.8564 24.2725 93.855 24.2298 93.8688 24.1908L95.3955 20.0689C95.409 20.0403 95.4304 20.0163 95.4569 19.9996C95.4835 19.9829 95.5143 19.9743 95.5456 19.9746C95.5774 19.9728 95.6091 19.9808 95.6362 19.9976C95.6634 20.0145 95.6849 20.0393 95.6976 20.0689L97.2244 24.1908C97.2395 24.2289 97.2396 24.2715 97.2245 24.3097C97.2093 24.3478 97.1803 24.3786 97.1433 24.3957C97.119 24.3957 97.1048 24.3957 97.0865 24.3957C97.0552 24.3947 97.0249 24.3844 96.9994 24.3662C96.9738 24.348 96.954 24.3227 96.9426 24.2932L96.5573 23.2464ZM94.6656 22.935H96.4458L95.5598 20.5462L94.6656 22.935Z" fill="#374248"/>
<path d="M109.538 24.3955H109.526C109.486 24.395 109.448 24.3786 109.419 24.3499C109.391 24.3212 109.375 24.2825 109.374 24.2419V20.1015C109.374 20.0602 109.39 20.0206 109.419 19.9914C109.448 19.9622 109.487 19.9458 109.528 19.9458C109.569 19.9458 109.608 19.9622 109.637 19.9914C109.666 20.0206 109.682 20.0602 109.682 20.1015V24.0841H111.797C111.838 24.0841 111.877 24.1005 111.906 24.1297C111.935 24.1589 111.951 24.1985 111.951 24.2398C111.951 24.2811 111.935 24.3207 111.906 24.3499C111.877 24.3791 111.838 24.3955 111.797 24.3955H109.538Z" fill="#374248"/>
</g>
<defs>
<clipPath id="clip0">
<rect width="112" height="25" fill="white"/>
</clipPath>
</defs>
</svg>
