<svg width="20" height="20" viewBox="0 0 20 20" fill="none" xmlns="http://www.w3.org/2000/svg">
<path d="M19 10C19 12.3869 18.0518 14.6761 16.364 16.364C14.6761 18.0518 12.3869 19 10 19M19 10C19 7.61305 18.0518 5.32387 16.364 3.63604C14.6761 1.94821 12.3869 1 10 1M19 10H1M10 19C7.61305 19 5.32387 18.0518 3.63604 16.364C1.94821 14.6761 1 12.3869 1 10M10 19C11.657 19 13 14.97 13 10C13 5.03 11.657 1 10 1M10 19C8.343 19 7 14.97 7 10C7 5.03 8.343 1 10 1M10 1C7.61305 1 5.32387 1.94821 3.63604 3.63604C1.94821 5.32387 1 7.61305 1 10" stroke="#083549" stroke-width="2" stroke-linecap="round" stroke-linejoin="round"/>
</svg>
