<svg width="48" height="48" viewBox="0 0 48 48" fill="none" xmlns="http://www.w3.org/2000/svg">
<circle cx="24" cy="24" r="24" fill="#E7EFF4"/>
<path fill-rule="evenodd" clip-rule="evenodd" d="M32 19.5C33.933 19.5 35.5 17.933 35.5 16C35.5 14.067 33.933 12.5 32 12.5C30.067 12.5 28.5 14.067 28.5 16C28.5 16.755 28.7391 17.4542 29.1456 18.026L26.8839 20.2877C26.2181 19.7928 25.3933 19.5 24.5 19.5C24.0323 19.5 23.5834 19.5803 23.1663 19.7277L21.9321 18.2568C22.2894 17.763 22.5 17.1561 22.5 16.5C22.5 14.8431 21.1569 13.5 19.5 13.5C17.8431 13.5 16.5 14.8431 16.5 16.5C16.5 18.1569 17.8431 19.5 19.5 19.5C19.7693 19.5 20.0304 19.4645 20.2787 19.3979L21.5003 20.8538C20.8778 21.559 20.5 22.4854 20.5 23.5C20.5 23.5538 20.5011 23.6074 20.5032 23.6606L17.6634 24.4216C17.1175 23.8535 16.35 23.5 15.5 23.5C13.8431 23.5 12.5 24.8431 12.5 26.5C12.5 28.1569 13.8431 29.5 15.5 29.5C17.1569 29.5 18.5 28.1569 18.5 26.5C18.5 26.4227 18.4971 26.3461 18.4913 26.2703L21.0805 25.5765C21.4123 26.1217 21.8708 26.5812 22.415 26.9143L21.6871 29.5161C20.1773 29.6726 19 30.9488 19 32.5C19 34.1569 20.3431 35.5 22 35.5C23.6569 35.5 25 34.1569 25 32.5C25 31.4455 24.456 30.5181 23.6333 29.9832L24.329 27.4964C24.3857 27.4988 24.4427 27.5 24.5 27.5C25.5556 27.5 26.5157 27.0911 27.2305 26.423L29.5862 27.7831C29.5299 28.0128 29.5 28.2529 29.5 28.5C29.5 30.1569 30.8431 31.5 32.5 31.5C34.1569 31.5 35.5 30.1569 35.5 28.5C35.5 26.8431 34.1569 25.5 32.5 25.5C31.8189 25.5 31.1908 25.727 30.6873 26.1094L28.3059 24.7345C28.4319 24.3457 28.5 23.9308 28.5 23.5C28.5 22.9131 28.3736 22.3556 28.1465 21.8535L30.7354 19.2646C31.1276 19.4166 31.5541 19.5 32 19.5ZM32 17.5C32.8284 17.5 33.5 16.8284 33.5 16C33.5 15.1716 32.8284 14.5 32 14.5C31.1716 14.5 30.5 15.1716 30.5 16C30.5 16.8284 31.1716 17.5 32 17.5ZM19.5 17.5C20.0523 17.5 20.5 17.0523 20.5 16.5C20.5 15.9477 20.0523 15.5 19.5 15.5C18.9477 15.5 18.5 15.9477 18.5 16.5C18.5 17.0523 18.9477 17.5 19.5 17.5ZM15.5 27.5C16.0523 27.5 16.5 27.0523 16.5 26.5C16.5 25.9477 16.0523 25.5 15.5 25.5C14.9477 25.5 14.5 25.9477 14.5 26.5C14.5 27.0523 14.9477 27.5 15.5 27.5ZM23 32.5C23 33.0523 22.5523 33.5 22 33.5C21.4477 33.5 21 33.0523 21 32.5C21 31.9477 21.4477 31.5 22 31.5C22.5523 31.5 23 31.9477 23 32.5ZM32.5 29.5C33.0523 29.5 33.5 29.0523 33.5 28.5C33.5 27.9477 33.0523 27.5 32.5 27.5C31.9477 27.5 31.5 27.9477 31.5 28.5C31.5 29.0523 31.9477 29.5 32.5 29.5ZM26.5 23.5C26.5 24.6046 25.6046 25.5 24.5 25.5C23.3954 25.5 22.5 24.6046 22.5 23.5C22.5 22.3954 23.3954 21.5 24.5 21.5C25.6046 21.5 26.5 22.3954 26.5 23.5Z" fill="#4A687B"/>
</svg>
