<?xml version="1.0" encoding="UTF-8"?>
<svg width="19px" height="22px" viewBox="0 0 19 22" version="1.1" xmlns="http://www.w3.org/2000/svg" xmlns:xlink="http://www.w3.org/1999/xlink">
    <title>icons8-apple-logo</title>
    <g id="Page-1" stroke="none" stroke-width="1" fill="none" fill-rule="evenodd">
        <g id="home-page" transform="translate(-365.000000, -5234.000000)" fill="#000000" fill-rule="nonzero">
            <g id="icons8-apple-logo" transform="translate(365.000000, 5234.000000)">
                <path d="M19,16.1401026 C18.4806866,17.2850056 18.2329089,17.7983548 17.5642504,18.8081668 C16.6342382,20.2232544 15.3172861,21.9862031 13.6880669,21.9963352 C12.2421344,22.0098443 11.8687721,21.057447 9.9035263,21.0743333 C7.93828046,21.0810875 7.52758168,22.0132214 6.07825524,21.9998577 C4.45243006,21.9862031 3.20675688,20.3954968 2.27334985,18.9871633 C-0.336794811,15.0323492 -0.611726197,10.3953197 1.00052216,7.92989336 C2.14097558,6.18045308 3.94669349,5.15375479 5.64379679,5.15375479 C7.36805375,5.15375479 8.45419986,6.09602087 9.88316062,6.09602087 C11.2679969,6.09602087 12.1097602,5.15037771 14.1089485,5.15037771 C15.6159762,5.15037771 17.2146469,5.96768402 18.3551003,7.38277081 C14.621473,9.41590404 15.2290362,14.7216378 19,16.1401026 Z M12.5917379,3.56980271 C13.3180977,2.64442377 13.8679596,1.33403253 13.6710952,0 C12.4831233,0.081055128 11.098287,0.834192576 10.2870714,1.80685411 C9.5539228,2.69508258 8.9463596,4.01560592 9.1839545,5.29222462 C10.477147,5.33275218 11.8144648,4.56610555 12.5917379,3.56980271 Z" id="Shape"></path>
            </g>
        </g>
    </g>
</svg>