<?xml version="1.0" encoding="UTF-8"?>
<svg width="30px" height="32px" viewBox="0 0 30 32" version="1.1" xmlns="http://www.w3.org/2000/svg" xmlns:xlink="http://www.w3.org/1999/xlink">
    <title>Group 17</title>
    <defs>
        <polygon id="path-1" points="8.41330557e-05 0.05584 29.0494359 0.05584 29.0494359 11.2 8.41330557e-05 11.2"></polygon>
    </defs>
    <g id="Page-1" stroke="none" stroke-width="1" fill="none" fill-rule="evenodd">
        <g id="home-page" transform="translate(-362.000000, -4673.000000)">
            <g id="Group-17" transform="translate(362.000000, 4673.887920)">
                <g id="Group-3" transform="translate(0.000000, 18.885800)">
                    <mask id="mask-2" fill="white">
                        <use xlink:href="#path-1"></use>
                    </mask>
                    <g id="Clip-2"></g>
                    <path d="M14.49656,5.72784 C13.47296,5.72784 12.52176,5.51224 11.74536,5.10424 L3.38496,0.71184 L0.87976,2.22464 C-0.31104,2.94344 -0.29024,4.04544 0.92616,4.68464 L12.48936,10.76024 C13.05096,11.05504 13.76896,11.20024 14.49656,11.20024 C15.34616,11.20024 16.20816,11.00264 16.84976,10.61544 L28.16976,3.77944 C29.36056,3.06024 29.33976,1.95824 28.12336,1.31944 L25.71936,0.05584 L17.67656,4.91304 C16.80616,5.43824 15.67696,5.72784 14.49656,5.72784" id="Fill-1" fill="#25435A" mask="url(#mask-2)"></path>
                </g>
                <path d="M28.12348,13.13316 L26.12148,12.08116 L21.45948,14.89636 L20.65908,15.37956 L19.85908,15.86276 L17.67668,17.18076 C16.80628,17.70676 15.67668,17.99596 14.49668,17.99596 C13.47308,17.99596 12.52188,17.78036 11.74548,17.37276 L9.24508,16.05876 L8.41748,15.62436 L7.58988,15.18956 L2.98268,12.76836 L0.87988,14.03836 C-0.31092,14.75756 -0.29052,15.85916 0.92588,16.49836 L3.33028,17.76156 L4.15788,18.19636 L4.98508,18.63116 L12.48948,22.57396 C13.05068,22.86876 13.76908,23.01356 14.49668,23.01356 C15.34588,23.01356 16.20828,22.81636 16.84948,22.42916 L24.06428,18.07236 L24.86468,17.58916 L25.66468,17.10596 L28.16988,15.59316 C29.36068,14.87436 29.33988,13.77236 28.12348,13.13316" id="Fill-4" fill="#25435A"></path>
                <path d="M28.12348,6.5152 L16.55988,0.44 C15.99868,0.1448 15.28068,-2.27373675e-13 14.55268,-2.27373675e-13 C13.70348,-2.27373675e-13 12.84108,0.1976 12.19988,0.5848 L0.87988,7.4208 C-0.31092,8.1396 -0.29052,9.2412 0.92588,9.8804 L2.92788,10.9324 L3.75548,11.3672 L4.58308,11.802 L9.19028,14.2228 L10.01788,14.6572 L10.84548,15.0924 L12.48948,15.9564 C13.05068,16.2512 13.76908,16.396 14.49668,16.396 C15.34588,16.396 16.20828,16.1984 16.84948,15.8112 L18.20388,14.9932 L19.00428,14.51 L19.80428,14.0268 L24.46628,11.2116 L25.26668,10.7284 L26.06668,10.2452 L28.16988,8.9752 C29.36068,8.2564 29.33988,7.1544 28.12348,6.5152" id="Fill-6" fill="#25435A"></path>
            </g>
        </g>
    </g>
</svg>