<?xml version="1.0" encoding="UTF-8"?>
<svg width="26px" height="26px" viewBox="0 0 26 26" version="1.1" xmlns="http://www.w3.org/2000/svg" xmlns:xlink="http://www.w3.org/1999/xlink">
    <title>icons8-link</title>
    <g id="Page-1" stroke="none" stroke-width="1" fill="none" fill-rule="evenodd">
        <g id="home-page" transform="translate(-365.000000, -5180.000000)" fill="#0092FF" fill-rule="nonzero">
            <g id="icons8-link" transform="translate(365.000000, 5180.000000)">
                <path d="M19.46875,0.00675131169 C17.839844,0.0848763117 16.273438,0.795814312 15.0625,2.00675131 L10.3125,6.75675131 C11.058594,6.00675131 13.828125,6.52237631 14.5,7.19425131 L17.375,4.31925131 C18.011719,3.68253231 18.808594,3.29190731 19.625,3.25675131 C20.179688,3.22940731 20.964844,3.34659531 21.65625,4.03800131 C22.300781,4.68253231 22.4375,5.43253231 22.4375,5.94425131 C22.4375,6.79972031 22.046875,7.65128231 21.375,8.31925131 L16.375,13.3505013 C15.117188,14.6083143 13.203125,14.7098763 12.09375,13.6005013 C11.460938,12.9676893 10.417969,12.9637823 9.78125,13.6005013 C9.144531,14.2372203 9.144531,15.2762823 9.78125,15.9130013 C10.921875,17.0536263 12.421875,17.6317513 13.96875,17.6317513 C15.640625,17.6317513 17.347656,16.9481573 18.65625,15.6317513 L23.6875,10.6317513 C24.964844,9.35831431 25.6875,7.65518931 25.6875,5.94425131 C25.6875,4.35440731 25.085938,2.84268931 23.96875,1.72550131 C22.773438,0.530189312 21.167969,-0.0713736883 19.46875,0.00675131169 Z M11.71875,8.06925131 C10.046875,8.06925131 8.3125,8.75675131 7,10.0692513 L2,15.0692513 C0.722656,16.3426893 0,18.0458143 0,19.7567513 C0,21.3465953 0.601563,22.8583143 1.71875,23.9755013 C2.914063,25.1708143 4.519531,25.7723763 6.21875,25.6942513 C7.847656,25.6161263 9.414063,24.9051893 10.625,23.6942513 L15.375,18.9442513 C14.625,19.6942513 11.859375,19.1786263 11.1875,18.5067513 L8.3125,21.3817513 C7.675781,22.0184703 6.878906,22.4051893 6.0625,22.4442513 C5.507813,22.4715953 4.722656,22.3544073 4.03125,21.6630013 C3.386719,21.0184703 3.25,20.2645643 3.25,19.7567513 C3.25,18.9012823 3.640625,18.0497203 4.3125,17.3817513 L9.3125,12.3505013 C10.570313,11.0926893 12.484375,10.9950323 13.59375,12.1005013 C14.230469,12.7372203 15.273438,12.7372203 15.90625,12.1005013 C16.542969,11.4637823 16.542969,10.4247203 15.90625,9.78800131 C14.765625,8.64737631 13.261719,8.06925131 11.71875,8.06925131 Z" id="Shape"></path>
            </g>
        </g>
    </g>
</svg>