<?xml version="1.0" encoding="UTF-8"?>
<svg width="17px" height="19px" viewBox="0 0 17 19" version="1.1" xmlns="http://www.w3.org/2000/svg" xmlns:xlink="http://www.w3.org/1999/xlink">
    <title>icons8-landlord</title>
    <g id="Token-page" stroke="none" stroke-width="1" fill="none" fill-rule="evenodd">
        <g id="token-page" transform="translate(-412.000000, -2075.000000)" fill="#000000" fill-rule="nonzero">
            <g id="icons8-landlord" transform="translate(412.000000, 2075.000000)">
                <path d="M7.15789474,0 C4.69110526,0 2.68421053,2.02937751 2.68421053,4.52380186 C2.68421053,7.0182262 4.69110526,9.04760371 7.15789474,9.04760371 C9.62468421,9.04760371 11.6315789,7.0182262 11.6315789,4.52380186 C11.6315789,2.02937751 9.62468421,0 7.15789474,0 Z M14.3157895,6.79100423 C12.835,6.79100423 11.6315789,8.00790692 11.6315789,9.50528534 C11.6315789,10.5078784 12.1726339,11.381994 12.9736842,11.8520076 L12.9736842,12.9758896 C12.9736842,13.2156511 13.0680512,13.4459406 13.2358144,13.6155832 L13.8684211,14.2552773 L13.1335835,14.9815597 C12.9215309,15.1914636 12.9181407,15.5349405 13.1257197,15.7493687 L13.8684211,16.5171782 L13.1554276,17.2381591 C12.9304013,17.4657064 12.9278638,17.8331377 13.1493112,18.0633997 L13.8649262,18.8082364 C14.1114262,19.0642836 14.5193001,19.0638525 14.7649053,18.8073529 L15.4053763,18.1376181 C15.5673237,17.9688803 15.6578947,17.7424287 15.6578947,17.5076434 L15.6578947,11.8520076 C16.458945,11.381994 17,10.5078784 17,9.50528534 C17,8.00790692 15.7965789,6.79100423 14.3157895,6.79100423 Z M14.3157895,8.14814478 C14.8078947,8.14814478 15.2105263,8.55528695 15.2105263,9.05290515 C15.2105263,9.55052336 14.8078947,9.95766552 14.3157895,9.95766552 C13.8236842,9.95766552 13.4210526,9.55052336 13.4210526,9.05290515 C13.4210526,8.55528695 13.8236842,8.14814478 14.3157895,8.14814478 Z M1.77986242,10.8571245 C0.798335926,10.8571245 0,11.6644041 0,12.6569263 L0,13.3452155 C0,14.8434986 0.843128689,16.1384369 2.37402361,16.9925307 C3.6476815,17.7036724 5.34694737,18.0952074 7.15789474,18.0952074 C9.07621053,18.0952074 11.0745842,17.6328889 12.4712684,16.662081 C12.4896106,16.6412715 12.5031363,16.6183698 12.5228209,16.5984651 L12.6101974,16.5101098 L12.4861224,16.3819943 C12.2185961,16.1060424 12.0731736,15.7412046 12.0771999,15.3544195 C12.0816736,14.9676345 12.2350508,14.6053205 12.5088407,14.3347971 L12.5962171,14.2482088 C12.2674013,13.9111856 12.0789474,13.4490792 12.0789474,12.9758896 L12.0789474,12.3255931 C12.0351053,12.289855 11.9934302,12.2518126 11.9513776,12.214265 C11.8507197,12.1242414 11.7551506,12.0284213 11.6647822,11.9279934 C11.6603085,11.9230172 11.6561493,11.9188327 11.6516756,11.9138565 C11.3778862,11.604428 11.1555512,11.2484333 10.9989723,10.8571245 L1.77986242,10.8571245 Z" id="Shape"></path>
            </g>
        </g>
    </g>
</svg>