<?xml version="1.0" encoding="UTF-8"?>
<svg width="17px" height="19px" viewBox="0 0 17 19" version="1.1" xmlns="http://www.w3.org/2000/svg" xmlns:xlink="http://www.w3.org/1999/xlink">
    <title>icons8-locked-network (1)</title>
    <g id="Token-page" stroke="none" stroke-width="1" fill="none" fill-rule="evenodd">
        <g id="token-page" transform="translate(-412.000000, -2291.000000)" fill="#000000" fill-rule="nonzero">
            <g id="icons8-locked-network-(1)" transform="translate(412.000000, 2291.000000)">
                <path d="M1.46551724,9.0546875 L1.46551724,9.9453125 C1.46551724,10.1976563 1.65603448,10.390625 1.90517241,10.390625 C2.15431034,10.390625 2.34482759,10.1976563 2.34482759,9.9453125 L2.34482759,9.0546875 C2.34482759,8.80234375 2.15431034,8.609375 1.90517241,8.609375 C1.65603448,8.609375 1.46551724,8.80234375 1.46551724,9.0546875 Z M4.60172414,15.4523438 L5.3637931,15.8976563 C5.43706897,15.9421875 5.51034483,15.9570313 5.58362069,15.9570313 C5.73017241,15.9570313 5.87672414,15.8828125 5.96465517,15.734375 C6.08189655,15.5265625 6.00862069,15.2445313 5.80344828,15.1257813 L5.04137931,14.6804688 C4.8362069,14.5617188 4.55775862,14.6359375 4.44051724,14.84375 C4.32327586,15.0515625 4.39655172,15.3335938 4.60172414,15.4523438 Z M11.4163793,15.9570313 C11.4896552,15.9570313 11.562931,15.9421875 11.6362069,15.8976563 L12.3982759,15.4523438 C12.6034483,15.3335938 12.6767241,15.0515625 12.5594828,14.84375 C12.4422414,14.6359375 12.1637931,14.5617188 11.9586207,14.6804688 L11.1965517,15.1257813 C10.9913793,15.2445313 10.9181034,15.5265625 11.0353448,15.734375 C11.1232759,15.8828125 11.2698276,15.9570313 11.4163793,15.9570313 Z M15.5344828,9.9453125 L15.5344828,9.0546875 C15.5344828,8.80234375 15.3439655,8.609375 15.0948276,8.609375 C14.8456897,8.609375 14.6551724,8.80234375 14.6551724,9.0546875 L14.6551724,9.9453125 C14.6551724,10.1976563 14.8456897,10.390625 15.0948276,10.390625 C15.3439655,10.390625 15.5344828,10.1976563 15.5344828,9.9453125 Z M12.3982759,3.54765625 L11.6362069,3.10234375 C11.4310345,2.98359375 11.1525862,3.0578125 11.0353448,3.265625 C10.9181034,3.4734375 10.9913793,3.75546875 11.1965517,3.87421875 L11.9586207,4.31953125 C12.0318966,4.3640625 12.1051724,4.37890625 12.1784483,4.37890625 C12.325,4.37890625 12.4715517,4.3046875 12.5594828,4.15625 C12.6767241,3.9484375 12.6034483,3.66640625 12.3982759,3.54765625 Z M4.44051724,4.15625 C4.52844828,4.3046875 4.675,4.37890625 4.82155172,4.37890625 C4.89482759,4.37890625 4.96810345,4.3640625 5.04137931,4.31953125 L5.80344828,3.87421875 C6.00862069,3.75546875 6.08189655,3.4734375 5.96465517,3.265625 C5.84741379,3.0578125 5.56896552,2.98359375 5.3637931,3.10234375 L4.60172414,3.54765625 C4.39655172,3.66640625 4.32327586,3.9484375 4.44051724,4.15625 Z M6.59482759,1.9296875 C6.59482759,2.9984375 7.44482759,3.859375 8.5,3.859375 C9.55517241,3.859375 10.4051724,2.9984375 10.4051724,1.9296875 C10.4051724,0.8609375 9.55517241,0 8.5,0 C7.44482759,0 6.59482759,0.8609375 6.59482759,1.9296875 Z M9.52586207,1.9296875 C9.52586207,2.50859375 9.07155172,2.96875 8.5,2.96875 C7.92844828,2.96875 7.47413793,2.50859375 7.47413793,1.9296875 C7.47413793,1.35078125 7.92844828,0.890625 8.5,0.890625 C9.07155172,0.890625 9.52586207,1.35078125 9.52586207,1.9296875 Z M6.59482759,17.0703125 C6.59482759,18.1390625 7.44482759,19 8.5,19 C9.55517241,19 10.4051724,18.1390625 10.4051724,17.0703125 C10.4051724,16.0015625 9.55517241,15.140625 8.5,15.140625 C7.44482759,15.140625 6.59482759,16.0015625 6.59482759,17.0703125 Z M9.52586207,17.0703125 C9.52586207,17.6492187 9.07155172,18.109375 8.5,18.109375 C7.92844828,18.109375 7.47413793,17.6492187 7.47413793,17.0703125 C7.47413793,16.4914063 7.92844828,16.03125 8.5,16.03125 C9.07155172,16.03125 9.52586207,16.4914063 9.52586207,17.0703125 Z M13.1896552,13.359375 C13.1896552,14.428125 14.0396552,15.2890625 15.0948276,15.2890625 C16.15,15.2890625 17,14.428125 17,13.359375 C17,12.290625 16.15,11.4296875 15.0948276,11.4296875 C14.0396552,11.4296875 13.1896552,12.290625 13.1896552,13.359375 Z M15.0948276,12.3203125 C15.6663793,12.3203125 16.1206897,12.7804687 16.1206897,13.359375 C16.1206897,13.9382813 15.6663793,14.3984375 15.0948276,14.3984375 C14.5232759,14.3984375 14.0689655,13.9382813 14.0689655,13.359375 C14.0689655,12.7804687 14.5232759,12.3203125 15.0948276,12.3203125 Z M15.0948276,3.7109375 C14.0396552,3.7109375 13.1896552,4.571875 13.1896552,5.640625 C13.1896552,6.709375 14.0396552,7.5703125 15.0948276,7.5703125 C16.15,7.5703125 17,6.709375 17,5.640625 C17,4.571875 16.15,3.7109375 15.0948276,3.7109375 Z M15.0948276,6.6796875 C14.5232759,6.6796875 14.0689655,6.21953125 14.0689655,5.640625 C14.0689655,5.06171875 14.5232759,4.6015625 15.0948276,4.6015625 C15.6663793,4.6015625 16.1206897,5.06171875 16.1206897,5.640625 C16.1206897,6.21953125 15.6663793,6.6796875 15.0948276,6.6796875 Z M3.81034483,5.640625 C3.81034483,4.571875 2.96034483,3.7109375 1.90517241,3.7109375 C0.85,3.7109375 0,4.571875 0,5.640625 C0,6.709375 0.85,7.5703125 1.90517241,7.5703125 C2.96034483,7.5703125 3.81034483,6.709375 3.81034483,5.640625 Z M1.90517241,6.6796875 C1.33362069,6.6796875 0.879310345,6.21953125 0.879310345,5.640625 C0.879310345,5.06171875 1.33362069,4.6015625 1.90517241,4.6015625 C2.47672414,4.6015625 2.93103448,5.06171875 2.93103448,5.640625 C2.93103448,6.21953125 2.47672414,6.6796875 1.90517241,6.6796875 Z M3.81034483,13.359375 C3.81034483,12.290625 2.96034483,11.4296875 1.90517241,11.4296875 C0.85,11.4296875 0,12.290625 0,13.359375 C0,14.428125 0.85,15.2890625 1.90517241,15.2890625 C2.96034483,15.2890625 3.81034483,14.428125 3.81034483,13.359375 Z M1.90517241,14.3984375 C1.33362069,14.3984375 0.879310345,13.9382813 0.879310345,13.359375 C0.879310345,12.7804687 1.33362069,12.3203125 1.90517241,12.3203125 C2.47672414,12.3203125 2.93103448,12.7804687 2.93103448,13.359375 C2.93103448,13.9382813 2.47672414,14.3984375 1.90517241,14.3984375 Z M11.4310345,10.6132812 L11.4310345,9.57421875 C11.4310345,9.15859375 11.1086207,8.83203125 10.6982759,8.83203125 L10.537069,8.83203125 C10.537069,8.80234375 10.5517241,8.7875 10.5517241,8.7578125 L10.5517241,7.49609375 C10.5517241,6.353125 9.62844828,5.41796875 8.5,5.41796875 C7.37155172,5.41796875 6.44827586,6.353125 6.44827586,7.49609375 L6.44827586,8.83203125 L6.30172414,8.83203125 C5.89137931,8.83203125 5.56896552,9.15859375 5.56896552,9.57421875 L5.56896552,10.6132812 C5.56896552,12.2460938 6.88793103,13.5820312 8.5,13.5820312 C10.112069,13.5820312 11.4310345,12.2460938 11.4310345,10.6132812 Z M8.93965517,11.459375 C8.93965517,11.7117188 8.74913793,11.9046875 8.5,11.9046875 C8.25086207,11.9046875 8.06034483,11.7117188 8.06034483,11.459375 L8.06034483,10.6875 C8.06034483,10.4351563 8.25086207,10.2421875 8.5,10.2421875 C8.74913793,10.2421875 8.93965517,10.4351563 8.93965517,10.6875 L8.93965517,11.459375 Z M7.32758621,8.83203125 L7.32758621,7.49609375 C7.32758621,6.84296875 7.85517241,6.30859375 8.5,6.30859375 C9.14482759,6.30859375 9.67241379,6.84296875 9.67241379,7.49609375 L9.67241379,8.7578125 C9.67241379,8.7875 9.67241379,8.80234375 9.68706897,8.83203125 L7.32758621,8.83203125 Z" id="Shape"></path>
            </g>
        </g>
    </g>
</svg>