<svg width="48" height="48" viewBox="0 0 48 48" fill="none" xmlns="http://www.w3.org/2000/svg">
<path fill-rule="evenodd" clip-rule="evenodd" d="M10 0C4.47717 0 0 4.47716 0 10V38C0 43.5228 4.47717 48 10 48H38C43.5228 48 48 43.5228 48 38V10C48 4.47716 43.5228 0 38 0H10ZM31.0087 34.4672C31.0087 34.4672 30.1021 33.3836 29.3466 32.4512C32.6456 31.5187 33.9048 29.4775 33.9048 29.4775C32.8722 30.1579 31.8901 30.6367 31.0087 30.9643C29.7495 31.4935 28.5408 31.8211 27.3571 32.0479C24.9396 32.5016 22.7234 32.3755 20.8347 32.0227C19.3992 31.7455 18.1653 31.3675 17.1327 30.9391C16.5536 30.7123 15.924 30.4351 15.2944 30.0823C15.2566 30.0571 15.2189 30.0382 15.181 30.0193C15.1433 30.0004 15.1055 29.9815 15.0677 29.9563C15.0485 29.9467 15.033 29.937 15.0197 29.9288C14.9982 29.9155 14.9825 29.9059 14.967 29.9059C14.5137 29.6539 14.2618 29.4775 14.2618 29.4775C14.2618 29.4775 15.4707 31.4683 18.6689 32.4259C17.9135 33.3836 16.9817 34.4924 16.9817 34.4924C11.4161 34.316 9.30078 30.6871 9.30078 30.6871C9.30078 22.6481 12.9271 16.1211 12.9271 16.1211C16.5536 13.4246 19.9784 13.5002 19.9784 13.5002L20.2302 13.8026C15.6973 15.0879 13.6323 17.0787 13.6323 17.0787C13.6323 17.0787 14.1863 16.7763 15.118 16.3731C17.8127 15.1887 19.9532 14.8862 20.8347 14.7854L20.8911 14.7759C21.0182 14.7543 21.1309 14.735 21.2628 14.735C22.799 14.5334 24.5366 14.483 26.3497 14.6846C28.7422 14.9619 31.3109 15.6675 33.9299 17.0787C33.9299 17.0787 31.9404 15.1887 27.6593 13.9034L28.0118 13.5002C28.0118 13.5002 31.4619 13.4246 35.0631 16.1211C35.0631 16.1211 38.6896 22.6481 38.6896 30.6871C38.6896 30.6858 38.6841 30.694 38.6729 30.7107L38.6718 30.7124C38.4575 31.0341 36.2815 34.3001 31.0087 34.4672ZM16.4291 25.5713C16.4291 24.0341 17.5623 22.7993 18.9977 22.7993C20.4331 22.7993 21.5916 24.0341 21.5664 25.5713C21.5664 27.1086 20.4331 28.3434 18.9977 28.3434C17.5874 28.3434 16.4291 27.1086 16.4291 25.5713ZM25.618 25.5713C25.618 24.0341 26.7512 22.7993 28.1866 22.7993C29.5969 22.7993 30.7554 24.0341 30.7554 25.5713C30.7554 27.1086 29.6221 28.3434 28.1866 28.3434C26.7764 28.3434 25.618 27.1086 25.618 25.5713Z" fill="#8DA9BB"/>
</svg>
