<?xml version="1.0" encoding="UTF-8"?>
<svg viewBox="0 0 53 51" version="1.1" xmlns="http://www.w3.org/2000/svg" xmlns:xlink="http://www.w3.org/1999/xlink">
    <title>discord</title>
    <g id="About" stroke="none" stroke-width="1" fill="none" fill-rule="evenodd">
        <g id="new-about" transform="translate(-1037.000000, -4013.000000)" fill-rule="nonzero">
            <g id="discord" transform="translate(1037.000000, 4013.000000)">
                <g id="product-icons-02-copy-4" fill="#FFFFFF">
                    <path d="M43.8671951,51 L9.13280488,51 C4.09134146,51 0,46.9166456 0,41.885024 L0,9.11497597 C0,4.08335441 4.09134146,1.75066789e-15 9.13280488,1.75066789e-15 L43.8671951,1.75066789e-15 C48.9086585,1.75066789e-15 53,4.08335441 53,9.11497597 L53,41.885024 C53,46.9166456 48.9086585,51 43.8671951,51 Z" id="Path"></path>
                </g>
                <path d="M22.1422666,16.715238 L22.3834061,17.004242 C18.0428933,18.2325087 16.0655486,20.1351178 16.0655486,20.1351178 C16.0655486,20.1351178 16.5960558,19.8461139 17.4882723,19.4607753 C20.0684659,18.3288434 22.1181526,18.0398394 22.9621413,17.9435047 C23.106825,17.919421 23.2273948,17.8953375 23.3720785,17.8953375 C24.8430301,17.7026681 26.5068933,17.6545009 28.2430985,17.8471701 C30.5339247,18.1120904 32.9935487,18.7864329 35.5014005,20.1351178 C35.5014005,20.1351178 33.5963977,18.3288434 29.4970245,17.1005767 L29.8346198,16.715238 L29.9141543,16.7154913 C30.4364724,16.7239958 33.4517138,16.8772554 36.5865287,19.2199388 C36.5865287,19.2199388 40.058939,25.4576068 40.058939,33.1402946 C40.058939,33.1162109 38.0333663,36.584258 32.7041811,36.7528436 C32.7041811,36.7528436 31.8360785,35.7172463 31.1126598,34.8261508 C33.9331319,34.0305299 35.1965004,32.3901377 35.4348443,32.0477585 L35.4726389,31.9916065 C35.4757486,31.9867671 35.4772865,31.9842788 35.4772865,31.9842788 C34.4886142,32.6345378 33.5481697,33.0921273 32.7041811,33.4052149 C31.4984831,33.9109717 30.341013,34.2240593 29.207657,34.4408122 C26.8927168,34.8743181 24.7706883,34.7538999 22.9621413,34.4167286 C21.5876454,34.1518083 20.4060614,33.7905534 19.4173891,33.3811312 C18.8627679,33.1643783 18.2599189,32.8994579 17.6570699,32.5622867 C17.5847281,32.5141194 17.5123863,32.4900357 17.4400443,32.4418684 C17.3918164,32.4177848 17.3677024,32.3937011 17.3435884,32.3937011 C16.9095372,32.1528645 16.6683976,31.9842788 16.6683976,31.9842788 C16.6683976,31.9842788 17.8258678,33.886888 20.8883406,34.8020671 C20.1649218,35.7172463 19.2727053,36.7769273 19.2727053,36.7769273 C13.9435201,36.6083417 11.9179474,33.1402946 11.9179474,33.1402946 C11.9179474,26.7119232 14.3490685,21.2952462 15.1429039,19.6978871 L15.2469148,19.4917178 C15.3382932,19.3134648 15.3903577,19.2199388 15.3903577,19.2199388 C18.5470943,16.8772554 21.5443997,16.7239958 22.0632756,16.7154913 L22.1422666,16.715238 L22.1422666,16.715238 Z M30.2927851,25.6021088 C28.9182893,25.6021088 27.8331611,26.7822081 27.8331611,28.2513115 C27.8331611,29.7204148 28.9424033,30.9005141 30.2927851,30.9005141 C31.6672808,30.9005141 32.752409,29.7204148 32.752409,28.2513115 C32.752409,26.7822081 31.6431668,25.6021088 30.2927851,25.6021088 Z M21.4911896,25.6021088 C20.1166939,25.6021088 19.0315658,26.7822081 19.0315658,28.2513115 C19.0315658,29.7204148 20.1408079,30.9005141 21.4911896,30.9005141 C22.8656853,30.9005141 23.9508136,29.7204148 23.9508136,28.2513115 C23.9749275,26.7822081 22.8656853,25.6021088 21.4911896,25.6021088 Z" id="Combined-Shape" fill="#041926"></path>
            </g>
        </g>
    </g>
</svg>