<svg width="40" height="40" viewBox="0 0 40 40" fill="none" xmlns="http://www.w3.org/2000/svg">
<path fill-rule="evenodd" clip-rule="evenodd" d="M10 0C4.47715 0 0 4.47715 0 10V30C0 35.5228 4.47715 40 10 40H30C35.5228 40 40 35.5228 40 30V10C40 4.47715 35.5228 0 30 0H10ZM25.8406 28.7227C25.8406 28.7227 25.0851 27.8197 24.4555 27.0426C27.2046 26.2656 28.2539 24.5646 28.2539 24.5646C27.3935 25.1316 26.5751 25.5306 25.8406 25.8036C24.7913 26.2446 23.7839 26.5176 22.7976 26.7066C20.7829 27.0846 18.9362 26.9796 17.3622 26.6856C16.166 26.4546 15.1377 26.1396 14.2773 25.7826C13.7946 25.5936 13.27 25.3626 12.7453 25.0686C12.7138 25.0476 12.6824 25.0318 12.6509 25.0161C12.6194 25.0003 12.5879 24.9846 12.5564 24.9636C12.5404 24.9555 12.5274 24.9475 12.5164 24.9407C12.4984 24.9296 12.4855 24.9216 12.4725 24.9216C12.0947 24.7116 11.8849 24.5646 11.8849 24.5646C11.8849 24.5646 12.8922 26.2236 15.5574 27.0216C14.9279 27.8197 14.1514 28.7437 14.1514 28.7437C9.51347 28.5967 7.75065 25.5726 7.75065 25.5726C7.75065 18.8734 10.7726 13.4342 10.7726 13.4342C13.7946 11.1872 16.6487 11.2502 16.6487 11.2502L16.8586 11.5022C13.0811 12.5732 11.3602 14.2323 11.3602 14.2323C11.3602 14.2323 11.8219 13.9803 12.5984 13.6442C14.8439 12.6572 16.6277 12.4052 17.3622 12.3212L17.4093 12.3132C17.5151 12.2952 17.6091 12.2792 17.719 12.2792C18.9991 12.1112 20.4472 12.0692 21.9582 12.2372C23.9518 12.4682 26.0924 13.0562 28.2749 14.2323C28.2749 14.2323 26.617 12.6572 23.0494 11.5862L23.3432 11.2502C23.3432 11.2502 26.2183 11.1872 29.2193 13.4342C29.2193 13.4342 32.2413 18.8734 32.2413 25.5726C32.2413 25.5715 32.2364 25.5788 32.2265 25.5937C32.0479 25.8617 30.2345 28.5834 25.8406 28.7227ZM13.6909 21.3094C13.6909 20.0284 14.6352 18.9994 15.8314 18.9994C17.0276 18.9994 17.993 20.0284 17.972 21.3094C17.972 22.5905 17.0276 23.6195 15.8314 23.6195C14.6562 23.6195 13.6909 22.5905 13.6909 21.3094ZM21.3483 21.3094C21.3483 20.0284 22.2927 18.9994 23.4889 18.9994C24.6641 18.9994 25.6295 20.0284 25.6295 21.3094C25.6295 22.5905 24.6851 23.6195 23.4889 23.6195C22.3137 23.6195 21.3483 22.5905 21.3483 21.3094Z" fill="#CEDAE7"/>
</svg>
