<svg width="48" height="48" viewBox="0 0 48 48" fill="none" xmlns="http://www.w3.org/2000/svg">
<path fill-rule="evenodd" clip-rule="evenodd" d="M0 10C0 4.47715 4.47715 0 10 0H38C43.5229 0 48 4.47715 48 10V38C48 43.5229 43.5228 48 38 48H10C4.47715 48 0 43.5228 0 38V10ZM24 8C15.1652 8 8 15.1392 8 23.9466C8 30.9921 12.5851 36.9685 18.942 39.0775C19.7414 39.2255 20.0351 38.7318 20.0351 38.3106C20.0351 38.1382 20.032 37.7859 20.028 37.3281L20.028 37.3274L20.028 37.3255C20.0232 36.7737 20.017 36.0692 20.0133 35.3418C15.5625 36.3063 14.6234 33.4597 14.6234 33.4597C13.8949 31.617 12.8468 31.1266 12.8468 31.1266C11.3945 30.137 12.9558 30.1573 12.9558 30.1573C14.5627 30.2701 15.4085 31.8011 15.4085 31.8011C16.8355 34.2388 19.1512 33.5337 20.0644 33.1262C20.2082 32.0965 20.6225 31.3922 21.0805 30.9941C17.5265 30.5914 13.7906 29.2234 13.7906 23.1132C13.7906 21.3724 14.4162 19.9501 15.4391 18.8328C15.2735 18.4314 14.7256 16.8101 15.5945 14.6128C15.5945 14.6128 16.9377 14.1843 19.9956 16.2484C21.272 15.8945 22.6404 15.7172 24 15.7111C25.3596 15.7172 26.7294 15.8945 28.0078 16.2484C31.0623 14.1843 32.4034 14.6128 32.4034 14.6128C33.2744 16.8101 32.7265 18.4314 32.5609 18.8328C33.5865 19.9501 34.2073 21.3724 34.2073 23.1132C34.2073 29.2384 30.4646 30.5866 26.9018 30.9812C27.4756 31.4757 27.9867 32.4463 27.9867 33.9345C27.9867 35.3601 27.9785 36.6001 27.973 37.4227V37.4231V37.4233L27.973 37.4238L27.973 37.4289L27.973 37.4322C27.9703 37.8358 27.9683 38.1378 27.9683 38.3106C27.9683 38.7352 28.2566 39.2317 29.0676 39.0754C35.4211 36.9651 40 30.9894 40 23.9466C40 15.1392 32.8362 8 24 8ZM13.7868 30.944C13.9006 30.9983 14.026 30.9745 14.0608 30.8951C14.101 30.8163 14.0349 30.7069 13.919 30.6546C13.8025 30.6003 13.6778 30.6234 13.643 30.7049C13.6055 30.7837 13.6703 30.8917 13.7868 30.944ZM14.7091 31.6159C14.6327 31.6866 14.4835 31.6533 14.3826 31.5419C14.2777 31.4312 14.2579 31.2824 14.3356 31.2104C14.414 31.1405 14.5585 31.1731 14.6634 31.2845C14.7684 31.3972 14.7888 31.5446 14.7091 31.6159ZM14.9821 32.3967C15.0816 32.5387 15.2418 32.6025 15.3399 32.5339C15.4401 32.464 15.4401 32.2942 15.342 32.1509C15.2418 32.0103 15.0837 31.9484 14.9849 32.0164C14.8847 32.0843 14.8847 32.2548 14.9821 32.3967ZM16.2036 33.4214C16.1157 33.5178 15.929 33.492 15.792 33.3603C15.6523 33.2319 15.6135 33.0492 15.7014 32.9527C15.7906 32.8563 15.9781 32.8835 16.1157 33.0139C16.2547 33.1422 16.297 33.3256 16.2036 33.4214ZM16.9965 34.0645C17.177 34.1182 17.357 34.0618 17.3958 33.9368C17.4333 33.8098 17.3147 33.6644 17.1341 33.6101C16.9515 33.5537 16.7709 33.6121 16.7334 33.7378C16.6966 33.8641 16.8145 34.0102 16.9965 34.0645ZM18.7045 34.0318C18.7086 34.1635 18.5553 34.2722 18.3652 34.2749C18.1737 34.279 18.019 34.173 18.0169 34.044C18.0169 33.9102 18.1669 33.8029 18.3584 33.7995C18.5485 33.7954 18.7045 33.902 18.7045 34.0318ZM19.625 34.1209C19.8138 34.0856 19.946 33.9532 19.9235 33.8255C19.8989 33.6951 19.7299 33.6176 19.5405 33.6502C19.3551 33.6849 19.2209 33.816 19.2433 33.9484C19.2672 34.0748 19.4396 34.1542 19.625 34.1209Z" fill="#8DA9BB"/>
</svg>
