<?xml version="1.0" encoding="UTF-8"?>
<svg viewBox="0 0 53 51" version="1.1" xmlns="http://www.w3.org/2000/svg" xmlns:xlink="http://www.w3.org/1999/xlink">
    <title>github</title>
    <defs>
        <polygon id="path-1" points="0 6.36606507e-16 35.5864914 6.36606507e-16 35.5864914 34.5242406 0 34.5242406"></polygon>
    </defs>
    <g id="About" stroke="none" stroke-width="1" fill="none" fill-rule="evenodd">
        <g id="new-about" transform="translate(-809.000000, -4016.000000)">
            <g id="github" transform="translate(809.000000, 4016.000000)">
                <g id="product-icons-02-copy-3" fill="#FFFFFF" fill-rule="nonzero">
                    <path d="M43.8671951,51 L9.13280488,51 C4.09134146,51 0,46.9166456 0,41.885024 L0,9.11497597 C0,4.08335441 4.09134146,1.75066789e-15 9.13280488,1.75066789e-15 L43.8671951,1.75066789e-15 C48.9086585,1.75066789e-15 53,4.08335441 53,9.11497597 L53,41.885024 C53,46.9166456 48.9086585,51 43.8671951,51 Z" id="Path"></path>
                </g>
                <g id="Group-18" transform="translate(8.617886, 8.729140)">
                    <g id="Fill-1-Clipped">
                        <mask id="mask-2" fill="white">
                            <use xlink:href="#path-1"></use>
                        </mask>
                        <g id="path-1"></g>
                        <path d="M17.7931699,6.36606507e-16 C7.96794843,6.36606507e-16 -0.000454731016,7.92404676 -0.000454731016,17.699626 C-0.000454731016,25.5196372 5.09859572,32.1530391 12.1681472,34.4938406 C13.0571464,34.6581868 13.3837948,34.1101151 13.3837948,33.6427086 C13.3837948,33.220535 13.3671214,31.8266084 13.3595425,30.3474933 C8.4097954,31.4180048 7.36542984,28.2584882 7.36542984,28.2584882 C6.55525074,26.213208 5.38962357,25.6689057 5.38962357,25.6689057 C3.77457058,24.5705007 5.51088518,24.593117 5.51088518,24.593117 C7.29797807,24.7182613 8.23851339,26.4175099 8.23851339,26.4175099 C9.82552463,29.12319 12.4008179,28.3406611 13.4163839,27.8883324 C13.5762976,26.7454483 14.0370917,25.9636732 14.5463905,25.5218989 C10.59402,25.0748472 6.43929433,23.5565301 6.43929433,16.7746137 C6.43929433,14.8424157 7.13503279,13.2637883 8.27261821,12.0236535 C8.08845214,11.5781096 7.47911258,9.77859485 8.44541599,7.33978871 C8.44541599,7.33978871 9.93920738,6.86408959 13.3398375,9.15513498 C14.7593561,8.7623628 16.2811892,8.56559977 17.7931699,8.55881485 C19.3051505,8.56559977 20.8284994,8.7623628 22.2502918,9.15513498 C25.6471325,6.86408959 27.1386501,7.33978871 27.1386501,7.33978871 C28.1072272,9.77859485 27.4978876,11.5781096 27.3137216,12.0236535 C28.4543385,13.2637883 29.1447718,14.8424157 29.1447718,16.7746137 C29.1447718,23.5731156 24.9824672,25.06957 21.0202444,25.5075751 C21.6583835,26.0564007 22.2267973,27.1336971 22.2267973,28.7854512 C22.2267973,31.1533925 22.2063344,33.0599583 22.2063344,33.6427086 C22.2063344,34.1138845 22.5269198,34.6649718 23.428803,34.491579 C30.494565,32.1492697 35.5867946,25.5166217 35.5867946,17.699626 C35.5867946,7.92404676 27.6199071,6.36606507e-16 17.7931699,6.36606507e-16" id="Fill-1" fill="#041926" fill-rule="nonzero" mask="url(#mask-2)"></path>
                    </g>
                    <path d="M6.73911365,25.4118328 C6.70046151,25.500037 6.56101067,25.5264227 6.43444387,25.4661122 C6.30484553,25.4080634 6.23284645,25.2881962 6.27453013,25.2007461 C6.31318227,25.1102803 6.45187523,25.0846484 6.58147356,25.1449589 C6.71031401,25.2030077 6.78382886,25.3243826 6.73911365,25.4118328" id="Fill-4" fill="#041926" fill-rule="nonzero"></path>
                    <path d="M7.46001388,26.2120778 C7.37513076,26.2904815 7.20915393,26.2535414 7.09698696,26.1299048 C6.98027266,26.0070222 6.958294,25.8419222 7.0446929,25.7620107 C7.13184967,25.6843609 7.2925213,25.7205473 7.40923559,25.8441838 C7.52594989,25.969328 7.54868643,26.1329204 7.46001388,26.2120778" id="Fill-6" fill="#041926" fill-rule="nonzero"></path>
                    <path d="M8.16166384,27.2310239 C8.0525284,27.3071659 7.87442542,27.2363011 7.7637742,27.0787399 C7.65539664,26.9211786 7.65539664,26.7319544 7.76680574,26.6565664 C7.87669908,26.5811782 8.0525284,26.6497814 8.1639375,26.8058348 C8.27307293,26.9649037 8.27307293,27.1533741 8.16166384,27.2310239" id="Fill-8" fill="#041926" fill-rule="nonzero"></path>
                    <path d="M9.12266206,28.2160452 C9.02489488,28.3230963 8.81723439,28.2944489 8.66489949,28.1481959 C8.50953307,28.0057124 8.46633363,27.8029183 8.56410079,27.6958672 C8.66338373,27.5888159 8.87180211,27.6189712 9.02489488,27.7637165 C9.17950344,27.9062 9.2264923,28.109748 9.12266206,28.2160452" id="Fill-10" fill="#041926" fill-rule="nonzero"></path>
                    <path d="M10.4485819,28.7880904 C10.4053825,28.9268046 10.2053008,28.9893768 10.0044613,28.9298202 C9.80210598,28.8695097 9.67099187,28.7074251 9.71191767,28.5672032 C9.75360133,28.4277351 9.95444087,28.3629013 10.1575541,28.4254735 C10.3583936,28.485784 10.4902656,28.6471146 10.4485819,28.7880904" id="Fill-12" fill="#041926" fill-rule="nonzero"></path>
                    <path d="M11.9047822,28.8934076 C11.9093295,29.0396606 11.7388054,29.1602816 11.5273554,29.1632972 C11.3143898,29.1678204 11.1423499,29.050215 11.1400762,28.9069775 C11.1400762,28.7584629 11.3068109,28.6393497 11.5197766,28.6355803 C11.7312265,28.631057 11.9047822,28.7494163 11.9047822,28.8934076" id="Fill-14" fill="#041926" fill-rule="nonzero"></path>
                    <path d="M13.2599564,28.6644539 C13.2849666,28.8061836 13.1379369,28.9531904 12.9280028,28.9923922 C12.721858,29.0293324 12.5301131,28.9411283 12.5035872,28.8009064 C12.4785769,28.6538995 12.6278803,28.5084004 12.834025,28.4699525 C13.0447171,28.4337662 13.2326725,28.5197086 13.2599564,28.6644539" id="Fill-16" fill="#041926" fill-rule="nonzero"></path>
                </g>
            </g>
        </g>
    </g>
</svg>