<svg width="40" height="40" viewBox="0 0 40 40" fill="none" xmlns="http://www.w3.org/2000/svg">
<path fill-rule="evenodd" clip-rule="evenodd" d="M0 10C0 4.47715 4.47715 0 10 0H30C35.5228 0 40 4.47715 40 10V30C40 35.5228 35.5228 40 30 40H10C4.47715 40 0 35.5228 0 30V10ZM20 6.66667C12.6376 6.66667 6.66667 12.616 6.66667 19.9555C6.66667 25.8268 10.4875 30.8071 15.785 32.5646C16.4511 32.688 16.6959 32.2765 16.6959 31.9255C16.6959 31.782 16.6933 31.489 16.69 31.1081V31.1078V31.1076V31.1074V31.1072V31.107V31.1069V31.1068L16.69 31.1059C16.686 30.6459 16.6808 30.0583 16.6777 29.4515C12.9687 30.2552 12.1862 27.8831 12.1862 27.8831C11.5791 26.3475 10.7056 25.9388 10.7056 25.9388C9.49541 25.1141 10.7965 25.1311 10.7965 25.1311C12.1356 25.2251 12.8404 26.5009 12.8404 26.5009C14.0296 28.5323 15.9593 27.9448 16.7203 27.6052C16.8402 26.7471 17.1854 26.1601 17.5671 25.8285C14.6054 25.4928 11.4922 24.3529 11.4922 19.261C11.4922 17.8103 12.0135 16.6251 12.8659 15.694C12.7279 15.3595 12.2713 14.0084 12.9954 12.1774C12.9954 12.1774 14.1148 11.8202 16.663 13.5403C17.7267 13.2454 18.867 13.0977 20 13.0926C21.133 13.0977 22.2745 13.2454 23.3399 13.5403C25.8852 11.8202 27.0029 12.1774 27.0029 12.1774C27.7287 14.0084 27.2721 15.3595 27.1341 15.694C27.9888 16.6251 28.5061 17.8103 28.5061 19.261C28.5061 24.3653 25.3872 25.4888 22.4181 25.8177C22.8963 26.2298 23.3223 27.0386 23.3223 28.2787C23.3223 29.465 23.3154 30.4971 23.3109 31.1826L23.3109 31.1837L23.3109 31.1845L23.3109 31.185L23.3109 31.1855V31.1858V31.186V31.1861C23.3086 31.5261 23.3069 31.7805 23.3069 31.9255C23.3069 32.2793 23.5471 32.6931 24.223 32.5629C29.5176 30.8043 33.3333 25.8245 33.3333 19.9555C33.3333 12.616 27.3635 6.66667 20 6.66667ZM11.489 25.7866C11.5838 25.8319 11.6883 25.8121 11.7173 25.7459C11.7508 25.6802 11.6957 25.5891 11.5992 25.5455C11.5021 25.5002 11.3981 25.5195 11.3692 25.5874C11.3379 25.6531 11.3919 25.7431 11.489 25.7866ZM12.2576 26.3466C12.194 26.4055 12.0696 26.3777 11.9855 26.2849C11.8981 26.1927 11.8816 26.0687 11.9464 26.0087C12.0117 25.9504 12.1321 25.9776 12.2195 26.0704C12.307 26.1644 12.324 26.2872 12.2576 26.3466ZM12.4851 26.9973C12.568 27.1156 12.7015 27.1688 12.7833 27.1116C12.8668 27.0533 12.8668 26.9118 12.785 26.7924C12.7015 26.6752 12.5697 26.6237 12.4874 26.6803C12.4039 26.7369 12.4039 26.879 12.4851 26.9973ZM13.503 27.8512C13.4298 27.9315 13.2742 27.91 13.16 27.8002C13.0436 27.6932 13.0112 27.541 13.0845 27.4606C13.1589 27.3802 13.315 27.4029 13.4298 27.5116C13.5456 27.6185 13.5808 27.7714 13.503 27.8512ZM14.1637 28.3871C14.3142 28.4318 14.4641 28.3848 14.4965 28.2807C14.5277 28.1748 14.4289 28.0537 14.2784 28.0084C14.1262 27.9614 13.9757 28.0101 13.9445 28.1148C13.9138 28.2201 14.0121 28.3418 14.1637 28.3871ZM15.5871 28.3598C15.5905 28.4696 15.4628 28.5602 15.3043 28.5624C15.1447 28.5658 15.0158 28.4775 15.0141 28.37C15.0141 28.2585 15.139 28.1691 15.2986 28.1662C15.4571 28.1628 15.5871 28.2517 15.5871 28.3598ZM16.3541 28.4341C16.5115 28.4047 16.6216 28.2943 16.6029 28.1879C16.5824 28.0792 16.4416 28.0147 16.2837 28.0419C16.1293 28.0707 16.0174 28.18 16.0361 28.2903C16.056 28.3956 16.1997 28.4619 16.3541 28.4341Z" fill="#CEDAE7"/>
</svg>
