<svg width="48" height="48" viewBox="0 0 48 48" fill="none" xmlns="http://www.w3.org/2000/svg">
<path fill-rule="evenodd" clip-rule="evenodd" d="M10 0C4.47715 0 0 4.47715 0 10V38C0 43.5228 4.47715 48 10 48H38C43.5228 48 48 43.5229 48 38V10C48 4.47715 43.5229 0 38 0H10ZM7 23.6633C6.98957 29.0693 11.2701 33.3794 16.6623 33.3922C21.9941 33.4048 26.3609 29.1257 26.3781 23.8715C26.3955 18.4511 22.1457 14.1374 16.754 14.1035C11.393 14.0699 7.01035 18.3653 7 23.6633ZM37.3169 23.202C37.3169 28.2841 35.043 32.404 32.2381 32.404C29.4332 32.404 27.1593 28.2841 27.1593 23.202C27.1593 18.1198 29.4332 14 32.2381 14C35.043 14 37.3169 18.1198 37.3169 23.202ZM39.7391 31.4682C40.7317 31.4682 41.5362 27.8371 41.5362 23.358C41.5362 18.8788 40.7317 15.2477 39.7391 15.2477C38.7465 15.2477 37.942 18.8788 37.942 23.358C37.942 27.8371 38.7465 31.4682 39.7391 31.4682Z" fill="#8DA9BB"/>
</svg>
