<?xml version="1.0" encoding="UTF-8"?>
<svg viewBox="0 0 53 51" version="1.1" xmlns="http://www.w3.org/2000/svg" xmlns:xlink="http://www.w3.org/1999/xlink">
    <title>medium</title>
    <g id="About" stroke="none" stroke-width="1" fill="none" fill-rule="evenodd">
        <g id="new-about" transform="translate(-695.000000, -4016.000000)" fill-rule="nonzero">
            <g id="medium" transform="translate(695.000000, 4016.000000)">
                <g id="product-icons-02" fill="#FFFFFF">
                    <path d="M43.8671951,51 L9.13280488,51 C4.09134146,51 0,46.9166456 0,41.885024 L0,9.11497597 C0,4.08335441 4.09134146,1.75066789e-15 9.13280488,1.75066789e-15 L43.8671951,1.75066789e-15 C48.9086585,1.75066789e-15 53,4.08335441 53,9.11497597 L53,41.885024 C53,46.9166456 48.9086585,51 43.8671951,51 Z" id="Path"></path>
                </g>
                <g id="Group-19" transform="translate(8.617867, 16.576398)" fill="#041926">
                    <path d="M9.66227435,19.3922204 C4.27014341,19.3793754 -0.0104318949,15.0692569 0,9.66332168 C0.0103521485,4.3653149 4.39297241,0.0698571414 9.75400543,0.103545783 C15.1456675,0.13739039 19.3954574,4.45109617 19.3780625,9.8715362 C19.3609215,15.1257165 14.9940846,19.4047979 9.66227435,19.3922204" id="Fill-1"></path>
                    <path d="M30.3168941,9.20199005 C30.3168941,14.28414 28.0429947,18.4039801 25.2380865,18.4039801 C22.4331783,18.4039801 20.1592789,14.28414 20.1592789,9.20199005 C20.1592789,4.11984012 22.4331783,-4.58356148e-16 25.2380865,-4.58356148e-16 C28.0429947,-4.58356148e-16 30.3168941,4.11984012 30.3168941,9.20199005" id="Fill-4"></path>
                    <path d="M34.5362112,9.35795598 C34.5362112,13.8371416 33.7317281,17.4681845 32.7390946,17.4681845 C31.7464612,17.4681845 30.9419781,13.8371416 30.9419781,9.35795598 C30.9419781,4.87877035 31.7464612,1.24772746 32.7390946,1.24772746 C33.7317281,1.24772746 34.5362112,4.87877035 34.5362112,9.35795598" id="Fill-7"></path>
                </g>
            </g>
        </g>
    </g>
</svg>