<svg width="40" height="40" viewBox="0 0 40 40" fill="none" xmlns="http://www.w3.org/2000/svg">
<path fill-rule="evenodd" clip-rule="evenodd" d="M10 0C4.47715 0 0 4.47715 0 10V30C0 35.5228 4.47715 40 10 40H30C35.5228 40 40 35.5228 40 30V10C40 4.47715 35.5228 0 30 0H10ZM5.83333 19.7194C5.82464 24.2244 9.39178 27.8161 13.8852 27.8268C18.3284 27.8373 21.9674 24.2714 21.9817 19.8929C21.9962 15.3759 18.4547 11.7812 13.9617 11.753C9.49414 11.7249 5.84196 15.3044 5.83333 19.7194ZM31.0974 19.335C31.0974 23.5701 29.2025 27.0033 26.8651 27.0033C24.5276 27.0033 22.6327 23.5701 22.6327 19.335C22.6327 15.0999 24.5276 11.6667 26.8651 11.6667C29.2025 11.6667 31.0974 15.0999 31.0974 19.335ZM33.1159 26.2235C33.9431 26.2235 34.6135 23.1976 34.6135 19.465C34.6135 15.7323 33.9431 12.7064 33.1159 12.7064C32.2887 12.7064 31.6183 15.7323 31.6183 19.465C31.6183 23.1976 32.2887 26.2235 33.1159 26.2235Z" fill="#CEDAE7"/>
</svg>
