<?xml version="1.0" encoding="UTF-8"?>
<svg viewBox="0 0 53 51" version="1.1" xmlns="http://www.w3.org/2000/svg" xmlns:xlink="http://www.w3.org/1999/xlink">
    <title>telegram</title>
    <g id="About" stroke="none" stroke-width="1" fill="none" fill-rule="evenodd">
        <g id="new-about" transform="translate(-1151.000000, -4013.000000)" fill-rule="nonzero">
            <g id="telegram" transform="translate(1151.000000, 4013.000000)">
                <g id="product-icons-02-copy-2" fill="#FFFFFF">
                    <path d="M43.8671951,51 L9.13280488,51 C4.09134146,51 0,46.9166456 0,41.885024 L0,9.11497597 C0,4.08335441 4.09134146,1.75066789e-15 9.13280488,1.75066789e-15 L43.8671951,1.75066789e-15 C48.9086585,1.75066789e-15 53,4.08335441 53,9.11497597 L53,41.885024 C53,46.9166456 48.9086585,51 43.8671951,51 Z" id="Path"></path>
                </g>
                <path d="M39.1927548,15.2386413 L14.7277206,25.7332815 C14.5094539,25.8266417 14.3703394,26.0492697 14.3631436,26.2886546 C14.3559479,26.5280397 14.4950631,26.7363048 14.7085323,26.844028 L23.2664973,31.114657 L39.1927548,15.2386413 Z M40.0562267,16.1004273 L24.1491573,31.9955941 L28.4281399,40.5368522 C28.5336752,40.7451175 28.7519418,40.8815667 28.9845994,40.8815667 L29.0037877,40.8815667 C29.2436409,40.874385 29.4451176,40.7355421 29.541059,40.5177015 L40.0562267,16.1004273 Z" id="Shape" fill="#041926"></path>
            </g>
        </g>
    </g>
</svg>