<svg width="48" height="48" viewBox="0 0 48 48" fill="none" xmlns="http://www.w3.org/2000/svg">
<path fill-rule="evenodd" clip-rule="evenodd" d="M10 0C4.47715 0 0 4.47715 0 10V38C0 43.5228 4.47715 48 10 48H38C43.5228 48 48 43.5229 48 38V10C48 4.47715 43.5229 0 38 0H10ZM20.5907 27.9686L20.1707 34.3136C20.7857 34.3136 21.0707 34.0286 21.4157 33.6836L24.4007 30.7886L30.6107 35.3786C31.7507 36.0086 32.5757 35.6786 32.8607 34.3136L36.9407 15.0986C37.3607 13.4186 36.3107 12.6536 35.2157 13.1486L11.2607 22.3886C9.62571 23.0486 9.64071 23.9636 10.9607 24.3386L17.1107 26.2886L31.3307 17.3036C32.0057 16.8986 32.6207 17.1236 32.1107 17.5886L20.5907 27.9686Z" fill="#8DA9BB"/>
</svg>
