<svg width="40" height="40" viewBox="0 0 40 40" fill="none" xmlns="http://www.w3.org/2000/svg">
<path fill-rule="evenodd" clip-rule="evenodd" d="M10 0C4.47715 0 0 4.47715 0 10V30C0 35.5228 4.47715 40 10 40H30C35.5228 40 40 35.5228 40 30V10C40 4.47715 35.5228 0 30 0H10ZM17.1589 23.3071L16.8089 28.5946C17.3214 28.5946 17.5589 28.3571 17.8464 28.0696L20.3339 25.6571L25.5089 29.4821C26.4589 30.0071 27.1464 29.7321 27.3839 28.5946L30.7839 12.5821C31.1339 11.1821 30.2589 10.5446 29.3464 10.9571L9.38392 18.6571C8.02142 19.2071 8.03392 19.9696 9.13392 20.2821L14.2589 21.9071L26.1089 14.4196C26.6714 14.0821 27.1839 14.2696 26.7589 14.6571L17.1589 23.3071Z" fill="#CEDAE7"/>
</svg>
