<svg width="48" height="48" viewBox="0 0 48 48" fill="none" xmlns="http://www.w3.org/2000/svg">
<path fill-rule="evenodd" clip-rule="evenodd" d="M10 0C4.47715 0 0 4.47715 0 10V38C0 43.5228 4.47715 48 10 48H38C43.5228 48 48 43.5229 48 38V10C48 4.47715 43.5229 0 38 0H10ZM35.1335 19.1516C35.1335 18.9123 35.1287 18.6749 35.118 18.4386C36.1943 17.6607 37.1301 16.69 37.8673 15.5846C36.8802 16.0235 35.8174 16.3189 34.7024 16.4526C35.8407 15.7697 36.7135 14.6905 37.1262 13.404C36.0606 14.0346 34.8816 14.4938 33.6261 14.7418C32.6196 13.6694 31.1878 13 29.6029 13C26.5581 13 24.0898 15.4684 24.0898 18.5112C24.0898 18.9433 24.1382 19.3647 24.2322 19.7687C19.6509 19.5381 15.589 17.3448 12.8707 14.0094C12.3969 14.8242 12.1237 15.7697 12.1237 16.7801C12.1237 18.6924 13.0973 20.3809 14.5766 21.3681C13.6728 21.34 12.8232 21.091 12.0802 20.6793C12.0792 20.7016 12.0792 20.7238 12.0792 20.749C12.0792 23.4189 13.9799 25.647 16.5015 26.1527C16.0385 26.2787 15.5512 26.3465 15.0484 26.3465C14.6938 26.3465 14.348 26.3116 14.0118 26.2477C14.7142 28.437 16.7486 30.0306 19.1617 30.0762C17.2746 31.5545 14.8983 32.4351 12.3156 32.4351C11.8709 32.4351 11.4321 32.4099 11 32.3585C13.4403 33.9221 16.3368 34.8347 19.4504 34.8347C29.5884 34.8347 35.1335 26.4356 35.1335 19.1516Z" fill="#8DA9BB"/>
</svg>
