<svg width="40" height="40" viewBox="0 0 40 40" fill="none" xmlns="http://www.w3.org/2000/svg">
<path fill-rule="evenodd" clip-rule="evenodd" d="M10 0C4.47715 0 0 4.47715 0 10V30C0 35.5228 4.47715 40 10 40H30C35.5228 40 40 35.5228 40 30V10C40 4.47715 35.5228 0 30 0H10ZM29.2779 15.9596C29.2779 15.7602 29.2739 15.5624 29.265 15.3655C30.1619 14.7172 30.9417 13.9083 31.5561 12.9872C30.7335 13.3529 29.8479 13.5991 28.9187 13.7105C29.8672 13.1414 30.5946 12.2421 30.9385 11.17C30.0505 11.6955 29.068 12.0782 28.0218 12.2848C27.183 11.3912 25.9898 10.8333 24.6691 10.8333C22.1318 10.8333 20.0748 12.8903 20.0748 15.426C20.0748 15.7861 20.1152 16.1372 20.1935 16.4739C16.3758 16.2817 12.9908 14.454 10.7255 11.6745C10.3308 12.3535 10.1031 13.1414 10.1031 13.9834C10.1031 15.577 10.9145 16.9841 12.1472 17.8067C11.394 17.7833 10.686 17.5758 10.0668 17.2327C10.066 17.2513 10.066 17.2699 10.066 17.2909C10.066 19.5158 11.6499 21.3725 13.7513 21.7939C13.3654 21.8989 12.9593 21.9554 12.5403 21.9554C12.2449 21.9554 11.9567 21.9263 11.6765 21.873C12.2618 23.6975 13.9571 25.0255 15.9681 25.0635C14.3955 26.2954 12.4152 27.0292 10.263 27.0292C9.89242 27.0292 9.52672 27.0082 9.16667 26.9654C11.2002 28.2684 13.614 29.0289 16.2087 29.0289C24.657 29.0289 29.2779 22.0297 29.2779 15.9596Z" fill="#CEDAE7"/>
</svg>
