<?xml version="1.0" encoding="UTF-8"?>
<svg viewBox="0 0 53 51" version="1.1" xmlns="http://www.w3.org/2000/svg" xmlns:xlink="http://www.w3.org/1999/xlink">
    <title>twitter</title>
    <g id="About" stroke="none" stroke-width="1" fill="none" fill-rule="evenodd">
        <g id="new-about" transform="translate(-923.000000, -4016.000000)" fill-rule="nonzero">
            <g id="twitter" transform="translate(923.000000, 4016.000000)">
                <g id="product-icons-02-copy" fill="#FFFFFF">
                    <path d="M43.8671951,51 L9.13280488,51 C4.09134146,51 0,46.9166456 0,41.885024 L0,9.11497597 C0,4.08335441 4.09134146,1.75066789e-15 9.13280488,1.75066789e-15 L43.8671951,1.75066789e-15 C48.9086585,1.75066789e-15 53,4.08335441 53,9.11497597 L53,41.885024 C53,46.9166456 48.9086585,51 43.8671951,51 Z" id="Path"></path>
                </g>
                <path d="M37.2002967,21.3835822 C37.2105004,21.6094797 37.2151386,21.8363027 37.2151386,22.0649776 C37.2151386,29.026134 31.9054434,37.0528964 22.1979034,37.0528964 C19.2165336,37.0528964 16.4429508,36.1807845 14.1062768,34.6865291 C14.5199952,34.735597 14.9402069,34.7596679 15.3659844,34.7596679 C17.8390184,34.7596679 20.1144695,33.9181077 21.9214726,32.5053236 C19.610772,32.4618105 17.6627707,30.9388551 16.9902463,28.8465271 C17.3121304,28.9076304 17.6432907,28.9409595 17.9827995,28.9409595 C18.4642341,28.9409595 18.9308268,28.876153 19.374229,28.7557979 C16.9596349,28.2725257 15.1396451,26.1431654 15.1396451,23.5916363 C15.1396451,23.5675653 15.1396451,23.5462717 15.1405728,23.524978 C15.852057,23.9184468 16.6655795,24.1563797 17.5310487,24.1832281 C16.1145734,23.239829 15.1823157,21.6261442 15.1823157,19.7985977 C15.1823157,18.832979 15.4439044,17.9293897 15.8975104,17.1507844 C18.5004112,20.3383441 22.3899207,22.4343753 26.7766341,22.6547178 C26.6866551,22.2686555 26.6402741,21.8659287 26.6402741,21.4530179 C26.6402741,18.5450524 29.003849,16.1860916 31.9193577,16.1860916 C33.4369435,16.1860916 34.8079654,16.8258255 35.7717623,17.8506958 C36.9739574,17.6136888 38.1028706,17.1748554 39.1232523,16.5721539 C38.7280863,17.8016281 37.8923009,18.832979 36.8023478,19.4856742 C37.870038,19.3579126 38.8876369,19.0755409 39.8328814,18.6561495 C39.1269627,19.7124974 38.2308821,20.6401579 37.2002967,21.3835822" id="Path" fill="#041926"></path>
            </g>
        </g>
    </g>
</svg>