<svg height="37" viewBox="0 0 37 37" width="37" xmlns="http://www.w3.org/2000/svg"><g fill="none"><path d="m30.5415 36.0135h-24.183c-3.51 0-6.3585-2.8485-6.3585-6.3585v-22.86c0-3.51 2.8485-6.3585 6.3585-6.3585h24.183c3.51 0 6.3585 2.8485 6.3585 6.3585v22.86c0 3.51-2.8485 6.3585-6.3585 6.3585z" fill="#ececec"/><path d="m15.4160309 12.0968534.1678877.2016058c-3.0219797.8568244-4.3986593 2.1840621-4.3986593 2.1840621s.3693531-.2016057.9905378-.4704134c1.796399-.7896224 3.223445-.9912282 3.8110522-1.0584301.1007326-.0168005.1846765-.0336009.2854091-.0336009 1.0241154-.1344039 2.1825409-.1680048 3.3913328-.033601 1.5949337.1848053 3.3073889.6552187 5.0534216 1.5960454 0 0-1.3263133-1.2600358-4.1804052-2.1168602l.2350428-.2688077.055374.0001767c.3636517.0059326 2.4629424.1128447 4.6454833 1.7470731 0 0 2.4175838 4.3513238 2.4175838 9.7106764 0-.0168005-1.4102572 2.4024684-5.1205767 2.5200717 0 0-.604396-.7224205-1.1080592-1.3440382 1.9636872-.5550158 2.8432777-1.6993341 3.009219-1.9381738l.0263136-.039171c.0021651-.0033759.0032358-.0051117.0032358-.0051117-.6883398.453613-1.3431021.7728221-1.9307092.9912283-.8394388.35281-1.6453001.5712162-2.4343725.7224205-1.6117225.3024086-3.0891348.2184063-4.348293-.0168004-.9569603-.1848053-1.7796103-.4368125-2.4679501-.7224206-.3861419-.1512043-.8058613-.3360096-1.2255807-.5712163-.0503663-.0336009-.1007326-.0504014-.151099-.0840024-.0335775-.0168004-.0503663-.0336009-.0671551-.0336009-.3021979-.1680048-.4700857-.2856082-.4700857-.2856082s.8058613 1.3272378 2.9380358 1.965656c-.5036633.6384182-1.124848 1.3776392-1.124848 1.3776392-3.71031949-.1176033-5.12057668-2.5368722-5.12057668-2.5368722 0-4.4843562 1.6926107-8.2629664 2.24529988-9.3772653l.0724151-.1438213c.0636201-.1243472.0998688-.1895898.0998688-.1895898 2.1978034-1.6342284 4.2846066-1.7411405 4.6458617-1.7470731zm5.6746063 6.1993765c-.9569603 0-1.7124552.8232234-1.7124552 1.8480526s.7722837 1.8480526 1.7124552 1.8480526c.9569602 0 1.7124551-.8232234 1.7124551-1.8480526s-.7722837-1.8480526-1.7124551-1.8480526zm-6.1279033 0c-.9569602 0-1.7124551.8232234-1.7124551 1.8480526s.7722837 1.8480526 1.7124551 1.8480526c.9569602 0 1.7124552-.8232234 1.7124552-1.8480526.0167887-1.0248292-.755495-1.8480526-1.7124552-1.8480526z" fill="#05283e"/></g></svg>