<svg height="37" viewBox="0 0 37 37" width="37" xmlns="http://www.w3.org/2000/svg"><g fill="none"><path d="m30.5415 36.0135h-24.183c-3.51 0-6.3585-2.8485-6.3585-6.3585v-22.86c0-3.51 2.8485-6.3585 6.3585-6.3585h24.183c3.51 0 6.3585 2.8485 6.3585 6.3585v22.86c0 3.51-2.8485 6.3585-6.3585 6.3585z" fill="#ececec"/><path d="m1.73684211.27272727c-.86842106 0-1.57894737.73636364-1.57894737 1.63636364v11.45454549c0 .9.71052631 1.6363636 1.57894737 1.6363636h8.68421049c.8684211 0 1.5789474-.7363636 1.5789474-1.6363636v-9.00000004l-3.94736842-4.09090909zm1.57894736 6.54545455h5.52631579v1.63636363h-5.52631579zm0 3.27272728h5.52631579v1.6363636h-5.52631579z" fill="#083549" transform="translate(12 11)"/></g></svg>