<svg xmlns="http://www.w3.org/2000/svg" width="10" height="9" viewBox="0 0 10 9">
    <g fill="none" fill-rule="evenodd">
        <g fill="#25435A" fill-rule="nonzero">
            <g>
                <path d="M4.5.5c-.332 0-.6.228-.6.51v6.662l-2.322-1.97c-.235-.199-.616-.199-.85 0l-.052.045c-.235.199-.235.522 0 .72l3.4 2.884c.234.199.615.199.849 0l3.399-2.884c.235-.199.235-.522 0-.72l-.052-.044c-.235-.2-.615-.2-.85 0L5.101 7.672V1.01C5.1.728 4.83.5 4.5.5z" transform="translate(-821 -144) rotate(-90 487 -334)"/>
            </g>
        </g>
    </g>
</svg>
