<svg height="37" viewBox="0 0 37 37" width="37" xmlns="http://www.w3.org/2000/svg"><g fill="none"><path d="m30.5415 36.0135h-24.183c-3.51 0-6.3585-2.8485-6.3585-6.3585v-22.86c0-3.51 2.8485-6.3585 6.3585-6.3585h24.183c3.51 0 6.3585 2.8485 6.3585 6.3585v22.86c0 3.51-2.8485 6.3585-6.3585 6.3585z" fill="#ececec"/><path d="m7.5 0c-4.1355 0-7.5 3.3645-7.5 7.5s3.3645 7.5 7.5 7.5 7.5-3.3645 7.5-7.5-3.3645-7.5-7.5-7.5zm5.1885 4.5h-1.72875c-.18525-.89925-.45375-1.69875-.789-2.3655 1.05225.5265 1.92825 1.3515 2.51775 2.3655zm.8115 3c0 .519-.07275 1.01925-.19725 1.5h-2.1225c.045-.48225.06975-.98325.06975-1.5s-.02475-1.01775-.06975-1.5h2.1225c.1245.48075.19725.981.19725 1.5zm-6 6c-.63225 0-1.46175-1.11075-1.91625-3h3.83175c-.45375 1.88925-1.28325 3-1.9155 3zm-2.169-4.5c-.05025-.47175-.081-.96975-.081-1.5s.03075-1.02825.081-1.5h4.338c.05025.47175.081.96975.081 1.5s-.03075 1.02825-.081 1.5zm-3.831-1.5c0-.519.07275-1.01925.19725-1.5h2.1225c-.045.48225-.06975.98325-.06975 1.5s.02475 1.01775.06975 1.5h-2.1225c-.1245-.48075-.19725-.981-.19725-1.5zm6-6c.63225 0 1.46175 1.11075 1.91625 3h-3.8325c.4545-1.88925 1.284-3 1.91625-3zm-2.67.6345c-.33525.66675-.60375 1.46625-.789 2.3655h-1.7295c.5895-1.014 1.4655-1.839 2.5185-2.3655zm-2.5185 8.3655h1.72875c.18525.89925.45375 1.69875.789 2.3655-1.05225-.5265-1.92825-1.3515-2.51775-2.3655zm7.8585 2.3655c.33525-.66675.603-1.46625.789-2.3655h1.72875c-.58875 1.014-1.46475 1.839-2.51775 2.3655z" fill="#083549" transform="translate(11 11)"/></g></svg>