<svg height="37" viewBox="0 0 37 37" width="37" xmlns="http://www.w3.org/2000/svg"><g fill="none"><path d="m30.5415 36.0135h-24.183c-3.51 0-6.3585-2.8485-6.3585-6.3585v-22.86c0-3.51 2.8485-6.3585 6.3585-6.3585h24.183c3.51 0 6.3585 2.8485 6.3585 6.3585v22.86c0 3.51-2.8485 6.3585-6.3585 6.3585z" fill="#ececec"/><path d="m18.5 11c4.6830842 0 8.5 3.2286931 8.5 7.2698865 0 4.0426135-3.8169158 7.2713066-8.5 7.2713066-.7319125 0-1.4335087-.0866476-2.1148946-.2443182-.2049934.2357956-1.5287875 1.7031251-3.8169158 1.7031251h-.6597315l.3782267-.5326705c.53125-.75.7939879-1.4147728.9224695-1.887784.1053837-.3806819.0996093-.5085226.1024967-.5866477-2.0066238-1.3338069-3.311651-3.3764203-3.311651-5.7230113 0-4.0411934 3.8169158-7.2698865 8.5-7.2698865z" fill="#05283e"/></g></svg>