<svg height="37" viewBox="0 0 37 37" width="37" xmlns="http://www.w3.org/2000/svg" xmlns:xlink="http://www.w3.org/1999/xlink"><linearGradient id="a" x1="12.935976%" x2="94.541707%" y1="13.914589%" y2="93.365774%"><stop offset="0" stop-color="#143653"/><stop offset="1" stop-color="#0b1017"/></linearGradient><linearGradient id="b" x1="147.566045%" x2="39.714262%" y1="-229.54908%" y2="86.712883%"><stop offset="0" stop-color="#bcf9bf"/><stop offset="1" stop-color="#f9f88f"/></linearGradient><linearGradient id="c" x1=".018906%" x2="100.005546%" y1="49.975068%" y2="49.975068%"><stop offset=".1561" stop-color="#bcf9bf"/><stop offset=".6034" stop-color="#f9f88f"/><stop offset=".982" stop-color="#06131f" stop-opacity="0"/></linearGradient><linearGradient id="d" x1="64.720641%" x2="34.739668%" y1="-6.104659%" y2="138.878202%"><stop offset=".1561" stop-color="#bcf9bf"/><stop offset=".903" stop-color="#f9f88f"/></linearGradient><linearGradient id="e" x1="-.032347%" x2="99.997456%" y1="50.035021%" y2="50.035021%"><stop offset="0" stop-color="#bcf9bf" stop-opacity="0"/><stop offset=".4075" stop-color="#bcf9bf"/><stop offset=".903" stop-color="#f9f88f"/></linearGradient><g fill="none"><path d="m30.5415 36.0135h-24.183c-3.51 0-6.3585-2.8485-6.3585-6.3585v-22.86c0-3.51 2.8485-6.3585 6.3585-6.3585h24.183c3.51 0 6.3585 2.8485 6.3585 6.3585v22.86c0 3.51-2.8485 6.3585-6.3585 6.3585z" fill="url(#a)"/><g transform="translate(8.1 4.05)"><path d="m6.8265 19.0485-3.249 6.516c-.1395.2565-.0675.549.171.7155.099.072.2115.1035.3195.1035.1485 0 .297-.063.405-.189l5.049-5.5305c-1.197-.4725-2.178-1.188-2.6955-1.6155z" fill="url(#b)"/><path d="m18.3285 14.6835s-.261-.531-.288-.5715c-.8415-1.1565-1.4085-1.755-2.6325-2.8485-1.2195-1.089-2.5425-2.0655-3.924-2.907-1.476-.9045-2.97-1.6155-4.4415-2.115-.8235-.279-1.6425-.4725-2.4435-.5805-.756-.0945-1.6875.036-2.322.1395l.1215-1.044-1.9215 2.673 3.195-.198-1.062-.54c.369-.0315 1.476-.0675 1.881-.036.738.063 1.5075.2115 2.2815.4365 1.431.414 2.9025 1.035 4.3695 1.845 1.3905.765 2.7225 1.6605 3.969 2.673 1.2375 1.008 1.809 1.512 2.682 2.592.3825.387.4905.45.5355.4815z" fill="url(#c)"/><path d="m15.9795.972c.1305-.261.054-.5535-.1935-.711-.243-.1575-.5445-.1125-.7245.1125l-9.558 11.1735-.162.1935c-.099.1215-.1395.279-.117.432s.1125.2925.243.378l1.9125 1.242 1.521.9855c.0855.054.1125.162.0675.252l-.072.1395-.9405 1.7145c.4905.4725 1.539 1.3455 3.132 2.0565l1.3185-1.215 2.9385-3.1365c.117-.1215.1665-.288.144-.4545s-.117-.3105-.261-.396l-3.8475-2.304c-.0855-.054-.1215-.162-.072-.261z" fill="url(#d)"/><path d="m20.511 17.2755.9045.117-2.547-2.0835.189 3.285.4995-.8055c.108.315.225.8505.2565 1.116.072.5715-.009 1.0755-.2385 1.449-.252.3915-.666.693-1.188.864-.4905.1755-1.0485.198-1.665.207-1.0485-.0405-2.1915-.27-3.492-.7065-1.1025-.3735-2.223-.864-3.3255-1.467-2.2365-1.2195-4.2165-2.6775-5.886-4.329-.945-.9405-1.7055-1.863-2.3265-2.817-.387-.5985-.657-1.1115-.8505-1.6065-.2655-.666-.3825-1.233-.4095-1.7505-.0045-.0945-.117-.5445-.117-.5445s-.117.45-.1215.5445c-.018.5535.117 1.1475.3735 1.8495.189.522.45 1.0575.828 1.6875.6075.999 1.359 1.962 2.295 2.9565 1.6515 1.737 3.627 3.285 5.877 4.6035 1.1205.657 2.2635 1.2015 3.3975 1.6245 1.386.513 2.5695.7875 3.726.864.1305 0 .2655.0045.4005.0045.5085 0 1.053-.027 1.5885-.198.7425-.216 1.3725-.657 1.764-1.242.4725-.72.504-1.548.4455-2.115-.045-.414-.216-1.0395-.378-1.5075z" fill="url(#e)"/></g></g></svg>