<svg height="37" viewBox="0 0 38 37" width="38" xmlns="http://www.w3.org/2000/svg"><g fill="none"><path d="m31.4519512 37h-24.90390242c-3.61463415 0-6.54804878-2.9624336-6.54804878-6.6128257v-23.7743486c0-3.65039211 2.93341463-6.6128257 6.54804878-6.6128257h24.90390242c3.6146342 0 6.5480488 2.96243359 6.5480488 6.6128257v23.7743486c0 3.6503921-2.9334146 6.6128257-6.5480488 6.6128257z" fill="#47cd8a"/><path d="m19.0276743 31.4989655c.264373 0 .4768155-.080256.6373276-.2407682.1605121-.1605121.2407682-.3635128.2407682-.6090019v-2.0111226c1.3029809-.0755351 2.4501705-.3540709 3.441569-.8356073.9913984-.4815364 1.7561916-1.1283059 2.2943793-1.9403084.5381877-.8120026.8072816-1.718424.8072816-2.7192644 0-1.2274457-.3021405-2.2141232-.9064215-2.9600325-.6042809-.7459094-1.3549112-1.3077018-2.2518908-1.6853774-.8969795-.3776756-2.0252854-.7270256-3.3849176-1.0480498v-6.7415096c1.4729349.0566513 2.8514508.3115823 4.1355479.7647931.1888378.0755351.3399081.1133027.4532107.1133027.3399081 0 .6137229-.1227446.8214445-.3682338.2077216-.2454891.3115824-.5193039.3115824-.8214444 0-.56651341-.264373-.94418902-.7931188-1.13302682-1.4351673-.54762963-3.0780562-.85921201-4.9286667-.93474713v-1.95447126c0-.24548915-.084977-.45321073-.254931-.62316476-.169954-.16995402-.3776756-.25493103-.6231648-.25493103-.2454891 0-.4484898.08497701-.6090019.25493103-.1605121.16995403-.2407682.37767561-.2407682.62316476v1.98279693c-1.3407484.11330268-2.487938.44376884-3.441569.99139847-.9536309.54762963-1.6712145 1.23688761-2.1527509 2.06777391-.4815364.8308864-.7223046 1.7373078-.7223046 2.7192644 0 1.114143.2926986 2.0347273.8780958 2.7617529.5853972.7270255 1.3171437 1.288818 2.1952394 1.6853774.8780958.3965594 1.9591923.7647931 3.2432893 1.1047011v6.5149042c-1.6806564-.0755351-3.2857778-.4532107-4.815364-1.1330268-.169954-.0755351-.3493499-.1133027-.5381877-.1133027-.3399081 0-.6184438.1180237-.8356073.3540709-.2171635.2360473-.3257452.514583-.3257452.8356073 0 .2454891.0755351.4768154.2266054.6939789.1510702.2171635.339908.3729547.5665134.4673736 1.7750753.7553512 3.6823371 1.19912 5.7217854 1.3313065v2.0111226c0 .2643729.0802561.4720945.2407682.6231648.1605121.1510702.3635128.2266053.6090019.2266053zm-.8497701-14.4744176c-1.2274457-.3210243-2.1574719-.7081418-2.7900785-1.1613525-.6326067-.4532107-.94891-1.0952593-.94891-1.9261456 0-.8686539.3399081-1.5720747 1.0197241-2.1102624.6798161-.5381878 1.5862376-.8828168 2.7192644-1.033887zm1.7278659 9.1775172v-6.0900191c1.3218646.3587918 2.3179841.7411884 2.9883583 1.1471896.6703742.4060013 1.0055613.9772357 1.0055613 1.7137031 0 1.9639132-1.3313066 3.0402886-3.9939196 3.2291264z" fill="#fff"/></g></svg>