<svg height="37" viewBox="0 0 37 37" width="37" xmlns="http://www.w3.org/2000/svg" xmlns:xlink="http://www.w3.org/1999/xlink"><mask id="a" fill="#fff"><path d="m0 .10749371h24.7762553v24.08370409h-24.7762553z" fill="#fff" fill-rule="evenodd"/></mask><g fill="none" fill-rule="evenodd"><path d="m30.5415 36.0135h-24.183c-3.51 0-6.3585-2.8485-6.3585-6.3585v-22.86c0-3.51 2.8485-6.3585 6.3585-6.3585h24.183c3.51 0 6.3585 2.8485 6.3585 6.3585v22.86c0 3.51-2.8485 6.3585-6.3585 6.3585z" fill="#ececec" fill-rule="nonzero"/><g fill="#05283e" transform="translate(6 6)"><path d="m12.3880749.10749371c-6.84057873 0-12.3883915 5.52772179-12.3883915 12.34705089 0 5.4551478 3.55009362 10.0825309 8.47210213 11.7154465.61894468.114646.84636596-.2676824.84636596-.5937397 0-.2945033-.01160851-1.2668901-.01688511-2.2987034-3.44614468.7467762-4.17325957-1.4572654-4.17325957-1.4572654-.56406809-1.4267634-1.37560851-1.8064623-1.37560851-1.8064623-1.12444256-.7662344.08442553-.7504575.08442553-.7504575 1.24422128.0872992 1.89904681 1.272675 1.89904681 1.272675 1.10491915 1.8874506 2.89790638 1.3415677 3.60497021 1.0260285.11133617-.7972625.43215319-1.3426196.78674045-1.6507962-2.7517447-.311858-5.64437449-1.3710181-5.64437449-6.1020032 0-1.3478786.48439149-2.44911054 1.27640851-3.31421399-.12822128-.31080616-.55245958-1.56612648.12030638-3.26740895 0 0 1.04001702-.33184211 3.40762553 1.2663642.98830637-.27399325 2.04784677-.41125283 3.10052767-.41598591 1.0526808.00473308 2.1132766.14199266 3.103166.41598591 2.3649702-1.59820631 3.4034042-1.2663642 3.4034042-1.2663642.6743489 1.70128247.2501106 2.95660279.1218894 3.26740895.7941276.86510345 1.2748255 1.96633539 1.2748255 3.31421399 0 4.7425549-2.8979064 5.7864639-5.6565106 6.0920111.4442893.3828543.840034 1.1343636.840034 2.2866078 0 1.651848-.0142468 2.9818459-.0142468 3.3883656 0 .3286868.2232.7131188.8511149.592162 4.9193702-1.6339674 8.4647149-6.2608246 8.4647149-11.7138688 0-6.8193291-5.5467575-12.34705089-12.3883915-12.34705089" mask="url(#a)" transform="translate(0 .418352)"/><path d="m4.69194894 18.2528413c-.02691064.0615302-.124.0799366-.21211915.0378647-.09022979-.0404942-.14035745-.1241121-.11133617-.1851163.02691064-.0631079.12347234-.0809884.21370212-.0389165.08970213.0404942.14088511.1251639.1097532.1861681"/><path d="m5.19385872 18.8110828c-.05909787.0546935-.17465532.0289245-.25274893-.0573229-.08125958-.0857215-.0965617-.2008933-.03640851-.2566386.06068085-.0541676.17254468-.0289244.25380425.057323.08125958.0872991.09708936.2014192.03535319.2566385"/><path d="m5.68236596 19.5218876c-.07598298.0531158-.19998298.0036813-.27702128-.1062315-.07545532-.1099129-.07545532-.2419135.00211064-.2945033.07651064-.0525899.19892766-.0047331.27649362.1041279.07598297.1109646.07598297.2424393-.00158298.2966069"/><path d="m6.3514383 20.2090269c-.06806809.0746776-.21264681.0546935-.31870639-.0473309-.10817021-.0993948-.1382468-.2408616-.07017872-.3155392.06912341-.0746777.21422979-.0536417.32081702.0473309.10764256.0993948.14035745.2413875.06806809.3155392"/><path d="m7.27457872 20.6080789c-.03007659.0967654-.16937872.140415-.30920851.098869-.1408851-.0420719-.23217021-.1551402-.20367659-.2529573.02902127-.0972913.16885106-.1425186.31026383-.098869.13982978.0420719.23164255.1546142.20262127.2529573"/><path d="m8.28842383 20.6815469c.00316596.1020244-.11555745.1861682-.26277447.1882718-.14827234.0031554-.26805106-.0788848-.26963404-.1788056 0-.103602.11608511-.186694.26435745-.1893235.14721702-.0031554.26805106.0794107.26805106.1798573"/><path d="m9.23193191 20.5218315c.01741277.098869-.08495319.2014192-.23111489.2287659-.1435234.0257691-.27702128-.0357611-.29548936-.1335782-.01741277-.1025503.08653617-.2040488.23005957-.2308696.14668937-.0252431.27754894.0347093.29654468.1356819"/></g></g></svg>