<svg width="48" height="48" viewBox="0 0 48 48" fill="none"
  xmlns="http://www.w3.org/2000/svg">
  <circle cx="24" cy="24" r="24" fill="#E7EFF4"/>
  <path d="M21 24L23 26L27 22M33 24C33 25.1819 32.7672 26.3522 32.3149 27.4442C31.8626 28.5361 31.1997 29.5282 30.364 30.364C29.5282 31.1997 28.5361 31.8626 27.4442 32.3149C26.3522 32.7672 25.1819 33 24 33C22.8181 33 21.6478 32.7672 20.5558 32.3149C19.4639 31.8626 18.4718 31.1997 17.636 30.364C16.8003 29.5282 16.1374 28.5361 15.6851 27.4442C15.2328 26.3522 15 25.1819 15 24C15 21.6131 15.9482 19.3239 17.636 17.636C19.3239 15.9482 21.6131 15 24 15C26.3869 15 28.6761 15.9482 30.364 17.636C32.0518 19.3239 33 21.6131 33 24Z" stroke="#4A687B" stroke-width="2" stroke-linecap="round" stroke-linejoin="round"/>
</svg>
