<svg height="37" viewBox="0 0 37 37" width="37" xmlns="http://www.w3.org/2000/svg"><g fill="none" fill-rule="evenodd"><path d="m30.5415 36.0135h-24.183c-3.51 0-6.3585-2.8485-6.3585-6.3585v-22.86c0-3.51 2.8485-6.3585 6.3585-6.3585h24.183c3.51 0 6.3585 2.8485 6.3585 6.3585v22.86c0 3.51-2.8485 6.3585-6.3585 6.3585z" fill="#ececec" fill-rule="nonzero"/><g fill="#05283e" transform="translate(6 12)"><path d="m6.72711734 13.5277654c-3.754144-.0089411-6.7343936-3.0156291-6.72711734-6.78674588.00719414-3.6958272 3.05849014-6.692288 6.79098294-6.6687872 3.75381756.0236096 6.71263356 3.0328 6.70048546 6.8140352-.0118967 3.66525438-3.0522039 6.65029118-6.76435106 6.64149788"/><path d="m21.1074092 6.4192c0 3.545248-1.5831488 6.4192-3.536 6.4192s-3.536-2.873952-3.536-6.4192 1.5831488-6.4192 3.536-6.4192 3.536 2.873952 3.536 6.4192"/><path d="m24.0450092 6.528c0 3.1246272-.5601024 5.6576-1.2512 5.6576s-1.2512-2.5329728-1.2512-5.6576.5601024-5.6576 1.2512-5.6576 1.2512 2.5329728 1.2512 5.6576"/></g></g></svg>