<svg height="37" viewBox="0 0 37 37" width="37" xmlns="http://www.w3.org/2000/svg" xmlns:xlink="http://www.w3.org/1999/xlink"><linearGradient id="a" x1="12.935976%" x2="94.541707%" y1="13.914589%" y2="93.365774%"><stop offset="0" stop-color="#143653"/><stop offset="1" stop-color="#0b1017"/></linearGradient><linearGradient id="b"><stop offset="0" stop-color="#bcf9bf"/><stop offset="1" stop-color="#f9f88f"/></linearGradient><linearGradient id="c" x1="48.412869%" x2="50.521365%" xlink:href="#b" y1="15.893247%" y2="56.328423%"/><linearGradient id="d" x1="49.985405%" x2="49.985405%" xlink:href="#b" y1="-114.951206%" y2="170.403253%"/><linearGradient id="e" x1="50.390292%" x2="48.984475%" xlink:href="#b" y1="32.69553%" y2="94.600739%"/><g fill="none"><path d="m30.5415 36.0135h-24.183c-3.51 0-6.3585-2.8485-6.3585-6.3585v-22.86c0-3.51 2.8485-6.3585 6.3585-6.3585h24.183c3.51 0 6.3585 2.8485 6.3585 6.3585v22.86c0 3.51-2.8485 6.3585-6.3585 6.3585z" fill="url(#a)"/><g transform="translate(8 7)"><path d="m10.3193349 18.39333c-.72979001 0-1.40714001-.15295-1.95776001-.44574l-5.95194-3.12455-1.78296 1.07502c-.84778.51129-.83467 1.29789.03496 1.75237l8.22871 4.3263c.40204.20976.91333.31027 1.42899001.31027.60306 0 1.21923-.13984 1.67371-.41515l8.05828-4.86381c.84778-.51129.83467-1.29789-.03496-1.75237l-1.71304-.90022-5.7247 3.45667c-.6118.37582-1.41588.58121-2.25929.58121z" fill="url(#c)"/><path d="m20.0207349 9.78443-1.42462-.74727-3.31683 2.00583-.5681.34523-.5681.34523-1.55135.93955c-.62054.37582-1.42462.58121-2.26366.58121-.72979001 0-1.40714001-.15295-1.95776001-.44574l-1.77859-.93518-.58995-.31027-.58995-.31027-3.2775-1.72178-1.49891.90459c-.84778.51129-.83467 1.29789.03496 1.75237l1.71304.90022.58995.31027.58995.31027 5.34014 2.80554c.39767.20976.90896.31464 1.42899001.31464.60306 0 1.21923-.13984 1.67371-.41515l5.13475-3.1027.5681-.34523.5681-.34523 1.78296-1.07502c.83904-.52003.82593-1.30663-.03933-1.76111z" fill="url(#d)"/><path d="m20.0207349 4.63657-8.22871-4.3263c-.40204-.20976-.91333-.31027-1.42899-.31027-.60306001 0-1.21923001.13984-1.67371001.41515l-8.05828 4.86381c-.84778.51129-.83467 1.29789.03496 1.75237l1.42462.74727.58995.31027.58995.31027 3.2775 1.72178.58995.31027.58995.31027 1.17116.61617c.39767.20976.90896.31464 1.42899001.31464.60306 0 1.21923-.13984 1.67371-.41515l.96577-.58121.5681-.34523.5681-.34523 3.31683-2.00583.5681-.34523.5681-.34523 1.49891-.90459c.84341-.50692.8303-1.29352-.03496-1.748z" fill="url(#e)"/></g></g></svg>