<svg width="48" height="48" viewBox="0 0 48 48" fill="none"
  xmlns="http://www.w3.org/2000/svg">
  <circle cx="24" cy="24" r="24" fill="#E7EFF4"/>
  <path d="M18.6653 33.197L18.6663 33.1954L18.8312 32.9549L18.995 32.716C18.995 32.7159 18.9951 32.7158 18.9952 32.7157C19.1443 32.4973 19.2938 32.2796 19.4429 32.0625L19.443 32.0623C19.5923 31.8449 19.7412 31.6281 19.8895 31.4109L19.8902 31.4099L21.21 29.4867L21.2102 29.4864C21.4793 29.0949 21.7483 28.7028 22.0175 28.3106L22.0177 28.3103C22.2867 27.9183 22.5559 27.5261 22.825 27.1344C23.2716 26.4821 23.7194 25.8297 24.1664 25.1785C24.3067 24.9741 24.447 24.7698 24.5871 24.5656C24.5871 24.5656 24.5871 24.5656 24.5872 24.5655L26.372 21.9637L26.3721 21.9635C26.6496 21.5594 26.9265 21.1552 27.2036 20.7509L27.2053 20.7484C27.4817 20.345 27.7583 19.9413 28.0355 19.5376C28.0355 19.5376 28.0355 19.5375 28.0356 19.5375L29.4366 17.4957C29.4367 17.4955 29.4368 17.4954 29.4369 17.4952C29.6045 17.25 29.7727 17.0049 29.9406 16.7601L29.9408 16.7597L29.9416 16.7585C30.1095 16.5138 30.2772 16.2694 30.4443 16.025L30.4444 16.0247C30.503 15.9391 30.5607 15.8557 30.6178 15.7731C30.7191 15.6265 30.8183 15.4829 30.917 15.3356C30.9284 15.3178 30.9386 15.3038 30.9447 15.2954L30.9488 15.29C30.9623 15.2673 30.9839 15.2143 30.9933 15.1301C31.0033 15.0413 30.9951 14.9578 30.9804 14.9046C30.9438 14.7715 30.8321 14.6323 30.7475 14.5875C30.5764 14.4977 30.4257 14.4841 30.3299 14.5155L30.3288 14.5159C30.1768 14.5654 30.0674 14.6488 29.9596 14.8056L29.7954 15.0451L29.6317 15.284L18.6653 33.197ZM18.6653 33.197C18.5607 33.351 18.4527 33.4341 18.2989 33.4838L18.2967 33.4845C18.2009 33.5159 18.0501 33.5023 17.8791 33.4124C17.7945 33.3676 17.6828 33.2284 17.6462 33.0954C17.6315 33.0422 17.6233 32.9587 17.6333 32.8699C17.6428 32.7857 17.6643 32.7327 17.6778 32.71L17.6819 32.7046C17.6881 32.6962 17.6982 32.6822 17.7096 32.6644C17.8083 32.5171 17.9075 32.3735 18.0088 32.2269C18.0659 32.1444 18.1236 32.0609 18.1822 31.9753L18.1824 31.975C18.3497 31.7302 18.5176 31.4854 18.6858 31.2403L18.6866 31.2391C18.8542 30.9947 19.0222 30.7499 19.1896 30.505C19.1897 30.5048 19.1899 30.5045 19.1901 30.5043L20.5911 28.4625C20.5911 28.4625 20.5911 28.4624 20.5911 28.4624C20.5911 28.4624 20.5911 28.4624 20.5911 28.4624C20.8685 28.0583 21.1454 27.6543 21.4221 27.2505L21.423 27.2491C21.7001 26.8448 21.977 26.4406 22.2545 26.0365L22.2546 26.0363L24.0395 23.4345C24.0395 23.4344 24.0395 23.4344 24.0395 23.4344C24.1794 23.2306 24.3194 23.0266 24.4595 22.8225C24.9066 22.1711 25.3546 21.5185 25.8014 20.866C26.0703 20.4746 26.3392 20.0827 26.608 19.691L26.609 19.6897L26.6095 19.6889C26.8786 19.2968 27.1475 18.9049 27.4164 18.5136L27.4166 18.5133L28.0765 17.5517L28.7364 16.5901L28.7371 16.5891M18.6653 33.197L28.7371 16.5891M28.7371 16.5891C28.8853 16.3721 29.0341 16.1554 29.1833 15.9381M28.7371 16.5891L29.1833 15.9381M29.1833 15.9381L29.1836 15.9377M29.1833 15.9381L29.1836 15.9377M29.1836 15.9377L29.1839 15.9372M29.1836 15.9377L29.1839 15.9372M29.1839 15.9372C29.3329 15.7202 29.4824 15.5026 29.6314 15.2844L29.1839 15.9372Z" fill="#083549" stroke="#4A687B"/>
  <path d="M15.1909 17.2185C15.0694 17.5495 15.0149 17.912 15.0024 18.2618C14.9961 18.4022 15.0024 18.5446 15.0212 18.685C15.0228 18.6974 15.0243 18.7098 15.0259 18.7223C15.0515 18.9256 15.077 19.1286 15.1322 19.3261L15.6133 19.1899C15.6134 19.1901 15.6135 19.1904 15.6135 19.1906C15.5687 19.0301 15.5474 18.8613 15.5203 18.6462C15.5193 18.6383 15.5183 18.6304 15.5173 18.6224L15.5173 18.6224L15.5168 18.6184C15.5019 18.5075 15.4969 18.3948 15.5019 18.2842L15.502 18.2798C15.5133 17.9664 15.5618 17.6593 15.6601 17.3913M15.1909 17.2185L15.6599 17.3918C15.66 17.3916 15.66 17.3915 15.6601 17.3913M15.1909 17.2185L15.6603 17.3908C15.6602 17.391 15.6602 17.3911 15.6601 17.3913M15.1909 17.2185C15.3124 16.8896 15.457 16.5733 15.6707 16.2946L17.0193 15.7189C16.9649 15.7517 16.9121 15.7864 16.8611 15.823C16.6936 15.9435 16.5454 16.0566 16.419 16.1779L16.4188 16.178C16.3055 16.2866 16.2092 16.4129 16.0807 16.5814C16.0766 16.5868 16.0725 16.5923 16.0683 16.5978L16.0674 16.5989C15.8979 16.82 15.7741 17.0828 15.6601 17.3913M20.1108 15.8273C20.1091 15.7922 20.1065 15.7563 20.1028 15.7198L19.2053 16.4909C19.2519 16.51 19.2989 16.5297 19.3455 16.5494C19.3811 16.5645 19.4166 16.5795 19.4514 16.5943L19.4528 16.5949L19.4478 16.6069C19.5212 16.6461 19.5927 16.6882 19.6623 16.7327L19.6699 16.7229C19.707 16.7512 19.7432 16.7794 19.7779 16.8063L19.7786 16.8068C19.7791 16.8071 19.7795 16.8075 19.78 16.8079C19.9833 16.5455 20.1277 16.1854 20.1108 15.8273ZM20.1108 15.8273L19.6113 15.8505L20.1107 15.8265C20.1108 15.8268 20.1108 15.827 20.1108 15.8273ZM17.7922 16.5461C17.8353 16.5279 17.8792 16.5093 17.9241 16.4902L17.929 16.5016C17.9293 16.5016 17.9296 16.5015 17.9299 16.5014C17.9299 16.5014 17.9299 16.5014 17.9299 16.5014L17.7922 16.5461ZM17.7922 16.5461C17.7617 16.5589 17.7316 16.5715 17.7019 16.5838M18.3564 21.9176C18.7105 21.9469 19.0813 21.9029 19.4249 21.8191C19.758 21.7395 20.089 21.6012 20.3823 21.4253C20.9605 21.0775 21.478 20.5475 21.7566 19.9294C21.8446 19.7325 21.9326 19.5335 21.9912 19.3261C22.0483 19.1253 22.074 18.9171 22.0994 18.7102C22.1011 18.6969 22.1027 18.6836 22.1044 18.6703C22.1483 18.3142 22.1064 17.9476 22.0373 17.5977C21.9703 17.2604 21.8341 16.9273 21.6707 16.6277C21.5073 16.3282 21.2873 16.0453 21.0401 15.8086C20.7971 15.5761 20.5143 15.3624 20.2126 15.2115C20.1114 15.161 20.0081 15.113 19.9029 15.0694L18.3564 21.9176ZM18.1748 15.4634C18.2703 15.3695 18.4167 15.3077 18.5424 15.3032C18.5492 15.3031 18.5561 15.3031 18.5629 15.303C18.5736 15.3031 18.5843 15.3033 18.595 15.3036C18.7157 15.31 18.8422 15.3643 18.967 15.4769C19.0432 15.5488 19.103 15.6839 19.1119 15.8737L19.1119 15.8745C19.1166 15.9718 19.0528 16.137 18.9529 16.2376C18.8557 16.3331 18.705 16.3958 18.5636 16.398C18.2729 16.3939 18.0305 16.1599 18.0159 15.8285L18.0159 15.8285L18.0158 15.8265C18.0111 15.7292 18.0748 15.564 18.1748 15.4634ZM18.5674 16.398C18.5669 16.398 18.5665 16.398 18.566 16.398L18.5615 16.398C18.561 16.398 18.5605 16.398 18.56 16.398L18.5638 16.898L18.5674 16.398Z" fill="#083549" stroke="#4A687B"/>
  <path d="M28.5213 27.2413C28.4669 27.2741 28.4141 27.3088 28.363 27.3454C28.1955 27.4659 28.0474 27.5791 27.9209 27.7003L27.9208 27.7004C27.8075 27.8091 27.7112 27.9354 27.5827 28.1039C27.5786 28.1093 27.5744 28.1148 27.5702 28.1203L27.5694 28.1214C27.3998 28.3424 27.276 28.6053 27.1621 28.9138C27.0637 29.1818 27.0152 29.4889 27.004 29.8022L27.0038 29.8067C26.9989 29.9173 27.0038 30.03 27.0187 30.1409L27.0192 30.1449L27.0192 30.1449C27.0202 30.1529 27.0212 30.1608 27.0222 30.1686C27.0493 30.3837 27.0706 30.5526 27.1155 30.7131C27.1983 31.0056 27.3212 31.289 27.4781 31.5251L27.4781 31.5251C27.6506 31.7849 27.8363 32.0139 28.0439 32.1832L28.0449 32.1841C28.2065 32.3166 28.3517 32.4301 28.4997 32.5185L28.5019 32.5198C28.643 32.6052 28.8012 32.6709 29.0021 32.753L29.0022 32.7531C29.2683 32.8619 29.5653 32.9144 29.8992 32.9417L29.8997 32.9417C30.1873 32.9656 30.5028 32.9303 30.8083 32.8558L30.8106 32.8553L30.8106 32.8553C31.0912 32.7882 31.3748 32.6702 31.6267 32.5191C32.1329 32.2147 32.5724 31.7569 32.8024 31.2471C32.892 31.0466 32.9648 30.8796 33.0121 30.7125L33.0122 30.7118C33.0584 30.5494 33.0797 30.3769 33.1069 30.1576L28.5213 27.2413ZM28.5213 27.2413C28.5173 27.2927 28.5164 27.3443 28.5188 27.3959M28.5213 27.2413L28.2009 30.5239L28.1894 30.5287C28.222 30.6055 28.2534 30.6794 28.283 30.751M28.5188 27.3959C28.5188 27.3956 28.5188 27.3953 28.5188 27.395L29.0183 27.373L28.5189 27.3969C28.5189 27.3966 28.5188 27.3962 28.5188 27.3959ZM28.5188 27.3959C28.5341 27.7378 28.6556 28.0628 28.8576 28.3241M28.8576 28.3241C28.8556 28.3257 28.8536 28.3272 28.8516 28.3288L28.851 28.3292C28.8157 28.3566 28.782 28.3828 28.7481 28.4088L28.756 28.4191M28.8576 28.3241C28.8905 28.2986 28.9247 28.2721 28.9597 28.2453L28.9673 28.2552L28.3061 29.0051M28.8576 28.3241C28.8583 28.325 28.859 28.3259 28.8597 28.3268C28.8587 28.3276 28.8577 28.3285 28.8568 28.3293C28.8202 28.3549 28.7842 28.3812 28.7488 28.4082L28.7566 28.4185C28.7564 28.4187 28.7562 28.4189 28.756 28.4191C28.756 28.4191 28.756 28.4191 28.756 28.4191M28.756 28.4191C28.7006 28.4705 28.6472 28.5239 28.5958 28.5792M28.756 28.4191L29.061 28.8188C29.0388 28.8402 29.017 28.8621 28.9955 28.8843L28.5958 28.5792M28.5958 28.5792L28.5855 28.5713C28.5595 28.6053 28.5334 28.639 28.506 28.6743L28.5054 28.675C28.4785 28.7096 28.4504 28.7459 28.4221 28.7829L28.432 28.7906M28.5958 28.5792C28.5958 28.5792 28.5958 28.5792 28.5958 28.5792C28.5956 28.5794 28.5954 28.5796 28.5952 28.5799L28.585 28.572C28.558 28.6074 28.5317 28.6434 28.5061 28.68C28.4787 28.7121 28.452 28.7447 28.4259 28.778L28.4353 28.7853C28.4342 28.7871 28.4331 28.7888 28.432 28.7905C28.432 28.7905 28.432 28.7905 28.432 28.7906M28.432 28.7906C28.3874 28.8601 28.3453 28.9317 28.3061 29.0051M28.432 28.7906L28.8291 29.0982C28.8084 29.1317 28.7885 29.1656 28.7693 29.2L28.3061 29.0051M28.3061 29.0051L28.2942 29L28.2936 29.0015C28.2584 29.0843 28.2217 29.1705 28.187 29.2551L28.199 29.2601C28.1765 29.3314 28.1567 29.4032 28.1396 29.4757L28.1248 29.4737C28.1245 29.4758 28.1243 29.4778 28.124 29.4799L28.1059 29.6138L28.0871 29.7523L28.0996 29.7541C28.0957 29.844 28.0957 29.934 28.0997 30.024L28.0871 30.0257L28.1059 30.1643L28.1247 30.3038L28.1248 30.3044L28.1396 30.3024C28.1572 30.3766 28.1775 30.4501 28.2006 30.5229L28.189 30.5278C28.2065 30.5691 28.2248 30.6098 28.244 30.65C28.2563 30.6838 28.2694 30.7175 28.283 30.751M28.283 30.751C28.2859 30.7581 28.2888 30.7652 28.2917 30.7723L28.3032 30.7675C28.3036 30.7683 28.304 30.7691 28.3045 30.7699C28.3045 30.7699 28.3045 30.7699 28.3045 30.7699M28.283 30.751C28.2862 30.759 28.2895 30.7669 28.2928 30.7748L28.3045 30.7699M28.3045 30.7699L28.7692 30.5778C28.7884 30.6123 28.8084 30.6463 28.8291 30.6798L28.432 30.9875M28.3045 30.7699C28.3442 30.8444 28.3867 30.917 28.432 30.9875M28.432 30.9875L28.4221 30.9951C28.4504 31.0322 28.4786 31.0685 28.5055 31.1032L28.506 31.1038C28.5334 31.1391 28.5595 31.1728 28.5855 31.2067L28.5958 31.1989M28.432 30.9875C28.432 30.9875 28.432 30.9875 28.432 30.9876C28.4331 30.9893 28.4342 30.991 28.4353 30.9927L28.4259 31.0001C28.452 31.0333 28.4787 31.066 28.5061 31.0981C28.5317 31.1346 28.558 31.1706 28.585 31.206L28.5952 31.1982C28.5954 31.1984 28.5956 31.1986 28.5958 31.1989C28.5958 31.1989 28.5958 31.1989 28.5958 31.1989M28.5958 31.1989C28.6472 31.2542 28.7006 31.3076 28.756 31.359M28.5958 31.1989L28.9955 30.8938C29.017 30.916 29.0388 30.9379 29.061 30.9593L28.756 31.359M28.756 31.359L28.7481 31.3693C28.782 31.3953 28.8157 31.4214 28.851 31.4488L28.8519 31.4495C28.8865 31.4763 28.9227 31.5044 28.9597 31.5327L28.9673 31.5229M28.756 31.359C28.756 31.359 28.756 31.359 28.756 31.359C28.7562 31.3592 28.7564 31.3594 28.7566 31.3596L28.7488 31.3699C28.7842 31.3968 28.8202 31.4232 28.8568 31.4488C28.8889 31.4761 28.9215 31.5028 28.9547 31.5289L28.9621 31.5195C28.9638 31.5206 28.9655 31.5217 28.9673 31.5228C28.9673 31.5228 28.9673 31.5229 28.9673 31.5229M28.9673 31.5229C29.0369 31.5675 29.1084 31.6095 29.1818 31.6487M28.9673 31.5229L29.275 31.1257C29.3085 31.1464 29.3424 31.1663 29.3767 31.1855L29.1818 31.6487M29.1818 31.6487L29.1768 31.6607L29.1784 31.6613C29.2611 31.6965 29.3473 31.7331 29.4319 31.7678L29.4369 31.7558M29.1818 31.6487C29.1818 31.6487 29.1818 31.6487 29.1818 31.6487C29.1829 31.6493 29.1839 31.6498 29.1849 31.6504L29.18 31.662C29.2214 31.6793 29.263 31.6955 29.3048 31.7109C29.345 31.73 29.3857 31.7484 29.427 31.7658L29.4319 31.7543C29.4335 31.7548 29.4352 31.7553 29.4368 31.7558C29.4368 31.7558 29.4368 31.7558 29.4369 31.7558M29.4369 31.7558C29.5081 31.7783 29.58 31.7981 29.6525 31.8152L29.718 31.3346L29.7204 31.317C29.6901 31.3093 29.66 31.3009 29.63 31.2921L29.4369 31.7558ZM29.9309 31.8552C30.0207 31.8591 30.1107 31.8591 30.2007 31.8551L30.2025 31.8677L30.341 31.8489L30.4805 31.8301L30.4811 31.83L30.4791 31.8152C30.5533 31.7977 30.6268 31.7774 30.6997 31.7543L30.7046 31.7658C30.7458 31.7484 30.7866 31.73 30.8268 31.7109C30.8606 31.6985 30.8943 31.6855 30.9278 31.6718M29.9309 31.8552L30.7006 31.754L30.7055 31.7654C30.7822 31.7328 30.8561 31.7014 30.9278 31.6718M29.9309 31.8552L29.9291 31.8677L29.7905 31.8489L29.6566 31.8308L29.9309 31.8552ZM30.9278 31.6718C30.9349 31.6689 30.942 31.666 30.949 31.6631L30.9443 31.6516C30.9451 31.6512 30.9459 31.6508 30.9467 31.6504C30.9467 31.6503 30.9467 31.6503 30.9467 31.6503M30.9278 31.6718C30.9357 31.6686 30.9436 31.6653 30.9515 31.662L30.9467 31.6503M30.9467 31.6503L30.7546 31.1856M30.9467 31.6503C31.0212 31.6107 31.0937 31.5681 31.1642 31.5229M30.7546 31.1856L31.4938 30.2344L31.5113 30.2368L31.992 30.3023C31.9748 30.3749 31.955 30.4467 31.9326 30.518M30.7546 31.1856C30.789 31.1664 30.823 31.1465 30.8566 31.1257M30.7546 31.1856L30.8566 31.1257M31.1642 31.5229L31.1719 31.5327C31.2089 31.5044 31.2452 31.4762 31.2799 31.4493L31.2805 31.4488C31.3158 31.4214 31.3495 31.3953 31.3835 31.3693L31.3756 31.359M31.1642 31.5229L30.8566 31.1257M31.1642 31.5229C31.1643 31.5229 31.1643 31.5228 31.1643 31.5228C31.166 31.5217 31.1678 31.5206 31.1695 31.5195L31.1769 31.5289C31.2101 31.5028 31.2427 31.4761 31.2748 31.4488C31.3114 31.4232 31.3474 31.3968 31.3828 31.3699L31.375 31.3596C31.3752 31.3594 31.3754 31.3592 31.3756 31.359C31.3756 31.359 31.3756 31.359 31.3756 31.359M31.3756 31.359C31.4309 31.3076 31.4843 31.2542 31.5358 31.1989M31.3756 31.359L31.0705 30.9593C31.0928 30.9379 31.1146 30.916 31.1361 30.8938L31.5358 31.1989M31.5358 31.1989L31.5461 31.2067C31.572 31.1728 31.5982 31.1391 31.6256 31.1038L31.6261 31.1031C31.653 31.0685 31.6812 31.0322 31.7095 30.9951L31.6996 30.9875M31.5358 31.1989C31.5358 31.1989 31.5358 31.1989 31.5358 31.1989C31.536 31.1986 31.5362 31.1984 31.5364 31.1982L31.5466 31.206C31.5736 31.1706 31.5999 31.1346 31.6255 31.098C31.6529 31.066 31.6796 31.0333 31.7056 31.0001L31.6962 30.9927C31.6974 30.991 31.6985 30.9893 31.6996 30.9876C31.6996 30.9875 31.6996 30.9875 31.6996 30.9875M31.6996 30.9875C31.7442 30.9179 31.7862 30.8464 31.8254 30.773M31.6996 30.9875L31.3025 30.6798C31.3232 30.6464 31.3431 30.6124 31.3622 30.5781L31.8254 30.773M31.8254 30.773L31.8374 30.778L31.838 30.7767C31.8732 30.6938 31.9099 30.6076 31.9446 30.523L31.9326 30.518M31.8254 30.773C31.8255 30.773 31.8255 30.773 31.8255 30.773C31.826 30.772 31.8266 30.7709 31.8271 30.7699L31.8388 30.7748C31.856 30.7334 31.8723 30.6918 31.8876 30.65C31.9068 30.6098 31.9251 30.5691 31.9425 30.5278L31.931 30.523C31.9315 30.5213 31.932 30.5197 31.9326 30.518C31.9326 30.518 31.9326 30.518 31.9326 30.518M31.9326 30.518L30.8566 31.1257M32.032 30.024L32.0444 30.0257L32.0257 30.1643L32.0076 30.2983L32.032 30.024ZM32.032 30.024C32.0359 29.9341 32.0359 29.8441 32.0319 29.7541L32.0444 29.7523L32.0257 29.6138L32.0068 29.4743L32.0067 29.4737L31.992 29.4757C31.9744 29.4015 31.9541 29.328 31.931 29.2551L31.9425 29.2502C31.9251 29.209 31.9068 29.1683 31.8876 29.1281C31.8752 29.0943 31.8622 29.0606 31.8486 29.0271M32.032 30.024L31.9307 29.2542L31.9422 29.2493C31.9095 29.1726 31.8782 29.0987 31.8486 29.0271M31.8486 29.0271C31.8453 29.0191 31.8421 29.0112 31.8388 29.0033L31.8271 29.0081C31.7874 28.9336 31.7448 28.8611 31.6996 28.7906M31.8486 29.0271C31.8456 29.02 31.8427 29.0129 31.8398 29.0058L31.8284 29.0105L31.6996 28.7906M31.6996 28.7906L31.7095 28.7829C31.6812 28.746 31.6531 28.7097 31.6262 28.6751L31.6256 28.6743C31.5982 28.639 31.572 28.6053 31.5461 28.5713L31.5358 28.5792M31.6996 28.7906L31.5358 28.5792M31.5358 28.5792C31.4843 28.5239 31.4309 28.4705 31.3756 28.4191L31.3835 28.4088C31.35 28.3831 31.3168 28.3574 31.282 28.3304C31.4853 28.0679 31.6297 27.7078 31.6127 27.3497C31.6127 27.3495 31.6127 27.3492 31.6127 27.349L31.1133 27.373L31.5358 28.5792ZM30.8474 28.0719C30.8008 28.0522 30.7538 28.0325 30.7073 28.0134L30.8474 28.0719ZM30.8474 28.0719C30.8831 28.0869 30.9185 28.102 30.9533 28.1168L30.9548 28.1174L30.9498 28.1294L30.8474 28.0719ZM30.0658 28.4205L30.0694 27.9205C30.0689 27.9205 30.0684 27.9205 30.0679 27.9205L30.0634 27.9205C30.0629 27.9205 30.0624 27.9205 30.0619 27.9205L30.0658 28.4205ZM30.0658 28.4205C30.0874 28.4205 30.1089 28.4207 30.1304 28.4213L30.0007 28.418L30.0011 28.4213C30.0227 28.4207 30.0443 28.4205 30.0658 28.4205ZM29.2038 28.1062C29.2335 28.094 29.2637 28.0814 29.2942 28.0685C29.3373 28.0504 29.3812 28.0317 29.4261 28.0127L29.4309 28.0241C29.4312 28.024 29.4316 28.0239 29.4319 28.0238L29.2038 28.1062ZM29.2038 28.1062C29.1959 28.1095 29.188 28.1127 29.18 28.116L29.1849 28.1277L29.2038 28.1062ZM30.097 26.8261C30.2177 26.8324 30.3441 26.8868 30.4689 26.9993C30.5451 27.0713 30.605 27.2063 30.6138 27.3962L30.6139 27.3969C30.6185 27.4943 30.5548 27.6595 30.4548 27.7601C30.3576 27.8556 30.207 27.9183 30.0656 27.9204C29.7749 27.9164 29.5324 27.6824 29.5178 27.3509L29.5178 27.3509L29.5177 27.349C29.513 27.2517 29.5768 27.0865 29.6768 26.9858C29.7723 26.892 29.9187 26.8302 30.0444 26.8257C30.0512 26.8256 30.058 26.8255 30.0648 26.8255C30.0755 26.8256 30.0863 26.8258 30.097 26.8261ZM33.0488 29.2172C33.1134 29.5442 33.1447 29.8512 33.1101 30.1314L33.0488 29.2172ZM28.6634 30.3268C28.6543 30.2963 28.6458 30.2656 28.6379 30.2347L28.6634 30.3268ZM30.5035 31.2915C30.473 31.3005 30.4423 31.309 30.4115 31.317L30.5035 31.2915ZM31.4682 29.4513C31.4773 29.4818 31.4858 29.5125 31.4937 29.5434L31.4682 29.4513ZM31.6047 27.2423C31.8121 27.3611 32.0138 27.5176 32.1962 27.6922L31.6047 27.2423ZM32.7337 28.3896C32.8798 28.6575 32.9941 28.9423 33.0488 29.2171L32.1964 27.6923C32.4085 27.8954 32.5962 28.1376 32.7337 28.3896Z" fill="#083549" stroke="#4A687B"/>
</svg>
