<svg height="37" viewBox="0 0 38 37" width="38" xmlns="http://www.w3.org/2000/svg" xmlns:xlink="http://www.w3.org/1999/xlink"><linearGradient id="a" x1="12.935976%" x2="94.541707%" y1="13.196385%" y2="94.227295%"><stop offset="0" stop-color="#162e48"/><stop offset="1" stop-color="#0e1116"/></linearGradient><linearGradient id="b" x1="5.490039%" x2="63.821286%" y1="28.337249%" y2="56.730437%"><stop offset="0" stop-color="#b4fabb"/><stop offset="1" stop-color="#f7fb8d"/></linearGradient><g fill="none"><path d="m31.4519512 37h-24.90390242c-3.61463415 0-6.54804878-2.9624336-6.54804878-6.6128257v-23.7743486c0-3.65039211 2.93341463-6.6128257 6.54804878-6.6128257h24.90390242c3.6146342 0 6.5480488 2.96243359 6.5480488 6.6128257v23.7743486c0 3.6503921-2.9334146 6.6128257-6.5480488 6.6128257z" fill="url(#a)"/><path d="m27.3638786 13.2706835-1.8251002-1.7895684c-.1788415-.1753597-.0504425-.4811151.2017698-.4811151h5.9751397c.1559131 0 .2843121.1258993.2843121.278777v5.8588129c0 .2517986-.3072405.3732015-.4906676.1978418l-1.7975862-1.76259c-.1100563-.1079136-.2934834-.1079136-.4035397 0l-9.6299258 9.3660072c-.1054706.1034173-.2751407.1079137-.3897827.0134892l-4.4251802-3.7769784c-.1100563-.0944244-.2797264-.089928-.385197.0089928l-4.98463304 4.7347122c-.05502814.0494605-.12381333.0809353-.19718419.0809353h-3.00820539c-.25679802 0-.38519703-.3057554-.20176987-.4811151l8.30925029-7.9856115c.1054706-.1034173.270555-.1079137.385197-.0134892l4.5077224 3.7320144c.114642.0944244.2843121.0854316.385197-.0179857l7.6901836-7.567446c.1100563-.1079137.1100563-.2832734 0-.3956834z" fill="url(#b)"/></g></svg>