<svg height="37" viewBox="0 0 37 37" width="37" xmlns="http://www.w3.org/2000/svg"><g fill="none"><path d="m30.5415 36.0135h-24.183c-3.51 0-6.3585-2.8485-6.3585-6.3585v-22.86c0-3.51 2.8485-6.3585 6.3585-6.3585h24.183c3.51 0 6.3585 2.8485 6.3585 6.3585v22.86c0 3.51-2.8485 6.3585-6.3585 6.3585z" fill="#ececec"/><path d="m1.14 0c-.62852 0-1.14.51148-1.14 1.14v3.8c0 .62852.51148 1.14 1.14 1.14h1.14v.76c-.00193811.13704165.07006261.26451092.18843168.33359733.11836907.06908642.26476757.06908642.38313664 0 .11836907-.06908641.19036979-.19655568.18843168-.33359733v-.76h1.9c.62852 0 1.14-.51148 1.14-1.14v-1.52h1.9c.13704165.00193811.26451092-.07006261.33359733-.18843168.06908642-.11836907.06908642-.26476757 0-.38313664-.06908641-.11836907-.19655568-.19036979-.33359733-.18843168h-1.9v-1.52c0-.62852-.51148-1.14-1.14-1.14zm10.64 0c-.62852 0-1.14.51148-1.14 1.14v1.52h-1.14c-.13704165-.00193811-.26451092.07006261-.33359733.18843168-.06908642.11836907-.06908642.26476757 0 .38313664.06908641.11836907.19655568.19036979.33359733.18843168h1.14v1.52c0 .62852.51148 1.14 1.14 1.14h1.52v1.9c-.0019381.13704165.0700626.26451092.1884317.33359733.1183691.06908642.2647675.06908642.3831366 0 .1183691-.06908641.1903698-.19655568.1884317-.33359733v-1.9h1.52c.62852 0 1.14-.51148 1.14-1.14v-3.8c0-.62852-.51148-1.14-1.14-1.14zm-9.1259375 7.97475823c-.20957615.00332242-.37693253.17565966-.3740625.38524177v2.28h-1.14c-.62852 0-1.14.51148-1.14 1.14v3.8c0 .62852.51148 1.14 1.14 1.14h3.8c.62852 0 1.14-.51148 1.14-1.14v-1.52h1.14c.13704165.0019381.26451092-.0700626.33359733-.1884317.06908642-.1183691.06908642-.2647675 0-.3831366-.06908641-.1183691-.19655568-.1903698-.33359733-.1884317h-1.14v-1.52c0-.62852-.51148-1.14-1.14-1.14h-1.9v-2.28c.00140656-.10271413-.03882714-.20162293-.11153367-.27418965-.07270654-.07256673-.1716926-.11260997-.27440383-.11105212zm11.02 1.14c-.2095762.00332242-.3769325.17565966-.3740625.38524177v.76h-1.52c-.62852 0-1.14.51148-1.14 1.14v1.9h-1.9c-.13704165-.0019381-.26451092.0700626-.33359733.1884317-.06908642.1183691-.06908642.2647675 0 .3831366.06908641.1183691.19655568.1903698.33359733.1884317h1.9v1.14c0 .62852.51148 1.14 1.14 1.14h3.8c.62852 0 1.14-.51148 1.14-1.14v-3.8c0-.62852-.51148-1.14-1.14-1.14h-1.52v-.76c.0014066-.10271413-.0388271-.20162293-.1115337-.27418965-.0727065-.07256673-.1716926-.11260997-.2744038-.11105212z" fill="#083549" transform="translate(10 10)"/></g></svg>