<svg height="37" viewBox="0 0 37 37" width="37" xmlns="http://www.w3.org/2000/svg" xmlns:xlink="http://www.w3.org/1999/xlink"><linearGradient id="a" x1="12.935976%" x2="94.541707%" y1="13.914589%" y2="93.365774%"><stop offset="0" stop-color="#143653"/><stop offset="1" stop-color="#0b1017"/></linearGradient><linearGradient id="b"><stop offset="0" stop-color="#bcf9bf"/><stop offset="1" stop-color="#f9f88f"/></linearGradient><linearGradient id="c" x1="16.562313%" x2="171.980884%" xlink:href="#b" y1="12.14048%" y2="198.241801%"/><linearGradient id="d" x1="-118.27278%" x2="87.013838%" xlink:href="#b" y1="-151.728451%" y2="94.6779%"/><linearGradient id="e" x1=".28608%" x2="78.144691%" xlink:href="#b" y1="4.807081%" y2="95.855295%"/><g fill="none"><path d="m30.6242683 36.1110976h-24.24853659c-3.5195122 0-6.37573171-2.8562196-6.37573171-6.3757317v-22.92195127c0-3.51951219 2.85621951-6.3757317 6.37573171-6.3757317h24.24853659c3.5195122 0 6.3757317 2.85621951 6.3757317 6.3757317v22.92195127c0 3.5195121-2.8562195 6.3757317-6.3757317 6.3757317z" fill="url(#a)"/><g transform="translate(8.573171 9.02439)"><path d="m6.67353659 4.90926829c.14890243-.38804878.22560975-.79414634.22560975-1.20926829 0-1.8545122-1.50707317-3.36158537-3.36158536-3.36158537-.35646342 0-.70841464.05865854-1.05134147.17146342l-.43317073.14439024 2.27414634 2.27865854-.44670732 1.11902439-1.11902439.44670732-2.27865853-2.27414634-.14439025.43317073c-.11280487.34292683-.17146341.69939024-.17146341 1.05134146 0 1.8545122 1.50707317 3.36158537 3.36158537 3.36158537.41512195 0 .82121951-.07670732 1.20926829-.22560976l2.63963414 2.71182927 1.95829269-1.89963415z" fill="url(#c)"/><path d="m13.135 11.0684146-1.9943902 1.9312195 4.5392682 4.625c.2617074.2617074.6091464.4060976.9836586.4060976.37 0 .717439-.1443902.9791463-.4060976.2707317-.2707317.4060976-.6271951.4060976-.9791463 0-.3564634-.1353659-.7129268-.4060976-.9836585z" fill="url(#d)"/><path d="m20.5395122 5.8297561-.9295122-.9295122c-.1353659-.13536585-.3384146-.16243902-.509878-.07670731-.0812196.04060975-.3654879.06768292-.4692683-.03158537l-.3835366-.38353659c.0857317-.12634146.1353658-.2707317.1353658-.42414634 0-.19853658-.0767073-.38804878-.2165853-.52792683l-1.0017074-1.00170731c-.0045122-.0045122-.0225609-.01804878-.0315853-.02707317l-.207561-.20756098c-.4376829-.43768293-.8392683-.84829268-.9430488-.95207317-.8843902-.88890244-4.1241463-.925-4.4896341-.9295122-.1263415 0-.2391464.0947561-.2662195.21658537-.0270732.12634146.0406097.24817073.1579268.30231707.0090244.0045122 1.0332927.4647561 2.2245122 1.71463415.532439.55951219 1.0964634 1.30402439.717439 1.66951219l-1.9402439 1.98987805-1.3401219 1.2995122-1.97182931 1.91317073-6.41634146 6.71865851c-.25719513.2571951-.40158537.6046342-.40158537.970122s.14439024.7084146.40158537.9701219c.26621951.2662195.61817073.4015854.97012195.4015854s.70390244-.1353659.97012195-.4015854l6.38475607-6.6870731 1.9718293-1.91317077 2.0485366-1.98085366 1.5341463-1.53865854c.0135366.01353659.1669512.17146342.4557317.4602439.1082927.10829269.0812195.37902439.0496342.44219513-.0992683.19853658-.0812195.41060975.0496341.54146341.0541464.05414634.9295122.9295122.9295122.9295122.1443903.14439024.3384147.21658536.5279268.21658536.1895122 0 .3745122-.07219512.5189025-.21658536l1.48-1.47097561c.2797561-.28878049.2797561-.76707317-.0090244-1.05585366z" fill="url(#e)"/></g></g></svg>