<svg height="37" viewBox="0 0 37 37" width="37" xmlns="http://www.w3.org/2000/svg"><g fill="none"><path d="m30.5415 36.0135h-24.183c-3.51 0-6.3585-2.8485-6.3585-6.3585v-22.86c0-3.51 2.8485-6.3585 6.3585-6.3585h24.183c3.51 0 6.3585 2.8485 6.3585 6.3585v22.86c0 3.51-2.8485 6.3585-6.3585 6.3585z" fill="#ececec"/><path d="m27.2870312 11.0667969-17.0332031 7.3209375c-.151963.065127-.2488182.2204297-.2538281.3874218-.00500987.1669922.0918458.3122755.2404687.3874219l5.9582813 2.9791406zm.6011719.6011718-11.0749219 11.0882813 2.9791407 5.9582812c.0734765.1452834.2254395.2404688.3874218.2404688h.0133594c.1669922-.0050099.3072656-.1018651.3740625-.2538281z" fill="#05283e"/></g></svg>