<svg width="48" height="48" viewBox="0 0 48 48" fill="none"
  xmlns="http://www.w3.org/2000/svg">
  <circle cx="24" cy="24" r="24" fill="#E7EFF4"/>
  <path d="M20.9503 29.9908C21.8152 30.3419 22.7396 30.5236 23.6732 30.5261C24.6121 30.5254 25.542 30.3433 26.4117 29.9899L30.9869 28.1374L33.2726 29.1537C33.8916 29.4295 34.1694 30.1541 33.8931 30.7721C33.7644 31.0602 33.5293 31.2877 33.2368 31.407L26.083 34.5247C24.5298 35.1564 22.791 35.1585 21.2363 34.5304L14.0505 31.4205C13.3146 31.1229 12.9597 30.286 13.2578 29.5512C13.4039 29.191 13.6899 28.9055 14.0505 28.7597L15.9591 27.9853L20.9503 29.9908Z" fill="#4A687B"/>
  <path d="M20.9483 23.6751C21.813 24.0239 22.7367 24.2036 23.6693 24.2046C24.6082 24.2039 25.538 24.0218 26.4077 23.6684L30.4886 22.0161L33.2687 23.2522C33.8877 23.5279 34.1655 24.2525 33.8892 24.8705C33.7605 25.1587 33.5254 25.3861 33.2329 25.5055L28.9677 27.2409L25.8164 28.5485C24.4441 29.1075 22.9076 29.1095 21.5338 28.5543L18.0587 27.1401L14.0466 25.5199C13.3111 25.2226 12.9563 24.3863 13.2541 23.652C13.4002 23.2916 13.6865 23.0059 14.0475 22.8602L16.4777 21.8787L20.9483 23.6751Z" fill="#4A687B"/>
  <path d="M25.2376 13.3521L33.2687 16.918C33.8876 17.1938 34.1655 17.9184 33.8892 18.5364C33.7605 18.8245 33.5254 19.0519 33.2329 19.1713L28.4618 21.112L25.8173 22.2251C24.445 22.784 22.9085 22.786 21.5347 22.2309L18.5937 21.021L14.0484 19.1819C13.315 18.8783 12.967 18.0385 13.2711 17.3062C13.4167 16.9555 13.6955 16.6766 14.0465 16.5308L22.0524 13.2969C22.5427 13.0988 23.0616 12.9999 23.58 12.9999C24.1456 12.9999 24.7106 13.1175 25.2376 13.3521Z" fill="#4A687B"/>
</svg>
