<svg height="37" viewBox="0 0 37 37" width="37" xmlns="http://www.w3.org/2000/svg"><g fill="none" fill-rule="evenodd"><path d="m30.5415 36.0135h-24.183c-3.51 0-6.3585-2.8485-6.3585-6.3585v-22.86c0-3.51 2.8485-6.3585 6.3585-6.3585h24.183c3.51 0 6.3585 2.8485 6.3585 6.3585v22.86c0 3.51-2.8485 6.3585-6.3585 6.3585z" fill="#ececec" fill-rule="nonzero"/><path d="m25.8998292 15.3534354c.0071041.1575834.0103333.3158125.0103333.4753334 0 4.8560208-3.69675 10.4553958-10.4553958 10.4553958-2.0757084 0-4.00675-.608375-5.6336042-1.65075.2880417.0342292.5806042.0510208.8770417.0510208 1.7217916 0 3.3060208-.5870625 4.5641041-1.5726041-1.6087708-.0303542-2.9650208-1.09275-3.43325-2.5523334.2241042.042625.4546667.065875.6910417.065875.3351875 0 .6600417-.0452083.96875-.1291666-1.6811042-.337125-2.9482292-1.8225417-2.9482292-3.6024584 0-.0167916 0-.0316458.0006459-.0465.4953541.2744792 1.06175.4404584 1.6643125.4591875-.9861875-.6581041-1.63525-1.7837916-1.63525-3.0586666 0-.6736042.182125-1.3039375.4979375-1.8470834 1.8122083 2.2236042 4.5201875 3.6857709 7.5743333 3.8394792-.0626458-.2693125-.0949375-.55025-.0949375-.8382917 0-2.0285625 1.6455833-3.6741458 3.6754375-3.6741458 1.0565833 0 2.011125.4462708 2.6821458 1.1612083.837-.1653333 1.6229792-.4714583 2.3333959-.8918958-.275125.8576667-.8570209 1.577125-1.615875 2.0324375.7433541-.089125 1.4518333-.2861042 2.1099375-.5786667-.4914792.7368959-1.1153542 1.3840209-1.832875 1.902625" fill="#05283e"/></g></svg>