<svg width="209" height="69" viewBox="0 0 209 69" fill="none" xmlns="http://www.w3.org/2000/svg">
<path d="M55.5443 20.7755C54.7995 20.7755 54.3161 21.5605 54.6513 22.2256L76.983 66.5331C77.3526 67.2664 78.3994 67.2663 78.769 66.5331L101.101 22.2256C101.436 21.5605 100.953 20.7755 100.208 20.7755H90.1575C89.7685 20.7755 89.4148 21.001 89.2508 21.3537L78.9736 43.4497C78.615 44.2207 77.5188 44.2207 77.1602 43.4497L66.883 21.3537C66.7189 21.001 66.3652 20.7755 65.9762 20.7755H55.5443Z" fill="#4A4A4A"/>
<path d="M124.516 19.6302C111.058 19.6302 100.369 30.0332 100.369 43.3949C100.369 56.6611 111.058 67.1596 124.516 67.1596C137.973 67.1596 148.662 56.6611 148.662 43.3949C148.662 30.0332 137.973 19.6302 124.516 19.6302ZM124.516 56.4702C116.785 56.4702 112.013 50.4575 112.013 43.3949C112.013 36.3323 116.785 30.3195 124.516 30.3195C132.246 30.3195 137.018 36.3323 137.018 43.3949C137.018 50.4575 132.246 56.4702 124.516 56.4702Z" fill="#4A4A4A"/>
<path d="M155.717 65.0143C155.717 65.5666 156.165 66.0143 156.717 66.0143H166.17C166.722 66.0143 167.17 65.5666 167.17 65.0143V0.999999C167.17 0.447715 166.722 0 166.17 0H156.717C156.165 0 155.717 0.447715 155.717 1V65.0143Z" fill="#4A4A4A"/>
<path d="M173.657 30.0831C173.657 30.6353 174.105 31.0831 174.657 31.0831H181.533C182.086 31.0831 182.533 31.5308 182.533 32.0831V51.1256C182.533 60.7651 189.214 67.1596 197.995 67.1596C203.003 67.1596 206.686 65.4486 208.163 64.6289C208.585 64.3947 208.731 63.8811 208.534 63.4406L205.184 55.9802C204.923 55.3981 204.18 55.193 203.612 55.4846C202.727 55.9391 201.378 56.4702 199.903 56.4702C196.849 56.4702 193.986 54.8478 193.986 49.3122V32.0831C193.986 31.5308 194.434 31.0831 194.986 31.0831H206.634C207.186 31.0831 207.634 30.6353 207.634 30.0831V21.7755C207.634 21.2232 207.186 20.7755 206.634 20.7755H194.986C194.434 20.7755 193.986 20.3278 193.986 19.7755V17.3494C193.986 17.053 193.855 16.7718 193.627 16.5818L184.174 8.68857C183.523 8.14485 182.533 8.60785 182.533 9.45615V19.7755C182.533 20.3278 182.086 20.7755 181.533 20.7755H174.657C174.105 20.7755 173.657 21.2232 173.657 21.7755V30.0831Z" fill="#4A4A4A"/>
<path fill-rule="evenodd" clip-rule="evenodd" d="M0.709026 39.1618L23.6864 5.74486C24.2428 4.93568 25.5105 5.32943 25.5105 6.31144L25.5105 30.1892L38.5321 30.1892C39.3373 30.1892 39.8124 31.0922 39.3561 31.7557L16.3787 65.1726C15.8223 65.9818 14.5547 65.5881 14.5547 64.6061L14.5547 40.7284L1.53303 40.7284C0.727822 40.7284 0.252807 39.8253 0.709026 39.1618Z" fill="#70E000"/>
</svg>
