<?xml version="1.0" encoding="UTF-8"?>
<svg width="17px" height="17px" viewBox="0 0 17 17" version="1.1" xmlns="http://www.w3.org/2000/svg" xmlns:xlink="http://www.w3.org/1999/xlink">
    <title>icons8-money-circulation</title>
    <g id="Token-page" stroke="none" stroke-width="1" fill="none" fill-rule="evenodd">
        <g id="token-page" transform="translate(-412.000000, -2183.000000)" fill="#000000" fill-rule="nonzero">
            <g id="icons8-money-circulation" transform="translate(412.000000, 2183.000000)">
                <path d="M8.50012379,0 C6.18362736,0 4.07925187,0.92961083 2.54213675,2.43461913 L2.54213675,2.125 C2.54528179,1.89539092 2.45527771,1.6742777 2.29260816,1.51198257 C2.12993861,1.34968744 1.90844201,1.26001697 1.67852785,1.26337889 C1.20878337,1.27025376 0.833428926,1.65587876 0.839773452,2.125 L0.839773452,4.675 C0.840423933,5.13080548 1.20086692,5.50504652 1.65691687,5.52333995 C1.78312289,5.55309698 1.91446848,5.55366478 2.04092773,5.525 L4.24441876,5.525 C4.55137078,5.52933525 4.83688215,5.368281 4.991625,5.10350808 C5.14636784,4.83873516 5.14636784,4.51126484 4.991625,4.24649192 C4.83688215,3.981719 4.55137078,3.82066475 4.24441876,3.825 L3.55868509,3.825 C4.79817067,2.51794246 6.54912603,1.7 8.50012379,1.7 C12.141765,1.7 15.0995869,4.5342655 15.2984462,8.1165038 C15.3125432,8.42173063 15.4895847,8.69592148 15.7621711,8.8346922 C16.0347576,8.97346293 16.3609499,8.95546279 16.616567,8.78754441 C16.8721841,8.61962603 17.0178977,8.32762471 16.9982348,8.02270503 C16.750245,3.55544332 13.0302873,0 8.50012379,0 Z M0.876427204,8.0691894 C0.636231582,8.0620853 0.404218906,8.15669958 0.237657913,8.32967816 C0.0710969202,8.50265675 -0.0144936853,8.73788301 0.00201281219,8.97729497 C0.250002319,13.4445567 3.96996026,17 8.50012379,17 C10.8166202,17 12.9209957,16.070389 14.4581108,14.5653807 L14.4581108,14.875 C14.4537698,15.1815405 14.6150402,15.4666692 14.8801685,15.6212046 C15.1452969,15.77574 15.4732068,15.77574 15.7383351,15.6212046 C16.0034635,15.4666692 16.1647339,15.1815405 16.1604783,14.875 L16.1604783,12.325 C16.1598236,11.8691945 15.7993806,11.4949535 15.3433307,11.47666 C15.2171246,11.446903 15.085779,11.4463352 14.9593197,11.475 L12.7558288,11.475 C12.4488768,11.4706648 12.1633654,11.631719 12.0086226,11.8964919 C11.8538797,12.1612648 11.8538797,12.4887352 12.0086226,12.7535081 C12.1633654,13.018281 12.4488768,13.1793352 12.7558288,13.175 L13.4415625,13.175 C12.2020769,14.4820577 10.4511215,15.3 8.50012379,15.3 C4.85848252,15.3 1.90066076,12.4657345 1.70180123,8.8834962 C1.68319795,8.4378513 1.32286351,8.08234849 0.876427204,8.0691894 Z" id="Shape"></path>
            </g>
        </g>
    </g>
</svg>