<?xml version="1.0" encoding="UTF-8"?>
<svg width="14px" height="14px" viewBox="0 0 14 14" version="1.1" xmlns="http://www.w3.org/2000/svg" xmlns:xlink="http://www.w3.org/1999/xlink">
    <title>invoice</title>
    <g id="Token-page" stroke="none" stroke-width="1" fill="none" fill-rule="evenodd">
        <g id="token-page" transform="translate(-415.000000, -2401.000000)" fill="#000000" fill-rule="nonzero">
            <g id="invoice" transform="translate(415.000000, 2401.000000)">
                <path d="M11.1439563,0.0521305335 C11.0016375,-0.0245682751 10.829,-0.0160706459 10.6948188,0.0739690002 L9.625,0.791732477 L8.55518125,0.0739690002 C8.408225,-0.0246563334 8.21681875,-0.0246563334 8.06981875,0.0739690002 L7,0.791732477 L5.93018125,0.0739690002 C5.783225,-0.0246563334 5.59181875,-0.0246563334 5.44481875,0.0739690002 L4.375,0.791732477 L3.30518125,0.0739690002 C3.158225,-0.0246563334 2.96681875,-0.0246563334 2.81981875,0.0739690002 L1.75,0.791732477 L0.68018125,0.0739690002 C0.546,-0.0161587042 0.3733625,-0.0244802167 0.23104375,0.0521305335 C0.08885625,0.128741284 0,0.27795613 0,0.440291668 L0,12.2388333 C0,13.2099406 0.78505,14 1.75,14 L12.25,14 C13.21495,14 14,13.2099406 14,12.2388333 L14,3.60911664 C14,3.44673707 13.9111875,3.29756626 13.7689562,3.22095551 C13.6266375,3.14421267 13.4540437,3.15275433 13.3198187,3.24279397 L12.25,3.96055745 L11.375,3.37351657 L11.375,0.440291668 C11.375,0.27795613 11.2861875,0.128741284 11.1439563,0.0521305335 Z M1.75,13.1194167 C1.267525,13.1194167 0.875,12.724387 0.875,12.2388333 L0.875,1.26302068 L1.50731875,1.6872417 C1.654275,1.78586703 1.84568125,1.78586703 1.99268125,1.6872417 L3.0625,0.969478223 L4.13231875,1.6872417 C4.279275,1.78586703 4.47068125,1.78586703 4.61768125,1.6872417 L5.6875,0.969478223 L6.75731875,1.6872417 C6.904275,1.78586703 7.09568125,1.78586703 7.24268125,1.6872417 L8.3125,0.969478223 L9.38231875,1.6872417 C9.529275,1.78586703 9.72068125,1.78586703 9.86768125,1.6872417 L10.5,1.26302068 L10.5,12.2388333 C10.5,12.5594978 10.5860125,12.8601729 10.7354625,13.1194167 L1.75,13.1194167 Z" id="Shape"></path>
                <path d="M8.2,4.84193331 L3,4.84193331 C2.76071333,4.84193331 2.56666667,5.05224009 2.56666667,5.31157776 C2.56666667,5.57091542 2.76071333,5.7812222 3,5.7812222 L8.2,5.7812222 C8.43928667,5.7812222 8.63333333,5.57091542 8.63333333,5.31157776 C8.63333333,5.05224009 8.43933,4.84193331 8.2,4.84193331 Z" id="Path"></path>
                <path d="M8.2,7.42497776 L3,7.42497776 C2.76071333,7.42497776 2.56666667,7.63528454 2.56666667,7.89462221 C2.56666667,8.15395987 2.76071333,8.36426665 3,8.36426665 L8.2,8.36426665 C8.43928667,8.36426665 8.63333333,8.15395987 8.63333333,7.89462221 C8.63333333,7.63528454 8.43933,7.42497776 8.2,7.42497776 Z" id="Path"></path>
                <path d="M8.2,10.2428444 L3,10.2428444 C2.76071333,10.2428444 2.56666667,10.4531512 2.56666667,10.7124889 C2.56666667,10.9718265 2.76071333,11.1821333 3,11.1821333 L8.2,11.1821333 C8.43928667,11.1821333 8.63333333,10.9718265 8.63333333,10.7124889 C8.63333333,10.4531512 8.43933,10.2428444 8.2,10.2428444 Z" id="Path"></path>
            </g>
        </g>
    </g>
</svg>