<?xml version="1.0" encoding="UTF-8"?>
<svg width="15px" height="15px" viewBox="0 0 15 15" version="1.1" xmlns="http://www.w3.org/2000/svg" xmlns:xlink="http://www.w3.org/1999/xlink">
    <title>icons8-link</title>
    <g id="Token-page" stroke="none" stroke-width="1" fill="none" fill-rule="evenodd">
        <g id="token-page" transform="translate(-857.000000, -2399.000000)" fill="#0092FF" fill-rule="nonzero">
            <g id="icons8-link" transform="translate(857.000000, 2399.000000)">
                <path d="M11.3686131,0.00394030057 C10.4174272,0.0495367707 9.50273752,0.464464941 8.79562044,1.17120994 L6.02189781,3.94347532 C6.45757314,3.50574921 8.07481752,3.80668591 8.46715328,4.19881556 L10.1459854,2.52086545 C10.5177921,2.14925408 10.9831206,1.92127173 11.459854,1.90075346 C11.7837594,1.88479455 12.2422447,1.95318955 12.6459854,2.35671816 C13.0223539,2.73288889 13.1021898,3.17061501 13.1021898,3.46927203 C13.1021898,3.96855353 12.8740876,4.46555476 12.4817518,4.85540473 L9.5620438,7.79181741 C8.82755504,8.52592087 7.70985401,8.58519599 7.0620438,7.93772611 C6.69251854,7.56839499 6.08348555,7.56611473 5.71167883,7.93772611 C5.33987212,8.30933749 5.33987212,8.91577025 5.71167883,9.28738163 C6.37773723,9.95309009 7.25364964,10.290504 8.15693431,10.290504 C9.13321168,10.290504 10.1300181,9.89153471 10.8941606,9.12323434 L13.8321168,6.20506024 C14.5780111,5.46183807 15,4.46783502 15,3.46927203 C15,2.54138372 14.6487229,1.65909246 13.9963504,1.00706264 C13.298358,0.309436943 12.3608578,-0.0416561696 11.3686131,0.00394030057 Z M6.84306569,4.70949602 C5.86678832,4.70949602 4.8540146,5.11074496 4.08759124,5.87676566 L1.16788321,8.79493975 C0.421988905,9.53816251 0,10.5321656 0,11.530728 C0,12.4586163 0.351277664,13.3409081 1.00364964,13.9929374 C1.70164263,14.6905636 2.63914219,15.0416562 3.63138686,14.9960597 C4.58257285,14.9504632 5.49726307,14.5355356 6.20437956,13.8287901 L8.97810219,11.0565247 C8.54014599,11.4942508 6.92518248,11.1933141 6.53284672,10.8011844 L4.8540146,12.4791345 C4.48220788,12.8507459 4.01687942,13.0764486 3.54014599,13.0992465 C3.21624117,13.1152054 2.75775533,13.0468104 2.3540146,12.6432818 C1.97764613,12.2671111 1.89781022,11.8271053 1.89781022,11.530728 C1.89781022,11.0314465 2.12591241,10.5344452 2.51824818,10.1445953 L5.4379562,7.20818259 C6.17244555,6.47407971 7.29014599,6.41708368 7.9379562,7.06227388 C8.30976292,7.43388526 8.91879591,7.43388526 9.28832117,7.06227388 C9.66012788,6.69066251 9.66012788,6.08422974 9.28832117,5.71261837 C8.62226277,5.0469099 7.74406949,4.70949602 6.84306569,4.70949602 Z" id="Shape"></path>
            </g>
        </g>
    </g>
</svg>