<svg width="280" height="100" viewBox="0 0 280 100" fill="none" xmlns="http://www.w3.org/2000/svg">
<mask id="mask0_278_798" style="mask-type:alpha" maskUnits="userSpaceOnUse" x="0" y="0" width="280" height="100">
<rect width="280" height="100" fill="#D9D9D9"/>
</mask>
<g mask="url(#mask0_278_798)">
<path fill-rule="evenodd" clip-rule="evenodd" d="M23.2539 45.939C30.3559 44.4489 33.3469 44.7281 34.1151 48.7987C34.2523 49.5251 34.3202 50.6446 34.2509 51.4157L34.664 51.3287C35.7023 47.3318 38.7663 43.0625 41.4554 42.4983C44.9719 41.7602 51.2966 45.2696 52.4356 51.3023C54.3834 61.6243 47.9304 77.9411 39.3811 79.7345C37.1061 80.211 32.0749 78.9992 30.0925 76.0907C28.0586 83.5449 26.7291 90.9268 27.5379 95.2152C20.4368 96.7053 16.9077 96.2375 16.1807 92.384C14.4933 83.444 25.2297 56.4056 23.2539 45.939ZM146.893 31.4851C148.841 41.8071 142.388 58.1225 133.838 59.9166C131.563 60.3938 126.532 59.1822 124.55 56.2735C122.516 63.7271 121.185 71.1105 121.995 75.3981C114.894 76.8881 111.365 76.4196 110.638 72.5669C108.95 63.627 119.687 36.5884 117.711 26.122C124.812 24.6317 127.804 24.9109 128.572 28.9815C128.71 29.7079 128.777 30.8276 128.708 31.5978L129.121 31.511C130.159 27.5148 133.223 23.2455 135.912 22.6811C139.429 21.9431 145.754 25.4524 146.893 31.4853V31.4851ZM83.2427 42.4966C84.2859 48.021 80.7797 52.9882 75.6085 54.072C72.2299 54.7816 68.3008 54.8504 65.393 53.874C64.7002 57.4199 64.6559 60.9805 65.2182 63.9606C65.4362 65.1086 65.768 66.2292 66.2081 67.3041C68.54 65.2286 69.6457 61.5951 69.263 58.0492C76.1576 56.6021 79.3414 57.8993 79.9035 60.8795C80.782 65.5318 76.9576 71.8504 71.9929 72.8911C64.8917 74.3819 56.6925 70.057 54.8263 60.1715C52.8507 49.7047 59.3828 37.9812 69.2415 35.913C76.8258 34.3219 82.2688 37.3363 83.2427 42.4966ZM39.931 51.1298C40.1514 51.5378 40.3989 52.09 40.5223 52.7443C41.4415 57.6137 37.4598 69.9351 32.5492 73.1579C31.9869 69.7991 34.4825 54.5397 39.931 51.1298ZM112.87 36.4619C113.912 41.9861 110.407 46.9534 105.236 48.0387C101.858 48.7469 97.928 48.8155 95.0201 47.8391C94.3274 51.3857 94.2831 54.9463 94.8453 57.9257C95.0634 59.0739 95.3951 60.1947 95.8352 61.2699C98.167 59.1937 99.2729 55.5608 98.8901 52.0143C105.785 50.568 108.968 51.8645 109.531 54.8446C110.409 59.4969 106.585 65.8163 101.62 66.857C94.5189 68.347 86.3197 64.0229 84.4535 54.1366C82.4779 43.6698 89.0094 31.9463 98.8687 29.8781C106.453 28.287 111.896 31.3017 112.87 36.4619ZM166.919 8.61572C168.606 17.5564 157.87 44.5939 159.845 55.0607C152.744 56.5508 149.215 56.0823 148.488 52.2295C146.8 43.2896 157.537 16.2518 155.562 5.78452C162.663 4.29436 166.192 4.76355 166.919 8.61572H166.919ZM134.388 31.3128C128.939 34.7228 126.444 49.9814 127.006 53.3402C131.917 50.1179 135.898 37.7966 134.979 32.9271C134.856 32.273 134.608 31.7199 134.388 31.3128ZM177.353 43.2173C178.093 47.1423 175.65 50.9046 171.857 51.7012C168.135 52.4816 164.581 49.978 163.839 46.0527C163.085 42.0545 165.445 38.2345 169.168 37.4533C172.961 36.6582 176.598 39.2197 177.353 43.2173ZM72.5458 40.8875C69.5796 43.3986 67.5638 46.7683 66.375 50.3428C66.664 50.3574 66.9398 50.2995 67.2158 50.2418C70.7317 49.5045 73.4656 45.0013 72.8889 41.9486C72.8211 41.5848 72.6839 41.2361 72.5458 40.8875ZM102.173 34.8527C99.2068 37.3639 97.191 40.7342 96.0021 44.3079C96.2912 44.3232 96.567 44.2648 96.843 44.2069C100.359 43.4698 103.093 38.9664 102.517 35.9139C102.447 35.5506 102.311 35.2012 102.173 34.8527Z" fill="#E94C2E"/>
</g>
</svg>
