<svg width="60" height="59" viewBox="0 0 60 59" fill="none" xmlns="http://www.w3.org/2000/svg">
<path fill-rule="evenodd" clip-rule="evenodd" d="M15 0C6.8538 0 0.25 6.6038 0.25 14.75V44.25C0.25 52.3962 6.8538 59 15 59H44.5C52.6462 59 59.25 52.3962 59.25 44.25V14.75C59.25 6.6038 52.6462 0 44.5 0H15ZM38.3646 42.3659C38.3646 42.3659 37.2502 41.034 36.3216 39.8879C40.3766 38.7418 41.9243 36.2327 41.9243 36.2327C40.6552 37.0691 39.448 37.6576 38.3646 38.0603C36.8169 38.7108 35.3311 39.1135 33.8762 39.3923C30.9046 39.9498 28.1806 39.7949 25.859 39.3613C24.0946 39.0205 22.5779 38.5559 21.3088 38.0293C20.5968 37.7505 19.823 37.4098 19.0491 36.9761C19.0027 36.9452 18.9562 36.9219 18.9098 36.8987C18.8634 36.8755 18.8169 36.8522 18.7705 36.8213C18.7469 36.8094 18.7277 36.7976 18.7114 36.7875C18.6849 36.7711 18.6658 36.7593 18.6467 36.7593C18.0895 36.4496 17.78 36.2327 17.78 36.2327C17.78 36.2327 19.2658 38.6798 23.197 39.8569C22.2683 41.034 21.123 42.3969 21.123 42.3969C14.2821 42.1801 11.682 37.7196 11.682 37.7196C11.682 27.8383 16.1394 19.8155 16.1394 19.8155C20.5968 16.5011 24.8066 16.594 24.8066 16.594L25.1161 16.9657C19.5444 18.5455 17.0061 20.9926 17.0061 20.9926C17.0061 20.9926 17.6871 20.6209 18.8324 20.1253C22.1445 18.6694 24.7756 18.2977 25.859 18.1738L25.9284 18.162C26.0846 18.1354 26.2231 18.1118 26.3853 18.1118C28.2735 17.864 30.4093 17.8021 32.638 18.0499C35.5787 18.3906 38.736 19.2579 41.9553 20.9926C41.9553 20.9926 39.5099 18.6694 34.2477 17.0896L34.681 16.594C34.681 16.594 38.9218 16.5011 43.3482 19.8155C43.3482 19.8155 47.8056 27.8383 47.8056 37.7196C47.8056 37.7179 47.7985 37.7287 47.7838 37.7507C47.5204 38.1461 44.8457 42.1605 38.3646 42.3659ZM31.7388 31.4313C31.7388 29.5417 33.1318 28.0239 34.8962 28.0239C36.6296 28.0239 38.0535 29.5417 38.0535 31.4313C38.0535 33.3208 36.6606 34.8386 34.8962 34.8386C33.1627 34.8386 31.7388 33.3208 31.7388 31.4313ZM20.4439 31.4313C20.4439 29.5417 21.8369 28.0239 23.6013 28.0239C25.3657 28.0239 26.7896 29.5417 26.7586 31.4313C26.7586 33.3208 25.3657 34.8386 23.6013 34.8386C21.8678 34.8386 20.4439 33.3208 20.4439 31.4313Z" fill="black"/>
</svg>
