<svg width="60" height="59" viewBox="0 0 60 59" fill="none" xmlns="http://www.w3.org/2000/svg">
<path fill-rule="evenodd" clip-rule="evenodd" d="M0.75 14.75C0.75 6.6038 7.3538 0 15.5 0H45C53.1462 0 59.75 6.6038 59.75 14.75V44.25C59.75 52.3962 53.1462 59 45 59H15.5C7.3538 59 0.75 52.3962 0.75 44.25V14.75ZM30.2498 9.83345C19.3903 9.83345 10.5831 18.6088 10.5831 29.4345C10.5831 38.0946 16.2189 45.4406 24.0326 48.0329C25.0152 48.2149 25.3762 47.6079 25.3762 47.0903C25.3762 46.8784 25.3724 46.4453 25.3675 45.8826C25.3616 45.2039 25.354 44.3366 25.3494 43.4411C19.8786 44.6266 18.7243 41.1277 18.7243 41.1277C17.8289 38.8627 16.5406 38.2599 16.5406 38.2599C14.7555 37.0435 16.6746 37.0685 16.6746 37.0685C18.6498 37.2071 19.6893 39.0889 19.6893 39.0889C21.4434 42.0853 24.2898 41.2187 25.4123 40.7177C25.589 39.4521 26.0983 38.5863 26.6612 38.0971C22.2928 37.602 17.7007 35.9206 17.7007 28.4101C17.7007 26.2703 18.4697 24.5221 19.727 23.1488C19.5235 22.6554 18.85 20.6625 19.918 17.9617C19.918 17.9617 21.5691 17.4349 25.3276 19.9721C26.8966 19.5371 28.5786 19.3192 30.2498 19.3117C31.9209 19.3192 33.6046 19.5371 35.1761 19.9721C38.9305 17.4349 40.579 17.9617 40.579 17.9617C41.6495 20.6625 40.976 22.6554 40.7725 23.1488C42.0332 24.5221 42.7963 26.2703 42.7963 28.4101C42.7963 35.939 38.1958 37.5962 33.8165 38.0812C34.5218 38.689 35.1501 39.882 35.1501 41.7112C35.1501 43.4637 35.14 44.9879 35.1333 45.9989V45.9996L35.1333 46.0014C35.13 46.502 35.1275 46.8766 35.1275 47.0903C35.1275 47.6121 35.4818 48.2224 36.4786 48.0304C44.2882 45.4364 49.9164 38.0912 49.9164 29.4345C49.9164 18.6088 41.1109 9.83345 30.2498 9.83345ZM17.6966 38.0352C17.8365 38.102 17.9906 38.0728 18.0333 37.9751C18.0828 37.8783 18.0015 37.7439 17.8591 37.6796C17.7159 37.6128 17.5626 37.6412 17.5198 37.7413C17.4738 37.8382 17.5534 37.9709 17.6966 38.0352ZM18.8297 38.8612C18.7359 38.948 18.5524 38.9071 18.4284 38.7702C18.2994 38.6341 18.2751 38.4513 18.3706 38.3628C18.467 38.2768 18.6445 38.3169 18.7735 38.4538C18.9025 38.5924 18.9277 38.7735 18.8297 38.8612ZM19.1652 39.8211C19.2875 39.9955 19.4844 40.074 19.605 39.9897C19.7282 39.9037 19.7282 39.695 19.6075 39.5188C19.4844 39.346 19.2901 39.27 19.1686 39.3535C19.0455 39.437 19.0455 39.6466 19.1652 39.8211ZM20.6666 41.0804C20.5585 41.199 20.329 41.1672 20.1606 41.0053C19.9889 40.8475 19.9411 40.6229 20.0492 40.5044C20.1589 40.3858 20.3893 40.4192 20.5585 40.5795C20.7294 40.7373 20.7813 40.9627 20.6666 41.0804ZM21.6414 41.871C21.8634 41.937 22.0845 41.8677 22.1323 41.7141C22.1783 41.558 22.0326 41.3793 21.8106 41.3125C21.5861 41.2432 21.3641 41.315 21.3181 41.4695C21.2728 41.6247 21.4177 41.8042 21.6414 41.871ZM23.7412 41.8306C23.7462 41.9926 23.5577 42.1262 23.324 42.1295C23.0886 42.1345 22.8985 42.0043 22.896 41.8457C22.896 41.6812 23.0803 41.5493 23.3156 41.5451C23.5494 41.5401 23.7412 41.6712 23.7412 41.8306ZM24.8719 41.9403C25.1039 41.8969 25.2664 41.7341 25.2388 41.5771C25.2086 41.4169 25.0009 41.3217 24.768 41.3618C24.5402 41.4043 24.3752 41.5655 24.4028 41.7283C24.4321 41.8835 24.6441 41.9812 24.8719 41.9403Z" fill="black"/>
</svg>
