<svg width="59" height="59" viewBox="0 0 59 59" fill="none" xmlns="http://www.w3.org/2000/svg">
<path fill-rule="evenodd" clip-rule="evenodd" d="M14.75 0C6.6038 0 0 6.6038 0 14.75V44.25C0 52.3962 6.6038 59 14.75 59H44.25C52.3962 59 59 52.3962 59 44.25V14.75C59 6.6038 52.3962 0 44.25 0H14.75ZM8.60434 29.0863C8.59152 35.7311 13.8531 41.029 20.4809 41.0448C27.0346 41.0602 32.4021 35.8005 32.4232 29.3423C32.4446 22.6796 27.2209 17.3774 20.5936 17.3358C14.004 17.2944 8.61707 22.5742 8.60434 29.0863ZM45.8687 28.5192C45.8687 34.766 43.0737 39.83 39.626 39.83C36.1783 39.83 33.3833 34.766 33.3833 28.5192C33.3833 22.2724 36.1783 17.2084 39.626 17.2084C43.0737 17.2084 45.8687 22.2724 45.8687 28.5192ZM48.8464 38.6798C50.0665 38.6798 51.0553 34.2166 51.0553 28.7109C51.0553 23.2053 50.0665 18.7421 48.8464 18.7421C47.6263 18.7421 46.6374 23.2053 46.6374 28.7109C46.6374 34.2166 47.6263 38.6798 48.8464 38.6798Z" fill="black"/>
</svg>
