<svg width="59" height="59" viewBox="0 0 59 59" fill="none" xmlns="http://www.w3.org/2000/svg">
<path fill-rule="evenodd" clip-rule="evenodd" d="M14.75 0C6.6038 0 0 6.6038 0 14.75V44.25C0 52.3962 6.6038 59 14.75 59H44.25C52.3962 59 59 52.3962 59 44.25V14.75C59 6.6038 52.3962 0 44.25 0H14.75ZM25.3097 34.3779L24.7934 42.177C25.5493 42.177 25.8996 41.8267 26.3237 41.4026L29.9928 37.8442L37.6259 43.486C39.0271 44.2604 40.0412 43.8548 40.3915 42.177L45.4065 18.5585C45.9228 16.4935 44.6321 15.5532 43.2862 16.1617L13.8415 27.5192C11.8318 28.3304 11.8503 29.4551 13.4728 29.916L21.0321 32.3129L38.5109 21.2689C39.3406 20.771 40.0965 21.0476 39.4696 21.6192L25.3097 34.3779Z" fill="black"/>
</svg>
