<svg width="60" height="59" viewBox="0 0 60 59" fill="none" xmlns="http://www.w3.org/2000/svg">
<path fill-rule="evenodd" clip-rule="evenodd" d="M15.25 0C7.1038 0 0.5 6.6038 0.5 14.75V44.25C0.5 52.3962 7.1038 59 15.25 59H44.75C52.8962 59 59.5 52.3962 59.5 44.25V14.75C59.5 6.6038 52.8962 0 44.75 0H15.25ZM43.6847 23.5403C43.6847 23.2462 43.6787 22.9545 43.6656 22.6639C44.9886 21.7078 46.1388 20.5146 47.045 19.156C45.8316 19.6954 44.5254 20.0586 43.1548 20.2229C44.5539 19.3834 45.6268 18.0569 46.1341 16.4756C44.8242 17.2508 43.3751 17.8152 41.8319 18.12C40.5947 16.8019 38.8347 15.979 36.8867 15.979C33.1441 15.979 30.1101 19.0131 30.1101 22.7533C30.1101 23.2843 30.1696 23.8023 30.2851 24.2989C24.654 24.0155 19.6612 21.3196 16.3199 17.2198C15.7377 18.2212 15.4019 19.3834 15.4019 20.6254C15.4019 22.9759 16.5986 25.0514 18.4169 26.2648C17.3059 26.2303 16.2616 25.9242 15.3483 25.4182C15.3471 25.4456 15.3471 25.4729 15.3471 25.5039C15.3471 28.7856 17.6834 31.5244 20.7829 32.1459C20.2137 32.3007 19.6148 32.3841 18.9968 32.3841C18.5609 32.3841 18.1358 32.3412 17.7227 32.2626C18.5859 34.9537 21.0865 36.9125 24.0527 36.9685C21.7331 38.7856 18.8122 39.868 15.6376 39.868C15.0911 39.868 14.5517 39.837 14.0206 39.7739C17.0201 41.6958 20.5805 42.8175 24.4076 42.8175C36.8688 42.8175 43.6847 32.4936 43.6847 23.5403Z" fill="black"/>
</svg>
